<!-- Generator: Adobe Illustrator 20.1.0, SVG Export Plug-In  -->
<svg version="1.1"
	 xmlns="http://www.w3.org/2000/svg" xmlns:xlink="http://www.w3.org/1999/xlink" xmlns:a="http://ns.adobe.com/AdobeSVGViewerExtensions/3.0/"
	 x="0px" y="0px" width="1186.32px" height="467.999px" viewBox="0 0 1186.32 467.999"
	 style="enable-background:new 0 0 1186.32 467.999;" xml:space="preserve">
<style type="text/css">
	.st0{fill:none;}
	.st1{fill-rule:evenodd;clip-rule:evenodd;fill:#231F20;}
</style>
<defs>
</defs>
<g>
	<g>
		<g>
			<g>
				<g>
					<g>
						<rect x="6.5" y="273.01" class="st0" width="176.929" height="194.981"/>
					</g>
					<rect x="137.516" y="363.603" class="st1" width="32.841" height="19.5"/>
					<rect x="78.614" y="363.603" class="st1" width="32.841" height="19.5"/>
					<rect x="19.906" y="363.603" class="st1" width="32.841" height="19.5"/>
				</g>
			</g>
			<g>
				<g>
					<g>
						<rect x="183.429" y="273.01" class="st0" width="176.929" height="194.981"/>
					</g>
					<rect x="314.445" y="363.603" class="st1" width="32.841" height="19.5"/>
					<rect x="255.543" y="363.603" class="st1" width="32.841" height="19.5"/>
					<rect x="196.834" y="363.603" class="st1" width="32.841" height="19.5"/>
				</g>
			</g>
			<g>
				<g>
					<g>
						<rect x="360.357" y="273.01" class="st0" width="176.928" height="194.981"/>
					</g>
					<rect x="491.373" y="363.603" class="st1" width="32.841" height="19.5"/>
					<rect x="432.471" y="363.603" class="st1" width="32.841" height="19.5"/>
					<rect x="373.763" y="363.603" class="st1" width="32.841" height="19.5"/>
				</g>
			</g>
			<g>
				<g>
					<g>
						<rect x="537.286" y="273.01" class="st0" width="176.929" height="194.981"/>
					</g>
					<rect x="668.302" y="363.603" class="st1" width="32.841" height="19.5"/>
					<rect x="609.4" y="363.603" class="st1" width="32.841" height="19.5"/>
					<rect x="550.692" y="363.603" class="st1" width="32.84" height="19.5"/>
				</g>
			</g>
			<g>
				<g>
					<g>
						<rect x="714.215" y="273.01" class="st0" width="176.929" height="194.981"/>
					</g>
					<rect x="845.231" y="363.603" class="st1" width="32.84" height="19.5"/>
					<rect x="786.329" y="363.603" class="st1" width="32.841" height="19.5"/>
					<rect x="727.62" y="363.603" class="st1" width="32.84" height="19.5"/>
				</g>
			</g>
			<g>
				<g>
					<g>
						<path class="st0" d="M891.143,467.99c0,0,44.232,0,88.464,0c7.127,0,14.255,0,21.271,0c10.86-0.065,21.682,0.293,31.8-0.755
							c10.105-0.953,19.535-2.753,28.35-5.129c8.8-2.371,16.902-5.308,24.137-8.521c14.496-6.414,25.586-13.674,32.927-19.207
							c3.696-2.748,6.467-5.074,8.362-6.65c1.879-1.596,2.849-2.484,2.849-2.484L991.328,273c0.006,0.005,0.005,0.005,0.009,0.01
							c-3.199,0-7.464,0-11.729,0c-44.232,0-88.464,0-88.464,0V467.99z"/>
					</g>
					<path class="st1" d="M1019.973,363.401l6.029,19.035c0,0,2.287-0.195,5.679-0.772c3.385-0.6,7.869-1.608,12.22-3.064
						c4.352-1.453,8.544-3.333,11.606-4.894c1.519-0.806,2.796-1.455,3.648-1.986c0.864-0.509,1.357-0.8,1.357-0.8l-11.661-16.506
						c0,0-0.414,0.238-1.137,0.654c-0.712,0.437-1.785,0.959-3.055,1.615c-2.566,1.262-6.079,2.772-9.724,3.907
						c-3.646,1.135-7.395,1.881-10.223,2.306C1021.879,363.298,1019.973,363.401,1019.973,363.401z"/>
					<polygon class="st1" points="963.258,363.603 963.258,383.103 996.714,383.103 995.761,363.603 					"/>
					<rect x="904.549" y="363.603" class="st1" width="32.841" height="19.5"/>
				</g>
			</g>
			<g>
				<g>
					<g>
						<path class="st0" d="M1129.305,425.243c0,0,0.978-0.878,2.812-2.525c1.782-1.703,4.444-4.153,7.588-7.516
							c6.311-6.673,14.908-16.746,22.953-30.372c4.02-6.802,7.917-14.458,11.328-22.875c3.408-8.416,6.284-17.605,8.412-27.334
							c2.119-9.713,3.493-20.008,3.787-30.867c0.2-5.408,0.114-10.909,0.133-16.413c0-5.136,0-10.292,0-15.449
							c0-44.232,0-88.464,0-88.464h-194.98c0,0,0,44.232,0,88.464c0,0.406,0,0.812,0,1.117c-0.023-0.02,0.009,0.008-0.009-0.01
							L1129.305,425.243z"/>
					</g>
					<rect x="1081.93" y="196.501" class="st1" width="19.5" height="32.84"/>
					<polygon class="st1" points="1081.93,287.165 1101.414,290.209 1101.43,255.402 1081.93,255.402 					"/>
					<path class="st1" d="M1067.333,338.386l15.342,13.198c0,0,0.356-0.449,0.979-1.234c0.644-0.77,1.453-1.953,2.466-3.342
						c1.963-2.82,4.396-6.718,6.427-10.831c2.057-4.101,3.661-8.409,4.712-11.68c0.509-1.642,0.937-3.01,1.162-3.989
						c0.248-0.972,0.39-1.527,0.39-1.527l-18.451-7.892c0,0-0.107,0.465-0.295,1.278c-0.166,0.819-0.5,1.963-0.892,3.339
						c-0.818,2.739-2.081,6.351-3.746,9.787c-1.643,3.445-3.636,6.708-5.25,9.069c-0.838,1.159-1.497,2.154-2.034,2.794
						C1067.628,338.011,1067.333,338.386,1067.333,338.386z"/>
				</g>
			</g>
			<g>
				<g>
					<g>
						<rect x="991.337" y="6.5" class="st0" width="194.98" height="176.929"/>
					</g>
					<rect x="1081.93" y="19.572" class="st1" width="19.5" height="32.841"/>
					<rect x="1081.93" y="78.474" class="st1" width="19.5" height="32.84"/>
					<rect x="1081.93" y="137.182" class="st1" width="19.5" height="32.841"/>
				</g>
			</g>
		</g>
	</g>
</g>
</svg>