<!-- Generator: Adobe Illustrator 20.1.0, SVG Export Plug-In  -->
<svg version="1.1"
	 xmlns="http://www.w3.org/2000/svg" xmlns:xlink="http://www.w3.org/1999/xlink" xmlns:a="http://ns.adobe.com/AdobeSVGViewerExtensions/3.0/"
	 x="0px" y="0px" width="2180.05px" height="363.34px" viewBox="0 0 2180.05 363.34"
	 style="enable-background:new 0 0 2180.05 363.34;" xml:space="preserve">
<style type="text/css">
	.st0{fill:#FFFFFF;}
	.st1{fill-rule:evenodd;clip-rule:evenodd;fill:#FFFFFF;}
</style>
<defs>
</defs>
<g>
	<g>
		<g>
			<rect class="st0" width="33.34" height="19.5"/>
			<rect x="59.59" class="st0" width="33.34" height="19.5"/>
			<rect x="119.38" class="st0" width="33.33" height="19.5"/>
		</g>
		<rect x="119.38" class="st1" width="33.33" height="19.5"/>
		<rect x="59.59" class="st1" width="33.34" height="19.5"/>
		<rect class="st1" width="33.34" height="19.5"/>
	</g>
	<g>
		<g>
			<rect x="179.59" class="st0" width="33.33" height="19.5"/>
			<rect x="239.17" class="st0" width="33.34" height="19.5"/>
			<rect x="298.96" class="st0" width="33.33" height="19.5"/>
		</g>
		<rect x="298.96" class="st1" width="33.33" height="19.5"/>
		<rect x="239.17" class="st1" width="33.34" height="19.5"/>
		<rect x="179.59" class="st1" width="33.33" height="19.5"/>
	</g>
	<g>
		<g>
			<rect x="359.17" class="st0" width="33.33" height="19.5"/>
			<rect x="418.76" class="st0" width="33.33" height="19.5"/>
			<rect x="478.54" class="st0" width="33.34" height="19.5"/>
		</g>
		<rect x="478.54" class="st1" width="33.34" height="19.5"/>
		<rect x="418.76" class="st1" width="33.33" height="19.5"/>
		<rect x="359.17" class="st1" width="33.33" height="19.5"/>
	</g>
	<g>
		<g>
			<rect x="538.75" class="st0" width="33.33" height="19.5"/>
			<rect x="598.34" class="st0" width="33.33" height="19.5"/>
			<rect x="658.13" class="st0" width="33.33" height="19.5"/>
		</g>
		<rect x="658.13" class="st1" width="33.33" height="19.5"/>
		<rect x="598.34" class="st1" width="33.33" height="19.5"/>
		<rect x="538.75" class="st1" width="33.33" height="19.5"/>
	</g>
	<g>
		<g>
			<rect x="718.33" class="st0" width="33.34" height="19.5"/>
			<rect x="777.92" class="st0" width="33.34" height="19.5"/>
			<rect x="837.71" class="st0" width="33.33" height="19.5"/>
		</g>
		<rect x="837.71" class="st1" width="33.33" height="19.5"/>
		<rect x="777.92" class="st1" width="33.34" height="19.5"/>
		<rect x="718.33" class="st1" width="33.34" height="19.5"/>
	</g>
	<g>
		<g>
			<rect x="897.92" class="st0" width="33.33" height="19.5"/>
			<rect x="957.51" class="st0" width="33.33" height="19.5"/>
			<rect x="1017.29" class="st0" width="33.33" height="19.5"/>
		</g>
		<rect x="1017.29" class="st1" width="33.33" height="19.5"/>
		<rect x="957.51" class="st1" width="33.33" height="19.5"/>
		<rect x="897.92" class="st1" width="33.33" height="19.5"/>
	</g>
	<g>
		<g>
			<rect x="1077.5" class="st0" width="33.33" height="19.5"/>
			<rect x="1137.09" class="st0" width="33.33" height="19.5"/>
			<rect x="1196.87" class="st0" width="33.34" height="19.5"/>
		</g>
		<rect x="1196.87" class="st1" width="33.34" height="19.5"/>
		<rect x="1137.09" class="st1" width="33.33" height="19.5"/>
		<rect x="1077.5" class="st1" width="33.33" height="19.5"/>
	</g>
	<g>
		<g>
			<rect x="1257.08" class="st0" width="33.33" height="19.5"/>
			<rect x="1316.67" class="st0" width="33.33" height="19.5"/>
			<rect x="1376.46" class="st0" width="33.33" height="19.5"/>
		</g>
		<rect x="1376.46" class="st1" width="33.33" height="19.5"/>
		<rect x="1316.67" class="st1" width="33.33" height="19.5"/>
		<rect x="1257.08" class="st1" width="33.33" height="19.5"/>
	</g>
	<g>
		<g>
			<rect x="1436.66" class="st0" width="33.34" height="19.5"/>
			<rect x="1496.25" class="st0" width="33.34" height="19.5"/>
			<rect x="1556.04" class="st0" width="33.33" height="19.5"/>
		</g>
		<rect x="1556.04" class="st1" width="33.33" height="19.5"/>
		<rect x="1496.25" class="st1" width="33.34" height="19.5"/>
		<rect x="1436.66" class="st1" width="33.34" height="19.5"/>
	</g>
	<g>
		<g>
			<rect x="1616.25" class="st0" width="33.33" height="19.5"/>
			<rect x="1675.84" class="st0" width="33.33" height="19.5"/>
			<rect x="1735.62" class="st0" width="33.33" height="19.5"/>
		</g>
		<rect x="1735.62" class="st1" width="33.33" height="19.5"/>
		<rect x="1675.84" class="st1" width="33.33" height="19.5"/>
		<rect x="1616.25" class="st1" width="33.33" height="19.5"/>
	</g>
	<g>
		<g>
			<rect x="1795.83" class="st0" width="33.33" height="19.5"/>
			<rect x="1855.42" class="st0" width="33.33" height="19.5"/>
			<rect x="1915.2" class="st0" width="33.34" height="19.5"/>
		</g>
		<rect x="1915.2" class="st1" width="33.34" height="19.5"/>
		<rect x="1855.42" class="st1" width="33.33" height="19.5"/>
		<rect x="1795.83" class="st1" width="33.33" height="19.5"/>
	</g>
	<g>
		<g>
			<rect x="1975.41" class="st0" width="33.33" height="19.5"/>
			<rect x="2035" class="st0" width="33.33" height="19.5"/>
			<path class="st0" d="M2133.76,9.21c0,0-0.13-0.07-0.37-0.2c-0.24-0.12-0.61-0.29-1.07-0.5c-0.92-0.42-2.22-1.1-3.84-1.74
				c-3.2-1.39-7.61-2.92-12.13-4.04c-4.51-1.12-9.12-1.86-12.6-2.15c-3.48-0.3-5.81-0.36-5.81-0.36l-4.91,19.28
				c0,0,1.94,0,4.84,0.15c2.9,0.15,6.75,0.66,10.52,1.5c3.78,0.84,7.48,2.04,10.16,3.16c1.36,0.51,2.44,1.06,3.22,1.39
				c0.78,0.34,1.2,0.57,1.2,0.57L2133.76,9.21z"/>
		</g>
		<path class="st1" d="M2133.76,9.21c0,0-0.13-0.07-0.37-0.2c-0.24-0.12-0.61-0.29-1.07-0.5c-0.92-0.42-2.22-1.1-3.84-1.74
			c-3.2-1.39-7.61-2.92-12.13-4.04c-4.51-1.12-9.12-1.86-12.6-2.15c-3.48-0.3-5.81-0.36-5.81-0.36l-4.91,19.28c0,0,1.94,0,4.84,0.15
			c2.9,0.15,6.75,0.66,10.52,1.5c3.78,0.84,7.48,2.04,10.16,3.16c1.36,0.51,2.44,1.06,3.22,1.39c0.78,0.34,1.2,0.57,1.2,0.57
			L2133.76,9.21z"/>
		<rect x="2035" class="st1" width="33.33" height="19.5"/>
		<rect x="1975.41" class="st1" width="33.33" height="19.5"/>
	</g>
	<g>
		<g>
			<path class="st0" d="M2157.93,67.86l18.12-8.7c0,0-0.17-0.55-0.47-1.53c-0.34-0.95-0.84-2.32-1.43-3.96
				c-1.28-3.25-3.22-7.49-5.55-11.52c-2.32-4.03-5.02-7.84-7.23-10.54c-1.06-1.38-2.06-2.44-2.72-3.22
				c-0.66-0.77-1.07-1.19-1.07-1.19l-14.71,13.91c0,0,0.34,0.35,0.89,0.99c0.54,0.66,1.38,1.53,2.25,2.69
				c1.84,2.25,4.06,5.44,5.95,8.82c1.9,3.37,3.46,6.93,4.48,9.65c0.46,1.37,0.85,2.52,1.12,3.32
				C2157.8,67.4,2157.93,67.86,2157.93,67.86z"/>
			<rect x="2160.55" y="150.42" class="st0" width="19.5" height="33.34"/>
			<path class="st0" d="M2160.55,123.97h19.5c0,0,0-8.51,0-17.03c0-4.7,0-9.41-0.01-12.94c-0.03-3.52-0.06-5.86-0.06-5.86
				l-19.43,3.87V123.97z"/>
		</g>
		<rect x="2160.55" y="150.42" class="st1" width="19.5" height="33.34"/>
		<path class="st1" d="M2180.05,123.97c0,0,0-8.51,0-17.03c0-4.7,0-9.41-0.01-12.94c-0.03-3.52-0.06-5.86-0.06-5.86l-19.43,3.87
			v31.96H2180.05z"/>
		<path class="st1" d="M2176.05,59.16c0,0-0.17-0.55-0.47-1.53c-0.34-0.95-0.84-2.32-1.43-3.96c-1.28-3.25-3.22-7.49-5.55-11.52
			c-2.32-4.03-5.02-7.84-7.23-10.54c-1.06-1.38-2.06-2.44-2.72-3.22c-0.66-0.77-1.07-1.19-1.07-1.19l-14.71,13.91
			c0,0,0.34,0.35,0.89,0.99c0.54,0.66,1.38,1.53,2.25,2.69c1.84,2.25,4.06,5.44,5.95,8.82c1.9,3.37,3.46,6.93,4.48,9.65
			c0.46,1.37,0.85,2.52,1.12,3.32c0.24,0.82,0.37,1.28,0.37,1.28L2176.05,59.16z"/>
	</g>
	<g>
		<g>
			<rect x="2160.55" y="330" class="st0" width="19.5" height="33.34"/>
			<rect x="2160.55" y="270.22" class="st0" width="19.5" height="33.33"/>
			<rect x="2160.55" y="210.63" class="st0" width="19.5" height="33.33"/>
		</g>
		<rect x="2160.55" y="330" class="st1" width="19.5" height="33.34"/>
		<rect x="2160.55" y="270.22" class="st1" width="19.5" height="33.33"/>
		<rect x="2160.55" y="210.63" class="st1" width="19.5" height="33.33"/>
	</g>
</g>
</svg>