<!-- Generator: Adobe Illustrator 20.1.0, SVG Export Plug-In  -->
<svg version="1.1"
	 xmlns="http://www.w3.org/2000/svg" xmlns:xlink="http://www.w3.org/1999/xlink" xmlns:a="http://ns.adobe.com/AdobeSVGViewerExtensions/3.0/"
	 x="0px" y="0px" width="3078.75px" height="1522.909px" viewBox="0 0 3078.75 1522.909"
	 style="enable-background:new 0 0 3078.75 1522.909;" xml:space="preserve">
<style type="text/css">
	.st0{fill:none;}
	.st1{fill-rule:evenodd;clip-rule:evenodd;fill:#231F20;}
</style>
<defs>
</defs>
<g>
	<g>
		<g>
			<g>
				<g>
					<g>
						<path class="st0" d="M2883.763,194.982v151.1h194.98c0,0,0-44.147,0-88.295c0-22.074,0-44.147,0-60.703
							c0-7.507,0-14.389,0-20.489c0.034-6.729-0.076-12.583-0.327-17.353c-0.183-2.372-0.347-4.489-0.489-6.331
							c-0.173-1.831-0.386-3.356-0.536-4.607c-0.326-2.49-0.5-3.818-0.5-3.818L2883.763,194.982z"/>
					</g>
					<rect x="2968.651" y="300.257" class="st1" width="19.5" height="32.778"/>
					<rect x="2968.651" y="241.468" class="st1" width="19.5" height="32.778"/>
					<polygon class="st1" points="2988.151,182.015 2968.651,184.437 2968.651,215.65 2988.151,215.65 					"/>
				</g>
			</g>
			<g>
				<g>
					<g>
						<rect x="2883.763" y="346.082" class="st0" width="194.98" height="176.59"/>
					</g>
					<rect x="2968.651" y="476.847" class="st1" width="19.5" height="32.778"/>
					<rect x="2968.651" y="418.058" class="st1" width="19.5" height="32.778"/>
					<rect x="2968.651" y="359.462" class="st1" width="19.5" height="32.778"/>
				</g>
			</g>
			<g>
				<g>
					<g>
						<rect x="2883.763" y="522.672" class="st0" width="194.98" height="176.59"/>
					</g>
					<rect x="2968.651" y="653.438" class="st1" width="19.5" height="32.778"/>
					<rect x="2968.651" y="594.649" class="st1" width="19.5" height="32.778"/>
					<rect x="2968.651" y="536.052" class="st1" width="19.5" height="32.778"/>
				</g>
			</g>
			<g>
				<g>
					<g>
						<rect x="2883.763" y="699.262" class="st0" width="194.98" height="176.59"/>
					</g>
					<rect x="2968.651" y="830.027" class="st1" width="19.5" height="32.778"/>
					<rect x="2968.651" y="771.238" class="st1" width="19.5" height="32.778"/>
					<rect x="2968.651" y="712.642" class="st1" width="19.5" height="32.778"/>
				</g>
			</g>
			<g>
				<g>
					<g>
						<rect x="2883.763" y="875.853" class="st0" width="194.98" height="176.59"/>
					</g>
					<rect x="2968.651" y="1006.618" class="st1" width="19.5" height="32.778"/>
					<rect x="2968.651" y="947.829" class="st1" width="19.5" height="32.778"/>
					<rect x="2968.651" y="889.233" class="st1" width="19.5" height="32.778"/>
				</g>
			</g>
			<g>
				<g>
					<g>
						<rect x="2883.763" y="1052.443" class="st0" width="194.98" height="176.59"/>
					</g>
					<rect x="2968.651" y="1183.208" class="st1" width="19.5" height="32.778"/>
					<rect x="2968.651" y="1124.419" class="st1" width="19.5" height="32.778"/>
					<rect x="2968.651" y="1065.823" class="st1" width="19.5" height="32.778"/>
				</g>
			</g>
			<g>
				<g>
					<g>
						<path class="st0" d="M2883.763,1229.033c0,0,0,44.147,0,88.295c0,3.847,0,7.694,0,10.58c-0.004-0.003-0.011-0.009-0.011-0.009
							l0.003,0.001l151.001,139.367c0,0,0.871-0.981,2.504-2.822c0.824-0.914,1.778-2.094,2.917-3.468
							c1.14-1.373,2.43-2.967,3.809-4.805c0.693-0.917,1.423-1.882,2.188-2.895c0.733-1.037,1.501-2.121,2.301-3.251
							c1.619-2.25,3.209-4.791,4.933-7.491c3.342-5.466,6.843-11.808,10.129-18.996c3.304-7.176,6.331-15.226,8.791-23.98
							c2.466-8.771,4.394-18.153,5.456-28.188c1.143-10.062,0.934-20.838,0.96-31.685c0-7.375,0-14.866,0-22.358
							c0-44.148,0-88.295,0-88.295H2883.763z"/>
					</g>
					<path class="st1" d="M2987.582,1361.963l-19.19-6.294c0,0-0.015,0.447-0.112,1.221c-0.108,0.773-0.217,1.884-0.43,3.204
						c-0.414,2.644-1.204,6.131-2.312,9.523c-0.539,1.702-1.201,3.358-1.823,4.911c-0.69,1.523-1.313,2.955-1.951,4.132
						c-0.59,1.201-1.157,2.162-1.548,2.837c-0.389,0.676-0.611,1.063-0.611,1.063l16.863,12.151c0,0,0.275-0.471,0.756-1.294
						c0.483-0.822,1.182-1.992,1.915-3.454c0.788-1.434,1.568-3.174,2.425-5.03c0.385-0.946,0.782-1.924,1.186-2.918
						c0.41-0.992,0.733-2.034,1.105-3.058c1.402-4.127,2.423-8.376,2.979-11.599c0.285-1.609,0.441-2.964,0.587-3.907
						c0.075-0.471,0.1-0.845,0.126-1.1C2987.569,1362.098,2987.582,1361.963,2987.582,1361.963z"/>
					<polygon class="st1" points="2988.151,1301.009 2968.651,1301.009 2968.651,1333.027 2988.151,1334.203 					"/>
					<rect x="2968.651" y="1242.413" class="st1" width="19.5" height="32.778"/>
				</g>
			</g>
			<g>
				<g>
					<g>
						<path class="st0" d="M2883.756,1327.901C2883.756,1327.901,2883.769,1327.914,2883.756,1327.901
							c-0.001-0.001-0.002-0.002,0.007,0.007c-0.01-0.01-0.013-0.014-0.001-0.001c-0.014-0.016,0.005,0.005-0.007-0.009
							c0,0,0.005,0.007,0.009,0.011c-0.526,0-1.227,0-1.928,0c-44.147,0-88.295,0-88.295,0v194.98c0,0,44.148,0,88.295,0
							c4.875,0,9.75,0,14.606,0c2.748,0,5.491,0,8.226,0c1.368,0,2.733,0,4.096,0c1.361-0.01,2.713-0.062,4.066-0.09
							c10.858-0.181,21.2-1.452,30.904-3.478c9.735-2.031,18.934-4.821,27.373-8.13c8.438-3.316,16.119-7.13,22.953-11.067
							c3.426-1.957,6.609-3.994,9.612-5.965c2.954-2.042,5.745-3.996,8.272-5.961c2.564-1.915,4.854-3.846,6.988-5.61
							c2.103-1.799,3.996-3.499,5.693-5.045c1.657-1.589,3.137-3.009,4.425-4.243c1.238-1.284,2.291-2.376,3.145-3.262
							c1.708-1.771,2.563-2.768,2.563-2.768L2883.756,1327.901z"/>
					</g>
					<rect x="2806.588" y="1412.796" class="st1" width="32.778" height="19.5"/>
					<polygon class="st1" points="2899.172,1432.29 2896.294,1412.796 2865.377,1412.796 2865.377,1432.296 					"/>
					<path class="st1" d="M2957.82,1415.55l-13.451-15.919c0,0-0.351,0.275-0.966,0.756c-0.641,0.445-1.538,1.109-2.643,1.862
						c-2.223,1.489-5.312,3.291-8.552,4.785c-3.232,1.514-6.61,2.697-9.193,3.394c-1.281,0.389-2.372,0.622-3.133,0.797
						c-0.76,0.176-1.195,0.276-1.195,0.276l7.865,18.823c0,0,0.529-0.129,1.456-0.355c0.926-0.227,2.255-0.531,3.815-1.023
						c3.144-0.893,7.255-2.383,11.188-4.265c3.944-1.858,7.705-4.083,10.411-5.916c1.348-0.924,2.441-1.738,3.219-2.289
						C2957.392,1415.886,2957.82,1415.55,2957.82,1415.55z"/>
				</g>
			</g>
			<g>
				<g>
					<g>
						<rect x="2616.95" y="1327.908" class="st0" width="176.59" height="194.98"/>
					</g>
					<rect x="2629.997" y="1412.796" class="st1" width="32.778" height="19.5"/>
					<rect x="2688.786" y="1412.796" class="st1" width="32.778" height="19.5"/>
					<rect x="2747.383" y="1412.796" class="st1" width="32.778" height="19.5"/>
				</g>
			</g>
			<g>
				<g>
					<g>
						<rect x="2440.36" y="1327.908" class="st0" width="176.59" height="194.98"/>
					</g>
					<rect x="2453.407" y="1412.796" class="st1" width="32.778" height="19.5"/>
					<rect x="2512.196" y="1412.796" class="st1" width="32.778" height="19.5"/>
					<rect x="2570.792" y="1412.796" class="st1" width="32.778" height="19.5"/>
				</g>
			</g>
			<g>
				<g>
					<g>
						<rect x="2263.77" y="1327.908" class="st0" width="176.59" height="194.98"/>
					</g>
					<rect x="2276.817" y="1412.796" class="st1" width="32.778" height="19.5"/>
					<rect x="2335.606" y="1412.796" class="st1" width="32.778" height="19.5"/>
					<rect x="2394.202" y="1412.796" class="st1" width="32.778" height="19.5"/>
				</g>
			</g>
			<g>
				<g>
					<g>
						<rect x="2087.18" y="1327.908" class="st0" width="176.59" height="194.98"/>
					</g>
					<rect x="2100.227" y="1412.796" class="st1" width="32.778" height="19.5"/>
					<rect x="2159.016" y="1412.796" class="st1" width="32.778" height="19.5"/>
					<rect x="2217.612" y="1412.796" class="st1" width="32.778" height="19.5"/>
				</g>
			</g>
			<g>
				<g>
					<g>
						<rect x="1910.589" y="1327.908" class="st0" width="176.59" height="194.98"/>
					</g>
					<rect x="1923.636" y="1412.796" class="st1" width="32.778" height="19.5"/>
					<rect x="1982.426" y="1412.796" class="st1" width="32.778" height="19.5"/>
					<rect x="2041.022" y="1412.796" class="st1" width="32.778" height="19.5"/>
				</g>
			</g>
			<g>
				<g>
					<g>
						<rect x="1733.999" y="1327.908" class="st0" width="176.59" height="194.98"/>
					</g>
					<rect x="1747.046" y="1412.796" class="st1" width="32.778" height="19.5"/>
					<rect x="1805.835" y="1412.796" class="st1" width="32.778" height="19.5"/>
					<rect x="1864.432" y="1412.796" class="st1" width="32.778" height="19.5"/>
				</g>
			</g>
			<g>
				<g>
					<g>
						<rect x="1557.409" y="1327.908" class="st0" width="176.59" height="194.98"/>
					</g>
					<rect x="1570.456" y="1412.796" class="st1" width="32.778" height="19.5"/>
					<rect x="1629.245" y="1412.796" class="st1" width="32.778" height="19.5"/>
					<rect x="1687.841" y="1412.796" class="st1" width="32.778" height="19.5"/>
				</g>
			</g>
			<g>
				<g>
					<g>
						<rect x="1380.819" y="1327.908" class="st0" width="176.59" height="194.98"/>
					</g>
					<rect x="1393.866" y="1412.796" class="st1" width="32.778" height="19.5"/>
					<rect x="1452.655" y="1412.796" class="st1" width="32.778" height="19.5"/>
					<rect x="1511.251" y="1412.796" class="st1" width="32.778" height="19.5"/>
				</g>
			</g>
			<g>
				<g>
					<g>
						<rect x="1204.229" y="1327.908" class="st0" width="176.59" height="194.98"/>
					</g>
					<rect x="1217.275" y="1412.796" class="st1" width="32.778" height="19.5"/>
					<rect x="1276.064" y="1412.796" class="st1" width="32.778" height="19.5"/>
					<rect x="1334.661" y="1412.796" class="st1" width="32.778" height="19.5"/>
				</g>
			</g>
			<g>
				<g>
					<g>
						<rect x="1027.638" y="1327.908" class="st0" width="176.59" height="194.98"/>
					</g>
					<rect x="1040.685" y="1412.796" class="st1" width="32.778" height="19.5"/>
					<rect x="1099.474" y="1412.796" class="st1" width="32.778" height="19.5"/>
					<rect x="1158.071" y="1412.796" class="st1" width="32.778" height="19.5"/>
				</g>
			</g>
			<g>
				<g>
					<g>
						<rect x="851.048" y="1327.908" class="st0" width="176.59" height="194.98"/>
					</g>
					<rect x="864.095" y="1412.796" class="st1" width="32.778" height="19.5"/>
					<rect x="922.884" y="1412.796" class="st1" width="32.778" height="19.5"/>
					<rect x="981.481" y="1412.796" class="st1" width="32.778" height="19.5"/>
				</g>
			</g>
			<g>
				<g>
					<g>
						<rect x="674.458" y="1327.908" class="st0" width="176.59" height="194.98"/>
					</g>
					<rect x="687.505" y="1412.796" class="st1" width="32.778" height="19.5"/>
					<rect x="746.294" y="1412.796" class="st1" width="32.778" height="19.5"/>
					<rect x="804.89" y="1412.796" class="st1" width="32.778" height="19.5"/>
				</g>
			</g>
			<g>
				<g>
					<g>
						<rect x="497.868" y="1327.908" class="st0" width="176.59" height="194.98"/>
					</g>
					<rect x="510.915" y="1412.796" class="st1" width="32.778" height="19.5"/>
					<rect x="569.704" y="1412.796" class="st1" width="32.778" height="19.5"/>
					<rect x="628.3" y="1412.796" class="st1" width="32.778" height="19.5"/>
				</g>
			</g>
			<g>
				<g>
					<g>
						<rect x="321.277" y="1327.908" class="st0" width="176.59" height="194.98"/>
					</g>
					<rect x="334.324" y="1412.796" class="st1" width="32.778" height="19.5"/>
					<rect x="393.114" y="1412.796" class="st1" width="32.778" height="19.5"/>
					<rect x="451.71" y="1412.796" class="st1" width="32.778" height="19.5"/>
				</g>
			</g>
			<g>
				<g>
					<g>
						<path class="st0" d="M321.277,1327.908H194.984l-95.936,179.638c0,0,1.204,0.534,3.462,1.534
							c1.127,0.506,2.531,1.098,4.203,1.745c1.672,0.645,3.573,1.445,5.763,2.181c8.714,3.067,21.41,6.871,37.377,8.723
							c8.006,0.958,16.953,1.267,26.451,1.16c7.712,0,15.844,0,24.257,0c10.347,0,21.384,0,32.421,0c44.148,0,88.295,0,88.295,0
							V1327.908z"/>
					</g>
					<path class="st1" d="M190.196,1432.296l0.895-19.5c0,0-7.135,0-14.27,0c-3.566,0.006-7.138,0.007-9.802-0.275
						c-1.334-0.104-2.435-0.292-3.21-0.375c-0.388-0.046-0.691-0.089-0.896-0.131c-0.206-0.037-0.315-0.056-0.315-0.056
						l-7.31,18.971c0,0,0.134,0.026,0.385,0.074c0.25,0.054,0.62,0.113,1.092,0.177c0.946,0.12,2.288,0.366,3.916,0.522
						c3.25,0.396,7.611,0.489,11.982,0.538c4.374,0.055,8.763,0.055,12.052,0.055
						C188.002,1432.296,190.196,1432.296,190.196,1432.296z"/>
					<rect x="216.523" y="1412.796" class="st1" width="32.778" height="19.5"/>
					<rect x="275.12" y="1412.796" class="st1" width="32.778" height="19.5"/>
				</g>
			</g>
			<g>
				<g>
					<g>
						<path class="st0" d="M194.984,1327.908C194.988,1327.904,194.988,1327.904,194.984,1327.908c0-31.402,0-62.805,0-62.805H0.004
							c0,0,0,11.037,0,27.592c0,8.278,0,17.935,0,28.282c0,8.099,0,16.469,0,24.973c0.008,2.714-0.019,5.446,0.019,8.174
							c0.072,2.722,0.145,5.452,0.218,8.187c0.179,2.705,0.385,5.412,0.618,8.114c0.298,2.668,0.64,5.325,0.997,7.979
							c1.592,10.518,4.162,20.832,7.561,30.656c3.402,9.825,7.682,19.13,12.525,27.72c9.707,17.197,21.799,31.321,33.436,41.9
							c11.656,10.615,22.778,17.774,30.779,22.295c2.013,1.115,3.828,2.08,5.407,2.919c1.583,0.831,2.96,1.48,4.066,2.027
							c1.111,0.537,1.963,0.948,2.538,1.226c0.582,0.263,0.881,0.398,0.881,0.398L194.984,1327.908z"/>
					</g>
					<rect x="90.597" y="1278.151" class="st1" width="19.5" height="32.778"/>
					<path class="st1" d="M92.973,1372.351l18.732-8.161c0,0-0.1-0.435-0.275-1.195c-0.163-0.763-0.34-1.864-0.582-3.18
						c-0.391-2.646-0.747-6.202-0.751-9.773c0-7.135,0-14.27,0-14.27l-19.5,1.806c0,0-0.041,8.79,0.129,17.515
						c0.088,4.364,0.595,8.701,1.124,11.927c0.316,1.604,0.555,2.946,0.767,3.875C92.844,1371.821,92.973,1372.351,92.973,1372.351z
						"/>
					<path class="st1" d="M129.092,1421.144l11.989-16.965c0,0-0.394-0.209-1.055-0.624c-0.651-0.431-1.61-1.001-2.707-1.766
						c-2.216-1.5-5.022-3.718-7.613-6.17c-2.589-2.453-4.973-5.123-6.572-7.269c-0.85-1.034-1.439-1.986-1.91-2.608
						c-0.462-0.629-0.692-1.012-0.692-1.012l-16.541,12.624c0,0,0.284,0.465,0.85,1.234c0.574,0.761,1.308,1.913,2.345,3.177
						c1.968,2.611,4.877,5.875,8.04,8.873c3.163,2.999,6.587,5.715,9.284,7.562c1.338,0.938,2.504,1.645,3.298,2.174
						C128.613,1420.884,129.092,1421.144,129.092,1421.144z"/>
				</g>
			</g>
			<g>
				<g>
					<g>
						<rect x="0.004" y="1088.513" class="st0" width="194.98" height="176.59"/>
					</g>
					<rect x="90.597" y="1101.56" class="st1" width="19.5" height="32.778"/>
					<rect x="90.597" y="1160.349" class="st1" width="19.5" height="32.778"/>
					<rect x="90.597" y="1218.945" class="st1" width="19.5" height="32.778"/>
				</g>
			</g>
			<g>
				<g>
					<g>
						<rect x="0.004" y="911.923" class="st0" width="194.98" height="176.59"/>
					</g>
					<rect x="90.597" y="924.97" class="st1" width="19.5" height="32.778"/>
					<rect x="90.597" y="983.759" class="st1" width="19.5" height="32.778"/>
					<rect x="90.597" y="1042.356" class="st1" width="19.5" height="32.778"/>
				</g>
			</g>
			<g>
				<g>
					<g>
						<rect x="0.004" y="735.333" class="st0" width="194.98" height="176.59"/>
					</g>
					<rect x="90.597" y="748.38" class="st1" width="19.5" height="32.778"/>
					<rect x="90.597" y="807.169" class="st1" width="19.5" height="32.778"/>
					<rect x="90.597" y="865.765" class="st1" width="19.5" height="32.778"/>
				</g>
			</g>
			<g>
				<g>
					<g>
						<rect x="0.004" y="558.742" class="st0" width="194.98" height="176.59"/>
					</g>
					<rect x="90.597" y="571.79" class="st1" width="19.5" height="32.778"/>
					<rect x="90.597" y="630.579" class="st1" width="19.5" height="32.778"/>
					<rect x="90.597" y="689.175" class="st1" width="19.5" height="32.778"/>
				</g>
			</g>
			<g>
				<g>
					<g>
						<rect x="0.004" y="382.152" class="st0" width="194.98" height="176.59"/>
					</g>
					<rect x="90.597" y="395.199" class="st1" width="19.5" height="32.778"/>
					<rect x="90.597" y="453.988" class="st1" width="19.5" height="32.778"/>
					<rect x="90.597" y="512.585" class="st1" width="19.5" height="32.778"/>
				</g>
			</g>
			<g>
				<g>
					<g>
						<rect x="0.004" y="205.562" class="st0" width="194.98" height="176.59"/>
					</g>
					<rect x="90.597" y="218.609" class="st1" width="19.5" height="32.778"/>
					<rect x="90.597" y="277.398" class="st1" width="19.5" height="32.778"/>
					<rect x="90.597" y="335.994" class="st1" width="19.5" height="32.778"/>
				</g>
			</g>
			<g>
				<g>
					<g>
						<path class="st0" d="M194.984,205.562c0,0,0-4.232,0-10.58l0.008,0.007c0.004,0.01-0.016-0.019-0.008-0.007
							c1.156,0,1.928,0,1.928,0V0.002c0,0-4.818,0-13.248,0c-2.414,0-5.087,0-7.998,0c-2.908,0.01-6.064-0.039-9.406,0.082
							c-1.674,0.042-3.402,0.086-5.18,0.131c-1.764,0.096-3.567,0.238-5.421,0.379c-3.729,0.244-7.521,0.775-11.503,1.314
							c-15.751,2.401-33.782,7.469-51.38,16.464c-17.614,8.898-34.696,21.673-48.786,37.251
							c-7.032,7.793-13.396,16.198-18.827,25.01c-5.4,8.831-9.938,18.005-13.544,27.213c-3.597,9.214-6.249,18.459-8.095,27.385
							c-1.854,8.91-2.854,17.57-3.307,25.766c-0.292,8.226-0.202,15.83-0.215,22.553c0,5.57,0,10.426,0,14.425
							c0,4.829,0,7.588,0,7.588H194.984z"/>
					</g>
					<path class="st1" d="M148.387,93.511l8.546,18.61c0,0,0.431-0.113,1.193-0.285c0.763-0.163,1.839-0.462,3.162-0.671
						c2.623-0.532,6.18-0.927,9.745-1.027c3.567-0.089,7.135-0.024,9.81-0.044c2.676,0,4.459,0,4.459,0l-2.224-19.5
						c0,0-2.193,0.005-5.482,0.013c-3.287,0.036-7.663,0.018-12.018,0.211c-4.354,0.202-8.691,0.758-11.887,1.451
						c-1.611,0.282-2.923,0.66-3.852,0.873C148.912,93.366,148.387,93.511,148.387,93.511z"/>
					<path class="st1" d="M100.527,131.186l17.196,11.615c0,0,0.222-0.387,0.611-1.063c0.385-0.679,0.935-1.649,1.676-2.764
						c1.43-2.259,3.524-5.163,5.917-7.811c2.366-2.672,5-5.09,7.052-6.806c1.058-0.818,1.92-1.527,2.551-1.985
						c0.636-0.452,1-0.71,1-0.71l-12.981-16.283c0,0-0.443,0.317-1.217,0.874c-0.769,0.563-1.823,1.427-3.109,2.436
						c-2.506,2.097-5.72,5.055-8.615,8.317c-2.924,3.235-5.5,6.769-7.261,9.521c-0.911,1.358-1.591,2.539-2.067,3.365
						C100.801,130.715,100.527,131.186,100.527,131.186z"/>
					<path class="st1" d="M90.597,191.984l19.5,0.56c0,0,0-7.135,0-14.271c0-3.566-0.043-7.138,0.165-9.807
						c0.094-1.334,0.184-2.446,0.302-3.218c0.098-0.774,0.155-1.217,0.155-1.217l-19.046-6.995c0,0-0.077,0.54-0.213,1.483
						c-0.158,0.941-0.292,2.297-0.435,3.926c-0.191,1.625-0.206,3.535-0.302,5.578c-0.028,2.048-0.059,4.233-0.089,6.418
						c-0.013,4.384-0.026,8.769-0.036,12.057C90.597,189.791,90.597,191.984,90.597,191.984z"/>
				</g>
			</g>
			<g>
				<g>
					<g>
						<rect x="196.912" y="0.002" class="st0" width="176.59" height="194.98"/>
					</g>
					<rect x="327.677" y="90.594" class="st1" width="32.778" height="19.5"/>
					<rect x="268.888" y="90.594" class="st1" width="32.778" height="19.5"/>
					<rect x="210.292" y="90.594" class="st1" width="32.778" height="19.5"/>
				</g>
			</g>
			<g>
				<g>
					<g>
						<rect x="373.502" y="0.002" class="st0" width="176.59" height="194.98"/>
					</g>
					<rect x="504.267" y="90.594" class="st1" width="32.778" height="19.5"/>
					<rect x="445.478" y="90.594" class="st1" width="32.778" height="19.5"/>
					<rect x="386.882" y="90.594" class="st1" width="32.778" height="19.5"/>
				</g>
			</g>
			<g>
				<g>
					<g>
						<rect x="550.092" y="0.002" class="st0" width="176.59" height="194.98"/>
					</g>
					<rect x="680.858" y="90.594" class="st1" width="32.778" height="19.5"/>
					<rect x="622.069" y="90.594" class="st1" width="32.778" height="19.5"/>
					<rect x="563.472" y="90.594" class="st1" width="32.778" height="19.5"/>
				</g>
			</g>
			<g>
				<g>
					<g>
						<rect x="726.682" y="0.002" class="st0" width="176.59" height="194.98"/>
					</g>
					<rect x="857.448" y="90.594" class="st1" width="32.778" height="19.5"/>
					<rect x="798.659" y="90.594" class="st1" width="32.778" height="19.5"/>
					<rect x="740.063" y="90.594" class="st1" width="32.778" height="19.5"/>
				</g>
			</g>
			<g>
				<g>
					<g>
						<rect x="903.273" y="0.002" class="st0" width="176.59" height="194.98"/>
					</g>
					<rect x="1034.038" y="90.594" class="st1" width="32.778" height="19.5"/>
					<rect x="975.249" y="90.594" class="st1" width="32.778" height="19.5"/>
					<rect x="916.653" y="90.594" class="st1" width="32.778" height="19.5"/>
				</g>
			</g>
			<g>
				<g>
					<g>
						<rect x="1079.863" y="0.002" class="st0" width="176.59" height="194.98"/>
					</g>
					<rect x="1210.628" y="90.594" class="st1" width="32.778" height="19.5"/>
					<rect x="1151.839" y="90.594" class="st1" width="32.778" height="19.5"/>
					<rect x="1093.243" y="90.594" class="st1" width="32.778" height="19.5"/>
				</g>
			</g>
			<g>
				<g>
					<g>
						<rect x="1256.453" y="0.002" class="st0" width="176.59" height="194.98"/>
					</g>
					<rect x="1387.219" y="90.594" class="st1" width="32.778" height="19.5"/>
					<rect x="1328.429" y="90.594" class="st1" width="32.778" height="19.5"/>
					<rect x="1269.833" y="90.594" class="st1" width="32.778" height="19.5"/>
				</g>
			</g>
			<g>
				<g>
					<g>
						<rect x="1433.043" y="0.002" class="st0" width="176.59" height="194.98"/>
					</g>
					<rect x="1563.809" y="90.594" class="st1" width="32.778" height="19.5"/>
					<rect x="1505.02" y="90.594" class="st1" width="32.778" height="19.5"/>
					<rect x="1446.423" y="90.594" class="st1" width="32.778" height="19.5"/>
				</g>
			</g>
			<g>
				<g>
					<g>
						<rect x="1609.634" y="0.002" class="st0" width="176.59" height="194.98"/>
					</g>
					<rect x="1740.399" y="90.594" class="st1" width="32.778" height="19.5"/>
					<rect x="1681.61" y="90.594" class="st1" width="32.778" height="19.5"/>
					<rect x="1623.013" y="90.594" class="st1" width="32.778" height="19.5"/>
				</g>
			</g>
			<g>
				<g>
					<g>
						<rect x="1786.224" y="0.002" class="st0" width="176.59" height="194.98"/>
					</g>
					<rect x="1916.989" y="90.594" class="st1" width="32.778" height="19.5"/>
					<rect x="1858.2" y="90.594" class="st1" width="32.778" height="19.5"/>
					<rect x="1799.604" y="90.594" class="st1" width="32.778" height="19.5"/>
				</g>
			</g>
			<g>
				<g>
					<g>
						<rect x="1962.814" y="0.002" class="st0" width="176.59" height="194.98"/>
					</g>
					<rect x="2093.58" y="90.594" class="st1" width="32.778" height="19.5"/>
					<rect x="2034.79" y="90.594" class="st1" width="32.778" height="19.5"/>
					<rect x="1976.194" y="90.594" class="st1" width="32.778" height="19.5"/>
				</g>
			</g>
			<g>
				<g>
					<g>
						<rect x="2139.404" y="0.002" class="st0" width="176.59" height="194.98"/>
					</g>
					<rect x="2270.17" y="90.594" class="st1" width="32.778" height="19.5"/>
					<rect x="2211.381" y="90.594" class="st1" width="32.778" height="19.5"/>
					<rect x="2152.784" y="90.594" class="st1" width="32.778" height="19.5"/>
				</g>
			</g>
			<g>
				<g>
					<g>
						<rect x="2315.995" y="0.002" class="st0" width="176.59" height="194.98"/>
					</g>
					<rect x="2446.76" y="90.594" class="st1" width="32.778" height="19.5"/>
					<rect x="2387.971" y="90.594" class="st1" width="32.778" height="19.5"/>
					<rect x="2329.375" y="90.594" class="st1" width="32.778" height="19.5"/>
				</g>
			</g>
			<g>
				<g>
					<g>
						<rect x="2492.585" y="0.002" class="st0" width="176.59" height="194.98"/>
					</g>
					<rect x="2623.35" y="90.594" class="st1" width="32.778" height="19.5"/>
					<rect x="2564.561" y="90.594" class="st1" width="32.778" height="19.5"/>
					<rect x="2505.965" y="90.594" class="st1" width="32.778" height="19.5"/>
				</g>
			</g>
			<g>
				<g>
					<g>
						<rect x="2669.175" y="0.002" class="st0" width="176.59" height="194.98"/>
					</g>
					<rect x="2799.94" y="90.594" class="st1" width="32.778" height="19.5"/>
					<rect x="2741.151" y="90.594" class="st1" width="32.778" height="19.5"/>
					<rect x="2682.555" y="90.594" class="st1" width="32.778" height="19.5"/>
				</g>
			</g>
			<g>
				<g>
					<g>
						<path class="st0" d="M2845.765,194.982h37.998l193.129-50.497c0,0-0.219-1.311-0.631-3.768
							c-0.395-2.459-1.116-6.038-2.154-10.556c-1.108-4.5-2.55-9.94-4.668-16.02c-2.067-6.094-4.812-12.821-8.335-19.889
							c-3.515-7.068-7.788-14.497-12.978-21.887c-5.187-7.389-11.241-14.767-18.129-21.798
							c-13.792-14.034-31.11-26.483-50.299-35.224c-9.575-4.395-19.601-7.847-29.72-10.355c-10.134-2.51-20.27-4.077-30.527-4.664
							c-1.267-0.108-2.55-0.134-3.828-0.162c-1.277-0.032-2.548-0.064-3.812-0.097c-2.525-0.092-5.047-0.059-7.536-0.064
							c-4.979,0-9.851,0-14.594,0c-5.792,0-11.269,0-16.324,0c-16.555,0-27.592,0-27.592,0V194.982z"/>
					</g>
					<path class="st1" d="M2972.494,122.332l-16.119,13.198c0,0,0.258,0.363,0.71,1c0.227,0.318,0.501,0.704,0.817,1.146
						c0.294,0.457,0.626,0.973,0.988,1.535c1.44,2.252,3.207,5.366,4.599,8.653c1.426,3.273,2.503,6.682,3.191,9.267
						c0.298,1.304,0.547,2.391,0.721,3.151c0.137,0.768,0.216,1.208,0.216,1.208l18.908-7.552c0,0-0.104-0.535-0.286-1.471
						c-0.225-0.926-0.547-2.25-0.932-3.839c-0.88-3.148-2.246-7.296-4.024-11.279c-1.739-4-3.919-7.791-5.694-10.533
						c-0.446-0.685-0.855-1.312-1.218-1.869c-0.387-0.54-0.724-1.01-1.002-1.398
						C2972.812,122.775,2972.494,122.332,2972.494,122.332z"/>
					<path class="st1" d="M2920.023,91.428l-6.692,19.112c0,0,0.442,0.056,1.217,0.154c0.778,0.077,1.873,0.285,3.19,0.521
						c2.624,0.509,6.106,1.336,9.456,2.575c3.36,1.207,6.582,2.757,8.932,4.034c2.339,1.301,3.822,2.295,3.822,2.295l12.485-16.636
						c0,0-1.805-1.224-4.653-2.832c-2.86-1.581-6.781-3.505-10.87-5.024c-4.076-1.556-8.316-2.625-11.514-3.292
						c-1.605-0.312-2.94-0.584-3.888-0.695C2920.562,91.506,2920.023,91.428,2920.023,91.428z"/>
					<polygon class="st1" points="2859.145,90.594 2859.145,110.094 2890.868,110.094 2892.5,90.594 					"/>
				</g>
			</g>
		</g>
	</g>
</g>
</svg>