<!-- Generator: Adobe Illustrator 20.1.0, SVG Export Plug-In  -->
<svg version="1.1"
	 xmlns="http://www.w3.org/2000/svg" xmlns:xlink="http://www.w3.org/1999/xlink" xmlns:a="http://ns.adobe.com/AdobeSVGViewerExtensions/3.0/"
	 x="0px" y="0px" width="2625.044px" height="1564.151px" viewBox="0 0 2625.044 1564.151"
	 style="enable-background:new 0 0 2625.044 1564.151;" xml:space="preserve">
<style type="text/css">
	.st0{fill:#FFFFFF;}
	.st1{fill-rule:evenodd;clip-rule:evenodd;fill:#FFFFFF;}
</style>
<defs>
</defs>
<g>
	<g>
		<g>
			<polygon class="st0" points="2625.044,106.577 2625.044,145.783 2607.378,145.783 2607.378,109.398 			"/>
			<rect x="2607.378" y="175.884" class="st0" width="17.666" height="38.215"/>
			<rect x="2607.378" y="244.421" class="st0" width="17.666" height="38.215"/>
		</g>
		<rect x="2607.378" y="244.421" class="st1" width="17.666" height="38.215"/>
		<rect x="2607.378" y="175.884" class="st1" width="17.666" height="38.215"/>
		<polygon class="st1" points="2625.044,106.577 2625.044,145.783 2607.378,145.783 2607.378,109.398 		"/>
	</g>
	<g>
		<g>
			<rect x="2607.378" y="313.436" class="st0" width="17.666" height="38.215"/>
			<rect x="2607.378" y="381.752" class="st0" width="17.666" height="38.215"/>
			<rect x="2607.378" y="450.29" class="st0" width="17.666" height="38.215"/>
		</g>
		<rect x="2607.378" y="450.29" class="st1" width="17.666" height="38.215"/>
		<rect x="2607.378" y="381.752" class="st1" width="17.666" height="38.215"/>
		<rect x="2607.378" y="313.436" class="st1" width="17.666" height="38.215"/>
	</g>
	<g>
		<g>
			<rect x="2607.378" y="519.305" class="st0" width="17.666" height="38.215"/>
			<rect x="2607.378" y="587.621" class="st0" width="17.666" height="38.215"/>
			<rect x="2607.378" y="656.158" class="st0" width="17.666" height="38.215"/>
		</g>
		<rect x="2607.378" y="656.158" class="st1" width="17.666" height="38.215"/>
		<rect x="2607.378" y="587.621" class="st1" width="17.666" height="38.215"/>
		<rect x="2607.378" y="519.305" class="st1" width="17.666" height="38.215"/>
	</g>
	<g>
		<g>
			<rect x="2607.378" y="725.173" class="st0" width="17.666" height="38.215"/>
			<rect x="2607.378" y="793.489" class="st0" width="17.666" height="38.215"/>
			<rect x="2607.378" y="862.026" class="st0" width="17.666" height="38.215"/>
		</g>
		<rect x="2607.378" y="862.026" class="st1" width="17.666" height="38.215"/>
		<rect x="2607.378" y="793.489" class="st1" width="17.666" height="38.215"/>
		<rect x="2607.378" y="725.173" class="st1" width="17.666" height="38.215"/>
	</g>
	<g>
		<g>
			<rect x="2607.378" y="931.042" class="st0" width="17.666" height="38.215"/>
			<rect x="2607.378" y="999.357" class="st0" width="17.666" height="38.215"/>
			<rect x="2607.378" y="1067.894" class="st0" width="17.666" height="38.215"/>
		</g>
		<rect x="2607.378" y="1067.894" class="st1" width="17.666" height="38.215"/>
		<rect x="2607.378" y="999.357" class="st1" width="17.666" height="38.215"/>
		<rect x="2607.378" y="931.042" class="st1" width="17.666" height="38.215"/>
	</g>
	<g>
		<g>
			<rect x="2607.378" y="1136.91" class="st0" width="17.666" height="38.215"/>
			<rect x="2607.378" y="1205.226" class="st0" width="17.666" height="38.215"/>
			<rect x="2607.378" y="1273.763" class="st0" width="17.666" height="38.215"/>
		</g>
		<rect x="2607.378" y="1273.763" class="st1" width="17.666" height="38.215"/>
		<rect x="2607.378" y="1205.226" class="st1" width="17.666" height="38.215"/>
		<rect x="2607.378" y="1136.91" class="st1" width="17.666" height="38.215"/>
	</g>
	<g>
		<g>
			<path class="st0" d="M2607.142,1474.817l17.385,7.333c0,0-0.009,0.163-0.027,0.455c-0.027,0.303-0.045,0.734-0.118,1.282
				c-0.136,1.108-0.272,2.682-0.535,4.558c-0.498,3.754-1.422,8.709-2.69,13.523c-0.344,1.189-0.634,2.402-1.005,3.567
				c-0.363,1.154-0.725,2.296-1.078,3.392c-0.77,2.169-1.477,4.197-2.193,5.864c-0.661,1.713-1.295,3.078-1.739,4.034
				c-0.435,0.956-0.679,1.504-0.679,1.504l-15.274-14.164c0,0,0.199-0.455,0.552-1.236c0.353-0.793,0.87-1.912,1.404-3.311
				c0.571-1.375,1.141-3.043,1.766-4.815c0.562-1.807,1.16-3.742,1.649-5.724c1.006-3.952,1.722-8.021,2.093-11.11
				c0.191-1.539,0.29-2.833,0.39-3.73C2607.134,1475.341,2607.142,1474.817,2607.142,1474.817z"/>
			<rect x="2607.378" y="1342.778" class="st0" width="17.666" height="38.215"/>
			<polygon class="st0" points="2607.378,1411.094 2625.044,1411.094 2625.044,1449.787 2607.378,1448.423 			"/>
		</g>
		<path class="st1" d="M2624.528,1482.149c0,0-0.009,0.163-0.027,0.455c-0.027,0.303-0.045,0.734-0.118,1.282
			c-0.136,1.108-0.272,2.682-0.535,4.558c-0.498,3.754-1.422,8.709-2.69,13.523c-0.344,1.189-0.634,2.402-1.005,3.567
			c-0.363,1.154-0.725,2.296-1.078,3.392c-0.77,2.169-1.477,4.197-2.193,5.864c-0.661,1.713-1.295,3.078-1.739,4.034
			c-0.435,0.956-0.679,1.504-0.679,1.504l-15.274-14.164c0,0,0.199-0.455,0.552-1.236c0.353-0.793,0.87-1.912,1.404-3.311
			c0.571-1.375,1.141-3.043,1.766-4.815c0.562-1.807,1.16-3.742,1.649-5.724c1.006-3.952,1.722-8.021,2.093-11.11
			c0.191-1.539,0.29-2.833,0.39-3.73c0.091-0.898,0.099-1.422,0.099-1.422L2624.528,1482.149z"/>
		<polygon class="st1" points="2625.044,1411.094 2625.044,1449.787 2607.378,1448.423 2607.378,1411.094 		"/>
		<rect x="2607.378" y="1342.778" class="st1" width="17.666" height="38.215"/>
	</g>
	<g>
		<g>
			<rect x="2460.56" y="1541.418" class="st0" width="29.697" height="22.733"/>
			<polygon class="st0" points="2541.833,1541.418 2544.433,1564.14 2513.821,1564.151 2513.821,1541.418 			"/>
			<path class="st0" d="M2597.567,1544.624c0,0-0.39,0.397-1.069,1.084c-0.707,0.641-1.694,1.585-2.917,2.67
				c-2.446,2.134-5.852,4.721-9.431,6.89c-3.561,2.192-7.284,3.929-10.137,4.978c-1.413,0.572-2.609,0.921-3.452,1.189
				c-0.843,0.268-1.323,0.408-1.323,0.408l-7.121-21.94c0,0,0.389-0.117,1.078-0.315c0.698-0.21,1.685-0.478,2.845-0.933
				c2.337-0.816,5.399-2.192,8.326-3.952c2.935-1.749,5.734-3.847,7.746-5.584c1.006-0.874,1.812-1.655,2.392-2.168
				c0.562-0.56,0.878-0.886,0.878-0.886L2597.567,1544.624z"/>
		</g>
		<rect x="2460.56" y="1541.418" class="st1" width="29.697" height="22.733"/>
		<polygon class="st1" points="2544.433,1564.14 2513.821,1564.151 2513.821,1541.418 2541.833,1541.418 		"/>
		<path class="st1" d="M2597.567,1544.624c0,0-0.39,0.397-1.069,1.084c-0.707,0.641-1.694,1.585-2.917,2.67
			c-2.446,2.134-5.852,4.721-9.431,6.89c-3.561,2.192-7.284,3.929-10.137,4.978c-1.413,0.572-2.609,0.921-3.452,1.189
			c-0.843,0.268-1.323,0.408-1.323,0.408l-7.121-21.94c0,0,0.389-0.117,1.078-0.315c0.698-0.21,1.685-0.478,2.845-0.933
			c2.337-0.816,5.399-2.192,8.326-3.952c2.935-1.749,5.734-3.847,7.746-5.584c1.006-0.874,1.812-1.655,2.392-2.168
			c0.562-0.56,0.878-0.886,0.878-0.886L2597.567,1544.624z"/>
	</g>
	<g>
		<g>
			<rect x="2300.578" y="1541.418" class="st0" width="29.697" height="22.733"/>
			<rect x="2353.838" y="1541.418" class="st0" width="29.697" height="22.733"/>
			<rect x="2406.918" y="1541.418" class="st0" width="29.697" height="22.733"/>
		</g>
		<rect x="2300.578" y="1541.418" class="st1" width="29.697" height="22.733"/>
		<rect x="2353.838" y="1541.418" class="st1" width="29.697" height="22.733"/>
		<rect x="2406.918" y="1541.418" class="st1" width="29.697" height="22.733"/>
	</g>
	<g>
		<g>
			<rect x="2140.595" y="1541.418" class="st0" width="29.697" height="22.733"/>
			<rect x="2193.856" y="1541.418" class="st0" width="29.697" height="22.733"/>
			<rect x="2246.936" y="1541.418" class="st0" width="29.697" height="22.733"/>
		</g>
		<rect x="2140.595" y="1541.418" class="st1" width="29.697" height="22.733"/>
		<rect x="2193.856" y="1541.418" class="st1" width="29.697" height="22.733"/>
		<rect x="2246.936" y="1541.418" class="st1" width="29.697" height="22.733"/>
	</g>
	<g>
		<g>
			<rect x="1980.614" y="1541.418" class="st0" width="29.697" height="22.733"/>
			<rect x="2033.875" y="1541.418" class="st0" width="29.697" height="22.733"/>
			<rect x="2086.954" y="1541.418" class="st0" width="29.697" height="22.733"/>
		</g>
		<rect x="1980.614" y="1541.418" class="st1" width="29.697" height="22.733"/>
		<rect x="2033.875" y="1541.418" class="st1" width="29.697" height="22.733"/>
		<rect x="2086.954" y="1541.418" class="st1" width="29.697" height="22.733"/>
	</g>
	<g>
		<g>
			<rect x="1820.632" y="1541.418" class="st0" width="29.697" height="22.733"/>
			<rect x="1873.893" y="1541.418" class="st0" width="29.697" height="22.733"/>
			<rect x="1926.972" y="1541.418" class="st0" width="29.697" height="22.733"/>
		</g>
		<rect x="1820.632" y="1541.418" class="st1" width="29.697" height="22.733"/>
		<rect x="1873.893" y="1541.418" class="st1" width="29.697" height="22.733"/>
		<rect x="1926.972" y="1541.418" class="st1" width="29.697" height="22.733"/>
	</g>
	<g>
		<g>
			<rect x="1660.649" y="1541.418" class="st0" width="29.697" height="22.733"/>
			<rect x="1713.91" y="1541.418" class="st0" width="29.688" height="22.733"/>
			<rect x="1766.99" y="1541.418" class="st0" width="29.697" height="22.733"/>
		</g>
		<rect x="1660.649" y="1541.418" class="st1" width="29.697" height="22.733"/>
		<rect x="1713.91" y="1541.418" class="st1" width="29.688" height="22.733"/>
		<rect x="1766.99" y="1541.418" class="st1" width="29.697" height="22.733"/>
	</g>
	<g>
		<g>
			<rect x="1500.667" y="1541.418" class="st0" width="29.697" height="22.733"/>
			<rect x="1553.928" y="1541.418" class="st0" width="29.688" height="22.733"/>
			<rect x="1607.008" y="1541.418" class="st0" width="29.697" height="22.733"/>
		</g>
		<rect x="1500.667" y="1541.418" class="st1" width="29.697" height="22.733"/>
		<rect x="1553.928" y="1541.418" class="st1" width="29.688" height="22.733"/>
		<rect x="1607.008" y="1541.418" class="st1" width="29.697" height="22.733"/>
	</g>
	<g>
		<g>
			<rect x="1340.686" y="1541.418" class="st0" width="29.697" height="22.733"/>
			<rect x="1393.947" y="1541.418" class="st0" width="29.688" height="22.733"/>
			<rect x="1447.026" y="1541.418" class="st0" width="29.697" height="22.733"/>
		</g>
		<rect x="1340.686" y="1541.418" class="st1" width="29.697" height="22.733"/>
		<rect x="1393.947" y="1541.418" class="st1" width="29.688" height="22.733"/>
		<rect x="1447.026" y="1541.418" class="st1" width="29.697" height="22.733"/>
	</g>
	<g>
		<g>
			<rect x="1180.703" y="1541.418" class="st0" width="29.697" height="22.733"/>
			<rect x="1233.964" y="1541.418" class="st0" width="29.688" height="22.733"/>
			<rect x="1287.044" y="1541.418" class="st0" width="29.697" height="22.733"/>
		</g>
		<rect x="1180.703" y="1541.418" class="st1" width="29.697" height="22.733"/>
		<rect x="1233.964" y="1541.418" class="st1" width="29.688" height="22.733"/>
		<rect x="1287.044" y="1541.418" class="st1" width="29.697" height="22.733"/>
	</g>
	<g>
		<g>
			<rect x="1020.721" y="1541.418" class="st0" width="29.688" height="22.733"/>
			<rect x="1073.982" y="1541.418" class="st0" width="29.688" height="22.733"/>
			<rect x="1127.062" y="1541.418" class="st0" width="29.697" height="22.733"/>
		</g>
		<rect x="1020.721" y="1541.418" class="st1" width="29.688" height="22.733"/>
		<rect x="1073.982" y="1541.418" class="st1" width="29.688" height="22.733"/>
		<rect x="1127.062" y="1541.418" class="st1" width="29.697" height="22.733"/>
	</g>
	<g>
		<g>
			<rect x="860.74" y="1541.418" class="st0" width="29.688" height="22.733"/>
			<rect x="914" y="1541.418" class="st0" width="29.688" height="22.733"/>
			<rect x="967.08" y="1541.418" class="st0" width="29.697" height="22.733"/>
		</g>
		<rect x="860.74" y="1541.418" class="st1" width="29.688" height="22.733"/>
		<rect x="914" y="1541.418" class="st1" width="29.688" height="22.733"/>
		<rect x="967.08" y="1541.418" class="st1" width="29.697" height="22.733"/>
	</g>
	<g>
		<g>
			<rect x="700.757" y="1541.418" class="st0" width="29.688" height="22.733"/>
			<rect x="754.018" y="1541.418" class="st0" width="29.688" height="22.733"/>
			<rect x="807.098" y="1541.418" class="st0" width="29.697" height="22.733"/>
		</g>
		<rect x="700.757" y="1541.418" class="st1" width="29.688" height="22.733"/>
		<rect x="754.018" y="1541.418" class="st1" width="29.688" height="22.733"/>
		<rect x="807.098" y="1541.418" class="st1" width="29.697" height="22.733"/>
	</g>
	<g>
		<g>
			<rect x="540.775" y="1541.418" class="st0" width="29.688" height="22.733"/>
			<rect x="594.036" y="1541.418" class="st0" width="29.688" height="22.733"/>
			<rect x="647.116" y="1541.418" class="st0" width="29.697" height="22.733"/>
		</g>
		<rect x="540.775" y="1541.418" class="st1" width="29.688" height="22.733"/>
		<rect x="594.036" y="1541.418" class="st1" width="29.688" height="22.733"/>
		<rect x="647.116" y="1541.418" class="st1" width="29.697" height="22.733"/>
	</g>
	<g>
		<g>
			<rect x="380.794" y="1541.418" class="st0" width="29.688" height="22.733"/>
			<rect x="434.054" y="1541.418" class="st0" width="29.688" height="22.733"/>
			<rect x="487.134" y="1541.418" class="st0" width="29.697" height="22.733"/>
		</g>
		<rect x="380.794" y="1541.418" class="st1" width="29.688" height="22.733"/>
		<rect x="434.054" y="1541.418" class="st1" width="29.688" height="22.733"/>
		<rect x="487.134" y="1541.418" class="st1" width="29.697" height="22.733"/>
	</g>
	<g>
		<g>
			<rect x="220.811" y="1541.418" class="st0" width="29.688" height="22.733"/>
			<rect x="274.072" y="1541.418" class="st0" width="29.688" height="22.733"/>
			<rect x="327.152" y="1541.418" class="st0" width="29.697" height="22.733"/>
		</g>
		<rect x="220.811" y="1541.418" class="st1" width="29.688" height="22.733"/>
		<rect x="274.072" y="1541.418" class="st1" width="29.688" height="22.733"/>
		<rect x="327.152" y="1541.418" class="st1" width="29.697" height="22.733"/>
	</g>
	<g>
		<g>
			<path class="st0" d="M78.115,1541.418c6.469,0,12.928,0,12.928,0l-0.806,22.733c0,0-1.993,0-4.973,0
				c-2.981,0-6.958,0-10.917-0.07c-3.959-0.058-7.909-0.163-10.853-0.63c-1.477-0.175-2.69-0.466-3.551-0.606
				c-0.426-0.07-0.761-0.139-0.987-0.209c-0.226-0.047-0.345-0.082-0.345-0.082l6.623-22.115c0,0,0.1,0.023,0.281,0.07
				c0.19,0.047,0.462,0.093,0.816,0.151c0.697,0.093,1.703,0.315,2.908,0.432C71.646,1541.418,74.881,1541.418,78.115,1541.418z"/>
			<rect x="114.081" y="1541.418" class="st0" width="29.697" height="22.733"/>
			<rect x="167.17" y="1541.418" class="st0" width="29.697" height="22.733"/>
		</g>
		<path class="st1" d="M91.043,1541.418l-0.806,22.733c0,0-1.993,0-4.973,0c-2.981,0-6.958,0-10.917-0.07
			c-3.959-0.058-7.909-0.163-10.853-0.63c-1.477-0.175-2.69-0.466-3.551-0.606c-0.426-0.07-0.761-0.139-0.987-0.209
			c-0.226-0.047-0.345-0.082-0.345-0.082l6.623-22.115c0,0,0.1,0.023,0.281,0.07c0.19,0.047,0.462,0.093,0.816,0.151
			c0.697,0.093,1.703,0.315,2.908,0.432c2.41,0.326,5.644,0.326,8.878,0.326C84.584,1541.418,91.043,1541.418,91.043,1541.418z"/>
		<rect x="114.081" y="1541.418" class="st1" width="29.697" height="22.733"/>
		<rect x="167.17" y="1541.418" class="st1" width="29.697" height="22.733"/>
	</g>
	<g>
		<g>
			<rect x="0.004" y="1384.444" class="st0" width="17.666" height="38.215"/>
			<path class="st0" d="M19.129,1484.749l-16.978,9.513c0,0-0.109-0.618-0.317-1.691c-0.19-1.084-0.407-2.646-0.698-4.523
				c-0.48-3.754-0.933-8.813-1.014-13.908c-0.154-10.166-0.118-20.413-0.118-20.413l17.666-2.11c0,0,0,8.323,0,16.636
				c0,4.162,0.326,8.312,0.679,11.401c0.218,1.527,0.381,2.81,0.526,3.707C19.038,1484.248,19.129,1484.749,19.129,1484.749z"/>
			<path class="st0" d="M45.736,1531.369l-10.862,19.784c0,0-0.435-0.303-1.159-0.898c-0.716-0.618-1.776-1.445-2.99-2.542
				c-2.446-2.156-5.545-5.316-8.407-8.813c-2.872-3.497-5.508-7.298-7.284-10.341c-0.942-1.481-1.604-2.821-2.129-3.707
				c-0.507-0.898-0.77-1.434-0.77-1.434l14.984-14.724c0,0,0.208,0.443,0.625,1.177c0.435,0.734,0.96,1.842,1.731,3.043
				c1.45,2.506,3.615,5.619,5.961,8.475c2.346,2.856,4.883,5.445,6.894,7.193c0.997,0.898,1.866,1.562,2.455,2.064
				C45.383,1531.124,45.736,1531.369,45.736,1531.369z"/>
		</g>
		<rect x="0.004" y="1384.444" class="st1" width="17.666" height="38.215"/>
		<path class="st1" d="M19.129,1484.749l-16.978,9.513c0,0-0.109-0.618-0.317-1.691c-0.19-1.084-0.407-2.646-0.698-4.523
			c-0.48-3.754-0.933-8.813-1.014-13.908c-0.154-10.166-0.118-20.413-0.118-20.413l17.666-2.11c0,0,0,8.323,0,16.636
			c0,4.162,0.326,8.312,0.679,11.401c0.218,1.527,0.381,2.81,0.526,3.707C19.038,1484.248,19.129,1484.749,19.129,1484.749z"/>
		<path class="st1" d="M45.736,1531.369l-10.862,19.784c0,0-0.435-0.303-1.159-0.898c-0.716-0.618-1.776-1.445-2.99-2.542
			c-2.446-2.156-5.545-5.316-8.407-8.813c-2.872-3.497-5.508-7.298-7.284-10.341c-0.942-1.481-1.604-2.821-2.129-3.707
			c-0.507-0.898-0.77-1.434-0.77-1.434l14.984-14.724c0,0,0.208,0.443,0.625,1.177c0.435,0.734,0.96,1.842,1.731,3.043
			c1.45,2.506,3.615,5.619,5.961,8.475c2.346,2.856,4.883,5.445,6.894,7.193c0.997,0.898,1.866,1.562,2.455,2.064
			C45.383,1531.124,45.736,1531.369,45.736,1531.369z"/>
	</g>
	<g>
		<g>
			<rect x="0.004" y="1178.576" class="st0" width="17.666" height="38.215"/>
			<rect x="0.004" y="1247.113" class="st0" width="17.666" height="38.215"/>
			<rect x="0.004" y="1315.428" class="st0" width="17.666" height="38.215"/>
		</g>
		<rect x="0.004" y="1178.576" class="st1" width="17.666" height="38.215"/>
		<rect x="0.004" y="1247.113" class="st1" width="17.666" height="38.215"/>
		<rect x="0.004" y="1315.428" class="st1" width="17.666" height="38.215"/>
	</g>
	<g>
		<g>
			<rect x="0.004" y="972.707" class="st0" width="17.666" height="38.215"/>
			<rect x="0.004" y="1041.244" class="st0" width="17.666" height="38.215"/>
			<rect x="0.004" y="1109.56" class="st0" width="17.666" height="38.203"/>
		</g>
		<rect x="0.004" y="972.707" class="st1" width="17.666" height="38.215"/>
		<rect x="0.004" y="1041.244" class="st1" width="17.666" height="38.215"/>
		<rect x="0.004" y="1109.56" class="st1" width="17.666" height="38.203"/>
	</g>
	<g>
		<g>
			<rect x="0.004" y="766.839" class="st0" width="17.666" height="38.215"/>
			<rect x="0.004" y="835.376" class="st0" width="17.666" height="38.215"/>
			<rect x="0.004" y="903.692" class="st0" width="17.666" height="38.203"/>
		</g>
		<rect x="0.004" y="766.839" class="st1" width="17.666" height="38.215"/>
		<rect x="0.004" y="835.376" class="st1" width="17.666" height="38.215"/>
		<rect x="0.004" y="903.692" class="st1" width="17.666" height="38.203"/>
	</g>
	<g>
		<g>
			<rect x="0.004" y="560.971" class="st0" width="17.666" height="38.215"/>
			<rect x="0.004" y="629.508" class="st0" width="17.666" height="38.215"/>
			<rect x="0.004" y="697.823" class="st0" width="17.666" height="38.203"/>
		</g>
		<rect x="0.004" y="560.971" class="st1" width="17.666" height="38.215"/>
		<rect x="0.004" y="629.508" class="st1" width="17.666" height="38.215"/>
		<rect x="0.004" y="697.823" class="st1" width="17.666" height="38.203"/>
	</g>
	<g>
		<g>
			<rect x="0.004" y="355.102" class="st0" width="17.666" height="38.215"/>
			<rect x="0.004" y="423.639" class="st0" width="17.666" height="38.215"/>
			<rect x="0.004" y="491.955" class="st0" width="17.666" height="38.203"/>
		</g>
		<rect x="0.004" y="355.102" class="st1" width="17.666" height="38.215"/>
		<rect x="0.004" y="423.639" class="st1" width="17.666" height="38.215"/>
		<rect x="0.004" y="491.955" class="st1" width="17.666" height="38.203"/>
	</g>
	<g>
		<g>
			<rect x="0.004" y="149.234" class="st0" width="17.666" height="38.215"/>
			<rect x="0.004" y="217.771" class="st0" width="17.666" height="38.215"/>
			<rect x="0.004" y="286.087" class="st0" width="17.666" height="38.203"/>
		</g>
		<rect x="0.004" y="149.234" class="st1" width="17.666" height="38.215"/>
		<rect x="0.004" y="217.771" class="st1" width="17.666" height="38.215"/>
		<rect x="0.004" y="286.087" class="st1" width="17.666" height="38.203"/>
	</g>
	<g>
		<g>
			<path class="st0" d="M0.973,77.456l17.258,8.149c0,0-0.054,0.525-0.136,1.423c-0.109,0.898-0.19,2.192-0.281,3.754
				c-0.19,3.113-0.145,7.275-0.145,11.437c0,8.312,0,16.636,0,16.636L0.004,118.2c0,0,0-2.564,0-6.4
				c0.009-3.836,0.018-8.942,0.027-14.06c0.027-2.542,0.063-5.095,0.081-7.473c0.091-2.39,0.1-4.617,0.281-6.505
				c0.127-1.9,0.245-3.485,0.39-4.581C0.91,78.085,0.973,77.456,0.973,77.456z"/>
			<path class="st0" d="M29.855,17.23l11.759,18.979c0,0-0.326,0.303-0.906,0.828c-0.571,0.537-1.35,1.364-2.31,2.32
				c-1.857,1.993-4.24,4.815-6.387,7.927c-2.165,3.09-4.067,6.482-5.363,9.105c-0.67,1.306-1.169,2.437-1.513,3.229
				c-0.353,0.793-0.562,1.236-0.562,1.236L9,47.32c0,0,0.245-0.548,0.679-1.515c0.435-0.956,1.051-2.332,1.875-3.917
				c1.595-3.206,3.932-7.333,6.577-11.098c2.618-3.812,5.535-7.251,7.8-9.699c1.169-1.178,2.129-2.18,2.817-2.844
				C29.456,17.603,29.855,17.23,29.855,17.23z"/>
			<path class="st0" d="M85.797,22.733c0,0-1.612,0-4.041,0c-2.419,0.023-5.653-0.059-8.887,0.047
				c-3.225,0.116-6.45,0.583-8.824,1.201c-1.196,0.245-2.174,0.583-2.863,0.781c-0.689,0.198-1.087,0.326-1.087,0.326L52.359,3.392
				c0,0,0.471-0.163,1.314-0.431c0.843-0.245,2.029-0.688,3.488-1.014c2.899-0.804,6.831-1.457,10.771-1.691
				c3.941-0.221,7.909-0.209,10.89-0.245C81.802,0,83.786,0,83.786,0L85.797,22.733z"/>
		</g>
		<path class="st1" d="M85.797,22.733c0,0-1.612,0-4.041,0c-2.419,0.023-5.653-0.059-8.887,0.047
			c-3.225,0.116-6.45,0.583-8.824,1.201c-1.196,0.245-2.174,0.583-2.863,0.781c-0.689,0.198-1.087,0.326-1.087,0.326L52.359,3.392
			c0,0,0.471-0.163,1.314-0.431c0.843-0.245,2.029-0.688,3.488-1.014c2.899-0.804,6.831-1.457,10.771-1.691
			c3.941-0.221,7.909-0.209,10.89-0.245C81.802,0,83.786,0,83.786,0L85.797,22.733z"/>
		<path class="st1" d="M41.614,36.209c0,0-0.326,0.303-0.906,0.828c-0.571,0.537-1.35,1.364-2.31,2.32
			c-1.857,1.993-4.24,4.815-6.387,7.927c-2.165,3.09-4.067,6.482-5.363,9.105c-0.67,1.306-1.169,2.437-1.513,3.229
			c-0.353,0.793-0.562,1.236-0.562,1.236L9,47.32c0,0,0.245-0.548,0.679-1.515c0.435-0.956,1.051-2.332,1.875-3.917
			c1.595-3.206,3.932-7.333,6.577-11.098c2.618-3.812,5.535-7.251,7.8-9.699c1.169-1.178,2.129-2.18,2.817-2.844
			c0.707-0.642,1.105-1.014,1.105-1.014L41.614,36.209z"/>
		<path class="st1" d="M18.231,85.604c0,0-0.054,0.525-0.136,1.423c-0.109,0.898-0.19,2.192-0.281,3.754
			c-0.19,3.113-0.145,7.275-0.145,11.437c0,8.312,0,16.636,0,16.636L0.004,118.2c0,0,0-2.564,0-6.4
			c0.009-3.836,0.018-8.942,0.027-14.06c0.027-2.542,0.063-5.095,0.081-7.473c0.091-2.39,0.1-4.617,0.281-6.505
			c0.127-1.9,0.245-3.485,0.39-4.581c0.127-1.096,0.19-1.725,0.19-1.725L18.231,85.604z"/>
	</g>
	<g>
		<g>
			<rect x="108.437" class="st0" width="29.697" height="22.733"/>
			<rect x="161.526" class="st0" width="29.697" height="22.733"/>
			<rect x="214.787" class="st0" width="29.697" height="22.733"/>
		</g>
		<rect x="214.787" class="st1" width="29.697" height="22.733"/>
		<rect x="161.526" class="st1" width="29.697" height="22.733"/>
		<rect x="108.437" class="st1" width="29.697" height="22.733"/>
	</g>
	<g>
		<g>
			<rect x="268.419" class="st0" width="29.697" height="22.733"/>
			<rect x="321.508" class="st0" width="29.697" height="22.733"/>
			<rect x="374.769" class="st0" width="29.697" height="22.733"/>
		</g>
		<rect x="374.769" class="st1" width="29.697" height="22.733"/>
		<rect x="321.508" class="st1" width="29.697" height="22.733"/>
		<rect x="268.419" class="st1" width="29.697" height="22.733"/>
	</g>
	<g>
		<g>
			<rect x="428.401" class="st0" width="29.697" height="22.733"/>
			<rect x="481.49" class="st0" width="29.697" height="22.733"/>
			<rect x="534.751" class="st0" width="29.697" height="22.733"/>
		</g>
		<rect x="534.751" class="st1" width="29.697" height="22.733"/>
		<rect x="481.49" class="st1" width="29.697" height="22.733"/>
		<rect x="428.401" class="st1" width="29.697" height="22.733"/>
	</g>
	<g>
		<g>
			<rect x="588.383" class="st0" width="29.697" height="22.733"/>
			<rect x="641.472" class="st0" width="29.697" height="22.733"/>
			<rect x="694.733" class="st0" width="29.697" height="22.733"/>
		</g>
		<rect x="694.733" class="st1" width="29.697" height="22.733"/>
		<rect x="641.472" class="st1" width="29.697" height="22.733"/>
		<rect x="588.383" class="st1" width="29.697" height="22.733"/>
	</g>
	<g>
		<g>
			<rect x="748.365" class="st0" width="29.697" height="22.733"/>
			<rect x="801.454" class="st0" width="29.697" height="22.733"/>
			<rect x="854.715" class="st0" width="29.697" height="22.733"/>
		</g>
		<rect x="854.715" class="st1" width="29.697" height="22.733"/>
		<rect x="801.454" class="st1" width="29.697" height="22.733"/>
		<rect x="748.365" class="st1" width="29.697" height="22.733"/>
	</g>
	<g>
		<g>
			<rect x="908.347" class="st0" width="29.697" height="22.733"/>
			<rect x="961.436" class="st0" width="29.697" height="22.733"/>
			<rect x="1014.697" class="st0" width="29.697" height="22.733"/>
		</g>
		<rect x="1014.697" class="st1" width="29.697" height="22.733"/>
		<rect x="961.436" class="st1" width="29.697" height="22.733"/>
		<rect x="908.347" class="st1" width="29.697" height="22.733"/>
	</g>
	<g>
		<g>
			<rect x="1068.329" class="st0" width="29.697" height="22.733"/>
			<rect x="1121.418" class="st0" width="29.697" height="22.733"/>
			<rect x="1174.679" class="st0" width="29.697" height="22.733"/>
		</g>
		<rect x="1174.679" class="st1" width="29.697" height="22.733"/>
		<rect x="1121.418" class="st1" width="29.697" height="22.733"/>
		<rect x="1068.329" class="st1" width="29.697" height="22.733"/>
	</g>
	<g>
		<g>
			<rect x="1228.311" class="st0" width="29.697" height="22.733"/>
			<rect x="1281.4" class="st0" width="29.697" height="22.733"/>
			<rect x="1334.661" class="st0" width="29.697" height="22.733"/>
		</g>
		<rect x="1334.661" class="st1" width="29.697" height="22.733"/>
		<rect x="1281.4" class="st1" width="29.697" height="22.733"/>
		<rect x="1228.311" class="st1" width="29.697" height="22.733"/>
	</g>
	<g>
		<g>
			<rect x="1388.293" class="st0" width="29.697" height="22.733"/>
			<rect x="1441.382" class="st0" width="29.697" height="22.733"/>
			<rect x="1494.643" class="st0" width="29.697" height="22.733"/>
		</g>
		<rect x="1494.643" class="st1" width="29.697" height="22.733"/>
		<rect x="1441.382" class="st1" width="29.697" height="22.733"/>
		<rect x="1388.293" class="st1" width="29.697" height="22.733"/>
	</g>
	<g>
		<g>
			<rect x="1548.284" class="st0" width="29.688" height="22.733"/>
			<rect x="1601.364" class="st0" width="29.697" height="22.733"/>
			<rect x="1654.625" class="st0" width="29.697" height="22.733"/>
		</g>
		<rect x="1654.625" class="st1" width="29.697" height="22.733"/>
		<rect x="1601.364" class="st1" width="29.697" height="22.733"/>
		<rect x="1548.284" class="st1" width="29.688" height="22.733"/>
	</g>
	<g>
		<g>
			<rect x="1708.266" class="st0" width="29.688" height="22.733"/>
			<rect x="1761.346" class="st0" width="29.697" height="22.733"/>
			<rect x="1814.607" class="st0" width="29.697" height="22.733"/>
		</g>
		<rect x="1814.607" class="st1" width="29.697" height="22.733"/>
		<rect x="1761.346" class="st1" width="29.697" height="22.733"/>
		<rect x="1708.266" class="st1" width="29.688" height="22.733"/>
	</g>
	<g>
		<g>
			<rect x="1868.248" class="st0" width="29.688" height="22.733"/>
			<rect x="1921.328" class="st0" width="29.697" height="22.733"/>
			<rect x="1974.589" class="st0" width="29.697" height="22.733"/>
		</g>
		<rect x="1974.589" class="st1" width="29.697" height="22.733"/>
		<rect x="1921.328" class="st1" width="29.697" height="22.733"/>
		<rect x="1868.248" class="st1" width="29.688" height="22.733"/>
	</g>
	<g>
		<g>
			<rect x="2028.23" class="st0" width="29.688" height="22.733"/>
			<rect x="2081.31" class="st0" width="29.697" height="22.733"/>
			<rect x="2134.571" class="st0" width="29.697" height="22.733"/>
		</g>
		<rect x="2134.571" class="st1" width="29.697" height="22.733"/>
		<rect x="2081.31" class="st1" width="29.697" height="22.733"/>
		<rect x="2028.23" class="st1" width="29.688" height="22.733"/>
	</g>
	<g>
		<g>
			<rect x="2188.212" class="st0" width="29.688" height="22.733"/>
			<rect x="2241.292" class="st0" width="29.697" height="22.733"/>
			<rect x="2294.553" class="st0" width="29.697" height="22.733"/>
		</g>
		<rect x="2294.553" class="st1" width="29.697" height="22.733"/>
		<rect x="2241.292" class="st1" width="29.697" height="22.733"/>
		<rect x="2188.212" class="st1" width="29.688" height="22.733"/>
	</g>
	<g>
		<g>
			<rect x="2348.195" class="st0" width="29.688" height="22.733"/>
			<rect x="2401.274" class="st0" width="29.697" height="22.733"/>
			<rect x="2454.535" class="st0" width="29.697" height="22.733"/>
		</g>
		<rect x="2454.535" class="st1" width="29.697" height="22.733"/>
		<rect x="2401.274" class="st1" width="29.697" height="22.733"/>
		<rect x="2348.195" class="st1" width="29.688" height="22.733"/>
	</g>
	<g>
		<g>
			<polygon class="st0" points="2508.177,0 2538.39,0 2536.913,22.733 2508.177,22.733 			"/>
			<path class="st0" d="M2588.471,11.716c2.582,1.877,4.213,3.299,4.213,3.299l-11.306,19.398c0,0-1.341-1.154-3.46-2.669
				c-2.129-1.493-5.055-3.299-8.099-4.71c-3.026-1.446-6.188-2.402-8.561-2.996c-1.196-0.279-2.184-0.524-2.89-0.606
				c-0.707-0.116-1.105-0.186-1.105-0.186l6.061-22.279c0,0,0.489,0.093,1.35,0.245c0.861,0.128,2.065,0.454,3.524,0.816
				c2.89,0.77,6.731,2.017,10.427,3.836C2582.329,7.636,2585.88,9.874,2588.471,11.716z"/>
			<path class="st0" d="M2623.576,73.841l-17.132,8.802c0,0-0.073-0.513-0.199-1.411c-0.154-0.886-0.381-2.145-0.653-3.672
				c-0.625-3.008-1.594-6.983-2.89-10.796c-1.26-3.835-2.863-7.472-4.167-10.095c-0.326-0.653-0.625-1.259-0.897-1.784
				c-0.281-0.524-0.534-0.967-0.734-1.341c-0.417-0.746-0.643-1.166-0.643-1.166l14.604-15.388c0,0,0.281,0.524,0.788,1.422
				c0.254,0.455,0.553,1.002,0.906,1.632c0.326,0.642,0.698,1.376,1.105,2.18c1.604,3.195,3.578,7.613,5.155,12.276
				c1.613,4.64,2.854,9.478,3.651,13.15c0.344,1.853,0.634,3.393,0.842,4.476C2623.477,73.212,2623.576,73.841,2623.576,73.841z"/>
		</g>
		<path class="st1" d="M2623.576,73.841l-17.132,8.802c0,0-0.073-0.513-0.199-1.411c-0.154-0.886-0.381-2.145-0.653-3.672
			c-0.625-3.008-1.594-6.983-2.89-10.796c-1.26-3.835-2.863-7.472-4.167-10.095c-0.326-0.653-0.625-1.259-0.897-1.784
			c-0.281-0.524-0.534-0.967-0.734-1.341c-0.417-0.746-0.643-1.166-0.643-1.166l14.604-15.388c0,0,0.281,0.524,0.788,1.422
			c0.254,0.455,0.553,1.002,0.906,1.632c0.326,0.642,0.698,1.376,1.105,2.18c1.604,3.195,3.578,7.613,5.155,12.276
			c1.613,4.64,2.854,9.478,3.651,13.15c0.344,1.853,0.634,3.393,0.842,4.476C2623.477,73.212,2623.576,73.841,2623.576,73.841z"/>
		<path class="st1" d="M2592.684,15.015l-11.306,19.398c0,0-1.341-1.154-3.46-2.669c-2.129-1.493-5.055-3.299-8.099-4.71
			c-3.026-1.446-6.188-2.402-8.561-2.996c-1.196-0.279-2.184-0.524-2.89-0.606c-0.707-0.116-1.105-0.186-1.105-0.186l6.061-22.279
			c0,0,0.489,0.093,1.35,0.245c0.861,0.128,2.065,0.454,3.524,0.816c2.89,0.77,6.731,2.017,10.427,3.836
			c3.706,1.772,7.257,4.01,9.848,5.852C2591.053,13.593,2592.684,15.015,2592.684,15.015z"/>
		<polygon class="st1" points="2538.39,0 2536.913,22.733 2508.177,22.733 2508.177,0 		"/>
	</g>
</g>
</svg>