<!-- Generator: Adobe Illustrator 20.1.0, SVG Export Plug-In  -->
<svg version="1.1"
	 xmlns="http://www.w3.org/2000/svg" xmlns:xlink="http://www.w3.org/1999/xlink" xmlns:a="http://ns.adobe.com/AdobeSVGViewerExtensions/3.0/"
	 x="0px" y="0px" width="1716.697px" height="900.241px" viewBox="0 0 1716.697 900.241"
	 style="enable-background:new 0 0 1716.697 900.241;" xml:space="preserve">
<style type="text/css">
	.st0{fill:#FFFFFF;}
	.st1{fill-rule:evenodd;clip-rule:evenodd;fill:#FFFFFF;}
</style>
<defs>
</defs>
<g>
	<g>
		<g>
			<polygon class="st0" points="1716.697,106.577 1716.697,145.783 1699.031,145.783 1699.031,109.398 			"/>
			<rect x="1699.031" y="175.884" class="st0" width="17.666" height="38.215"/>
			<rect x="1699.031" y="244.421" class="st0" width="17.666" height="38.215"/>
		</g>
		<rect x="1699.031" y="244.421" class="st1" width="17.666" height="38.215"/>
		<rect x="1699.031" y="175.884" class="st1" width="17.666" height="38.215"/>
		<polygon class="st1" points="1716.697,106.577 1716.697,145.783 1699.031,145.783 1699.031,109.398 		"/>
	</g>
	<g>
		<g>
			<rect x="1699.031" y="313.436" class="st0" width="17.666" height="38.215"/>
			<rect x="1699.031" y="381.752" class="st0" width="17.666" height="38.215"/>
			<rect x="1699.031" y="450.29" class="st0" width="17.666" height="38.215"/>
		</g>
		<rect x="1699.031" y="450.29" class="st1" width="17.666" height="38.215"/>
		<rect x="1699.031" y="381.752" class="st1" width="17.666" height="38.215"/>
		<rect x="1699.031" y="313.436" class="st1" width="17.666" height="38.215"/>
	</g>
	<g>
		<g>
			<rect x="1699.031" y="519.305" class="st0" width="17.666" height="38.215"/>
			<rect x="1699.031" y="587.621" class="st0" width="17.666" height="38.215"/>
			<rect x="1699.031" y="656.158" class="st0" width="17.666" height="38.215"/>
		</g>
		<rect x="1699.031" y="656.158" class="st1" width="17.666" height="38.215"/>
		<rect x="1699.031" y="587.621" class="st1" width="17.666" height="38.215"/>
		<rect x="1699.031" y="519.305" class="st1" width="17.666" height="38.215"/>
	</g>
	<g>
		<g>
			<rect x="1699.031" y="725.173" class="st0" width="17.666" height="38.215"/>
			<rect x="1699.031" y="793.489" class="st0" width="17.666" height="38.215"/>
			<rect x="1699.031" y="862.026" class="st0" width="17.666" height="38.215"/>
		</g>
		<rect x="1699.031" y="862.026" class="st1" width="17.666" height="38.215"/>
		<rect x="1699.031" y="793.489" class="st1" width="17.666" height="38.215"/>
		<rect x="1699.031" y="725.173" class="st1" width="17.666" height="38.215"/>
	</g>
	<g>
		<g>
			<rect x="0" class="st0" width="29.697" height="22.733"/>
			<rect x="53.089" class="st0" width="29.697" height="22.733"/>
			<rect x="106.35" class="st0" width="29.697" height="22.733"/>
		</g>
		<rect x="106.35" class="st1" width="29.697" height="22.733"/>
		<rect x="53.089" class="st1" width="29.697" height="22.733"/>
		<rect x="0" class="st1" width="29.697" height="22.733"/>
	</g>
	<g>
		<g>
			<rect x="159.982" class="st0" width="29.697" height="22.733"/>
			<rect x="213.071" class="st0" width="29.697" height="22.733"/>
			<rect x="266.332" class="st0" width="29.697" height="22.733"/>
		</g>
		<rect x="266.332" class="st1" width="29.697" height="22.733"/>
		<rect x="213.071" class="st1" width="29.697" height="22.733"/>
		<rect x="159.982" class="st1" width="29.697" height="22.733"/>
	</g>
	<g>
		<g>
			<rect x="319.964" class="st0" width="29.697" height="22.733"/>
			<rect x="373.053" class="st0" width="29.697" height="22.733"/>
			<rect x="426.314" class="st0" width="29.697" height="22.733"/>
		</g>
		<rect x="426.314" class="st1" width="29.697" height="22.733"/>
		<rect x="373.053" class="st1" width="29.697" height="22.733"/>
		<rect x="319.964" class="st1" width="29.697" height="22.733"/>
	</g>
	<g>
		<g>
			<rect x="479.946" class="st0" width="29.697" height="22.733"/>
			<rect x="533.035" class="st0" width="29.697" height="22.733"/>
			<rect x="586.296" class="st0" width="29.697" height="22.733"/>
		</g>
		<rect x="586.296" class="st1" width="29.697" height="22.733"/>
		<rect x="533.035" class="st1" width="29.697" height="22.733"/>
		<rect x="479.946" class="st1" width="29.697" height="22.733"/>
	</g>
	<g>
		<g>
			<rect x="639.937" class="st0" width="29.688" height="22.733"/>
			<rect x="693.017" class="st0" width="29.697" height="22.733"/>
			<rect x="746.278" class="st0" width="29.697" height="22.733"/>
		</g>
		<rect x="746.278" class="st1" width="29.697" height="22.733"/>
		<rect x="693.017" class="st1" width="29.697" height="22.733"/>
		<rect x="639.937" class="st1" width="29.688" height="22.733"/>
	</g>
	<g>
		<g>
			<rect x="799.919" class="st0" width="29.688" height="22.733"/>
			<rect x="852.999" class="st0" width="29.697" height="22.733"/>
			<rect x="906.26" class="st0" width="29.697" height="22.733"/>
		</g>
		<rect x="906.26" class="st1" width="29.697" height="22.733"/>
		<rect x="852.999" class="st1" width="29.697" height="22.733"/>
		<rect x="799.919" class="st1" width="29.688" height="22.733"/>
	</g>
	<g>
		<g>
			<rect x="959.901" class="st0" width="29.688" height="22.733"/>
			<rect x="1012.981" class="st0" width="29.697" height="22.733"/>
			<rect x="1066.242" class="st0" width="29.697" height="22.733"/>
		</g>
		<rect x="1066.242" class="st1" width="29.697" height="22.733"/>
		<rect x="1012.981" class="st1" width="29.697" height="22.733"/>
		<rect x="959.901" class="st1" width="29.688" height="22.733"/>
	</g>
	<g>
		<g>
			<rect x="1119.883" class="st0" width="29.688" height="22.733"/>
			<rect x="1172.963" class="st0" width="29.697" height="22.733"/>
			<rect x="1226.224" class="st0" width="29.697" height="22.733"/>
		</g>
		<rect x="1226.224" class="st1" width="29.697" height="22.733"/>
		<rect x="1172.963" class="st1" width="29.697" height="22.733"/>
		<rect x="1119.883" class="st1" width="29.688" height="22.733"/>
	</g>
	<g>
		<g>
			<rect x="1279.865" class="st0" width="29.688" height="22.733"/>
			<rect x="1332.945" class="st0" width="29.697" height="22.733"/>
			<rect x="1386.206" class="st0" width="29.697" height="22.733"/>
		</g>
		<rect x="1386.206" class="st1" width="29.697" height="22.733"/>
		<rect x="1332.945" class="st1" width="29.697" height="22.733"/>
		<rect x="1279.865" class="st1" width="29.688" height="22.733"/>
	</g>
	<g>
		<g>
			<rect x="1439.847" class="st0" width="29.688" height="22.733"/>
			<rect x="1492.927" class="st0" width="29.697" height="22.733"/>
			<rect x="1546.188" class="st0" width="29.697" height="22.733"/>
		</g>
		<rect x="1546.188" class="st1" width="29.697" height="22.733"/>
		<rect x="1492.927" class="st1" width="29.697" height="22.733"/>
		<rect x="1439.847" class="st1" width="29.688" height="22.733"/>
	</g>
	<g>
		<g>
			<polygon class="st0" points="1599.829,0 1630.043,0 1628.566,22.733 1599.829,22.733 			"/>
			<path class="st0" d="M1680.124,11.716c2.582,1.877,4.213,3.299,4.213,3.299l-11.306,19.398c0,0-1.341-1.154-3.461-2.669
				c-2.129-1.493-5.055-3.299-8.099-4.71c-3.026-1.446-6.188-2.402-8.561-2.996c-1.196-0.279-2.183-0.524-2.89-0.606
				c-0.706-0.116-1.105-0.186-1.105-0.186l6.061-22.279c0,0,0.489,0.093,1.35,0.245c0.861,0.128,2.065,0.454,3.524,0.816
				c2.89,0.77,6.731,2.017,10.427,3.836C1673.982,7.636,1677.533,9.874,1680.124,11.716z"/>
			<path class="st0" d="M1715.229,73.841l-17.132,8.802c0,0-0.073-0.513-0.199-1.411c-0.154-0.886-0.38-2.145-0.652-3.672
				c-0.625-3.008-1.594-6.983-2.89-10.796c-1.259-3.835-2.863-7.472-4.167-10.095c-0.326-0.653-0.625-1.259-0.897-1.784
				c-0.281-0.524-0.534-0.967-0.734-1.341c-0.417-0.746-0.643-1.166-0.643-1.166l14.604-15.388c0,0,0.281,0.524,0.788,1.422
				c0.254,0.455,0.553,1.002,0.906,1.632c0.326,0.642,0.698,1.376,1.105,2.18c1.604,3.195,3.578,7.613,5.155,12.276
				c1.613,4.64,2.854,9.478,3.651,13.15c0.344,1.853,0.634,3.393,0.842,4.476C1715.13,73.212,1715.229,73.841,1715.229,73.841z"/>
		</g>
		<path class="st1" d="M1715.229,73.841l-17.132,8.802c0,0-0.073-0.513-0.199-1.411c-0.154-0.886-0.38-2.145-0.652-3.672
			c-0.625-3.008-1.594-6.983-2.89-10.796c-1.259-3.835-2.863-7.472-4.167-10.095c-0.326-0.653-0.625-1.259-0.897-1.784
			c-0.281-0.524-0.534-0.967-0.734-1.341c-0.417-0.746-0.643-1.166-0.643-1.166l14.604-15.388c0,0,0.281,0.524,0.788,1.422
			c0.254,0.455,0.553,1.002,0.906,1.632c0.326,0.642,0.698,1.376,1.105,2.18c1.604,3.195,3.578,7.613,5.155,12.276
			c1.613,4.64,2.854,9.478,3.651,13.15c0.344,1.853,0.634,3.393,0.842,4.476C1715.13,73.212,1715.229,73.841,1715.229,73.841z"/>
		<path class="st1" d="M1684.336,15.015l-11.306,19.398c0,0-1.341-1.154-3.461-2.669c-2.129-1.493-5.055-3.299-8.099-4.71
			c-3.026-1.446-6.188-2.402-8.561-2.996c-1.196-0.279-2.183-0.524-2.89-0.606c-0.706-0.116-1.105-0.186-1.105-0.186l6.061-22.279
			c0,0,0.489,0.093,1.35,0.245c0.861,0.128,2.065,0.454,3.524,0.816c2.89,0.77,6.731,2.017,10.427,3.836
			c3.706,1.772,7.257,4.01,9.848,5.852C1682.706,13.593,1684.336,15.015,1684.336,15.015z"/>
		<polygon class="st1" points="1630.043,0 1628.566,22.733 1599.829,22.733 1599.829,0 		"/>
	</g>
</g>
</svg>