<!-- Generator: Adobe Illustrator 20.1.0, SVG Export Plug-In  -->
<svg version="1.1"
	 xmlns="http://www.w3.org/2000/svg" xmlns:xlink="http://www.w3.org/1999/xlink" xmlns:a="http://ns.adobe.com/AdobeSVGViewerExtensions/3.0/"
	 x="0px" y="0px" width="625.835px" height="611.145px" viewBox="0 0 625.835 611.145"
	 style="enable-background:new 0 0 625.835 611.145;" xml:space="preserve">
<style type="text/css">
	.st0{fill:#FFFFFF;}
	.st1{fill-rule:evenodd;clip-rule:evenodd;fill:#FFFFFF;}
</style>
<defs>
</defs>
<g>
	<g>
		<g>
			<polygon class="st0" points="519.258,0 480.052,0 480.052,18.09 516.437,18.09 			"/>
			<rect x="411.736" y="0" class="st0" width="38.215" height="18.09"/>
			<rect x="343.199" y="0" class="st0" width="38.215" height="18.09"/>
		</g>
		<rect x="343.199" y="0" class="st1" width="38.215" height="18.09"/>
		<rect x="411.736" y="0" class="st1" width="38.215" height="18.09"/>
		<polygon class="st1" points="519.258,0 480.052,0 480.052,18.09 516.437,18.09 		"/>
	</g>
	<g>
		<g>
			<rect x="274.184" y="0" class="st0" width="38.215" height="18.09"/>
			<rect x="205.868" y="0" class="st0" width="38.215" height="18.09"/>
			<rect x="137.331" y="0" class="st0" width="38.215" height="18.09"/>
		</g>
		<rect x="137.331" y="0" class="st1" width="38.215" height="18.09"/>
		<rect x="205.868" y="0" class="st1" width="38.215" height="18.09"/>
		<rect x="274.184" y="0" class="st1" width="38.215" height="18.09"/>
	</g>
	<g>
		<g>
			<rect x="68.315" y="0" class="st0" width="38.215" height="18.09"/>
			<rect x="0" y="0" class="st0" width="38.215" height="18.09"/>
		</g>
		<rect x="0" y="0" class="st1" width="38.215" height="18.09"/>
		<rect x="68.315" y="0" class="st1" width="38.215" height="18.09"/>
	</g>
	<g>
		<g>
			<rect x="603.102" y="580.744" class="st0" width="22.733" height="30.401"/>
			<rect x="603.102" y="526.381" class="st0" width="22.733" height="30.41"/>
			<rect x="603.102" y="471.841" class="st0" width="22.733" height="30.41"/>
		</g>
		<rect x="603.102" y="471.841" class="st1" width="22.733" height="30.41"/>
		<rect x="603.102" y="526.381" class="st1" width="22.733" height="30.41"/>
		<rect x="603.102" y="580.744" class="st1" width="22.733" height="30.401"/>
	</g>
	<g>
		<g>
			<rect x="603.102" y="416.921" class="st0" width="22.733" height="30.401"/>
			<rect x="603.102" y="362.557" class="st0" width="22.733" height="30.41"/>
			<rect x="603.102" y="308.017" class="st0" width="22.733" height="30.41"/>
		</g>
		<rect x="603.102" y="308.017" class="st1" width="22.733" height="30.41"/>
		<rect x="603.102" y="362.557" class="st1" width="22.733" height="30.41"/>
		<rect x="603.102" y="416.921" class="st1" width="22.733" height="30.401"/>
	</g>
	<g>
		<g>
			<rect x="603.102" y="253.097" class="st0" width="22.733" height="30.401"/>
			<rect x="603.102" y="198.733" class="st0" width="22.733" height="30.41"/>
			<rect x="603.102" y="144.194" class="st0" width="22.733" height="30.41"/>
		</g>
		<rect x="603.102" y="144.194" class="st1" width="22.733" height="30.41"/>
		<rect x="603.102" y="198.733" class="st1" width="22.733" height="30.41"/>
		<rect x="603.102" y="253.097" class="st1" width="22.733" height="30.401"/>
	</g>
	<g>
		<g>
			<polygon class="st0" points="625.835,119.674 625.835,88.735 603.102,90.248 603.102,119.674 			"/>
			<path class="st0" d="M614.119,37.452c-1.877-2.644-3.299-4.314-3.299-4.314l-19.398,11.578c0,0,1.154,1.373,2.669,3.544
				c1.493,2.18,3.299,5.177,4.71,8.294c1.446,3.099,2.402,6.336,2.996,8.767c0.279,1.224,0.524,2.236,0.606,2.959
				c0.116,0.723,0.186,1.132,0.186,1.132l22.279-6.207c0,0-0.093-0.501-0.245-1.382c-0.128-0.882-0.454-2.115-0.816-3.609
				c-0.77-2.959-2.017-6.893-3.836-10.678C618.199,43.741,615.961,40.105,614.119,37.452z"/>
			<path class="st0" d="M551.994,1.503l-8.802,17.543c0,0,0.513,0.074,1.411,0.204c0.886,0.158,2.145,0.39,3.672,0.668
				c3.008,0.64,6.983,1.633,10.796,2.959c3.835,1.29,7.472,2.932,10.095,4.268c0.653,0.334,1.259,0.64,1.784,0.918
				c0.524,0.288,0.967,0.547,1.341,0.751c0.746,0.427,1.166,0.659,1.166,0.659l15.388-14.955c0,0-0.524-0.288-1.422-0.807
				c-0.455-0.26-1.002-0.566-1.632-0.928c-0.642-0.334-1.376-0.714-2.18-1.132c-3.195-1.642-7.613-3.664-12.276-5.279
				c-4.64-1.652-9.478-2.922-13.15-3.739c-1.853-0.352-3.393-0.649-4.476-0.862C552.623,1.605,551.994,1.503,551.994,1.503z"/>
		</g>
		<path class="st1" d="M551.994,1.503l-8.802,17.543c0,0,0.513,0.074,1.411,0.204c0.886,0.158,2.145,0.39,3.672,0.668
			c3.008,0.64,6.983,1.633,10.796,2.959c3.835,1.29,7.472,2.932,10.095,4.268c0.653,0.334,1.259,0.64,1.784,0.918
			c0.524,0.288,0.967,0.547,1.341,0.751c0.746,0.427,1.166,0.659,1.166,0.659l15.388-14.955c0,0-0.524-0.288-1.422-0.807
			c-0.455-0.26-1.002-0.566-1.632-0.928c-0.642-0.334-1.376-0.714-2.18-1.132c-3.195-1.642-7.613-3.664-12.276-5.279
			c-4.64-1.652-9.478-2.922-13.15-3.739c-1.853-0.352-3.393-0.649-4.476-0.862C552.623,1.605,551.994,1.503,551.994,1.503z"/>
		<path class="st1" d="M610.82,33.138l-19.398,11.578c0,0,1.154,1.373,2.669,3.544c1.493,2.18,3.299,5.177,4.71,8.294
			c1.446,3.099,2.402,6.336,2.996,8.767c0.279,1.224,0.524,2.236,0.606,2.959c0.116,0.723,0.186,1.132,0.186,1.132l22.279-6.207
			c0,0-0.093-0.501-0.245-1.382c-0.128-0.882-0.454-2.115-0.816-3.609c-0.77-2.959-2.017-6.893-3.836-10.678
			c-1.772-3.795-4.01-7.431-5.852-10.084C612.242,34.808,610.82,33.138,610.82,33.138z"/>
		<polygon class="st1" points="625.835,88.735 603.102,90.248 603.102,119.674 625.835,119.674 		"/>
	</g>
</g>
</svg>