<!-- Generator: Adobe Illustrator 20.1.0, SVG Export Plug-In  -->
<svg version="1.1"
	 xmlns="http://www.w3.org/2000/svg" xmlns:xlink="http://www.w3.org/1999/xlink" xmlns:a="http://ns.adobe.com/AdobeSVGViewerExtensions/3.0/"
	 x="0px" y="0px" width="2625.044px" height="1669.956px" viewBox="0 0 2625.044 1669.956"
	 style="enable-background:new 0 0 2625.044 1669.956;" xml:space="preserve">
<style type="text/css">
	.st0{fill:#F8C363;}
	.st1{fill-rule:evenodd;clip-rule:evenodd;fill:#F8C363;}
</style>
<defs>
</defs>
<g>
	<g>
		<g>
			<polygon class="st0" points="2625.044,113.786 2625.044,155.644 2607.378,155.644 2607.378,116.798 			"/>
			<rect x="2607.378" y="187.781" class="st0" width="17.666" height="40.8"/>
			<rect x="2607.378" y="260.954" class="st0" width="17.666" height="40.8"/>
		</g>
		<rect x="2607.378" y="260.954" class="st1" width="17.666" height="40.8"/>
		<rect x="2607.378" y="187.781" class="st1" width="17.666" height="40.8"/>
		<polygon class="st1" points="2625.044,113.786 2625.044,155.644 2607.378,155.644 2607.378,116.798 		"/>
	</g>
	<g>
		<g>
			<rect x="2607.378" y="334.638" class="st0" width="17.666" height="40.8"/>
			<rect x="2607.378" y="407.575" class="st0" width="17.666" height="40.8"/>
			<rect x="2607.378" y="480.749" class="st0" width="17.666" height="40.8"/>
		</g>
		<rect x="2607.378" y="480.749" class="st1" width="17.666" height="40.8"/>
		<rect x="2607.378" y="407.575" class="st1" width="17.666" height="40.8"/>
		<rect x="2607.378" y="334.638" class="st1" width="17.666" height="40.8"/>
	</g>
	<g>
		<g>
			<rect x="2607.378" y="554.432" class="st0" width="17.666" height="40.8"/>
			<rect x="2607.378" y="627.369" class="st0" width="17.666" height="40.8"/>
			<rect x="2607.378" y="700.543" class="st0" width="17.666" height="40.8"/>
		</g>
		<rect x="2607.378" y="700.543" class="st1" width="17.666" height="40.8"/>
		<rect x="2607.378" y="627.369" class="st1" width="17.666" height="40.8"/>
		<rect x="2607.378" y="554.432" class="st1" width="17.666" height="40.8"/>
	</g>
	<g>
		<g>
			<rect x="2607.378" y="774.227" class="st0" width="17.666" height="40.8"/>
			<rect x="2607.378" y="847.163" class="st0" width="17.666" height="40.8"/>
			<rect x="2607.378" y="920.336" class="st0" width="17.666" height="40.8"/>
		</g>
		<rect x="2607.378" y="920.336" class="st1" width="17.666" height="40.8"/>
		<rect x="2607.378" y="847.163" class="st1" width="17.666" height="40.8"/>
		<rect x="2607.378" y="774.227" class="st1" width="17.666" height="40.8"/>
	</g>
	<g>
		<g>
			<rect x="2607.378" y="994.02" class="st0" width="17.666" height="40.8"/>
			<rect x="2607.378" y="1066.957" class="st0" width="17.666" height="40.8"/>
			<rect x="2607.378" y="1140.13" class="st0" width="17.666" height="40.8"/>
		</g>
		<rect x="2607.378" y="1140.13" class="st1" width="17.666" height="40.8"/>
		<rect x="2607.378" y="1066.957" class="st1" width="17.666" height="40.8"/>
		<rect x="2607.378" y="994.02" class="st1" width="17.666" height="40.8"/>
	</g>
	<g>
		<g>
			<rect x="2607.378" y="1213.814" class="st0" width="17.666" height="40.8"/>
			<rect x="2607.378" y="1286.751" class="st0" width="17.666" height="40.8"/>
			<rect x="2607.378" y="1359.925" class="st0" width="17.666" height="40.8"/>
		</g>
		<rect x="2607.378" y="1359.925" class="st1" width="17.666" height="40.8"/>
		<rect x="2607.378" y="1286.751" class="st1" width="17.666" height="40.8"/>
		<rect x="2607.378" y="1213.814" class="st1" width="17.666" height="40.8"/>
	</g>
	<g>
		<g>
			<path class="st0" d="M2607.142,1574.578l17.385,7.829c0,0-0.009,0.174-0.027,0.486c-0.027,0.323-0.045,0.784-0.118,1.369
				c-0.136,1.183-0.272,2.863-0.535,4.867c-0.498,4.008-1.422,9.298-2.69,14.438c-0.344,1.27-0.634,2.564-1.005,3.809
				c-0.363,1.232-0.725,2.452-1.078,3.621c-0.77,2.316-1.477,4.481-2.193,6.261c-0.661,1.829-1.295,3.286-1.739,4.307
				c-0.435,1.02-0.679,1.606-0.679,1.606l-15.274-15.122c0,0,0.199-0.486,0.552-1.319c0.353-0.847,0.87-2.041,1.404-3.535
				c0.571-1.468,1.141-3.248,1.766-5.14c0.562-1.929,1.16-3.995,1.649-6.112c1.006-4.219,1.722-8.563,2.093-11.861
				c0.191-1.643,0.29-3.025,0.39-3.983C2607.134,1575.138,2607.142,1574.578,2607.142,1574.578z"/>
			<rect x="2607.378" y="1433.608" class="st0" width="17.666" height="40.8"/>
			<polygon class="st0" points="2607.378,1506.545 2625.044,1506.545 2625.044,1547.855 2607.378,1546.399 			"/>
		</g>
		<path class="st1" d="M2624.528,1582.407c0,0-0.009,0.174-0.027,0.486c-0.027,0.323-0.045,0.784-0.118,1.369
			c-0.136,1.183-0.272,2.863-0.535,4.867c-0.498,4.008-1.422,9.298-2.69,14.438c-0.344,1.27-0.634,2.564-1.005,3.809
			c-0.363,1.232-0.725,2.452-1.078,3.621c-0.77,2.316-1.477,4.481-2.193,6.261c-0.661,1.829-1.295,3.286-1.739,4.307
			c-0.435,1.02-0.679,1.606-0.679,1.606l-15.274-15.122c0,0,0.199-0.486,0.552-1.319c0.353-0.847,0.87-2.041,1.404-3.535
			c0.571-1.468,1.141-3.248,1.766-5.14c0.562-1.929,1.16-3.995,1.649-6.112c1.006-4.219,1.722-8.563,2.093-11.861
			c0.191-1.643,0.29-3.025,0.39-3.983c0.091-0.959,0.099-1.519,0.099-1.519L2624.528,1582.407z"/>
		<polygon class="st1" points="2625.044,1506.545 2625.044,1547.855 2607.378,1546.399 2607.378,1506.545 		"/>
		<rect x="2607.378" y="1433.608" class="st1" width="17.666" height="40.8"/>
	</g>
	<g>
		<g>
			<rect x="2460.56" y="1645.685" class="st0" width="29.697" height="24.271"/>
			<polygon class="st0" points="2541.833,1645.685 2544.433,1669.944 2513.821,1669.956 2513.821,1645.685 			"/>
			<path class="st0" d="M2597.567,1649.108c0,0-0.39,0.424-1.069,1.158c-0.707,0.684-1.694,1.693-2.917,2.85
				c-2.446,2.278-5.852,5.041-9.431,7.356c-3.561,2.34-7.284,4.195-10.137,5.315c-1.413,0.61-2.609,0.983-3.452,1.27
				c-0.843,0.286-1.323,0.436-1.323,0.436l-7.121-23.424c0,0,0.389-0.125,1.078-0.336c0.698-0.224,1.685-0.51,2.845-0.996
				c2.337-0.871,5.399-2.34,8.326-4.219c2.935-1.867,5.734-4.108,7.746-5.962c1.006-0.933,1.812-1.767,2.392-2.315
				c0.562-0.598,0.878-0.946,0.878-0.946L2597.567,1649.108z"/>
		</g>
		<rect x="2460.56" y="1645.685" class="st1" width="29.697" height="24.271"/>
		<polygon class="st1" points="2544.433,1669.944 2513.821,1669.956 2513.821,1645.685 2541.833,1645.685 		"/>
		<path class="st1" d="M2597.567,1649.108c0,0-0.39,0.424-1.069,1.158c-0.707,0.684-1.694,1.693-2.917,2.85
			c-2.446,2.278-5.852,5.041-9.431,7.356c-3.561,2.34-7.284,4.195-10.137,5.315c-1.413,0.61-2.609,0.983-3.452,1.27
			c-0.843,0.286-1.323,0.436-1.323,0.436l-7.121-23.424c0,0,0.389-0.125,1.078-0.336c0.698-0.224,1.685-0.51,2.845-0.996
			c2.337-0.871,5.399-2.34,8.326-4.219c2.935-1.867,5.734-4.108,7.746-5.962c1.006-0.933,1.812-1.767,2.392-2.315
			c0.562-0.598,0.878-0.946,0.878-0.946L2597.567,1649.108z"/>
	</g>
	<g>
		<g>
			<rect x="2300.578" y="1645.685" class="st0" width="29.697" height="24.271"/>
			<rect x="2353.838" y="1645.685" class="st0" width="29.697" height="24.271"/>
			<rect x="2406.918" y="1645.685" class="st0" width="29.697" height="24.271"/>
		</g>
		<rect x="2300.578" y="1645.685" class="st1" width="29.697" height="24.271"/>
		<rect x="2353.838" y="1645.685" class="st1" width="29.697" height="24.271"/>
		<rect x="2406.918" y="1645.685" class="st1" width="29.697" height="24.271"/>
	</g>
	<g>
		<g>
			<rect x="2140.595" y="1645.685" class="st0" width="29.697" height="24.271"/>
			<rect x="2193.856" y="1645.685" class="st0" width="29.697" height="24.271"/>
			<rect x="2246.936" y="1645.685" class="st0" width="29.697" height="24.271"/>
		</g>
		<rect x="2140.595" y="1645.685" class="st1" width="29.697" height="24.271"/>
		<rect x="2193.856" y="1645.685" class="st1" width="29.697" height="24.271"/>
		<rect x="2246.936" y="1645.685" class="st1" width="29.697" height="24.271"/>
	</g>
	<g>
		<g>
			<rect x="1980.614" y="1645.685" class="st0" width="29.697" height="24.271"/>
			<rect x="2033.875" y="1645.685" class="st0" width="29.697" height="24.271"/>
			<rect x="2086.954" y="1645.685" class="st0" width="29.697" height="24.271"/>
		</g>
		<rect x="1980.614" y="1645.685" class="st1" width="29.697" height="24.271"/>
		<rect x="2033.875" y="1645.685" class="st1" width="29.697" height="24.271"/>
		<rect x="2086.954" y="1645.685" class="st1" width="29.697" height="24.271"/>
	</g>
	<g>
		<g>
			<rect x="1820.632" y="1645.685" class="st0" width="29.697" height="24.271"/>
			<rect x="1873.893" y="1645.685" class="st0" width="29.697" height="24.271"/>
			<rect x="1926.972" y="1645.685" class="st0" width="29.697" height="24.271"/>
		</g>
		<rect x="1820.632" y="1645.685" class="st1" width="29.697" height="24.271"/>
		<rect x="1873.893" y="1645.685" class="st1" width="29.697" height="24.271"/>
		<rect x="1926.972" y="1645.685" class="st1" width="29.697" height="24.271"/>
	</g>
	<g>
		<g>
			<rect x="1660.649" y="1645.685" class="st0" width="29.697" height="24.271"/>
			<rect x="1713.91" y="1645.685" class="st0" width="29.688" height="24.271"/>
			<rect x="1766.99" y="1645.685" class="st0" width="29.697" height="24.271"/>
		</g>
		<rect x="1660.649" y="1645.685" class="st1" width="29.697" height="24.271"/>
		<rect x="1713.91" y="1645.685" class="st1" width="29.688" height="24.271"/>
		<rect x="1766.99" y="1645.685" class="st1" width="29.697" height="24.271"/>
	</g>
	<g>
		<g>
			<rect x="1500.667" y="1645.685" class="st0" width="29.697" height="24.271"/>
			<rect x="1553.928" y="1645.685" class="st0" width="29.688" height="24.271"/>
			<rect x="1607.008" y="1645.685" class="st0" width="29.697" height="24.271"/>
		</g>
		<rect x="1500.667" y="1645.685" class="st1" width="29.697" height="24.271"/>
		<rect x="1553.928" y="1645.685" class="st1" width="29.688" height="24.271"/>
		<rect x="1607.008" y="1645.685" class="st1" width="29.697" height="24.271"/>
	</g>
	<g>
		<g>
			<rect x="1340.686" y="1645.685" class="st0" width="29.697" height="24.271"/>
			<rect x="1393.947" y="1645.685" class="st0" width="29.688" height="24.271"/>
			<rect x="1447.026" y="1645.685" class="st0" width="29.697" height="24.271"/>
		</g>
		<rect x="1340.686" y="1645.685" class="st1" width="29.697" height="24.271"/>
		<rect x="1393.947" y="1645.685" class="st1" width="29.688" height="24.271"/>
		<rect x="1447.026" y="1645.685" class="st1" width="29.697" height="24.271"/>
	</g>
	<g>
		<g>
			<rect x="1180.703" y="1645.685" class="st0" width="29.697" height="24.271"/>
			<rect x="1233.964" y="1645.685" class="st0" width="29.688" height="24.271"/>
			<rect x="1287.044" y="1645.685" class="st0" width="29.697" height="24.271"/>
		</g>
		<rect x="1180.703" y="1645.685" class="st1" width="29.697" height="24.271"/>
		<rect x="1233.964" y="1645.685" class="st1" width="29.688" height="24.271"/>
		<rect x="1287.044" y="1645.685" class="st1" width="29.697" height="24.271"/>
	</g>
	<g>
		<g>
			<rect x="1020.721" y="1645.685" class="st0" width="29.688" height="24.271"/>
			<rect x="1073.982" y="1645.685" class="st0" width="29.688" height="24.271"/>
			<rect x="1127.062" y="1645.685" class="st0" width="29.697" height="24.271"/>
		</g>
		<rect x="1020.721" y="1645.685" class="st1" width="29.688" height="24.271"/>
		<rect x="1073.982" y="1645.685" class="st1" width="29.688" height="24.271"/>
		<rect x="1127.062" y="1645.685" class="st1" width="29.697" height="24.271"/>
	</g>
	<g>
		<g>
			<rect x="860.74" y="1645.685" class="st0" width="29.688" height="24.271"/>
			<rect x="914" y="1645.685" class="st0" width="29.688" height="24.271"/>
			<rect x="967.08" y="1645.685" class="st0" width="29.697" height="24.271"/>
		</g>
		<rect x="860.74" y="1645.685" class="st1" width="29.688" height="24.271"/>
		<rect x="914" y="1645.685" class="st1" width="29.688" height="24.271"/>
		<rect x="967.08" y="1645.685" class="st1" width="29.697" height="24.271"/>
	</g>
	<g>
		<g>
			<rect x="700.757" y="1645.685" class="st0" width="29.688" height="24.271"/>
			<rect x="754.018" y="1645.685" class="st0" width="29.688" height="24.271"/>
			<rect x="807.098" y="1645.685" class="st0" width="29.697" height="24.271"/>
		</g>
		<rect x="700.757" y="1645.685" class="st1" width="29.688" height="24.271"/>
		<rect x="754.018" y="1645.685" class="st1" width="29.688" height="24.271"/>
		<rect x="807.098" y="1645.685" class="st1" width="29.697" height="24.271"/>
	</g>
	<g>
		<g>
			<rect x="540.775" y="1645.685" class="st0" width="29.688" height="24.271"/>
			<rect x="594.036" y="1645.685" class="st0" width="29.688" height="24.271"/>
			<rect x="647.116" y="1645.685" class="st0" width="29.697" height="24.271"/>
		</g>
		<rect x="540.775" y="1645.685" class="st1" width="29.688" height="24.271"/>
		<rect x="594.036" y="1645.685" class="st1" width="29.688" height="24.271"/>
		<rect x="647.116" y="1645.685" class="st1" width="29.697" height="24.271"/>
	</g>
	<g>
		<g>
			<rect x="380.794" y="1645.685" class="st0" width="29.688" height="24.271"/>
			<rect x="434.054" y="1645.685" class="st0" width="29.688" height="24.271"/>
			<rect x="487.134" y="1645.685" class="st0" width="29.697" height="24.271"/>
		</g>
		<rect x="380.794" y="1645.685" class="st1" width="29.688" height="24.271"/>
		<rect x="434.054" y="1645.685" class="st1" width="29.688" height="24.271"/>
		<rect x="487.134" y="1645.685" class="st1" width="29.697" height="24.271"/>
	</g>
	<g>
		<g>
			<rect x="220.811" y="1645.685" class="st0" width="29.688" height="24.271"/>
			<rect x="274.072" y="1645.685" class="st0" width="29.688" height="24.271"/>
			<rect x="327.152" y="1645.685" class="st0" width="29.697" height="24.271"/>
		</g>
		<rect x="220.811" y="1645.685" class="st1" width="29.688" height="24.271"/>
		<rect x="274.072" y="1645.685" class="st1" width="29.688" height="24.271"/>
		<rect x="327.152" y="1645.685" class="st1" width="29.697" height="24.271"/>
	</g>
	<g>
		<g>
			<path class="st0" d="M78.115,1645.685c6.469,0,12.928,0,12.928,0l-0.806,24.271c0,0-1.993,0-4.973,0
				c-2.981,0-6.958,0-10.917-0.075c-3.959-0.062-7.909-0.174-10.853-0.672c-1.477-0.187-2.69-0.498-3.551-0.647
				c-0.426-0.075-0.761-0.149-0.987-0.224c-0.226-0.05-0.345-0.088-0.345-0.088l6.623-23.611c0,0,0.1,0.025,0.281,0.075
				c0.19,0.05,0.462,0.1,0.816,0.162c0.697,0.1,1.703,0.336,2.908,0.461C71.646,1645.685,74.881,1645.685,78.115,1645.685z"/>
			<rect x="114.081" y="1645.685" class="st0" width="29.697" height="24.271"/>
			<rect x="167.17" y="1645.685" class="st0" width="29.697" height="24.271"/>
		</g>
		<path class="st1" d="M91.043,1645.685l-0.806,24.271c0,0-1.993,0-4.973,0c-2.981,0-6.958,0-10.917-0.075
			c-3.959-0.062-7.909-0.174-10.853-0.672c-1.477-0.187-2.69-0.498-3.551-0.647c-0.426-0.075-0.761-0.149-0.987-0.224
			c-0.226-0.05-0.345-0.088-0.345-0.088l6.623-23.611c0,0,0.1,0.025,0.281,0.075c0.19,0.05,0.462,0.1,0.816,0.162
			c0.697,0.1,1.703,0.336,2.908,0.461c2.41,0.348,5.644,0.348,8.878,0.348C84.584,1645.685,91.043,1645.685,91.043,1645.685z"/>
		<rect x="114.081" y="1645.685" class="st1" width="29.697" height="24.271"/>
		<rect x="167.17" y="1645.685" class="st1" width="29.697" height="24.271"/>
	</g>
	<g>
		<g>
			<rect x="0.004" y="1478.092" class="st0" width="17.666" height="40.8"/>
			<path class="st0" d="M19.129,1585.183l-16.978,10.157c0,0-0.109-0.66-0.317-1.805c-0.19-1.158-0.407-2.825-0.698-4.829
				c-0.48-4.008-0.933-9.41-1.014-14.849c-0.154-10.854-0.118-21.794-0.118-21.794l17.666-2.253c0,0,0,8.886,0,17.761
				c0,4.443,0.326,8.874,0.679,12.172c0.218,1.631,0.381,3,0.526,3.958C19.038,1584.647,19.129,1585.183,19.129,1585.183z"/>
			<path class="st0" d="M45.736,1634.956l-10.862,21.122c0,0-0.435-0.323-1.159-0.958c-0.716-0.659-1.776-1.543-2.99-2.714
				c-2.446-2.302-5.545-5.675-8.407-9.409c-2.872-3.734-5.508-7.792-7.284-11.04c-0.942-1.581-1.604-3.012-2.129-3.958
				c-0.507-0.958-0.77-1.531-0.77-1.531l14.984-15.72c0,0,0.208,0.473,0.625,1.257c0.435,0.784,0.96,1.967,1.731,3.249
				c1.45,2.676,3.615,5.999,5.961,9.048c2.346,3.05,4.883,5.813,6.894,7.68c0.997,0.958,1.866,1.668,2.455,2.203
				C45.383,1634.695,45.736,1634.956,45.736,1634.956z"/>
		</g>
		<rect x="0.004" y="1478.092" class="st1" width="17.666" height="40.8"/>
		<path class="st1" d="M19.129,1585.183l-16.978,10.157c0,0-0.109-0.66-0.317-1.805c-0.19-1.158-0.407-2.825-0.698-4.829
			c-0.48-4.008-0.933-9.41-1.014-14.849c-0.154-10.854-0.118-21.794-0.118-21.794l17.666-2.253c0,0,0,8.886,0,17.761
			c0,4.443,0.326,8.874,0.679,12.172c0.218,1.631,0.381,3,0.526,3.958C19.038,1584.647,19.129,1585.183,19.129,1585.183z"/>
		<path class="st1" d="M45.736,1634.956l-10.862,21.122c0,0-0.435-0.323-1.159-0.958c-0.716-0.659-1.776-1.543-2.99-2.714
			c-2.446-2.302-5.545-5.675-8.407-9.409c-2.872-3.734-5.508-7.792-7.284-11.04c-0.942-1.581-1.604-3.012-2.129-3.958
			c-0.507-0.958-0.77-1.531-0.77-1.531l14.984-15.72c0,0,0.208,0.473,0.625,1.257c0.435,0.784,0.96,1.967,1.731,3.249
			c1.45,2.676,3.615,5.999,5.961,9.048c2.346,3.05,4.883,5.813,6.894,7.68c0.997,0.958,1.866,1.668,2.455,2.203
			C45.383,1634.695,45.736,1634.956,45.736,1634.956z"/>
	</g>
	<g>
		<g>
			<rect x="0.004" y="1258.299" class="st0" width="17.666" height="40.8"/>
			<rect x="0.004" y="1331.472" class="st0" width="17.666" height="40.8"/>
			<rect x="0.004" y="1404.408" class="st0" width="17.666" height="40.8"/>
		</g>
		<rect x="0.004" y="1258.299" class="st1" width="17.666" height="40.8"/>
		<rect x="0.004" y="1331.472" class="st1" width="17.666" height="40.8"/>
		<rect x="0.004" y="1404.408" class="st1" width="17.666" height="40.8"/>
	</g>
	<g>
		<g>
			<rect x="0.004" y="1038.504" class="st0" width="17.666" height="40.8"/>
			<rect x="0.004" y="1111.678" class="st0" width="17.666" height="40.8"/>
			<rect x="0.004" y="1184.615" class="st0" width="17.666" height="40.787"/>
		</g>
		<rect x="0.004" y="1038.504" class="st1" width="17.666" height="40.8"/>
		<rect x="0.004" y="1111.678" class="st1" width="17.666" height="40.8"/>
		<rect x="0.004" y="1184.615" class="st1" width="17.666" height="40.787"/>
	</g>
	<g>
		<g>
			<rect x="0.004" y="818.71" class="st0" width="17.666" height="40.8"/>
			<rect x="0.004" y="891.884" class="st0" width="17.666" height="40.8"/>
			<rect x="0.004" y="964.821" class="st0" width="17.666" height="40.787"/>
		</g>
		<rect x="0.004" y="818.71" class="st1" width="17.666" height="40.8"/>
		<rect x="0.004" y="891.884" class="st1" width="17.666" height="40.8"/>
		<rect x="0.004" y="964.821" class="st1" width="17.666" height="40.787"/>
	</g>
	<g>
		<g>
			<rect x="0.004" y="598.917" class="st0" width="17.666" height="40.8"/>
			<rect x="0.004" y="672.09" class="st0" width="17.666" height="40.8"/>
			<rect x="0.004" y="745.026" class="st0" width="17.666" height="40.787"/>
		</g>
		<rect x="0.004" y="598.917" class="st1" width="17.666" height="40.8"/>
		<rect x="0.004" y="672.09" class="st1" width="17.666" height="40.8"/>
		<rect x="0.004" y="745.026" class="st1" width="17.666" height="40.787"/>
	</g>
	<g>
		<g>
			<rect x="0.004" y="379.122" class="st0" width="17.666" height="40.8"/>
			<rect x="0.004" y="452.296" class="st0" width="17.666" height="40.8"/>
			<rect x="0.004" y="525.233" class="st0" width="17.666" height="40.787"/>
		</g>
		<rect x="0.004" y="379.122" class="st1" width="17.666" height="40.8"/>
		<rect x="0.004" y="452.296" class="st1" width="17.666" height="40.8"/>
		<rect x="0.004" y="525.233" class="st1" width="17.666" height="40.787"/>
	</g>
	<g>
		<g>
			<rect x="0.004" y="159.328" class="st0" width="17.666" height="40.8"/>
			<rect x="0.004" y="232.502" class="st0" width="17.666" height="40.8"/>
			<rect x="0.004" y="305.439" class="st0" width="17.666" height="40.787"/>
		</g>
		<rect x="0.004" y="159.328" class="st1" width="17.666" height="40.8"/>
		<rect x="0.004" y="232.502" class="st1" width="17.666" height="40.8"/>
		<rect x="0.004" y="305.439" class="st1" width="17.666" height="40.787"/>
	</g>
	<g>
		<g>
			<path class="st0" d="M0.973,82.695l17.258,8.7c0,0-0.054,0.56-0.136,1.519c-0.109,0.958-0.19,2.34-0.281,4.007
				c-0.19,3.324-0.145,7.767-0.145,12.21c0,8.874,0,17.761,0,17.761l-17.666-0.697c0,0,0-2.738,0-6.833
				c0.009-4.095,0.018-9.546,0.027-15.011c0.027-2.714,0.063-5.439,0.081-7.978c0.091-2.551,0.1-4.929,0.281-6.945
				c0.127-2.029,0.245-3.721,0.39-4.891C0.91,83.367,0.973,82.695,0.973,82.695z"/>
			<path class="st0" d="M29.855,18.396l11.759,20.263c0,0-0.326,0.324-0.906,0.884c-0.571,0.573-1.35,1.457-2.31,2.477
				c-1.857,2.128-4.24,5.14-6.387,8.463c-2.165,3.299-4.067,6.92-5.363,9.721c-0.67,1.394-1.169,2.602-1.513,3.448
				c-0.353,0.847-0.562,1.319-0.562,1.319L9,50.52c0,0,0.245-0.585,0.679-1.618c0.435-1.021,1.051-2.489,1.875-4.182
				c1.595-3.423,3.932-7.829,6.577-11.849c2.618-4.07,5.535-7.741,7.8-10.355c1.169-1.257,2.129-2.328,2.817-3.037
				C29.456,18.794,29.855,18.396,29.855,18.396z"/>
			<path class="st0" d="M85.797,24.271c0,0-1.612,0-4.041,0c-2.419,0.024-5.653-0.063-8.887,0.05
				c-3.225,0.124-6.45,0.622-8.824,1.282c-1.196,0.261-2.174,0.622-2.863,0.834c-0.689,0.211-1.087,0.348-1.087,0.348L52.359,3.622
				c0,0,0.471-0.174,1.314-0.46c0.843-0.262,2.029-0.735,3.488-1.083c2.899-0.859,6.831-1.556,10.771-1.805
				c3.941-0.236,7.909-0.224,10.89-0.261C81.802,0,83.786,0,83.786,0L85.797,24.271z"/>
		</g>
		<path class="st1" d="M85.797,24.271c0,0-1.612,0-4.041,0c-2.419,0.024-5.653-0.063-8.887,0.05
			c-3.225,0.124-6.45,0.622-8.824,1.282c-1.196,0.261-2.174,0.622-2.863,0.834c-0.689,0.211-1.087,0.348-1.087,0.348L52.359,3.622
			c0,0,0.471-0.174,1.314-0.46c0.843-0.262,2.029-0.735,3.488-1.083c2.899-0.859,6.831-1.556,10.771-1.805
			c3.941-0.236,7.909-0.224,10.89-0.261C81.802,0,83.786,0,83.786,0L85.797,24.271z"/>
		<path class="st1" d="M41.614,38.659c0,0-0.326,0.324-0.906,0.884c-0.571,0.573-1.35,1.457-2.31,2.477
			c-1.857,2.128-4.24,5.14-6.387,8.463c-2.165,3.299-4.067,6.92-5.363,9.721c-0.67,1.394-1.169,2.602-1.513,3.448
			c-0.353,0.847-0.562,1.319-0.562,1.319L9,50.52c0,0,0.245-0.585,0.679-1.618c0.435-1.021,1.051-2.489,1.875-4.182
			c1.595-3.423,3.932-7.829,6.577-11.849c2.618-4.07,5.535-7.741,7.8-10.355c1.169-1.257,2.129-2.328,2.817-3.037
			c0.707-0.685,1.105-1.083,1.105-1.083L41.614,38.659z"/>
		<path class="st1" d="M18.231,91.395c0,0-0.054,0.56-0.136,1.519c-0.109,0.958-0.19,2.34-0.281,4.007
			c-0.19,3.324-0.145,7.767-0.145,12.21c0,8.874,0,17.761,0,17.761l-17.666-0.697c0,0,0-2.738,0-6.833
			c0.009-4.095,0.018-9.546,0.027-15.011c0.027-2.714,0.063-5.439,0.081-7.978c0.091-2.551,0.1-4.929,0.281-6.945
			c0.127-2.029,0.245-3.721,0.39-4.891c0.127-1.17,0.19-1.842,0.19-1.842L18.231,91.395z"/>
	</g>
	<g>
		<g>
			<rect x="108.437" class="st0" width="29.697" height="24.271"/>
			<rect x="161.526" class="st0" width="29.697" height="24.271"/>
			<rect x="214.787" class="st0" width="29.697" height="24.271"/>
		</g>
		<rect x="214.787" class="st1" width="29.697" height="24.271"/>
		<rect x="161.526" class="st1" width="29.697" height="24.271"/>
		<rect x="108.437" class="st1" width="29.697" height="24.271"/>
	</g>
	<g>
		<g>
			<rect x="268.419" class="st0" width="29.697" height="24.271"/>
			<rect x="321.508" class="st0" width="29.697" height="24.271"/>
			<rect x="374.769" class="st0" width="29.697" height="24.271"/>
		</g>
		<rect x="374.769" class="st1" width="29.697" height="24.271"/>
		<rect x="321.508" class="st1" width="29.697" height="24.271"/>
		<rect x="268.419" class="st1" width="29.697" height="24.271"/>
	</g>
	<g>
		<g>
			<rect x="428.401" class="st0" width="29.697" height="24.271"/>
			<rect x="481.49" class="st0" width="29.697" height="24.271"/>
			<rect x="534.751" class="st0" width="29.697" height="24.271"/>
		</g>
		<rect x="534.751" class="st1" width="29.697" height="24.271"/>
		<rect x="481.49" class="st1" width="29.697" height="24.271"/>
		<rect x="428.401" class="st1" width="29.697" height="24.271"/>
	</g>
	<g>
		<g>
			<rect x="588.383" class="st0" width="29.697" height="24.271"/>
			<rect x="641.472" class="st0" width="29.697" height="24.271"/>
			<rect x="694.733" class="st0" width="29.697" height="24.271"/>
		</g>
		<rect x="694.733" class="st1" width="29.697" height="24.271"/>
		<rect x="641.472" class="st1" width="29.697" height="24.271"/>
		<rect x="588.383" class="st1" width="29.697" height="24.271"/>
	</g>
	<g>
		<g>
			<rect x="748.365" class="st0" width="29.697" height="24.271"/>
			<rect x="801.454" class="st0" width="29.697" height="24.271"/>
			<rect x="854.715" class="st0" width="29.697" height="24.271"/>
		</g>
		<rect x="854.715" class="st1" width="29.697" height="24.271"/>
		<rect x="801.454" class="st1" width="29.697" height="24.271"/>
		<rect x="748.365" class="st1" width="29.697" height="24.271"/>
	</g>
	<g>
		<g>
			<rect x="908.347" class="st0" width="29.697" height="24.271"/>
			<rect x="961.436" class="st0" width="29.697" height="24.271"/>
			<rect x="1014.697" class="st0" width="29.697" height="24.271"/>
		</g>
		<rect x="1014.697" class="st1" width="29.697" height="24.271"/>
		<rect x="961.436" class="st1" width="29.697" height="24.271"/>
		<rect x="908.347" class="st1" width="29.697" height="24.271"/>
	</g>
	<g>
		<g>
			<rect x="1068.329" class="st0" width="29.697" height="24.271"/>
			<rect x="1121.418" class="st0" width="29.697" height="24.271"/>
			<rect x="1174.679" class="st0" width="29.697" height="24.271"/>
		</g>
		<rect x="1174.679" class="st1" width="29.697" height="24.271"/>
		<rect x="1121.418" class="st1" width="29.697" height="24.271"/>
		<rect x="1068.329" class="st1" width="29.697" height="24.271"/>
	</g>
	<g>
		<g>
			<rect x="1228.311" class="st0" width="29.697" height="24.271"/>
			<rect x="1281.4" class="st0" width="29.697" height="24.271"/>
			<rect x="1334.661" class="st0" width="29.697" height="24.271"/>
		</g>
		<rect x="1334.661" class="st1" width="29.697" height="24.271"/>
		<rect x="1281.4" class="st1" width="29.697" height="24.271"/>
		<rect x="1228.311" class="st1" width="29.697" height="24.271"/>
	</g>
	<g>
		<g>
			<rect x="1388.293" class="st0" width="29.697" height="24.271"/>
			<rect x="1441.382" class="st0" width="29.697" height="24.271"/>
			<rect x="1494.643" class="st0" width="29.697" height="24.271"/>
		</g>
		<rect x="1494.643" class="st1" width="29.697" height="24.271"/>
		<rect x="1441.382" class="st1" width="29.697" height="24.271"/>
		<rect x="1388.293" class="st1" width="29.697" height="24.271"/>
	</g>
	<g>
		<g>
			<rect x="1548.284" class="st0" width="29.688" height="24.271"/>
			<rect x="1601.364" class="st0" width="29.697" height="24.271"/>
			<rect x="1654.625" class="st0" width="29.697" height="24.271"/>
		</g>
		<rect x="1654.625" class="st1" width="29.697" height="24.271"/>
		<rect x="1601.364" class="st1" width="29.697" height="24.271"/>
		<rect x="1548.284" class="st1" width="29.688" height="24.271"/>
	</g>
	<g>
		<g>
			<rect x="1708.266" class="st0" width="29.688" height="24.271"/>
			<rect x="1761.346" class="st0" width="29.697" height="24.271"/>
			<rect x="1814.607" class="st0" width="29.697" height="24.271"/>
		</g>
		<rect x="1814.607" class="st1" width="29.697" height="24.271"/>
		<rect x="1761.346" class="st1" width="29.697" height="24.271"/>
		<rect x="1708.266" class="st1" width="29.688" height="24.271"/>
	</g>
	<g>
		<g>
			<rect x="1868.248" class="st0" width="29.688" height="24.271"/>
			<rect x="1921.328" class="st0" width="29.697" height="24.271"/>
			<rect x="1974.589" class="st0" width="29.697" height="24.271"/>
		</g>
		<rect x="1974.589" class="st1" width="29.697" height="24.271"/>
		<rect x="1921.328" class="st1" width="29.697" height="24.271"/>
		<rect x="1868.248" class="st1" width="29.688" height="24.271"/>
	</g>
	<g>
		<g>
			<rect x="2028.23" class="st0" width="29.688" height="24.271"/>
			<rect x="2081.31" class="st0" width="29.697" height="24.271"/>
			<rect x="2134.571" class="st0" width="29.697" height="24.271"/>
		</g>
		<rect x="2134.571" class="st1" width="29.697" height="24.271"/>
		<rect x="2081.31" class="st1" width="29.697" height="24.271"/>
		<rect x="2028.23" class="st1" width="29.688" height="24.271"/>
	</g>
	<g>
		<g>
			<rect x="2188.212" class="st0" width="29.688" height="24.271"/>
			<rect x="2241.292" class="st0" width="29.697" height="24.271"/>
			<rect x="2294.553" class="st0" width="29.697" height="24.271"/>
		</g>
		<rect x="2294.553" class="st1" width="29.697" height="24.271"/>
		<rect x="2241.292" class="st1" width="29.697" height="24.271"/>
		<rect x="2188.212" class="st1" width="29.688" height="24.271"/>
	</g>
	<g>
		<g>
			<rect x="2348.195" class="st0" width="29.688" height="24.271"/>
			<rect x="2401.274" class="st0" width="29.697" height="24.271"/>
			<rect x="2454.535" class="st0" width="29.697" height="24.271"/>
		</g>
		<rect x="2454.535" class="st1" width="29.697" height="24.271"/>
		<rect x="2401.274" class="st1" width="29.697" height="24.271"/>
		<rect x="2348.195" class="st1" width="29.688" height="24.271"/>
	</g>
	<g>
		<g>
			<polygon class="st0" points="2508.177,0 2538.39,0 2536.913,24.271 2508.177,24.271 			"/>
			<path class="st0" d="M2588.471,12.509c2.582,2.004,4.213,3.522,4.213,3.522l-11.306,20.711c0,0-1.341-1.232-3.46-2.85
				c-2.129-1.594-5.055-3.522-8.099-5.028c-3.026-1.544-6.188-2.564-8.561-3.199c-1.196-0.298-2.184-0.56-2.89-0.647
				c-0.707-0.124-1.105-0.199-1.105-0.199l6.061-23.786c0,0,0.489,0.1,1.35,0.262c0.861,0.137,2.065,0.485,3.524,0.871
				c2.89,0.822,6.731,2.153,10.427,4.095C2582.329,8.152,2585.88,10.542,2588.471,12.509z"/>
			<path class="st0" d="M2623.576,78.836l-17.132,9.397c0,0-0.073-0.548-0.199-1.506c-0.154-0.946-0.381-2.29-0.653-3.921
				c-0.625-3.211-1.594-7.455-2.89-11.526c-1.26-4.094-2.863-7.978-4.167-10.778c-0.326-0.697-0.625-1.344-0.897-1.905
				c-0.281-0.56-0.534-1.033-0.734-1.431c-0.417-0.796-0.643-1.245-0.643-1.245l14.604-16.429c0,0,0.281,0.56,0.788,1.518
				c0.254,0.486,0.553,1.07,0.906,1.742c0.326,0.685,0.698,1.469,1.105,2.328c1.604,3.411,3.578,8.128,5.155,13.107
				c1.613,4.954,2.854,10.119,3.651,14.039c0.344,1.979,0.634,3.622,0.842,4.779C2623.477,78.164,2623.576,78.836,2623.576,78.836z"
				/>
		</g>
		<path class="st1" d="M2623.576,78.836l-17.132,9.397c0,0-0.073-0.548-0.199-1.506c-0.154-0.946-0.381-2.29-0.653-3.921
			c-0.625-3.211-1.594-7.455-2.89-11.526c-1.26-4.094-2.863-7.978-4.167-10.778c-0.326-0.697-0.625-1.344-0.897-1.905
			c-0.281-0.56-0.534-1.033-0.734-1.431c-0.417-0.796-0.643-1.245-0.643-1.245l14.604-16.429c0,0,0.281,0.56,0.788,1.518
			c0.254,0.486,0.553,1.07,0.906,1.742c0.326,0.685,0.698,1.469,1.105,2.328c1.604,3.411,3.578,8.128,5.155,13.107
			c1.613,4.954,2.854,10.119,3.651,14.039c0.344,1.979,0.634,3.622,0.842,4.779C2623.477,78.164,2623.576,78.836,2623.576,78.836z"
			/>
		<path class="st1" d="M2592.684,16.031l-11.306,20.711c0,0-1.341-1.232-3.46-2.85c-2.129-1.594-5.055-3.522-8.099-5.028
			c-3.026-1.544-6.188-2.564-8.561-3.199c-1.196-0.298-2.184-0.56-2.89-0.647c-0.707-0.124-1.105-0.199-1.105-0.199l6.061-23.786
			c0,0,0.489,0.1,1.35,0.262c0.861,0.137,2.065,0.485,3.524,0.871c2.89,0.822,6.731,2.153,10.427,4.095
			c3.706,1.892,7.257,4.282,9.848,6.248C2591.053,14.512,2592.684,16.031,2592.684,16.031z"/>
		<polygon class="st1" points="2538.39,0 2536.913,24.271 2508.177,24.271 2508.177,0 		"/>
	</g>
</g>
</svg>