<!-- Generator: Adobe Illustrator 20.1.0, SVG Export Plug-In  -->
<svg version="1.1"
	 xmlns="http://www.w3.org/2000/svg" xmlns:xlink="http://www.w3.org/1999/xlink" xmlns:a="http://ns.adobe.com/AdobeSVGViewerExtensions/3.0/"
	 x="0px" y="0px" width="502.001px" height="526.228px" viewBox="0 0 502.001 526.228"
	 style="enable-background:new 0 0 502.001 526.228;" xml:space="preserve">
<style type="text/css">
	.st0{fill:#353535;}
</style>
<defs>
</defs>
<g id="_x31_474318358_x5F_icon-111-search_1_">
	<title></title>
	<desc></desc>
	<g id="Page-1_2_">
		<g id="icon-111-search_1_">
			<path id="search_1_" class="st0" d="M325.458,373.935c-33.689,24.005-74.909,38.125-119.428,38.125
				C92.243,412.06,0,319.817,0,206.03S92.243,0,206.03,0s206.03,92.243,206.03,206.03c0,56.894-23.061,108.401-60.345,145.685
				l145.369,145.369c6.667,6.667,6.505,17.357-0.188,24.05c-6.74,6.74-17.461,6.778-24.05,0.188L325.458,373.935L325.458,373.935z
				 M206.03,387.821c100.401,0,181.791-81.391,181.791-181.791S306.431,24.239,206.03,24.239S24.239,105.63,24.239,206.03
				S105.63,387.821,206.03,387.821L206.03,387.821z"/>
		</g>
	</g>
</g>
</svg>