<!-- Generator: Adobe Illustrator 20.1.0, SVG Export Plug-In  -->
<svg version="1.1"
	 xmlns="http://www.w3.org/2000/svg" xmlns:xlink="http://www.w3.org/1999/xlink" xmlns:a="http://ns.adobe.com/AdobeSVGViewerExtensions/3.0/"
	 x="0px" y="0px" width="4485.18px" height="1450.697px" viewBox="0 0 4485.18 1450.697"
	 style="enable-background:new 0 0 4485.18 1450.697;" xml:space="preserve">
<style type="text/css">
	.st0{fill:#FFFFFF;}
	.st1{fill-rule:evenodd;clip-rule:evenodd;fill:#FFFFFF;}
</style>
<defs>
</defs>
<g>
	<g>
		<g>
			<path class="st0" d="M4485.18,124.54c0,11.041,0,22.093,0,22.093h-24.83v-38.289l24.78-6.567c0,0,0.02,2.845,0.04,7.103
				C4485.17,113.147,4485.18,118.838,4485.18,124.54z"/>
			<rect x="4460.35" y="180.139" class="st0" width="24.83" height="42.537"/>
			<rect x="4460.35" y="256.429" class="st0" width="24.83" height="42.547"/>
		</g>
		<rect x="4460.35" y="256.429" class="st1" width="24.83" height="42.547"/>
		<rect x="4460.35" y="180.139" class="st1" width="24.83" height="42.537"/>
		<path class="st1" d="M4485.18,124.54c0,11.041,0,22.093,0,22.093h-24.83v-38.289l24.78-6.567c0,0,0.02,2.845,0.04,7.103
			C4485.17,113.147,4485.18,118.838,4485.18,124.54z"/>
	</g>
	<g>
		<g>
			<rect x="4460.35" y="333.266" class="st0" width="24.83" height="42.547"/>
			<rect x="4460.35" y="409.32" class="st0" width="24.83" height="42.537"/>
			<rect x="4460.35" y="485.61" class="st0" width="24.83" height="42.537"/>
		</g>
		<rect x="4460.35" y="485.61" class="st1" width="24.83" height="42.537"/>
		<rect x="4460.35" y="409.32" class="st1" width="24.83" height="42.537"/>
		<rect x="4460.35" y="333.266" class="st1" width="24.83" height="42.547"/>
	</g>
	<g>
		<g>
			<rect x="4460.35" y="562.447" class="st0" width="24.83" height="42.537"/>
			<rect x="4460.35" y="638.491" class="st0" width="24.83" height="42.547"/>
			<rect x="4460.35" y="714.791" class="st0" width="24.83" height="42.537"/>
		</g>
		<rect x="4460.35" y="714.791" class="st1" width="24.83" height="42.537"/>
		<rect x="4460.35" y="638.491" class="st1" width="24.83" height="42.547"/>
		<rect x="4460.35" y="562.447" class="st1" width="24.83" height="42.537"/>
	</g>
	<g>
		<g>
			<rect x="4460.35" y="791.629" class="st0" width="24.83" height="42.537"/>
			<rect x="4460.35" y="867.671" class="st0" width="24.83" height="42.537"/>
			<rect x="4460.35" y="943.973" class="st0" width="24.83" height="42.537"/>
		</g>
		<rect x="4460.35" y="943.973" class="st1" width="24.83" height="42.537"/>
		<rect x="4460.35" y="867.671" class="st1" width="24.83" height="42.537"/>
		<rect x="4460.35" y="791.629" class="st1" width="24.83" height="42.537"/>
	</g>
	<g>
		<g>
			<rect x="4460.35" y="1020.809" class="st0" width="24.83" height="42.537"/>
			<rect x="4460.35" y="1096.853" class="st0" width="24.83" height="42.537"/>
			<rect x="4460.35" y="1173.153" class="st0" width="24.83" height="42.537"/>
		</g>
		<rect x="4460.35" y="1173.153" class="st1" width="24.83" height="42.537"/>
		<rect x="4460.35" y="1096.853" class="st1" width="24.83" height="42.537"/>
		<rect x="4460.35" y="1020.809" class="st1" width="24.83" height="42.537"/>
	</g>
	<g>
		<g>
			<path class="st0" d="M4449.62,1388.344l21.5,16.495c0,0-0.41,0.557-1.14,1.546c-0.77,0.948-1.86,2.309-3.22,3.897
				c-2.74,3.155-6.7,7.093-10.98,10.619c-4.27,3.557-8.84,6.701-12.38,8.846c-0.89,0.546-1.69,1.052-2.42,1.474
				c-0.73,0.412-1.37,0.773-1.9,1.072c-1.05,0.588-1.65,0.928-1.65,0.928l-15.57-21.846c0,0,0.5-0.278,1.37-0.753
				c0.87-0.464,2.11-1.144,3.55-2.041c2.92-1.722,6.69-4.268,10.21-7.144c3.53-2.866,6.79-6.062,9.05-8.64
				c1.12-1.299,2.02-2.412,2.65-3.186C4449.28,1388.809,4449.62,1388.344,4449.62,1388.344z"/>
			<rect x="4460.35" y="1249.99" class="st0" width="24.83" height="42.537"/>
			<path class="st0" d="M4460.35,1324.436l24.83,2.474c0,0,0,2.845,0,7.114s0,9.969-0.06,15.639c-0.07,5.67-0.2,11.32-0.32,15.526
				c-0.03,2.103-0.18,3.856-0.26,5.083c-0.04,0.608-0.06,1.092-0.1,1.423c-0.04,0.32-0.07,0.495-0.07,0.495l-24.2-10.722
				c0,0,0.07-0.577,0.09-1.588c0.03-1.01,0.11-2.453,0.09-4.196v-12.732C4460.35,1333.693,4460.35,1324.436,4460.35,1324.436z"/>
		</g>
		<path class="st1" d="M4471.12,1404.84c0,0-0.41,0.557-1.14,1.546c-0.77,0.948-1.86,2.309-3.22,3.897
			c-2.74,3.155-6.7,7.093-10.98,10.619c-4.27,3.557-8.84,6.701-12.38,8.846c-0.89,0.546-1.69,1.052-2.42,1.474
			c-0.73,0.412-1.37,0.773-1.9,1.072c-1.05,0.588-1.65,0.928-1.65,0.928l-15.57-21.846c0,0,0.5-0.278,1.37-0.753
			c0.87-0.464,2.11-1.144,3.55-2.041c2.92-1.722,6.69-4.268,10.21-7.144c3.53-2.866,6.79-6.062,9.05-8.64
			c1.12-1.299,2.02-2.412,2.65-3.186c0.59-0.804,0.93-1.268,0.93-1.268L4471.12,1404.84z"/>
		<path class="st1" d="M4485.18,1326.91c0,0,0,2.845,0,7.114s0,9.969-0.06,15.639c-0.07,5.67-0.2,11.32-0.32,15.526
			c-0.03,2.103-0.18,3.856-0.26,5.083c-0.04,0.608-0.06,1.092-0.1,1.423c-0.04,0.32-0.07,0.495-0.07,0.495l-24.2-10.722
			c0,0,0.07-0.577,0.09-1.588c0.03-1.01,0.11-2.453,0.09-4.196v-12.732c0-9.258,0-18.516,0-18.516L4485.18,1326.91z"/>
		<rect x="4460.35" y="1249.99" class="st1" width="24.83" height="42.537"/>
	</g>
	<g>
		<g>
			<rect x="4212.25" y="1425.098" class="st0" width="41.26" height="25.599"/>
			<rect x="4286.25" y="1425.098" class="st0" width="41.27" height="25.599"/>
			<path class="st0" d="M4404.3,1445.903c0,0-0.67,0.165-1.84,0.453c-1.17,0.309-2.86,0.639-4.88,1.062
				c-4.05,0.846-9.5,1.712-14.98,2.299c-1.37,0.134-2.74,0.268-4.09,0.392c-1.36,0.123-2.69,0.175-3.98,0.268
				c-2.58,0.186-5,0.206-7.06,0.258c-2.07,0.062-3.8,0.041-5.01,0.052c-1.2,0.01-1.89,0.01-1.89,0.01l-1.55-25.599
				c0,0,0.56,0,1.54,0s2.39,0.021,4.07-0.021c1.68-0.041,3.65-0.041,5.75-0.175c1.05-0.072,2.14-0.103,3.24-0.196
				c1.1-0.093,2.22-0.196,3.34-0.289c4.47-0.454,8.92-1.113,12.22-1.783c1.66-0.33,3.04-0.577,3.99-0.825
				c0.96-0.227,1.51-0.361,1.51-0.361L4404.3,1445.903z"/>
		</g>
		<rect x="4212.25" y="1425.098" class="st1" width="41.26" height="25.599"/>
		<rect x="4286.25" y="1425.098" class="st1" width="41.27" height="25.599"/>
		<path class="st1" d="M4404.3,1445.903c0,0-0.67,0.165-1.84,0.453c-1.17,0.309-2.86,0.639-4.88,1.062
			c-4.05,0.846-9.5,1.712-14.98,2.299c-1.37,0.134-2.74,0.268-4.09,0.392c-1.36,0.123-2.69,0.175-3.98,0.268
			c-2.58,0.186-5,0.206-7.06,0.258c-2.07,0.062-3.8,0.041-5.01,0.052c-1.2,0.01-1.89,0.01-1.89,0.01l-1.55-25.599c0,0,0.56,0,1.54,0
			s2.39,0.021,4.07-0.021c1.68-0.041,3.65-0.041,5.75-0.175c1.05-0.072,2.14-0.103,3.24-0.196c1.1-0.093,2.22-0.196,3.34-0.289
			c4.47-0.454,8.92-1.113,12.22-1.783c1.66-0.33,3.04-0.577,3.99-0.825c0.96-0.227,1.51-0.361,1.51-0.361L4404.3,1445.903z"/>
	</g>
	<g>
		<g>
			<rect x="3989.95" y="1425.098" class="st0" width="41.26" height="25.599"/>
			<rect x="4063.96" y="1425.098" class="st0" width="41.26" height="25.599"/>
			<rect x="4137.72" y="1425.098" class="st0" width="41.26" height="25.599"/>
		</g>
		<rect x="3989.95" y="1425.098" class="st1" width="41.26" height="25.599"/>
		<rect x="4063.96" y="1425.098" class="st1" width="41.26" height="25.599"/>
		<rect x="4137.72" y="1425.098" class="st1" width="41.26" height="25.599"/>
	</g>
	<g>
		<g>
			<rect x="3767.65" y="1425.098" class="st0" width="41.26" height="25.599"/>
			<rect x="3841.66" y="1425.098" class="st0" width="41.26" height="25.599"/>
			<rect x="3915.42" y="1425.098" class="st0" width="41.26" height="25.599"/>
		</g>
		<rect x="3767.65" y="1425.098" class="st1" width="41.26" height="25.599"/>
		<rect x="3841.66" y="1425.098" class="st1" width="41.26" height="25.599"/>
		<rect x="3915.42" y="1425.098" class="st1" width="41.26" height="25.599"/>
	</g>
	<g>
		<g>
			<rect x="3545.35" y="1425.098" class="st0" width="41.27" height="25.599"/>
			<rect x="3619.36" y="1425.098" class="st0" width="41.26" height="25.599"/>
			<rect x="3693.12" y="1425.098" class="st0" width="41.27" height="25.599"/>
		</g>
		<rect x="3545.35" y="1425.098" class="st1" width="41.27" height="25.599"/>
		<rect x="3619.36" y="1425.098" class="st1" width="41.26" height="25.599"/>
		<rect x="3693.12" y="1425.098" class="st1" width="41.27" height="25.599"/>
	</g>
	<g>
		<g>
			<rect x="3323.06" y="1425.098" class="st0" width="41.26" height="25.599"/>
			<rect x="3397.06" y="1425.098" class="st0" width="41.26" height="25.599"/>
			<rect x="3470.83" y="1425.098" class="st0" width="41.26" height="25.599"/>
		</g>
		<rect x="3323.06" y="1425.098" class="st1" width="41.26" height="25.599"/>
		<rect x="3397.06" y="1425.098" class="st1" width="41.26" height="25.599"/>
		<rect x="3470.83" y="1425.098" class="st1" width="41.26" height="25.599"/>
	</g>
	<g>
		<g>
			<rect x="3100.76" y="1425.098" class="st0" width="41.26" height="25.599"/>
			<rect x="3174.76" y="1425.098" class="st0" width="41.27" height="25.599"/>
			<rect x="3248.53" y="1425.098" class="st0" width="41.26" height="25.599"/>
		</g>
		<rect x="3100.76" y="1425.098" class="st1" width="41.26" height="25.599"/>
		<rect x="3174.76" y="1425.098" class="st1" width="41.27" height="25.599"/>
		<rect x="3248.53" y="1425.098" class="st1" width="41.26" height="25.599"/>
	</g>
	<g>
		<g>
			<rect x="2878.46" y="1425.098" class="st0" width="41.26" height="25.599"/>
			<rect x="2952.47" y="1425.098" class="st0" width="41.26" height="25.599"/>
			<rect x="3026.23" y="1425.098" class="st0" width="41.26" height="25.599"/>
		</g>
		<rect x="2878.46" y="1425.098" class="st1" width="41.26" height="25.599"/>
		<rect x="2952.47" y="1425.098" class="st1" width="41.26" height="25.599"/>
		<rect x="3026.23" y="1425.098" class="st1" width="41.26" height="25.599"/>
	</g>
	<g>
		<g>
			<rect x="2656.16" y="1425.098" class="st0" width="41.26" height="25.599"/>
			<rect x="2730.17" y="1425.098" class="st0" width="41.26" height="25.599"/>
			<rect x="2803.93" y="1425.098" class="st0" width="41.26" height="25.599"/>
		</g>
		<rect x="2656.16" y="1425.098" class="st1" width="41.26" height="25.599"/>
		<rect x="2730.17" y="1425.098" class="st1" width="41.26" height="25.599"/>
		<rect x="2803.93" y="1425.098" class="st1" width="41.26" height="25.599"/>
	</g>
	<g>
		<g>
			<rect x="2433.86" y="1425.098" class="st0" width="41.27" height="25.599"/>
			<rect x="2507.87" y="1425.098" class="st0" width="41.26" height="25.599"/>
			<rect x="2581.63" y="1425.098" class="st0" width="41.27" height="25.599"/>
		</g>
		<rect x="2433.86" y="1425.098" class="st1" width="41.27" height="25.599"/>
		<rect x="2507.87" y="1425.098" class="st1" width="41.26" height="25.599"/>
		<rect x="2581.63" y="1425.098" class="st1" width="41.27" height="25.599"/>
	</g>
	<g>
		<g>
			<rect x="2211.57" y="1425.098" class="st0" width="41.26" height="25.599"/>
			<rect x="2285.57" y="1425.098" class="st0" width="41.26" height="25.599"/>
			<rect x="2359.34" y="1425.098" class="st0" width="41.26" height="25.599"/>
		</g>
		<rect x="2211.57" y="1425.098" class="st1" width="41.26" height="25.599"/>
		<rect x="2285.57" y="1425.098" class="st1" width="41.26" height="25.599"/>
		<rect x="2359.34" y="1425.098" class="st1" width="41.26" height="25.599"/>
	</g>
	<g>
		<g>
			<rect x="1989.27" y="1425.098" class="st0" width="41.26" height="25.599"/>
			<rect x="2063.27" y="1425.098" class="st0" width="41.27" height="25.599"/>
			<rect x="2137.04" y="1425.098" class="st0" width="41.26" height="25.599"/>
		</g>
		<rect x="1989.27" y="1425.098" class="st1" width="41.26" height="25.599"/>
		<rect x="2063.27" y="1425.098" class="st1" width="41.27" height="25.599"/>
		<rect x="2137.04" y="1425.098" class="st1" width="41.26" height="25.599"/>
	</g>
	<g>
		<g>
			<rect x="1766.97" y="1425.098" class="st0" width="41.26" height="25.599"/>
			<rect x="1840.98" y="1425.098" class="st0" width="41.26" height="25.599"/>
			<rect x="1914.74" y="1425.098" class="st0" width="41.26" height="25.599"/>
		</g>
		<rect x="1766.97" y="1425.098" class="st1" width="41.26" height="25.599"/>
		<rect x="1840.98" y="1425.098" class="st1" width="41.26" height="25.599"/>
		<rect x="1914.74" y="1425.098" class="st1" width="41.26" height="25.599"/>
	</g>
	<g>
		<g>
			<rect x="1544.67" y="1425.098" class="st0" width="41.26" height="25.599"/>
			<rect x="1618.68" y="1425.098" class="st0" width="41.26" height="25.599"/>
			<rect x="1692.44" y="1425.098" class="st0" width="41.26" height="25.599"/>
		</g>
		<rect x="1544.67" y="1425.098" class="st1" width="41.26" height="25.599"/>
		<rect x="1618.68" y="1425.098" class="st1" width="41.26" height="25.599"/>
		<rect x="1692.44" y="1425.098" class="st1" width="41.26" height="25.599"/>
	</g>
	<g>
		<g>
			<rect x="1322.37" y="1425.098" class="st0" width="41.27" height="25.599"/>
			<rect x="1396.38" y="1425.098" class="st0" width="41.26" height="25.599"/>
			<rect x="1470.14" y="1425.098" class="st0" width="41.27" height="25.599"/>
		</g>
		<rect x="1322.37" y="1425.098" class="st1" width="41.27" height="25.599"/>
		<rect x="1396.38" y="1425.098" class="st1" width="41.26" height="25.599"/>
		<rect x="1470.14" y="1425.098" class="st1" width="41.27" height="25.599"/>
	</g>
	<g>
		<g>
			<rect x="1100.08" y="1425.098" class="st0" width="41.26" height="25.599"/>
			<rect x="1174.08" y="1425.098" class="st0" width="41.26" height="25.599"/>
			<rect x="1247.85" y="1425.098" class="st0" width="41.26" height="25.599"/>
		</g>
		<rect x="1100.08" y="1425.098" class="st1" width="41.26" height="25.599"/>
		<rect x="1174.08" y="1425.098" class="st1" width="41.26" height="25.599"/>
		<rect x="1247.85" y="1425.098" class="st1" width="41.26" height="25.599"/>
	</g>
	<g>
		<g>
			<rect x="877.78" y="1425.098" class="st0" width="41.26" height="25.599"/>
			<rect x="951.78" y="1425.098" class="st0" width="41.271" height="25.599"/>
			<rect x="1025.55" y="1425.098" class="st0" width="41.26" height="25.599"/>
		</g>
		<rect x="877.78" y="1425.098" class="st1" width="41.26" height="25.599"/>
		<rect x="951.78" y="1425.098" class="st1" width="41.271" height="25.599"/>
		<rect x="1025.55" y="1425.098" class="st1" width="41.26" height="25.599"/>
	</g>
	<g>
		<g>
			<rect x="655.48" y="1425.098" class="st0" width="41.26" height="25.599"/>
			<rect x="729.49" y="1425.098" class="st0" width="41.26" height="25.599"/>
			<rect x="803.25" y="1425.098" class="st0" width="41.26" height="25.599"/>
		</g>
		<rect x="655.48" y="1425.098" class="st1" width="41.26" height="25.599"/>
		<rect x="729.49" y="1425.098" class="st1" width="41.26" height="25.599"/>
		<rect x="803.25" y="1425.098" class="st1" width="41.26" height="25.599"/>
	</g>
	<g>
		<g>
			<rect x="433.18" y="1425.098" class="st0" width="41.26" height="25.599"/>
			<rect x="507.19" y="1425.098" class="st0" width="41.26" height="25.599"/>
			<rect x="580.95" y="1425.098" class="st0" width="41.26" height="25.599"/>
		</g>
		<rect x="433.18" y="1425.098" class="st1" width="41.26" height="25.599"/>
		<rect x="507.19" y="1425.098" class="st1" width="41.26" height="25.599"/>
		<rect x="580.95" y="1425.098" class="st1" width="41.26" height="25.599"/>
	</g>
	<g>
		<g>
			<rect x="210.88" y="1425.098" class="st0" width="41.27" height="25.599"/>
			<rect x="284.89" y="1425.098" class="st0" width="41.26" height="25.599"/>
			<rect x="358.65" y="1425.098" class="st0" width="41.27" height="25.599"/>
		</g>
		<rect x="210.88" y="1425.098" class="st1" width="41.27" height="25.599"/>
		<rect x="284.89" y="1425.098" class="st1" width="41.26" height="25.599"/>
		<rect x="358.65" y="1425.098" class="st1" width="41.27" height="25.599"/>
	</g>
	<g>
		<g>
			<path class="st0" d="M46.87,1400.365c0.78,0.629,1.22,0.99,1.22,0.99l-18.82,19.444c0,0-0.53-0.443-1.46-1.217
				c-0.9-0.825-2.22-1.959-3.73-3.391c-3.02-2.866-6.82-6.98-10.12-11.485c-3.33-4.495-6.08-9.423-7.82-13.258
				c-0.8-1.949-1.55-3.536-1.91-4.722c-0.4-1.165-0.63-1.825-0.63-1.825l23.49-12.939c0,0,0.18,0.547,0.5,1.505
				c0.28,0.97,0.88,2.278,1.52,3.887c1.4,3.165,3.64,7.207,6.37,10.877c2.71,3.701,5.83,7.052,8.32,9.381
				C45.05,1398.778,46.14,1399.695,46.87,1400.365z"/>
			<path class="st0" d="M106.1,1424.191c0.98,0.124,1.53,0.175,1.53,0.175l-5.77,25.279c0,0-0.69-0.051-1.88-0.227
				c-1.2-0.165-2.91-0.371-4.95-0.67c-4.08-0.67-9.52-1.608-14.85-3.02c-5.34-1.351-10.61-3-14.48-4.464
				c-1.94-0.701-3.55-1.309-4.66-1.794c-1.11-0.464-1.75-0.721-1.75-0.721l13.51-22.959c0,0,0.53,0.216,1.44,0.577
				c0.91,0.381,2.23,0.866,3.83,1.433c3.17,1.155,7.49,2.454,11.86,3.516c4.36,1.114,8.8,1.835,12.13,2.361
				C103.73,1423.882,105.13,1424.067,106.1,1424.191z"/>
			<rect x="136.36" y="1425.098" class="st0" width="41.26" height="25.599"/>
		</g>
		<path class="st1" d="M48.09,1401.355l-18.82,19.444c0,0-0.53-0.443-1.46-1.217c-0.9-0.825-2.22-1.959-3.73-3.391
			c-3.02-2.866-6.82-6.98-10.12-11.485c-3.33-4.495-6.08-9.423-7.82-13.258c-0.8-1.949-1.55-3.536-1.91-4.722
			c-0.4-1.165-0.63-1.825-0.63-1.825l23.49-12.939c0,0,0.18,0.547,0.5,1.505c0.28,0.97,0.88,2.278,1.52,3.887
			c1.4,3.165,3.64,7.207,6.37,10.877c2.71,3.701,5.83,7.052,8.32,9.381c1.25,1.165,2.34,2.083,3.07,2.753
			C47.65,1400.994,48.09,1401.355,48.09,1401.355z"/>
		<path class="st1" d="M107.63,1424.366l-5.77,25.279c0,0-0.69-0.051-1.88-0.227c-1.2-0.165-2.91-0.371-4.95-0.67
			c-4.08-0.67-9.52-1.608-14.85-3.02c-5.34-1.351-10.61-3-14.48-4.464c-1.94-0.701-3.55-1.309-4.66-1.794
			c-1.11-0.464-1.75-0.721-1.75-0.721l13.51-22.959c0,0,0.53,0.216,1.44,0.577c0.91,0.381,2.23,0.866,3.83,1.433
			c3.17,1.155,7.49,2.454,11.86,3.516c4.36,1.114,8.8,1.835,12.13,2.361c1.67,0.206,3.07,0.392,4.04,0.515
			C107.08,1424.315,107.63,1424.366,107.63,1424.366z"/>
		<rect x="136.36" y="1425.098" class="st1" width="41.26" height="25.599"/>
	</g>
	<g>
		<g>
			<rect y="1151.72" class="st0" width="24.83" height="42.537"/>
			<rect y="1228.021" class="st0" width="24.83" height="42.537"/>
			<path class="st0" d="M0,1304.064h24.83v38.279l-24.78,6.578c0,0-0.01-2.846-0.04-7.103c0-4.278,0-9.969-0.01-15.66
				C0,1315.105,0,1304.064,0,1304.064z"/>
		</g>
		<rect y="1151.72" class="st1" width="24.83" height="42.537"/>
		<rect y="1228.021" class="st1" width="24.83" height="42.537"/>
		<path class="st1" d="M24.83,1304.064v38.279l-24.78,6.578c0,0-0.01-2.846-0.04-7.103c0-4.278,0-9.969-0.01-15.66
			c0-11.052,0-22.094,0-22.094H24.83z"/>
	</g>
	<g>
		<g>
			<rect y="922.539" class="st0" width="24.83" height="42.537"/>
			<rect y="998.84" class="st0" width="24.83" height="42.537"/>
			<rect y="1074.883" class="st0" width="24.83" height="42.537"/>
		</g>
		<rect y="922.539" class="st1" width="24.83" height="42.537"/>
		<rect y="998.84" class="st1" width="24.83" height="42.537"/>
		<rect y="1074.883" class="st1" width="24.83" height="42.537"/>
	</g>
	<g>
		<g>
			<rect y="693.358" class="st0" width="24.83" height="42.547"/>
			<rect y="769.659" class="st0" width="24.83" height="42.537"/>
			<rect y="845.702" class="st0" width="24.83" height="42.547"/>
		</g>
		<rect y="693.358" class="st1" width="24.83" height="42.547"/>
		<rect y="769.659" class="st1" width="24.83" height="42.537"/>
		<rect y="845.702" class="st1" width="24.83" height="42.547"/>
	</g>
	<g>
		<g>
			<rect y="464.187" class="st0" width="24.83" height="42.537"/>
			<rect y="540.478" class="st0" width="24.83" height="42.537"/>
			<rect y="616.521" class="st0" width="24.83" height="42.547"/>
		</g>
		<rect y="464.187" class="st1" width="24.83" height="42.537"/>
		<rect y="540.478" class="st1" width="24.83" height="42.537"/>
		<rect y="616.521" class="st1" width="24.83" height="42.547"/>
	</g>
	<g>
		<g>
			<rect y="235.006" class="st0" width="24.83" height="42.537"/>
			<rect y="311.297" class="st0" width="24.83" height="42.547"/>
			<rect y="387.35" class="st0" width="24.83" height="42.537"/>
		</g>
		<rect y="235.006" class="st1" width="24.83" height="42.537"/>
		<rect y="311.297" class="st1" width="24.83" height="42.547"/>
		<rect y="387.35" class="st1" width="24.83" height="42.537"/>
	</g>
	<g>
		<g>
			<rect y="158.169" class="st0" width="24.83" height="42.537"/>
			<path class="st0" d="M0.81,78.497l24.21,10.732c0,0-0.08,0.567-0.1,1.588c-0.03,1.01-0.11,2.454-0.09,4.185v12.732
				c0,9.269,0,18.526,0,18.526L0,123.787c0,0,0-2.846,0-7.113c0-4.279,0-9.97,0.06-15.64c0.07-5.68,0.2-11.32,0.32-15.526
				c0.04-2.113,0.18-3.856,0.26-5.082c0.04-0.619,0.06-1.093,0.1-1.423C0.78,78.672,0.81,78.497,0.81,78.497z"/>
			<path class="st0" d="M63.32,39.321c0,0-0.5,0.268-1.37,0.743c-0.87,0.474-2.11,1.144-3.55,2.051
				c-2.92,1.722-6.69,4.258-10.21,7.145c-3.53,2.856-6.79,6.051-9.05,8.629c-1.12,1.299-2.01,2.413-2.65,3.186
				c-0.59,0.814-0.93,1.268-0.93,1.268l-21.5-16.485c0,0,0.41-0.567,1.14-1.546c0.77-0.948,1.86-2.32,3.22-3.907
				c2.74-3.154,6.7-7.082,10.98-10.609c4.27-3.556,8.84-6.701,12.38-8.856c0.89-0.536,1.69-1.052,2.42-1.474
				c0.73-0.413,1.37-0.763,1.9-1.062c1.05-0.598,1.66-0.928,1.66-0.928L63.32,39.321z"/>
		</g>
		<path class="st1" d="M63.32,39.321c0,0-0.5,0.268-1.37,0.743c-0.87,0.474-2.11,1.144-3.55,2.051
			c-2.92,1.722-6.69,4.258-10.21,7.145c-3.53,2.856-6.79,6.051-9.05,8.629c-1.12,1.299-2.01,2.413-2.65,3.186
			c-0.59,0.814-0.93,1.268-0.93,1.268l-21.5-16.485c0,0,0.41-0.567,1.14-1.546c0.77-0.948,1.86-2.32,3.22-3.907
			c2.74-3.154,6.7-7.082,10.98-10.609c4.27-3.556,8.84-6.701,12.38-8.856c0.89-0.536,1.69-1.052,2.42-1.474
			c0.73-0.413,1.37-0.763,1.9-1.062c1.05-0.598,1.66-0.928,1.66-0.928L63.32,39.321z"/>
		<path class="st1" d="M25.02,89.229c0,0-0.08,0.567-0.1,1.588c-0.03,1.01-0.11,2.454-0.09,4.185v12.732c0,9.269,0,18.526,0,18.526
			L0,123.787c0,0,0-2.846,0-7.113c0-4.279,0-9.97,0.06-15.64c0.07-5.68,0.2-11.32,0.32-15.526c0.04-2.113,0.18-3.856,0.26-5.082
			c0.04-0.619,0.06-1.093,0.1-1.423c0.04-0.33,0.07-0.505,0.07-0.505L25.02,89.229z"/>
		<rect y="158.169" class="st1" width="24.83" height="42.537"/>
	</g>
	<g>
		<g>
			<path class="st0" d="M124.62,0l1.55,25.599c0,0-0.57,0-1.55,0s-2.38-0.021-4.07,0.021c-1.68,0.031-3.65,0.031-5.75,0.175
				c-1.05,0.062-2.14,0.103-3.24,0.186c-1.1,0.103-2.22,0.196-3.34,0.299c-4.47,0.454-8.91,1.114-12.22,1.773
				c-1.65,0.33-3.04,0.588-3.99,0.835c-0.96,0.227-1.5,0.351-1.5,0.351L80.89,4.794c0,0,0.66-0.165,1.84-0.454
				c1.16-0.309,2.85-0.639,4.87-1.062c4.05-0.856,9.5-1.712,14.98-2.31c1.37-0.123,2.75-0.258,4.1-0.392
				c1.35-0.113,2.68-0.175,3.97-0.258c2.58-0.185,5-0.206,7.07-0.268c2.06-0.062,3.79-0.041,5-0.052C123.93,0,124.62,0,124.62,0z"/>
			<rect x="157.67" class="st0" width="41.26" height="25.599"/>
			<rect x="231.67" class="st0" width="41.26" height="25.599"/>
		</g>
		<rect x="231.67" class="st1" width="41.26" height="25.599"/>
		<rect x="157.67" class="st1" width="41.26" height="25.599"/>
		<path class="st1" d="M126.17,25.599c0,0-0.57,0-1.55,0s-2.38-0.021-4.07,0.021c-1.68,0.031-3.65,0.031-5.75,0.175
			c-1.05,0.062-2.14,0.103-3.24,0.186c-1.1,0.103-2.22,0.196-3.34,0.299c-4.47,0.454-8.91,1.114-12.22,1.773
			c-1.65,0.33-3.04,0.588-3.99,0.835c-0.96,0.227-1.5,0.351-1.5,0.351L80.89,4.794c0,0,0.66-0.165,1.84-0.454
			c1.16-0.309,2.85-0.639,4.87-1.062c4.05-0.856,9.5-1.712,14.98-2.31c1.37-0.123,2.75-0.258,4.1-0.392
			c1.35-0.113,2.68-0.175,3.97-0.258c2.58-0.185,5-0.206,7.07-0.268c2.06-0.062,3.79-0.041,5-0.052c1.21,0,1.9,0,1.9,0
			L126.17,25.599z"/>
	</g>
	<g>
		<g>
			<rect x="306.2" class="st0" width="41.26" height="25.599"/>
			<rect x="379.96" class="st0" width="41.27" height="25.599"/>
			<rect x="453.97" class="st0" width="41.26" height="25.599"/>
		</g>
		<rect x="453.97" class="st1" width="41.26" height="25.599"/>
		<rect x="379.96" class="st1" width="41.27" height="25.599"/>
		<rect x="306.2" class="st1" width="41.26" height="25.599"/>
	</g>
	<g>
		<g>
			<rect x="528.5" class="st0" width="41.26" height="25.599"/>
			<rect x="602.26" class="st0" width="41.26" height="25.599"/>
			<rect x="676.27" class="st0" width="41.26" height="25.599"/>
		</g>
		<rect x="676.27" class="st1" width="41.26" height="25.599"/>
		<rect x="602.26" class="st1" width="41.26" height="25.599"/>
		<rect x="528.5" class="st1" width="41.26" height="25.599"/>
	</g>
	<g>
		<g>
			<rect x="750.8" class="st0" width="41.26" height="25.599"/>
			<rect x="824.56" class="st0" width="41.26" height="25.599"/>
			<rect x="898.56" class="st0" width="41.27" height="25.599"/>
		</g>
		<rect x="898.56" class="st1" width="41.27" height="25.599"/>
		<rect x="824.56" class="st1" width="41.26" height="25.599"/>
		<rect x="750.8" class="st1" width="41.26" height="25.599"/>
	</g>
	<g>
		<g>
			<rect x="973.09" class="st0" width="41.27" height="25.599"/>
			<rect x="1046.86" class="st0" width="41.26" height="25.599"/>
			<rect x="1120.86" class="st0" width="41.26" height="25.599"/>
		</g>
		<rect x="1120.86" class="st1" width="41.26" height="25.599"/>
		<rect x="1046.86" class="st1" width="41.26" height="25.599"/>
		<rect x="973.09" class="st1" width="41.27" height="25.599"/>
	</g>
	<g>
		<g>
			<rect x="1195.39" class="st0" width="41.26" height="25.599"/>
			<rect x="1269.16" class="st0" width="41.26" height="25.599"/>
			<rect x="1343.16" class="st0" width="41.26" height="25.599"/>
		</g>
		<rect x="1343.16" class="st1" width="41.26" height="25.599"/>
		<rect x="1269.16" class="st1" width="41.26" height="25.599"/>
		<rect x="1195.39" class="st1" width="41.26" height="25.599"/>
	</g>
	<g>
		<g>
			<rect x="1417.69" class="st0" width="41.26" height="25.599"/>
			<rect x="1491.45" class="st0" width="41.27" height="25.599"/>
			<rect x="1565.46" class="st0" width="41.26" height="25.599"/>
		</g>
		<rect x="1565.46" class="st1" width="41.26" height="25.599"/>
		<rect x="1491.45" class="st1" width="41.27" height="25.599"/>
		<rect x="1417.69" class="st1" width="41.26" height="25.599"/>
	</g>
	<g>
		<g>
			<rect x="1639.99" class="st0" width="41.26" height="25.599"/>
			<rect x="1713.75" class="st0" width="41.26" height="25.599"/>
			<rect x="1787.76" class="st0" width="41.26" height="25.599"/>
		</g>
		<rect x="1787.76" class="st1" width="41.26" height="25.599"/>
		<rect x="1713.75" class="st1" width="41.26" height="25.599"/>
		<rect x="1639.99" class="st1" width="41.26" height="25.599"/>
	</g>
	<g>
		<g>
			<rect x="1862.29" class="st0" width="41.26" height="25.599"/>
			<rect x="1936.05" class="st0" width="41.26" height="25.599"/>
			<rect x="2010.06" class="st0" width="41.26" height="25.599"/>
		</g>
		<rect x="2010.06" class="st1" width="41.26" height="25.599"/>
		<rect x="1936.05" class="st1" width="41.26" height="25.599"/>
		<rect x="1862.29" class="st1" width="41.26" height="25.599"/>
	</g>
	<g>
		<g>
			<rect x="2084.58" class="st0" width="41.27" height="25.599"/>
			<rect x="2158.35" class="st0" width="41.26" height="25.599"/>
			<rect x="2232.35" class="st0" width="41.27" height="25.599"/>
		</g>
		<rect x="2232.35" class="st1" width="41.27" height="25.599"/>
		<rect x="2158.35" class="st1" width="41.26" height="25.599"/>
		<rect x="2084.58" class="st1" width="41.27" height="25.599"/>
	</g>
	<g>
		<g>
			<rect x="2306.88" class="st0" width="41.26" height="25.599"/>
			<rect x="2380.65" class="st0" width="41.26" height="25.599"/>
			<rect x="2454.65" class="st0" width="41.26" height="25.599"/>
		</g>
		<rect x="2454.65" class="st1" width="41.26" height="25.599"/>
		<rect x="2380.65" class="st1" width="41.26" height="25.599"/>
		<rect x="2306.88" class="st1" width="41.26" height="25.599"/>
	</g>
	<g>
		<g>
			<rect x="2529.18" class="st0" width="41.26" height="25.599"/>
			<rect x="2602.94" class="st0" width="41.27" height="25.599"/>
			<rect x="2676.95" class="st0" width="41.26" height="25.599"/>
		</g>
		<rect x="2676.95" class="st1" width="41.26" height="25.599"/>
		<rect x="2602.94" class="st1" width="41.27" height="25.599"/>
		<rect x="2529.18" class="st1" width="41.26" height="25.599"/>
	</g>
	<g>
		<g>
			<rect x="2751.48" class="st0" width="41.26" height="25.599"/>
			<rect x="2825.24" class="st0" width="41.26" height="25.599"/>
			<rect x="2899.25" class="st0" width="41.26" height="25.599"/>
		</g>
		<rect x="2899.25" class="st1" width="41.26" height="25.599"/>
		<rect x="2825.24" class="st1" width="41.26" height="25.599"/>
		<rect x="2751.48" class="st1" width="41.26" height="25.599"/>
	</g>
	<g>
		<g>
			<rect x="2973.78" class="st0" width="41.26" height="25.599"/>
			<rect x="3047.54" class="st0" width="41.26" height="25.599"/>
			<rect x="3121.54" class="st0" width="41.27" height="25.599"/>
		</g>
		<rect x="3121.54" class="st1" width="41.27" height="25.599"/>
		<rect x="3047.54" class="st1" width="41.26" height="25.599"/>
		<rect x="2973.78" class="st1" width="41.26" height="25.599"/>
	</g>
	<g>
		<g>
			<rect x="3196.07" class="st0" width="41.27" height="25.599"/>
			<rect x="3269.84" class="st0" width="41.26" height="25.599"/>
			<rect x="3343.84" class="st0" width="41.26" height="25.599"/>
		</g>
		<rect x="3343.84" class="st1" width="41.26" height="25.599"/>
		<rect x="3269.84" class="st1" width="41.26" height="25.599"/>
		<rect x="3196.07" class="st1" width="41.27" height="25.599"/>
	</g>
	<g>
		<g>
			<rect x="3418.37" class="st0" width="41.26" height="25.599"/>
			<rect x="3492.14" class="st0" width="41.26" height="25.599"/>
			<rect x="3566.14" class="st0" width="41.26" height="25.599"/>
		</g>
		<rect x="3566.14" class="st1" width="41.26" height="25.599"/>
		<rect x="3492.14" class="st1" width="41.26" height="25.599"/>
		<rect x="3418.37" class="st1" width="41.26" height="25.599"/>
	</g>
	<g>
		<g>
			<rect x="3640.67" class="st0" width="41.26" height="25.599"/>
			<rect x="3714.43" class="st0" width="41.27" height="25.599"/>
			<rect x="3788.44" class="st0" width="41.26" height="25.599"/>
		</g>
		<rect x="3788.44" class="st1" width="41.26" height="25.599"/>
		<rect x="3714.43" class="st1" width="41.27" height="25.599"/>
		<rect x="3640.67" class="st1" width="41.26" height="25.599"/>
	</g>
	<g>
		<g>
			<rect x="3862.97" class="st0" width="41.26" height="25.599"/>
			<rect x="3936.73" class="st0" width="41.26" height="25.599"/>
			<rect x="4010.74" class="st0" width="41.26" height="25.599"/>
		</g>
		<rect x="4010.74" class="st1" width="41.26" height="25.599"/>
		<rect x="3936.73" class="st1" width="41.26" height="25.599"/>
		<rect x="3862.97" class="st1" width="41.26" height="25.599"/>
	</g>
	<g>
		<g>
			<rect x="4085.27" class="st0" width="41.26" height="25.599"/>
			<rect x="4159.03" class="st0" width="41.26" height="25.599"/>
			<rect x="4233.04" class="st0" width="41.26" height="25.599"/>
		</g>
		<rect x="4233.04" class="st1" width="41.26" height="25.599"/>
		<rect x="4159.03" class="st1" width="41.26" height="25.599"/>
		<rect x="4085.27" class="st1" width="41.26" height="25.599"/>
	</g>
	<g>
		<g>
			<rect x="4307.56" class="st0" width="41.27" height="25.599"/>
			<path class="st0" d="M4424.14,11.227c1.12,0.454,1.75,0.722,1.75,0.722l-13.51,22.949c0,0-0.52-0.206-1.44-0.567
				c-0.91-0.392-2.23-0.876-3.83-1.433c-3.17-1.155-7.49-2.454-11.86-3.526c-4.36-1.114-8.8-1.825-12.13-2.351
				c-1.67-0.216-3.06-0.392-4.04-0.515c-0.97-0.134-1.53-0.175-1.53-0.175l5.77-25.289c0,0,0.69,0.062,1.88,0.227
				c1.2,0.165,2.91,0.372,4.95,0.671c4.08,0.68,9.52,1.618,14.85,3.031c5.34,1.351,10.61,3,14.48,4.454
				C4421.42,10.134,4423.03,10.743,4424.14,11.227z"/>
			<path class="st0" d="M4481.58,65.796l-23.49,12.938c0,0-0.18-0.546-0.5-1.505c-0.28-0.98-0.88-2.289-1.52-3.897
				c-1.4-3.155-3.64-7.197-6.37-10.877c-2.71-3.691-5.83-7.041-8.32-9.371c-1.25-1.175-2.33-2.093-3.07-2.753
				c-0.77-0.629-1.22-0.99-1.22-0.99l18.82-19.444c0,0,0.53,0.443,1.47,1.217c0.89,0.814,2.21,1.949,3.72,3.381
				c3.02,2.876,6.82,6.98,10.12,11.496c3.33,4.495,6.08,9.412,7.82,13.247c0.8,1.949,1.55,3.546,1.91,4.722
				C4481.35,65.126,4481.58,65.796,4481.58,65.796z"/>
		</g>
		<path class="st1" d="M4481.58,65.796l-23.49,12.938c0,0-0.18-0.546-0.5-1.505c-0.28-0.98-0.88-2.289-1.52-3.897
			c-1.4-3.155-3.64-7.197-6.37-10.877c-2.71-3.691-5.83-7.041-8.32-9.371c-1.25-1.175-2.33-2.093-3.07-2.753
			c-0.77-0.629-1.22-0.99-1.22-0.99l18.82-19.444c0,0,0.53,0.443,1.47,1.217c0.89,0.814,2.21,1.949,3.72,3.381
			c3.02,2.876,6.82,6.98,10.12,11.496c3.33,4.495,6.08,9.412,7.82,13.247c0.8,1.949,1.55,3.546,1.91,4.722
			C4481.35,65.126,4481.58,65.796,4481.58,65.796z"/>
		<path class="st1" d="M4425.89,11.949l-13.51,22.949c0,0-0.52-0.206-1.44-0.567c-0.91-0.392-2.23-0.876-3.83-1.433
			c-3.17-1.155-7.49-2.454-11.86-3.526c-4.36-1.114-8.8-1.825-12.13-2.351c-1.67-0.216-3.06-0.392-4.04-0.515
			c-0.97-0.134-1.53-0.175-1.53-0.175l5.77-25.289c0,0,0.69,0.062,1.88,0.227c1.2,0.165,2.91,0.372,4.95,0.671
			c4.08,0.68,9.52,1.618,14.85,3.031c5.34,1.351,10.61,3,14.48,4.454c1.94,0.711,3.55,1.32,4.66,1.804
			C4425.26,11.681,4425.89,11.949,4425.89,11.949z"/>
		<rect x="4307.56" class="st1" width="41.27" height="25.599"/>
	</g>
</g>
</svg>