<!-- Generator: Adobe Illustrator 20.1.0, SVG Export Plug-In  -->
<svg version="1.1"
	 xmlns="http://www.w3.org/2000/svg" xmlns:xlink="http://www.w3.org/1999/xlink" xmlns:a="http://ns.adobe.com/AdobeSVGViewerExtensions/3.0/"
	 x="0px" y="0px" width="1667.289px" height="1772.878px" viewBox="0 0 1667.289 1772.878"
	 style="enable-background:new 0 0 1667.289 1772.878;" xml:space="preserve">
<style type="text/css">
	.st0{fill:#FFFFFF;}
	.st1{fill-rule:evenodd;clip-rule:evenodd;fill:#FFFFFF;}
</style>
<defs>
</defs>
<g>
	<g>
		<g>
			<rect x="1396.768" y="1758.95" class="st0" width="34.784" height="13.927"/>
			<rect x="1459.156" y="1758.95" class="st0" width="34.797" height="13.927"/>
			<rect x="1521.344" y="1758.95" class="st0" width="34.797" height="13.927"/>
		</g>
		<rect x="1396.768" y="1758.95" class="st1" width="34.784" height="13.927"/>
		<rect x="1459.156" y="1758.95" class="st1" width="34.797" height="13.927"/>
		<rect x="1521.344" y="1758.95" class="st1" width="34.797" height="13.927"/>
	</g>
	<g>
		<g>
			<rect x="1209.357" y="1758.95" class="st0" width="34.784" height="13.927"/>
			<rect x="1271.745" y="1758.95" class="st0" width="34.784" height="13.927"/>
			<rect x="1333.933" y="1758.95" class="st0" width="34.784" height="13.927"/>
		</g>
		<rect x="1209.357" y="1758.95" class="st1" width="34.784" height="13.927"/>
		<rect x="1271.745" y="1758.95" class="st1" width="34.784" height="13.927"/>
		<rect x="1333.933" y="1758.95" class="st1" width="34.784" height="13.927"/>
	</g>
	<g>
		<g>
			<rect x="1021.946" y="1758.95" class="st0" width="34.784" height="13.927"/>
			<rect x="1084.333" y="1758.95" class="st0" width="34.784" height="13.927"/>
			<rect x="1146.521" y="1758.95" class="st0" width="34.784" height="13.927"/>
		</g>
		<rect x="1021.946" y="1758.95" class="st1" width="34.784" height="13.927"/>
		<rect x="1084.333" y="1758.95" class="st1" width="34.784" height="13.927"/>
		<rect x="1146.521" y="1758.95" class="st1" width="34.784" height="13.927"/>
	</g>
	<g>
		<g>
			<rect x="834.522" y="1758.95" class="st0" width="34.797" height="13.927"/>
			<rect x="896.922" y="1758.95" class="st0" width="34.784" height="13.927"/>
			<rect x="959.11" y="1758.95" class="st0" width="34.784" height="13.927"/>
		</g>
		<rect x="834.522" y="1758.95" class="st1" width="34.797" height="13.927"/>
		<rect x="896.922" y="1758.95" class="st1" width="34.784" height="13.927"/>
		<rect x="959.11" y="1758.95" class="st1" width="34.784" height="13.927"/>
	</g>
	<g>
		<g>
			<rect x="647.11" y="1758.95" class="st0" width="34.784" height="13.927"/>
			<rect x="709.498" y="1758.95" class="st0" width="34.797" height="13.927"/>
			<rect x="771.686" y="1758.95" class="st0" width="34.797" height="13.927"/>
		</g>
		<rect x="647.11" y="1758.95" class="st1" width="34.784" height="13.927"/>
		<rect x="709.498" y="1758.95" class="st1" width="34.797" height="13.927"/>
		<rect x="771.686" y="1758.95" class="st1" width="34.797" height="13.927"/>
	</g>
	<g>
		<g>
			<rect x="459.699" y="1758.95" class="st0" width="34.784" height="13.927"/>
			<rect x="522.086" y="1758.95" class="st0" width="34.784" height="13.927"/>
			<rect x="584.275" y="1758.95" class="st0" width="34.784" height="13.927"/>
		</g>
		<rect x="459.699" y="1758.95" class="st1" width="34.784" height="13.927"/>
		<rect x="522.086" y="1758.95" class="st1" width="34.784" height="13.927"/>
		<rect x="584.275" y="1758.95" class="st1" width="34.784" height="13.927"/>
	</g>
	<g>
		<g>
			<rect x="272.288" y="1758.95" class="st0" width="34.784" height="13.927"/>
			<rect x="334.675" y="1758.95" class="st0" width="34.784" height="13.927"/>
			<rect x="396.864" y="1758.95" class="st0" width="34.784" height="13.927"/>
		</g>
		<rect x="272.288" y="1758.95" class="st1" width="34.784" height="13.927"/>
		<rect x="334.675" y="1758.95" class="st1" width="34.784" height="13.927"/>
		<rect x="396.864" y="1758.95" class="st1" width="34.784" height="13.927"/>
	</g>
	<g>
		<g>
			<path class="st0" d="M103.42,1758.95c8.114,0,16.241,0,16.241,0v13.927c0,0-9.023,0-18.033,0
				c-4.654-0.008-9.296-0.033-12.781-0.2c-1.742-0.075-3.186-0.142-4.194-0.225c-1.008-0.067-1.593-0.109-1.593-0.109l5.227-13.752
				c0,0,0.473,0.033,1.294,0.083c0.834,0.067,2.003,0.108,3.422,0.159C95.841,1758.959,99.637,1758.95,103.42,1758.95z"/>
			<rect x="147.264" y="1758.95" class="st0" width="34.784" height="13.927"/>
			<rect x="209.452" y="1758.95" class="st0" width="34.784" height="13.927"/>
		</g>
		<path class="st1" d="M119.661,1758.95v13.927c0,0-9.023,0-18.033,0c-4.654-0.008-9.296-0.033-12.781-0.2
			c-1.742-0.075-3.186-0.142-4.194-0.225c-1.008-0.067-1.593-0.109-1.593-0.109l5.227-13.752c0,0,0.473,0.033,1.294,0.083
			c0.834,0.067,2.003,0.108,3.422,0.159c2.838,0.125,6.633,0.117,10.417,0.117C111.534,1758.95,119.661,1758.95,119.661,1758.95z"/>
		<rect x="147.264" y="1758.95" class="st1" width="34.784" height="13.927"/>
		<rect x="209.452" y="1758.95" class="st1" width="34.784" height="13.927"/>
	</g>
	<g>
		<g>
			<rect x="0.001" y="1672.426" class="st0" width="20.771" height="23.323"/>
			<path class="st0" d="M24.38,1732.173l-19.253,7.51c0,0-0.236-0.35-0.61-0.985c-0.373-0.626-0.933-1.519-1.444-2.628
				c-1.095-2.203-2.19-5.232-2.564-8.303c-0.074-0.776-0.137-1.544-0.211-2.303c-0.025-0.759-0.062-1.502-0.087-2.228
				c-0.05-1.452-0.087-2.804-0.125-3.964c-0.037-2.337-0.074-3.889-0.074-3.889l20.758-3.188c0,0,0,1.268,0,3.171v3.255
				c-0.012,1.193,0,2.462,0.087,3.73c0.211,2.537,1.033,5.032,1.892,6.843c0.398,0.918,0.846,1.652,1.145,2.17
				C24.194,1731.881,24.38,1732.173,24.38,1732.173z"/>
			<path class="st0" d="M64.516,1755.054l-10.504,12.767c0,0-0.548-0.142-1.493-0.384c-0.946-0.242-2.29-0.584-3.883-1.068
				c-3.198-0.893-7.355-2.27-11.35-3.839c-3.995-1.56-7.803-3.329-10.504-4.79c-1.382-0.692-2.464-1.343-3.236-1.786
				c-0.759-0.442-1.195-0.701-1.195-0.701l16.116-10.322c0,0,0.349,0.209,0.983,0.567c0.635,0.35,1.518,0.885,2.663,1.452
				c2.228,1.185,5.364,2.612,8.65,3.872c3.285,1.26,6.708,2.361,9.334,3.079c1.306,0.384,2.414,0.659,3.198,0.851
				C64.068,1754.945,64.516,1755.054,64.516,1755.054z"/>
		</g>
		<rect x="0.001" y="1672.426" class="st1" width="20.771" height="23.323"/>
		<path class="st1" d="M24.38,1732.173l-19.253,7.51c0,0-0.236-0.35-0.61-0.985c-0.373-0.626-0.933-1.519-1.444-2.628
			c-1.095-2.203-2.19-5.232-2.564-8.303c-0.074-0.776-0.137-1.544-0.211-2.303c-0.025-0.759-0.062-1.502-0.087-2.228
			c-0.05-1.452-0.087-2.804-0.125-3.964c-0.037-2.337-0.074-3.889-0.074-3.889l20.758-3.188c0,0,0,1.268,0,3.171v3.255
			c-0.012,1.193,0,2.462,0.087,3.73c0.211,2.537,1.033,5.032,1.892,6.843c0.398,0.918,0.846,1.652,1.145,2.17
			C24.194,1731.881,24.38,1732.173,24.38,1732.173z"/>
		<path class="st1" d="M64.516,1755.054l-10.504,12.767c0,0-0.548-0.142-1.493-0.384c-0.946-0.242-2.29-0.584-3.883-1.068
			c-3.198-0.893-7.355-2.27-11.35-3.839c-3.995-1.56-7.803-3.329-10.504-4.79c-1.382-0.692-2.464-1.343-3.236-1.786
			c-0.759-0.442-1.195-0.701-1.195-0.701l16.116-10.322c0,0,0.349,0.209,0.983,0.567c0.635,0.35,1.518,0.885,2.663,1.452
			c2.228,1.185,5.364,2.612,8.65,3.872c3.285,1.26,6.708,2.361,9.334,3.079c1.306,0.384,2.414,0.659,3.198,0.851
			C64.068,1754.945,64.516,1755.054,64.516,1755.054z"/>
	</g>
	<g>
		<g>
			<rect x="0.001" y="1546.757" class="st0" width="20.771" height="23.331"/>
			<rect x="0.001" y="1588.596" class="st0" width="20.771" height="23.323"/>
			<rect x="0.001" y="1630.294" class="st0" width="20.771" height="23.323"/>
		</g>
		<rect x="0.001" y="1546.757" class="st1" width="20.771" height="23.331"/>
		<rect x="0.001" y="1588.596" class="st1" width="20.771" height="23.323"/>
		<rect x="0.001" y="1630.294" class="st1" width="20.771" height="23.323"/>
	</g>
	<g>
		<g>
			<rect x="0.001" y="1421.096" class="st0" width="20.771" height="23.323"/>
			<rect x="0.001" y="1462.936" class="st0" width="20.771" height="23.323"/>
			<rect x="0.001" y="1504.625" class="st0" width="20.771" height="23.331"/>
		</g>
		<rect x="0.001" y="1421.096" class="st1" width="20.771" height="23.323"/>
		<rect x="0.001" y="1462.936" class="st1" width="20.771" height="23.323"/>
		<rect x="0.001" y="1504.625" class="st1" width="20.771" height="23.331"/>
	</g>
	<g>
		<g>
			<rect x="0.001" y="1295.435" class="st0" width="20.771" height="23.323"/>
			<rect x="0.001" y="1337.266" class="st0" width="20.771" height="23.331"/>
			<rect x="0.001" y="1378.964" class="st0" width="20.771" height="23.331"/>
		</g>
		<rect x="0.001" y="1295.435" class="st1" width="20.771" height="23.323"/>
		<rect x="0.001" y="1337.266" class="st1" width="20.771" height="23.331"/>
		<rect x="0.001" y="1378.964" class="st1" width="20.771" height="23.331"/>
	</g>
	<g>
		<g>
			<rect x="0.001" y="1169.774" class="st0" width="20.771" height="23.323"/>
			<rect x="0.001" y="1211.606" class="st0" width="20.771" height="23.323"/>
			<rect x="0.001" y="1253.303" class="st0" width="20.771" height="23.323"/>
		</g>
		<rect x="0.001" y="1169.774" class="st1" width="20.771" height="23.323"/>
		<rect x="0.001" y="1211.606" class="st1" width="20.771" height="23.323"/>
		<rect x="0.001" y="1253.303" class="st1" width="20.771" height="23.323"/>
	</g>
	<g>
		<g>
			<rect x="0.001" y="1044.105" class="st0" width="20.771" height="23.331"/>
			<rect x="0.001" y="1085.945" class="st0" width="20.771" height="23.323"/>
			<rect x="0.001" y="1127.643" class="st0" width="20.771" height="23.323"/>
		</g>
		<rect x="0.001" y="1044.105" class="st1" width="20.771" height="23.331"/>
		<rect x="0.001" y="1085.945" class="st1" width="20.771" height="23.323"/>
		<rect x="0.001" y="1127.643" class="st1" width="20.771" height="23.323"/>
	</g>
	<g>
		<g>
			<rect x="0.001" y="918.444" class="st0" width="20.771" height="23.323"/>
			<rect x="0.001" y="960.284" class="st0" width="20.771" height="23.323"/>
			<rect x="0.001" y="1001.982" class="st0" width="20.771" height="23.323"/>
		</g>
		<rect x="0.001" y="918.444" class="st1" width="20.771" height="23.323"/>
		<rect x="0.001" y="960.284" class="st1" width="20.771" height="23.323"/>
		<rect x="0.001" y="1001.982" class="st1" width="20.771" height="23.323"/>
	</g>
	<g>
		<g>
			<rect x="0.001" y="792.784" class="st0" width="20.771" height="23.323"/>
			<rect x="0.001" y="834.615" class="st0" width="20.771" height="23.331"/>
			<rect x="0.001" y="876.313" class="st0" width="20.771" height="23.331"/>
		</g>
		<rect x="0.001" y="792.784" class="st1" width="20.771" height="23.323"/>
		<rect x="0.001" y="834.615" class="st1" width="20.771" height="23.331"/>
		<rect x="0.001" y="876.313" class="st1" width="20.771" height="23.331"/>
	</g>
	<g>
		<g>
			<rect x="0.001" y="667.123" class="st0" width="20.771" height="23.323"/>
			<rect x="0.001" y="708.954" class="st0" width="20.771" height="23.323"/>
			<rect x="0.001" y="750.652" class="st0" width="20.771" height="23.323"/>
		</g>
		<rect x="0.001" y="667.123" class="st1" width="20.771" height="23.323"/>
		<rect x="0.001" y="708.954" class="st1" width="20.771" height="23.323"/>
		<rect x="0.001" y="750.652" class="st1" width="20.771" height="23.323"/>
	</g>
	<g>
		<g>
			<rect x="0.001" y="541.454" class="st0" width="20.771" height="23.331"/>
			<rect x="0.001" y="583.293" class="st0" width="20.771" height="23.323"/>
			<rect x="0.001" y="624.991" class="st0" width="20.771" height="23.323"/>
		</g>
		<rect x="0.001" y="541.454" class="st1" width="20.771" height="23.331"/>
		<rect x="0.001" y="583.293" class="st1" width="20.771" height="23.323"/>
		<rect x="0.001" y="624.991" class="st1" width="20.771" height="23.323"/>
	</g>
	<g>
		<g>
			<rect x="0.001" y="415.793" class="st0" width="20.771" height="23.323"/>
			<rect x="0.001" y="457.633" class="st0" width="20.771" height="23.323"/>
			<rect x="0.001" y="499.33" class="st0" width="20.771" height="23.323"/>
		</g>
		<rect x="0.001" y="415.793" class="st1" width="20.771" height="23.323"/>
		<rect x="0.001" y="457.633" class="st1" width="20.771" height="23.323"/>
		<rect x="0.001" y="499.33" class="st1" width="20.771" height="23.323"/>
	</g>
	<g>
		<g>
			<rect x="0.001" y="290.132" class="st0" width="20.771" height="23.323"/>
			<rect x="0.001" y="331.963" class="st0" width="20.771" height="23.331"/>
			<rect x="0.001" y="373.661" class="st0" width="20.771" height="23.331"/>
		</g>
		<rect x="0.001" y="290.132" class="st1" width="20.771" height="23.323"/>
		<rect x="0.001" y="331.963" class="st1" width="20.771" height="23.331"/>
		<rect x="0.001" y="373.661" class="st1" width="20.771" height="23.331"/>
	</g>
	<g>
		<g>
			<rect x="0.001" y="164.471" class="st0" width="20.771" height="23.323"/>
			<rect x="0.001" y="206.303" class="st0" width="20.771" height="23.323"/>
			<rect x="0.001" y="248" class="st0" width="20.771" height="23.323"/>
		</g>
		<rect x="0.001" y="164.471" class="st1" width="20.771" height="23.323"/>
		<rect x="0.001" y="206.303" class="st1" width="20.771" height="23.323"/>
		<rect x="0.001" y="248" class="st1" width="20.771" height="23.323"/>
	</g>
	<g>
		<g>
			<rect x="0.001" y="80.642" class="st0" width="20.771" height="23.323"/>
			<rect x="0.001" y="122.34" class="st0" width="20.771" height="23.323"/>
			<path class="st0" d="M22.8,43.567c0,0-0.137,0.309-0.386,0.834c-0.212,0.534-0.51,1.31-0.809,2.236
				c-0.61,1.861-0.884,4.406-0.834,6.943c0,5.082,0,10.155,0,10.155L0.001,61.249c0,0-0.025-6.25,0.236-12.425
				c0.062-1.544,0.162-3.087,0.398-4.523c0.149-0.718,0.249-1.41,0.41-2.069c0.199-0.651,0.373-1.26,0.535-1.836
				c0.398-1.126,0.784-2.061,1.058-2.712c0.311-0.643,0.498-1.01,0.498-1.01L22.8,43.567z"/>
		</g>
		<path class="st1" d="M22.8,43.567c0,0-0.137,0.309-0.386,0.834c-0.212,0.534-0.51,1.31-0.809,2.236
			c-0.61,1.861-0.884,4.406-0.834,6.943c0,5.082,0,10.155,0,10.155L0.001,61.249c0,0-0.025-6.25,0.236-12.425
			c0.062-1.544,0.162-3.087,0.398-4.523c0.149-0.718,0.249-1.41,0.41-2.069c0.199-0.651,0.373-1.26,0.535-1.836
			c0.398-1.126,0.784-2.061,1.058-2.712c0.311-0.643,0.498-1.01,0.498-1.01L22.8,43.567z"/>
		<rect x="0.001" y="80.642" class="st1" width="20.771" height="23.323"/>
		<rect x="0.001" y="122.34" class="st1" width="20.771" height="23.323"/>
	</g>
	<g>
		<g>
			<path class="st0" d="M49.458,6.267l11.325,12.517c0,0-0.435,0.125-1.207,0.342c-0.771,0.2-1.842,0.526-3.124,0.943
				c-2.576,0.801-5.936,1.986-9.097,3.38c-3.186,1.377-6.21,2.912-8.338,4.181c-1.07,0.617-1.904,1.177-2.527,1.552
				c-0.597,0.384-0.908,0.617-0.908,0.617l-16.739-9.905c0,0,0.386-0.292,1.108-0.759c0.747-0.459,1.767-1.143,3.074-1.911
				c2.576-1.552,6.247-3.455,10.118-5.157c1.917-0.859,3.92-1.636,5.787-2.37c1.916-0.676,3.684-1.343,5.264-1.827
				c1.556-0.517,2.875-0.918,3.808-1.177C48.935,6.417,49.458,6.267,49.458,6.267z"/>
			<path class="st0" d="M96.027,0.017C105.224,0.008,114.421,0,114.421,0v13.927c0,0-7.791,0-15.569,0
				c-3.783,0.025-7.566,0.125-10.392,0.342c-1.419,0.075-2.589,0.184-3.41,0.259c-0.821,0.075-1.294,0.117-1.294,0.117L77.521,1.01
				c0,0,0.572-0.058,1.581-0.15c0.995-0.1,2.439-0.242,4.169-0.342C86.731,0.234,91.373,0.075,96.027,0.017z"/>
			<rect x="142.024" class="st0" width="34.784" height="13.927"/>
		</g>
		<rect x="142.024" class="st1" width="34.784" height="13.927"/>
		<path class="st1" d="M114.421,0v13.927c0,0-7.791,0-15.569,0c-3.783,0.025-7.566,0.125-10.392,0.342
			c-1.419,0.075-2.589,0.184-3.41,0.259c-0.821,0.075-1.294,0.117-1.294,0.117L77.521,1.01c0,0,0.572-0.058,1.581-0.15
			c0.995-0.1,2.439-0.242,4.169-0.342c3.46-0.284,8.102-0.442,12.756-0.501C105.224,0.008,114.421,0,114.421,0z"/>
		<path class="st1" d="M60.783,18.784c0,0-0.435,0.125-1.207,0.342c-0.771,0.2-1.842,0.526-3.124,0.943
			c-2.576,0.801-5.936,1.986-9.097,3.38c-3.186,1.377-6.21,2.912-8.338,4.181c-1.07,0.617-1.904,1.177-2.527,1.552
			c-0.597,0.384-0.908,0.617-0.908,0.617l-16.739-9.905c0,0,0.386-0.292,1.108-0.759c0.747-0.459,1.767-1.143,3.074-1.911
			c2.576-1.552,6.247-3.455,10.118-5.157c1.917-0.859,3.92-1.636,5.787-2.37c1.916-0.676,3.684-1.343,5.264-1.827
			c1.556-0.517,2.875-0.918,3.808-1.177c0.933-0.275,1.456-0.426,1.456-0.426L60.783,18.784z"/>
	</g>
	<g>
		<g>
			<rect x="204.86" class="st0" width="34.784" height="13.927"/>
			<rect x="267.036" class="st0" width="34.797" height="13.927"/>
			<rect x="329.436" class="st0" width="34.784" height="13.927"/>
		</g>
		<rect x="329.436" class="st1" width="34.784" height="13.927"/>
		<rect x="267.036" class="st1" width="34.797" height="13.927"/>
		<rect x="204.86" class="st1" width="34.784" height="13.927"/>
	</g>
	<g>
		<g>
			<rect x="392.272" class="st0" width="34.784" height="13.927"/>
			<rect x="454.46" class="st0" width="34.784" height="13.927"/>
			<rect x="516.847" class="st0" width="34.784" height="13.927"/>
		</g>
		<rect x="516.847" class="st1" width="34.784" height="13.927"/>
		<rect x="454.46" class="st1" width="34.784" height="13.927"/>
		<rect x="392.272" class="st1" width="34.784" height="13.927"/>
	</g>
	<g>
		<g>
			<rect x="579.683" class="st0" width="34.784" height="13.927"/>
			<rect x="641.871" class="st0" width="34.784" height="13.927"/>
			<rect x="704.259" class="st0" width="34.797" height="13.927"/>
		</g>
		<rect x="704.259" class="st1" width="34.797" height="13.927"/>
		<rect x="641.871" class="st1" width="34.784" height="13.927"/>
		<rect x="579.683" class="st1" width="34.784" height="13.927"/>
	</g>
	<g>
		<g>
			<rect x="767.094" class="st0" width="34.784" height="13.927"/>
			<rect x="829.283" class="st0" width="34.784" height="13.927"/>
			<rect x="891.683" class="st0" width="34.784" height="13.927"/>
		</g>
		<rect x="891.683" class="st1" width="34.784" height="13.927"/>
		<rect x="829.283" class="st1" width="34.784" height="13.927"/>
		<rect x="767.094" class="st1" width="34.784" height="13.927"/>
	</g>
	<g>
		<g>
			<rect x="954.505" class="st0" width="34.797" height="13.927"/>
			<rect x="1016.694" class="st0" width="34.797" height="13.927"/>
			<rect x="1079.094" class="st0" width="34.784" height="13.927"/>
		</g>
		<rect x="1079.094" class="st1" width="34.784" height="13.927"/>
		<rect x="1016.694" class="st1" width="34.797" height="13.927"/>
		<rect x="954.505" class="st1" width="34.797" height="13.927"/>
	</g>
	<g>
		<g>
			<rect x="1141.929" class="st0" width="34.784" height="13.927"/>
			<rect x="1204.118" class="st0" width="34.784" height="13.927"/>
			<rect x="1266.505" class="st0" width="34.784" height="13.927"/>
		</g>
		<rect x="1266.505" class="st1" width="34.784" height="13.927"/>
		<rect x="1204.118" class="st1" width="34.784" height="13.927"/>
		<rect x="1141.929" class="st1" width="34.784" height="13.927"/>
	</g>
	<g>
		<g>
			<rect x="1329.341" class="st0" width="34.784" height="13.927"/>
			<rect x="1391.529" class="st0" width="34.784" height="13.927"/>
			<rect x="1453.916" class="st0" width="34.797" height="13.927"/>
		</g>
		<rect x="1453.916" class="st1" width="34.797" height="13.927"/>
		<rect x="1391.529" class="st1" width="34.784" height="13.927"/>
		<rect x="1329.341" class="st1" width="34.784" height="13.927"/>
	</g>
	<g>
		<g>
			<rect x="1516.752" class="st0" width="34.784" height="13.927"/>
			<path class="st0" d="M1615.031,5.507c0.946,0.25,1.494,0.392,1.494,0.392l-11.089,12.592c0,0-0.448-0.117-1.22-0.309
				c-0.771-0.192-1.879-0.492-3.223-0.776c-2.688-0.634-6.347-1.302-10.031-1.861c-3.696-0.567-7.454-0.918-10.267-1.152
				c-1.418-0.092-2.589-0.167-3.41-0.225c-0.834-0.05-1.307-0.067-1.307-0.067l4.543-13.81c0,0,0.584,0.017,1.593,0.092
				c1.008,0.075,2.464,0.159,4.194,0.3c3.447,0.309,8.039,0.768,12.557,1.485c4.505,0.718,8.973,1.569,12.234,2.37
				C1612.754,4.898,1614.086,5.265,1615.031,5.507z"/>
			<path class="st0" d="M1663.543,35.481l-19.539,7.11c0,0-0.162-0.3-0.461-0.818c-0.15-0.259-0.336-0.576-0.547-0.935
				c-0.236-0.35-0.51-0.743-0.809-1.177c-1.208-1.719-3.111-3.93-5.414-5.95c-2.253-2.036-4.891-3.872-6.982-5.157
				c-1.033-0.668-1.942-1.168-2.577-1.527c-0.634-0.359-0.995-0.559-0.995-0.559l15.557-10.673c0,0,0.436,0.25,1.207,0.693
				c0.772,0.442,1.88,1.06,3.124,1.869c2.552,1.577,5.75,3.83,8.512,6.317c2.8,2.47,5.14,5.157,6.646,7.251
				c0.373,0.526,0.709,1.01,1.007,1.435c0.262,0.442,0.498,0.818,0.685,1.135C1663.331,35.122,1663.543,35.481,1663.543,35.481z"/>
		</g>
		<path class="st1" d="M1663.543,35.481l-19.539,7.11c0,0-0.162-0.3-0.461-0.818c-0.15-0.259-0.336-0.576-0.547-0.935
			c-0.236-0.35-0.51-0.743-0.809-1.177c-1.208-1.719-3.111-3.93-5.414-5.95c-2.253-2.036-4.891-3.872-6.982-5.157
			c-1.033-0.668-1.942-1.168-2.577-1.527c-0.634-0.359-0.995-0.559-0.995-0.559l15.557-10.673c0,0,0.436,0.25,1.207,0.693
			c0.772,0.442,1.88,1.06,3.124,1.869c2.552,1.577,5.75,3.83,8.512,6.317c2.8,2.47,5.14,5.157,6.646,7.251
			c0.373,0.526,0.709,1.01,1.007,1.435c0.262,0.442,0.498,0.818,0.685,1.135C1663.331,35.122,1663.543,35.481,1663.543,35.481z"/>
		<path class="st1" d="M1616.525,5.9l-11.089,12.592c0,0-0.448-0.117-1.22-0.309c-0.771-0.192-1.879-0.492-3.223-0.776
			c-2.688-0.634-6.347-1.302-10.031-1.861c-3.696-0.567-7.454-0.918-10.267-1.152c-1.418-0.092-2.589-0.167-3.41-0.225
			c-0.834-0.05-1.307-0.067-1.307-0.067l4.543-13.81c0,0,0.584,0.017,1.593,0.092c1.008,0.075,2.464,0.159,4.194,0.3
			c3.447,0.309,8.039,0.768,12.557,1.485c4.505,0.718,8.973,1.569,12.234,2.37c1.655,0.359,2.987,0.726,3.932,0.968
			C1615.977,5.758,1616.525,5.9,1616.525,5.9z"/>
		<rect x="1516.752" class="st1" width="34.784" height="13.927"/>
	</g>
	<g>
		<g>
			<path class="st0" d="M1667.289,67.633c0,6.058,0,12.116,0,12.116h-20.771V58.771l20.709-3.613c0,0,0.024,1.552,0.05,3.888
				C1667.276,61.391,1667.289,64.512,1667.289,67.633z"/>
			<rect x="1646.518" y="98.124" class="st0" width="20.771" height="23.323"/>
			<rect x="1646.518" y="139.963" class="st0" width="20.771" height="23.323"/>
		</g>
		<rect x="1646.518" y="139.963" class="st1" width="20.771" height="23.323"/>
		<rect x="1646.518" y="98.124" class="st1" width="20.771" height="23.323"/>
		<path class="st1" d="M1667.289,67.633c0,6.058,0,12.116,0,12.116h-20.771V58.771l20.709-3.613c0,0,0.024,1.552,0.05,3.888
			C1667.276,61.391,1667.289,64.512,1667.289,67.633z"/>
	</g>
	<g>
		<g>
			<rect x="1646.518" y="182.087" class="st0" width="20.771" height="23.331"/>
			<rect x="1646.518" y="223.785" class="st0" width="20.771" height="23.331"/>
			<rect x="1646.518" y="265.624" class="st0" width="20.771" height="23.323"/>
		</g>
		<rect x="1646.518" y="265.624" class="st1" width="20.771" height="23.323"/>
		<rect x="1646.518" y="223.785" class="st1" width="20.771" height="23.331"/>
		<rect x="1646.518" y="182.087" class="st1" width="20.771" height="23.331"/>
	</g>
	<g>
		<g>
			<rect x="1646.518" y="307.756" class="st0" width="20.771" height="23.323"/>
			<rect x="1646.518" y="349.454" class="st0" width="20.771" height="23.323"/>
			<rect x="1646.518" y="391.285" class="st0" width="20.771" height="23.323"/>
		</g>
		<rect x="1646.518" y="391.285" class="st1" width="20.771" height="23.323"/>
		<rect x="1646.518" y="349.454" class="st1" width="20.771" height="23.323"/>
		<rect x="1646.518" y="307.756" class="st1" width="20.771" height="23.323"/>
	</g>
	<g>
		<g>
			<rect x="1646.518" y="433.417" class="st0" width="20.771" height="23.323"/>
			<rect x="1646.518" y="475.114" class="st0" width="20.771" height="23.323"/>
			<rect x="1646.518" y="516.946" class="st0" width="20.771" height="23.323"/>
		</g>
		<rect x="1646.518" y="516.946" class="st1" width="20.771" height="23.323"/>
		<rect x="1646.518" y="475.114" class="st1" width="20.771" height="23.323"/>
		<rect x="1646.518" y="433.417" class="st1" width="20.771" height="23.323"/>
	</g>
	<g>
		<g>
			<rect x="1646.518" y="559.077" class="st0" width="20.771" height="23.323"/>
			<rect x="1646.518" y="600.775" class="st0" width="20.771" height="23.323"/>
			<rect x="1646.518" y="642.607" class="st0" width="20.771" height="23.331"/>
		</g>
		<rect x="1646.518" y="642.607" class="st1" width="20.771" height="23.331"/>
		<rect x="1646.518" y="600.775" class="st1" width="20.771" height="23.323"/>
		<rect x="1646.518" y="559.077" class="st1" width="20.771" height="23.323"/>
	</g>
	<g>
		<g>
			<rect x="1646.518" y="684.738" class="st0" width="20.771" height="23.331"/>
			<rect x="1646.518" y="726.436" class="st0" width="20.771" height="23.323"/>
			<rect x="1646.518" y="768.276" class="st0" width="20.771" height="23.323"/>
		</g>
		<rect x="1646.518" y="768.276" class="st1" width="20.771" height="23.323"/>
		<rect x="1646.518" y="726.436" class="st1" width="20.771" height="23.323"/>
		<rect x="1646.518" y="684.738" class="st1" width="20.771" height="23.331"/>
	</g>
	<g>
		<g>
			<rect x="1646.518" y="810.407" class="st0" width="20.771" height="23.323"/>
			<rect x="1646.518" y="852.097" class="st0" width="20.771" height="23.331"/>
			<rect x="1646.518" y="893.936" class="st0" width="20.771" height="23.323"/>
		</g>
		<rect x="1646.518" y="893.936" class="st1" width="20.771" height="23.323"/>
		<rect x="1646.518" y="852.097" class="st1" width="20.771" height="23.331"/>
		<rect x="1646.518" y="810.407" class="st1" width="20.771" height="23.323"/>
	</g>
	<g>
		<g>
			<rect x="1646.518" y="936.068" class="st0" width="20.771" height="23.323"/>
			<rect x="1646.518" y="977.766" class="st0" width="20.771" height="23.323"/>
			<rect x="1646.518" y="1019.597" class="st0" width="20.771" height="23.323"/>
		</g>
		<rect x="1646.518" y="1019.597" class="st1" width="20.771" height="23.323"/>
		<rect x="1646.518" y="977.766" class="st1" width="20.771" height="23.323"/>
		<rect x="1646.518" y="936.068" class="st1" width="20.771" height="23.323"/>
	</g>
	<g>
		<g>
			<rect x="1646.518" y="1061.729" class="st0" width="20.771" height="23.323"/>
			<rect x="1646.518" y="1103.427" class="st0" width="20.771" height="23.323"/>
			<rect x="1646.518" y="1145.258" class="st0" width="20.771" height="23.331"/>
		</g>
		<rect x="1646.518" y="1145.258" class="st1" width="20.771" height="23.331"/>
		<rect x="1646.518" y="1103.427" class="st1" width="20.771" height="23.323"/>
		<rect x="1646.518" y="1061.729" class="st1" width="20.771" height="23.323"/>
	</g>
	<g>
		<g>
			<rect x="1646.518" y="1187.39" class="st0" width="20.771" height="23.323"/>
			<rect x="1646.518" y="1229.087" class="st0" width="20.771" height="23.323"/>
			<rect x="1646.518" y="1270.927" class="st0" width="20.771" height="23.323"/>
		</g>
		<rect x="1646.518" y="1270.927" class="st1" width="20.771" height="23.323"/>
		<rect x="1646.518" y="1229.087" class="st1" width="20.771" height="23.323"/>
		<rect x="1646.518" y="1187.39" class="st1" width="20.771" height="23.323"/>
	</g>
	<g>
		<g>
			<rect x="1646.518" y="1313.05" class="st0" width="20.771" height="23.331"/>
			<rect x="1646.518" y="1354.748" class="st0" width="20.771" height="23.331"/>
			<rect x="1646.518" y="1396.588" class="st0" width="20.771" height="23.323"/>
		</g>
		<rect x="1646.518" y="1396.588" class="st1" width="20.771" height="23.323"/>
		<rect x="1646.518" y="1354.748" class="st1" width="20.771" height="23.331"/>
		<rect x="1646.518" y="1313.05" class="st1" width="20.771" height="23.331"/>
	</g>
	<g>
		<g>
			<rect x="1646.518" y="1438.72" class="st0" width="20.771" height="23.323"/>
			<rect x="1646.518" y="1480.417" class="st0" width="20.771" height="23.323"/>
			<rect x="1646.518" y="1522.249" class="st0" width="20.771" height="23.323"/>
		</g>
		<rect x="1646.518" y="1522.249" class="st1" width="20.771" height="23.323"/>
		<rect x="1646.518" y="1480.417" class="st1" width="20.771" height="23.323"/>
		<rect x="1646.518" y="1438.72" class="st1" width="20.771" height="23.323"/>
	</g>
	<g>
		<g>
			<rect x="1646.518" y="1564.38" class="st0" width="20.771" height="23.323"/>
			<rect x="1646.518" y="1606.078" class="st0" width="20.771" height="23.323"/>
			<rect x="1646.518" y="1647.909" class="st0" width="20.771" height="23.331"/>
		</g>
		<rect x="1646.518" y="1647.909" class="st1" width="20.771" height="23.331"/>
		<rect x="1646.518" y="1606.078" class="st1" width="20.771" height="23.323"/>
		<rect x="1646.518" y="1564.38" class="st1" width="20.771" height="23.323"/>
	</g>
	<g>
		<g>
			<path class="st0" d="M1612.02,1753.143l8.612,12.675c0,0-0.137,0.042-0.385,0.117c-0.237,0.083-0.61,0.192-1.083,0.317
				c-0.933,0.267-2.278,0.659-3.895,1.093c-3.261,0.851-7.654,1.861-12.134,2.679c-4.48,0.785-9.011,1.419-12.433,1.769
				c-1.705,0.209-3.148,0.292-4.144,0.392c-1.008,0.092-1.581,0.142-1.581,0.142l-2.34-13.844c0,0,0.486-0.042,1.319-0.117
				c0.834-0.083,2.041-0.15,3.46-0.325c2.863-0.292,6.621-0.826,10.33-1.469c3.684-0.676,7.28-1.502,9.931-2.195
				c1.319-0.35,2.389-0.676,3.161-0.884c0.386-0.1,0.672-0.192,0.871-0.259C1611.908,1753.176,1612.02,1753.143,1612.02,1753.143z"
				/>
			<path class="st0" d="M1645.485,1729.544l20.198,3.279c0,0-0.149,0.401-0.411,1.118c-0.298,0.701-0.759,1.694-1.368,2.879
				c-1.232,2.353-3.336,5.374-5.949,8.136c-2.601,2.787-5.687,5.299-8.127,7.076c-2.476,1.761-4.256,2.829-4.256,2.829l-14.1-10.23
				c0,0,1.332-0.801,3.137-2.078c1.779-1.302,3.982-3.096,5.762-5.007c1.792-1.911,3.186-3.905,3.982-5.432
				c0.386-0.768,0.685-1.402,0.884-1.852C1645.398,1729.811,1645.485,1729.544,1645.485,1729.544z"/>
			<rect x="1646.518" y="1690.041" class="st0" width="20.771" height="23.323"/>
		</g>
		<path class="st1" d="M1620.631,1765.818c0,0-0.137,0.042-0.385,0.117c-0.237,0.083-0.61,0.192-1.083,0.317
			c-0.933,0.267-2.278,0.659-3.895,1.093c-3.261,0.851-7.654,1.861-12.134,2.679c-4.48,0.785-9.011,1.419-12.433,1.769
			c-1.705,0.209-3.148,0.292-4.144,0.392c-1.008,0.092-1.581,0.142-1.581,0.142l-2.34-13.844c0,0,0.486-0.042,1.319-0.117
			c0.834-0.083,2.041-0.15,3.46-0.325c2.863-0.292,6.621-0.826,10.33-1.469c3.684-0.676,7.28-1.502,9.931-2.195
			c1.319-0.35,2.389-0.676,3.161-0.884c0.386-0.1,0.672-0.192,0.871-0.259c0.199-0.058,0.311-0.092,0.311-0.092L1620.631,1765.818z"
			/>
		<path class="st1" d="M1665.683,1732.824c0,0-0.149,0.401-0.411,1.118c-0.298,0.701-0.759,1.694-1.368,2.879
			c-1.232,2.353-3.336,5.374-5.949,8.136c-2.601,2.787-5.687,5.299-8.127,7.076c-2.476,1.761-4.256,2.829-4.256,2.829l-14.1-10.23
			c0,0,1.332-0.801,3.137-2.078c1.779-1.302,3.982-3.096,5.762-5.007c1.792-1.911,3.186-3.905,3.982-5.432
			c0.386-0.768,0.685-1.402,0.884-1.852c0.162-0.451,0.249-0.718,0.249-0.718L1665.683,1732.824z"/>
		<rect x="1646.518" y="1690.041" class="st1" width="20.771" height="23.323"/>
	</g>
</g>
</svg>