<!-- Generator: Adobe Illustrator 20.1.0, SVG Export Plug-In  -->
<svg version="1.1"
	 xmlns="http://www.w3.org/2000/svg" xmlns:xlink="http://www.w3.org/1999/xlink" xmlns:a="http://ns.adobe.com/AdobeSVGViewerExtensions/3.0/"
	 x="0px" y="0px" width="1400.43px" height="1422.16px" viewBox="0 0 1400.43 1422.16"
	 style="enable-background:new 0 0 1400.43 1422.16;" xml:space="preserve">
<style type="text/css">
	.st0{fill:none;stroke:#A1D07B;stroke-width:15;stroke-miterlimit:10;}
	.st1{fill:#A1D07B;}
	.st2{fill:none;stroke:#64A749;stroke-width:15;stroke-miterlimit:10;}
	.st3{fill:#64A749;}
	.st4{fill:none;stroke:#DFFFBC;stroke-width:15;stroke-miterlimit:10;}
	.st5{fill:#DFFFBC;}
</style>
<defs>
</defs>
<g>
	<g>
		<path class="st0" d="M1133.07,1239.89c-119.35,108.58-277.95,174.77-452.01,174.77c-308.921,0-569.143-208.488-647.633-492.441"/>
		<g>
			<polygon class="st1" points="72.715,924.005 21.19,869.8 0,941.521 			"/>
		</g>
	</g>
</g>
<g>
	<g>
		<path class="st2" d="M21.19,827.8c-7.87-41.12-11.99-83.58-11.99-127C9.2,329.74,310,28.93,681.06,28.93
			c38.756,0,76.747,3.28,113.707,9.582"/>
		<g>
			<polygon class="st3" points="776.444,73.258 847.42,49.69 791.528,0 			"/>
		</g>
	</g>
</g>
<g>
	<g>
		<path class="st4" d="M887.42,51.69c290.6,74.02,505.51,337.47,505.51,651.11c0,177.637-68.941,339.167-181.522,459.31"/>
		<g>
			<polygon class="st5" points="1192.457,1127.66 1173.07,1199.89 1245.318,1180.575 			"/>
		</g>
	</g>
</g>
</svg>