<!-- Generator: Adobe Illustrator 20.1.0, SVG Export Plug-In  -->
<svg version="1.1"
	 xmlns="http://www.w3.org/2000/svg" xmlns:xlink="http://www.w3.org/1999/xlink" xmlns:a="http://ns.adobe.com/AdobeSVGViewerExtensions/3.0/"
	 x="0px" y="0px" width="2303.536px" height="900.241px" viewBox="0 0 2303.536 900.241"
	 style="enable-background:new 0 0 2303.536 900.241;" xml:space="preserve">
<style type="text/css">
	.st0{fill:#FFFFFF;}
	.st1{fill-rule:evenodd;clip-rule:evenodd;fill:#FFFFFF;}
</style>
<defs>
</defs>
<g>
	<g>
		<g>
			<polygon class="st0" points="2303.536,106.577 2303.536,145.783 2285.87,145.783 2285.87,109.398 			"/>
			<rect x="2285.87" y="175.884" class="st0" width="17.666" height="38.215"/>
			<rect x="2285.87" y="244.421" class="st0" width="17.666" height="38.215"/>
		</g>
		<rect x="2285.87" y="244.421" class="st1" width="17.666" height="38.215"/>
		<rect x="2285.87" y="175.884" class="st1" width="17.666" height="38.215"/>
		<polygon class="st1" points="2303.536,106.577 2303.536,145.783 2285.87,145.783 2285.87,109.398 		"/>
	</g>
	<g>
		<g>
			<rect x="2285.87" y="313.436" class="st0" width="17.666" height="38.215"/>
			<rect x="2285.87" y="381.752" class="st0" width="17.666" height="38.215"/>
			<rect x="2285.87" y="450.29" class="st0" width="17.666" height="38.215"/>
		</g>
		<rect x="2285.87" y="450.29" class="st1" width="17.666" height="38.215"/>
		<rect x="2285.87" y="381.752" class="st1" width="17.666" height="38.215"/>
		<rect x="2285.87" y="313.436" class="st1" width="17.666" height="38.215"/>
	</g>
	<g>
		<g>
			<rect x="2285.87" y="519.305" class="st0" width="17.666" height="38.215"/>
			<rect x="2285.87" y="587.621" class="st0" width="17.666" height="38.215"/>
			<rect x="2285.87" y="656.158" class="st0" width="17.666" height="38.215"/>
		</g>
		<rect x="2285.87" y="656.158" class="st1" width="17.666" height="38.215"/>
		<rect x="2285.87" y="587.621" class="st1" width="17.666" height="38.215"/>
		<rect x="2285.87" y="519.305" class="st1" width="17.666" height="38.215"/>
	</g>
	<g>
		<g>
			<rect x="2285.87" y="725.173" class="st0" width="17.666" height="38.215"/>
			<rect x="2285.87" y="793.489" class="st0" width="17.666" height="38.215"/>
			<rect x="2285.87" y="862.026" class="st0" width="17.666" height="38.215"/>
		</g>
		<rect x="2285.87" y="862.026" class="st1" width="17.666" height="38.215"/>
		<rect x="2285.87" y="793.489" class="st1" width="17.666" height="38.215"/>
		<rect x="2285.87" y="725.173" class="st1" width="17.666" height="38.215"/>
	</g>
	<g>
		<g>
			<rect class="st0" width="29.697" height="22.733"/>
			<rect x="53.261" class="st0" width="29.697" height="22.733"/>
		</g>
		<rect x="53.261" class="st1" width="29.697" height="22.733"/>
		<rect class="st1" width="29.697" height="22.733"/>
	</g>
	<g>
		<g>
			<rect x="106.893" class="st0" width="29.697" height="22.733"/>
			<rect x="159.982" class="st0" width="29.697" height="22.733"/>
			<rect x="213.243" class="st0" width="29.697" height="22.733"/>
		</g>
		<rect x="213.243" class="st1" width="29.697" height="22.733"/>
		<rect x="159.982" class="st1" width="29.697" height="22.733"/>
		<rect x="106.893" class="st1" width="29.697" height="22.733"/>
	</g>
	<g>
		<g>
			<rect x="266.875" class="st0" width="29.697" height="22.733"/>
			<rect x="319.964" class="st0" width="29.697" height="22.733"/>
			<rect x="373.225" class="st0" width="29.697" height="22.733"/>
		</g>
		<rect x="373.225" class="st1" width="29.697" height="22.733"/>
		<rect x="319.964" class="st1" width="29.697" height="22.733"/>
		<rect x="266.875" class="st1" width="29.697" height="22.733"/>
	</g>
	<g>
		<g>
			<rect x="426.857" class="st0" width="29.697" height="22.733"/>
			<rect x="479.946" class="st0" width="29.697" height="22.733"/>
			<rect x="533.207" class="st0" width="29.697" height="22.733"/>
		</g>
		<rect x="533.207" class="st1" width="29.697" height="22.733"/>
		<rect x="479.946" class="st1" width="29.697" height="22.733"/>
		<rect x="426.857" class="st1" width="29.697" height="22.733"/>
	</g>
	<g>
		<g>
			<rect x="586.839" class="st0" width="29.697" height="22.733"/>
			<rect x="639.928" class="st0" width="29.697" height="22.733"/>
			<rect x="693.189" class="st0" width="29.697" height="22.733"/>
		</g>
		<rect x="693.189" class="st1" width="29.697" height="22.733"/>
		<rect x="639.928" class="st1" width="29.697" height="22.733"/>
		<rect x="586.839" class="st1" width="29.697" height="22.733"/>
	</g>
	<g>
		<g>
			<rect x="746.821" class="st0" width="29.697" height="22.733"/>
			<rect x="799.91" class="st0" width="29.697" height="22.733"/>
			<rect x="853.171" class="st0" width="29.697" height="22.733"/>
		</g>
		<rect x="853.171" class="st1" width="29.697" height="22.733"/>
		<rect x="799.91" class="st1" width="29.697" height="22.733"/>
		<rect x="746.821" class="st1" width="29.697" height="22.733"/>
	</g>
	<g>
		<g>
			<rect x="906.803" class="st0" width="29.697" height="22.733"/>
			<rect x="959.892" class="st0" width="29.697" height="22.733"/>
			<rect x="1013.153" class="st0" width="29.697" height="22.733"/>
		</g>
		<rect x="1013.153" class="st1" width="29.697" height="22.733"/>
		<rect x="959.892" class="st1" width="29.697" height="22.733"/>
		<rect x="906.803" class="st1" width="29.697" height="22.733"/>
	</g>
	<g>
		<g>
			<rect x="1066.785" class="st0" width="29.697" height="22.733"/>
			<rect x="1119.874" class="st0" width="29.697" height="22.733"/>
			<rect x="1173.135" class="st0" width="29.697" height="22.733"/>
		</g>
		<rect x="1173.135" class="st1" width="29.697" height="22.733"/>
		<rect x="1119.874" class="st1" width="29.697" height="22.733"/>
		<rect x="1066.785" class="st1" width="29.697" height="22.733"/>
	</g>
	<g>
		<g>
			<rect x="1226.776" class="st0" width="29.688" height="22.733"/>
			<rect x="1279.856" class="st0" width="29.697" height="22.733"/>
			<rect x="1333.117" class="st0" width="29.697" height="22.733"/>
		</g>
		<rect x="1333.117" class="st1" width="29.697" height="22.733"/>
		<rect x="1279.856" class="st1" width="29.697" height="22.733"/>
		<rect x="1226.776" class="st1" width="29.688" height="22.733"/>
	</g>
	<g>
		<g>
			<rect x="1386.758" class="st0" width="29.688" height="22.733"/>
			<rect x="1439.838" class="st0" width="29.697" height="22.733"/>
			<rect x="1493.099" class="st0" width="29.697" height="22.733"/>
		</g>
		<rect x="1493.099" class="st1" width="29.697" height="22.733"/>
		<rect x="1439.838" class="st1" width="29.697" height="22.733"/>
		<rect x="1386.758" class="st1" width="29.688" height="22.733"/>
	</g>
	<g>
		<g>
			<rect x="1546.74" class="st0" width="29.688" height="22.733"/>
			<rect x="1599.82" class="st0" width="29.697" height="22.733"/>
			<rect x="1653.081" class="st0" width="29.697" height="22.733"/>
		</g>
		<rect x="1653.081" class="st1" width="29.697" height="22.733"/>
		<rect x="1599.82" class="st1" width="29.697" height="22.733"/>
		<rect x="1546.74" class="st1" width="29.688" height="22.733"/>
	</g>
	<g>
		<g>
			<rect x="1706.722" class="st0" width="29.688" height="22.733"/>
			<rect x="1759.802" class="st0" width="29.697" height="22.733"/>
			<rect x="1813.063" class="st0" width="29.697" height="22.733"/>
		</g>
		<rect x="1813.063" class="st1" width="29.697" height="22.733"/>
		<rect x="1759.802" class="st1" width="29.697" height="22.733"/>
		<rect x="1706.722" class="st1" width="29.688" height="22.733"/>
	</g>
	<g>
		<g>
			<rect x="1866.704" class="st0" width="29.688" height="22.733"/>
			<rect x="1919.784" class="st0" width="29.697" height="22.733"/>
			<rect x="1973.045" class="st0" width="29.697" height="22.733"/>
		</g>
		<rect x="1973.045" class="st1" width="29.697" height="22.733"/>
		<rect x="1919.784" class="st1" width="29.697" height="22.733"/>
		<rect x="1866.704" class="st1" width="29.688" height="22.733"/>
	</g>
	<g>
		<g>
			<rect x="2026.687" class="st0" width="29.688" height="22.733"/>
			<rect x="2079.766" class="st0" width="29.697" height="22.733"/>
			<rect x="2133.027" class="st0" width="29.697" height="22.733"/>
		</g>
		<rect x="2133.027" class="st1" width="29.697" height="22.733"/>
		<rect x="2079.766" class="st1" width="29.697" height="22.733"/>
		<rect x="2026.687" class="st1" width="29.688" height="22.733"/>
	</g>
	<g>
		<g>
			<polygon class="st0" points="2186.668,0 2216.882,0 2215.405,22.733 2186.668,22.733 			"/>
			<path class="st0" d="M2266.963,11.716c2.582,1.877,4.212,3.299,4.212,3.299l-11.306,19.398c0,0-1.341-1.154-3.461-2.669
				c-2.129-1.493-5.055-3.299-8.099-4.71c-3.026-1.446-6.188-2.402-8.561-2.996c-1.196-0.279-2.184-0.524-2.89-0.606
				c-0.707-0.116-1.105-0.186-1.105-0.186l6.061-22.279c0,0,0.489,0.093,1.35,0.245c0.861,0.128,2.065,0.454,3.524,0.816
				c2.89,0.77,6.731,2.017,10.427,3.836C2260.821,7.636,2264.372,9.874,2266.963,11.716z"/>
			<path class="st0" d="M2302.068,73.841l-17.132,8.802c0,0-0.073-0.513-0.199-1.411c-0.154-0.886-0.381-2.145-0.653-3.672
				c-0.625-3.008-1.594-6.983-2.89-10.796c-1.26-3.835-2.863-7.472-4.167-10.095c-0.326-0.653-0.625-1.259-0.897-1.784
				c-0.281-0.524-0.534-0.967-0.734-1.341c-0.417-0.746-0.643-1.166-0.643-1.166l14.604-15.388c0,0,0.281,0.524,0.788,1.422
				c0.254,0.455,0.553,1.002,0.906,1.632c0.326,0.642,0.698,1.376,1.105,2.18c1.604,3.195,3.578,7.613,5.155,12.276
				c1.613,4.64,2.854,9.478,3.651,13.15c0.344,1.853,0.634,3.393,0.842,4.476C2301.969,73.212,2302.068,73.841,2302.068,73.841z"/>
		</g>
		<path class="st1" d="M2302.068,73.841l-17.132,8.802c0,0-0.073-0.513-0.199-1.411c-0.154-0.886-0.381-2.145-0.653-3.672
			c-0.625-3.008-1.594-6.983-2.89-10.796c-1.26-3.835-2.863-7.472-4.167-10.095c-0.326-0.653-0.625-1.259-0.897-1.784
			c-0.281-0.524-0.534-0.967-0.734-1.341c-0.417-0.746-0.643-1.166-0.643-1.166l14.604-15.388c0,0,0.281,0.524,0.788,1.422
			c0.254,0.455,0.553,1.002,0.906,1.632c0.326,0.642,0.698,1.376,1.105,2.18c1.604,3.195,3.578,7.613,5.155,12.276
			c1.613,4.64,2.854,9.478,3.651,13.15c0.344,1.853,0.634,3.393,0.842,4.476C2301.969,73.212,2302.068,73.841,2302.068,73.841z"/>
		<path class="st1" d="M2271.175,15.015l-11.306,19.398c0,0-1.341-1.154-3.461-2.669c-2.129-1.493-5.055-3.299-8.099-4.71
			c-3.026-1.446-6.188-2.402-8.561-2.996c-1.196-0.279-2.184-0.524-2.89-0.606c-0.707-0.116-1.105-0.186-1.105-0.186l6.061-22.279
			c0,0,0.489,0.093,1.35,0.245c0.861,0.128,2.065,0.454,3.524,0.816c2.89,0.77,6.731,2.017,10.427,3.836
			c3.706,1.772,7.257,4.01,9.848,5.852C2269.545,13.593,2271.175,15.015,2271.175,15.015z"/>
		<polygon class="st1" points="2216.882,0 2215.405,22.733 2186.668,22.733 2186.668,0 		"/>
	</g>
</g>
</svg>