<!-- Generator: Adobe Illustrator 20.1.0, SVG Export Plug-In  -->
<svg version="1.1"
	 xmlns="http://www.w3.org/2000/svg" xmlns:xlink="http://www.w3.org/1999/xlink" xmlns:a="http://ns.adobe.com/AdobeSVGViewerExtensions/3.0/"
	 x="0px" y="0px" width="2285.053px" height="467.99px" viewBox="0 0 2285.053 467.99"
	 style="enable-background:new 0 0 2285.053 467.99;" xml:space="preserve">
<style type="text/css">
	.st0{fill:none;}
	.st1{fill-rule:evenodd;clip-rule:evenodd;fill:#231F20;}
</style>
<defs>
</defs>
<g>
	<g>
		<g>
			<g>
				<g>
					<g>
						<rect x="6.5" y="273.01" class="st0" width="179.583" height="194.98"/>
					</g>
					<rect x="139.481" y="363.603" class="st1" width="33.333" height="19.5"/>
					<rect x="79.696" y="363.603" class="st1" width="33.333" height="19.5"/>
					<rect x="20.107" y="363.603" class="st1" width="33.333" height="19.5"/>
				</g>
			</g>
			<g>
				<g>
					<g>
						<rect x="186.082" y="273.01" class="st0" width="179.583" height="194.98"/>
					</g>
					<rect x="319.064" y="363.603" class="st1" width="33.333" height="19.5"/>
					<rect x="259.278" y="363.603" class="st1" width="33.333" height="19.5"/>
					<rect x="199.689" y="363.603" class="st1" width="33.333" height="19.5"/>
				</g>
			</g>
			<g>
				<g>
					<g>
						<rect x="365.665" y="273.01" class="st0" width="179.583" height="194.98"/>
					</g>
					<rect x="498.646" y="363.603" class="st1" width="33.333" height="19.5"/>
					<rect x="438.861" y="363.603" class="st1" width="33.333" height="19.5"/>
					<rect x="379.272" y="363.603" class="st1" width="33.333" height="19.5"/>
				</g>
			</g>
			<g>
				<g>
					<g>
						<rect x="545.247" y="273.01" class="st0" width="179.583" height="194.98"/>
					</g>
					<rect x="678.229" y="363.603" class="st1" width="33.333" height="19.5"/>
					<rect x="618.443" y="363.603" class="st1" width="33.333" height="19.5"/>
					<rect x="558.854" y="363.603" class="st1" width="33.333" height="19.5"/>
				</g>
			</g>
			<g>
				<g>
					<g>
						<rect x="724.83" y="273.01" class="st0" width="179.583" height="194.98"/>
					</g>
					<rect x="857.811" y="363.603" class="st1" width="33.333" height="19.5"/>
					<rect x="798.026" y="363.603" class="st1" width="33.333" height="19.5"/>
					<rect x="738.436" y="363.603" class="st1" width="33.333" height="19.5"/>
				</g>
			</g>
			<g>
				<g>
					<g>
						<rect x="904.412" y="273.01" class="st0" width="179.583" height="194.98"/>
					</g>
					<rect x="1037.394" y="363.603" class="st1" width="33.333" height="19.5"/>
					<rect x="977.608" y="363.603" class="st1" width="33.333" height="19.5"/>
					<rect x="918.019" y="363.603" class="st1" width="33.333" height="19.5"/>
				</g>
			</g>
			<g>
				<g>
					<g>
						<rect x="1083.995" y="273.01" class="st0" width="179.583" height="194.98"/>
					</g>
					<rect x="1216.976" y="363.603" class="st1" width="33.333" height="19.5"/>
					<rect x="1157.191" y="363.603" class="st1" width="33.333" height="19.5"/>
					<rect x="1097.602" y="363.603" class="st1" width="33.333" height="19.5"/>
				</g>
			</g>
			<g>
				<g>
					<g>
						<rect x="1263.578" y="273.01" class="st0" width="179.583" height="194.98"/>
					</g>
					<rect x="1396.559" y="363.603" class="st1" width="33.333" height="19.5"/>
					<rect x="1336.773" y="363.603" class="st1" width="33.333" height="19.5"/>
					<rect x="1277.184" y="363.603" class="st1" width="33.333" height="19.5"/>
				</g>
			</g>
			<g>
				<g>
					<g>
						<rect x="1443.16" y="273.01" class="st0" width="179.582" height="194.98"/>
					</g>
					<rect x="1576.141" y="363.603" class="st1" width="33.333" height="19.5"/>
					<rect x="1516.356" y="363.603" class="st1" width="33.333" height="19.5"/>
					<rect x="1456.766" y="363.603" class="st1" width="33.333" height="19.5"/>
				</g>
			</g>
			<g>
				<g>
					<g>
						<rect x="1622.742" y="273.01" class="st0" width="179.583" height="194.98"/>
					</g>
					<rect x="1755.724" y="363.603" class="st1" width="33.333" height="19.5"/>
					<rect x="1695.938" y="363.603" class="st1" width="33.333" height="19.5"/>
					<rect x="1636.349" y="363.603" class="st1" width="33.333" height="19.5"/>
				</g>
			</g>
			<g>
				<g>
					<g>
						<rect x="1802.325" y="273.01" class="st0" width="179.583" height="194.98"/>
					</g>
					<rect x="1935.306" y="363.603" class="st1" width="33.333" height="19.5"/>
					<rect x="1875.521" y="363.603" class="st1" width="33.333" height="19.5"/>
					<rect x="1815.932" y="363.603" class="st1" width="33.333" height="19.5"/>
				</g>
			</g>
			<g>
				<g>
					<g>
						<path class="st0" d="M1981.907,467.99c0,0,44.896,0,89.791,0c5.612,0,11.224,0,16.748,0c4.98,0,9.922,0,14.803,0
							c2.708,0,5.398,0,8.07,0c1.336,0,2.667,0,3.993,0c1.321-0.031,2.636-0.062,3.946-0.094
							c10.511-0.182,20.366-1.377,29.425-3.191c9.094-1.821,17.512-4.251,25.075-7.016c15.126-5.569,26.793-12.282,34.61-17.389
							c1.978-1.248,3.661-2.485,5.152-3.521c1.491-1.037,2.728-1.96,3.721-2.722c1.989-1.521,3.049-2.331,3.049-2.331
							l-130.23-158.721c-0.013-0.016,0.012,0.015,0.002,0.003c-5.009,0-11.686,0-18.364,0c-44.896,0-89.791,0-89.791,0V467.99z"/>
					</g>
					<path class="st1" d="M2113.132,363.603l4.91,19.283c0,0,2.332-0.062,5.81-0.357c3.48-0.289,8.089-1.029,12.605-2.151
						c4.519-1.116,8.927-2.651,12.126-4.045c1.624-0.641,2.917-1.312,3.844-1.732c0.46-0.218,0.822-0.388,1.068-0.505
						c0.241-0.127,0.37-0.195,0.37-0.195l-10.788-17.059c0,0-0.429,0.224-1.205,0.564c-0.778,0.335-1.859,0.884-3.221,1.39
						c-2.68,1.118-6.375,2.318-10.155,3.157c-3.778,0.844-7.627,1.356-10.528,1.504
						C2115.07,363.611,2113.132,363.603,2113.132,363.603z"/>
					<rect x="2055.104" y="363.603" class="st1" width="33.333" height="19.5"/>
					<rect x="1995.514" y="363.603" class="st1" width="33.333" height="19.5"/>
				</g>
			</g>
			<g>
				<g>
					<g>
						<path class="st0" d="M2220.291,431.728c0,0,1.048-0.826,2.98-2.417c1.946-1.574,4.728-3.971,8.155-7.144
							c6.816-6.367,16.032-16.139,25.01-29.438c8.88-13.319,17.446-30.246,22.658-49.775c2.636-9.76,4.512-20.003,5.375-30.842
							c0.846-10.856,0.501-22.172,0.574-33.374c0-46.328,0-92.655,0-92.655h-194.98c0,0,0,43.463,0,86.927
							c0.006,0.006-0.009-0.009-0.002-0.003L2220.291,431.728z"/>
					</g>
					<rect x="2180.656" y="199.351" class="st1" width="19.5" height="33.333"/>
					<path class="st1" d="M2180.656,291.092l19.429,3.877c0,0,0.025-2.347,0.062-5.868c0.003-3.528,0.006-8.233,0.01-12.938
						c0-8.514,0-17.028,0-17.028h-19.5V291.092z"/>
					<path class="st1" d="M2162.978,341.994l14.706,13.913c0,0,0.407-0.416,1.068-1.19c0.656-0.777,1.657-1.836,2.719-3.221
						c2.215-2.696,4.91-6.506,7.228-10.542c2.337-4.025,4.274-8.268,5.551-11.515c0.594-1.641,1.088-3.008,1.434-3.966
						c0.3-0.973,0.472-1.528,0.472-1.528l-18.125-8.701c0,0-0.132,0.465-0.364,1.28c-0.272,0.802-0.661,1.947-1.128,3.322
						c-1.014,2.721-2.571,6.276-4.479,9.646c-1.89,3.38-4.106,6.571-5.943,8.82c-0.874,1.161-1.711,2.038-2.253,2.688
						C2163.318,341.648,2162.978,341.994,2162.978,341.994z"/>
				</g>
			</g>
			<g>
				<g>
					<g>
						<rect x="2090.063" y="6.5" class="st0" width="194.98" height="179.583"/>
					</g>
					<rect x="2180.656" y="19.768" class="st1" width="19.5" height="33.333"/>
					<rect x="2180.656" y="79.553" class="st1" width="19.5" height="33.333"/>
					<rect x="2180.656" y="139.143" class="st1" width="19.5" height="33.333"/>
				</g>
			</g>
		</g>
	</g>
</g>
</svg>