<!-- Generator: Adobe Illustrator 20.1.0, SVG Export Plug-In  -->
<svg version="1.1"
	 xmlns="http://www.w3.org/2000/svg" xmlns:xlink="http://www.w3.org/1999/xlink" xmlns:a="http://ns.adobe.com/AdobeSVGViewerExtensions/3.0/"
	 x="0px" y="0px" width="900.241px" height="2303.536px" viewBox="0 0 900.241 2303.536"
	 style="enable-background:new 0 0 900.241 2303.536;" xml:space="preserve">
<style type="text/css">
	.st0{fill:#FFFFFF;}
	.st1{fill-rule:evenodd;clip-rule:evenodd;fill:#FFFFFF;}
</style>
<defs>
</defs>
<g>
	<g>
		<g>
			<polygon class="st0" points="106.577,2303.536 145.783,2303.536 145.783,2285.87 109.398,2285.87 			"/>
			<rect x="175.884" y="2285.87" class="st0" width="38.215" height="17.666"/>
			<rect x="244.421" y="2285.87" class="st0" width="38.215" height="17.666"/>
		</g>
		<rect x="244.421" y="2285.87" class="st1" width="38.215" height="17.666"/>
		<rect x="175.884" y="2285.87" class="st1" width="38.215" height="17.666"/>
		<polygon class="st1" points="106.577,2303.536 145.783,2303.536 145.783,2285.87 109.398,2285.87 		"/>
	</g>
	<g>
		<g>
			<rect x="313.436" y="2285.87" class="st0" width="38.215" height="17.666"/>
			<rect x="381.752" y="2285.87" class="st0" width="38.215" height="17.666"/>
			<rect x="450.29" y="2285.87" class="st0" width="38.215" height="17.666"/>
		</g>
		<rect x="450.29" y="2285.87" class="st1" width="38.215" height="17.666"/>
		<rect x="381.752" y="2285.87" class="st1" width="38.215" height="17.666"/>
		<rect x="313.436" y="2285.87" class="st1" width="38.215" height="17.666"/>
	</g>
	<g>
		<g>
			<rect x="519.305" y="2285.87" class="st0" width="38.215" height="17.666"/>
			<rect x="587.621" y="2285.87" class="st0" width="38.215" height="17.666"/>
			<rect x="656.158" y="2285.87" class="st0" width="38.215" height="17.666"/>
		</g>
		<rect x="656.158" y="2285.87" class="st1" width="38.215" height="17.666"/>
		<rect x="587.621" y="2285.87" class="st1" width="38.215" height="17.666"/>
		<rect x="519.305" y="2285.87" class="st1" width="38.215" height="17.666"/>
	</g>
	<g>
		<g>
			<rect x="725.173" y="2285.87" class="st0" width="38.215" height="17.666"/>
			<rect x="793.489" y="2285.87" class="st0" width="38.215" height="17.666"/>
			<rect x="862.026" y="2285.87" class="st0" width="38.215" height="17.666"/>
		</g>
		<rect x="862.026" y="2285.87" class="st1" width="38.215" height="17.666"/>
		<rect x="793.489" y="2285.87" class="st1" width="38.215" height="17.666"/>
		<rect x="725.173" y="2285.87" class="st1" width="38.215" height="17.666"/>
	</g>
	<g>
		<g>
			<rect x="0" y="0" class="st0" width="22.733" height="29.697"/>
			<rect x="0" y="53.261" class="st0" width="22.733" height="29.697"/>
		</g>
		<rect x="0" y="53.261" class="st1" width="22.733" height="29.697"/>
		<rect x="0" y="0" class="st1" width="22.733" height="29.697"/>
	</g>
	<g>
		<g>
			<rect x="0" y="106.893" class="st0" width="22.733" height="29.697"/>
			<rect x="0" y="159.982" class="st0" width="22.733" height="29.697"/>
			<rect x="0" y="213.243" class="st0" width="22.733" height="29.697"/>
		</g>
		<rect x="0" y="213.243" class="st1" width="22.733" height="29.697"/>
		<rect x="0" y="159.982" class="st1" width="22.733" height="29.697"/>
		<rect x="0" y="106.893" class="st1" width="22.733" height="29.697"/>
	</g>
	<g>
		<g>
			<rect x="0" y="266.875" class="st0" width="22.733" height="29.697"/>
			<rect x="0" y="319.964" class="st0" width="22.733" height="29.697"/>
			<rect x="0" y="373.225" class="st0" width="22.733" height="29.697"/>
		</g>
		<rect x="0" y="373.225" class="st1" width="22.733" height="29.697"/>
		<rect x="0" y="319.964" class="st1" width="22.733" height="29.697"/>
		<rect x="0" y="266.875" class="st1" width="22.733" height="29.697"/>
	</g>
	<g>
		<g>
			<rect x="0" y="426.857" class="st0" width="22.733" height="29.697"/>
			<rect x="0" y="479.946" class="st0" width="22.733" height="29.697"/>
			<rect x="0" y="533.207" class="st0" width="22.733" height="29.697"/>
		</g>
		<rect x="0" y="533.207" class="st1" width="22.733" height="29.697"/>
		<rect x="0" y="479.946" class="st1" width="22.733" height="29.697"/>
		<rect x="0" y="426.857" class="st1" width="22.733" height="29.697"/>
	</g>
	<g>
		<g>
			<rect x="0" y="586.839" class="st0" width="22.733" height="29.697"/>
			<rect x="0" y="639.928" class="st0" width="22.733" height="29.697"/>
			<rect x="0" y="693.189" class="st0" width="22.733" height="29.697"/>
		</g>
		<rect x="0" y="693.189" class="st1" width="22.733" height="29.697"/>
		<rect x="0" y="639.928" class="st1" width="22.733" height="29.697"/>
		<rect x="0" y="586.839" class="st1" width="22.733" height="29.697"/>
	</g>
	<g>
		<g>
			<rect x="0" y="746.821" class="st0" width="22.733" height="29.697"/>
			<rect x="0" y="799.91" class="st0" width="22.733" height="29.697"/>
			<rect x="0" y="853.171" class="st0" width="22.733" height="29.697"/>
		</g>
		<rect x="0" y="853.171" class="st1" width="22.733" height="29.697"/>
		<rect x="0" y="799.91" class="st1" width="22.733" height="29.697"/>
		<rect x="0" y="746.821" class="st1" width="22.733" height="29.697"/>
	</g>
	<g>
		<g>
			<rect x="0" y="906.803" class="st0" width="22.733" height="29.697"/>
			<rect x="0" y="959.892" class="st0" width="22.733" height="29.697"/>
			<rect x="0" y="1013.153" class="st0" width="22.733" height="29.697"/>
		</g>
		<rect x="0" y="1013.153" class="st1" width="22.733" height="29.697"/>
		<rect x="0" y="959.892" class="st1" width="22.733" height="29.697"/>
		<rect x="0" y="906.803" class="st1" width="22.733" height="29.697"/>
	</g>
	<g>
		<g>
			<rect x="0" y="1066.785" class="st0" width="22.733" height="29.697"/>
			<rect x="0" y="1119.874" class="st0" width="22.733" height="29.697"/>
			<rect x="0" y="1173.135" class="st0" width="22.733" height="29.697"/>
		</g>
		<rect x="0" y="1173.135" class="st1" width="22.733" height="29.697"/>
		<rect x="0" y="1119.874" class="st1" width="22.733" height="29.697"/>
		<rect x="0" y="1066.785" class="st1" width="22.733" height="29.697"/>
	</g>
	<g>
		<g>
			<rect x="0" y="1226.776" class="st0" width="22.733" height="29.688"/>
			<rect x="0" y="1279.856" class="st0" width="22.733" height="29.697"/>
			<rect x="0" y="1333.117" class="st0" width="22.733" height="29.697"/>
		</g>
		<rect x="0" y="1333.117" class="st1" width="22.733" height="29.697"/>
		<rect x="0" y="1279.856" class="st1" width="22.733" height="29.697"/>
		<rect x="0" y="1226.776" class="st1" width="22.733" height="29.688"/>
	</g>
	<g>
		<g>
			<rect x="0" y="1386.758" class="st0" width="22.733" height="29.688"/>
			<rect x="0" y="1439.838" class="st0" width="22.733" height="29.697"/>
			<rect x="0" y="1493.099" class="st0" width="22.733" height="29.697"/>
		</g>
		<rect x="0" y="1493.099" class="st1" width="22.733" height="29.697"/>
		<rect x="0" y="1439.838" class="st1" width="22.733" height="29.697"/>
		<rect x="0" y="1386.758" class="st1" width="22.733" height="29.688"/>
	</g>
	<g>
		<g>
			<rect x="0" y="1546.74" class="st0" width="22.733" height="29.688"/>
			<rect x="0" y="1599.82" class="st0" width="22.733" height="29.697"/>
			<rect x="0" y="1653.081" class="st0" width="22.733" height="29.697"/>
		</g>
		<rect x="0" y="1653.081" class="st1" width="22.733" height="29.697"/>
		<rect x="0" y="1599.82" class="st1" width="22.733" height="29.697"/>
		<rect x="0" y="1546.74" class="st1" width="22.733" height="29.688"/>
	</g>
	<g>
		<g>
			<rect x="0" y="1706.722" class="st0" width="22.733" height="29.688"/>
			<rect x="0" y="1759.802" class="st0" width="22.733" height="29.697"/>
			<rect x="0" y="1813.063" class="st0" width="22.733" height="29.697"/>
		</g>
		<rect x="0" y="1813.063" class="st1" width="22.733" height="29.697"/>
		<rect x="0" y="1759.802" class="st1" width="22.733" height="29.697"/>
		<rect x="0" y="1706.722" class="st1" width="22.733" height="29.688"/>
	</g>
	<g>
		<g>
			<rect x="0" y="1866.704" class="st0" width="22.733" height="29.688"/>
			<rect x="0" y="1919.784" class="st0" width="22.733" height="29.697"/>
			<rect x="0" y="1973.045" class="st0" width="22.733" height="29.697"/>
		</g>
		<rect x="0" y="1973.045" class="st1" width="22.733" height="29.697"/>
		<rect x="0" y="1919.784" class="st1" width="22.733" height="29.697"/>
		<rect x="0" y="1866.704" class="st1" width="22.733" height="29.688"/>
	</g>
	<g>
		<g>
			<rect x="0" y="2026.687" class="st0" width="22.733" height="29.688"/>
			<rect x="0" y="2079.766" class="st0" width="22.733" height="29.697"/>
			<rect x="0" y="2133.027" class="st0" width="22.733" height="29.697"/>
		</g>
		<rect x="0" y="2133.027" class="st1" width="22.733" height="29.697"/>
		<rect x="0" y="2079.766" class="st1" width="22.733" height="29.697"/>
		<rect x="0" y="2026.687" class="st1" width="22.733" height="29.688"/>
	</g>
	<g>
		<g>
			<polygon class="st0" points="0,2186.668 0,2216.882 22.733,2215.405 22.733,2186.668 			"/>
			<path class="st0" d="M11.716,2266.963c1.877,2.582,3.299,4.212,3.299,4.212l19.398-11.306c0,0-1.154-1.341-2.669-3.461
				c-1.493-2.129-3.299-5.055-4.71-8.099c-1.446-3.026-2.402-6.188-2.996-8.561c-0.279-1.196-0.524-2.184-0.606-2.89
				c-0.116-0.707-0.186-1.105-0.186-1.105l-22.279,6.061c0,0,0.093,0.489,0.245,1.35c0.128,0.861,0.454,2.065,0.816,3.524
				c0.77,2.89,2.017,6.731,3.836,10.427C7.636,2260.821,9.874,2264.372,11.716,2266.963z"/>
			<path class="st0" d="M73.841,2302.068l8.802-17.132c0,0-0.513-0.073-1.411-0.199c-0.886-0.154-2.145-0.381-3.672-0.653
				c-3.008-0.625-6.983-1.594-10.796-2.89c-3.835-1.26-7.472-2.863-10.095-4.167c-0.653-0.326-1.259-0.625-1.784-0.897
				c-0.524-0.281-0.967-0.534-1.341-0.734c-0.746-0.417-1.166-0.643-1.166-0.643l-15.388,14.604c0,0,0.524,0.281,1.422,0.788
				c0.455,0.254,1.002,0.553,1.632,0.906c0.642,0.326,1.376,0.698,2.18,1.105c3.195,1.604,7.613,3.578,12.276,5.155
				c4.64,1.613,9.478,2.854,13.15,3.651c1.853,0.344,3.393,0.634,4.476,0.842C73.212,2301.969,73.841,2302.068,73.841,2302.068z"/>
		</g>
		<path class="st1" d="M73.841,2302.068l8.802-17.132c0,0-0.513-0.073-1.411-0.199c-0.886-0.154-2.145-0.381-3.672-0.653
			c-3.008-0.625-6.983-1.594-10.796-2.89c-3.835-1.26-7.472-2.863-10.095-4.167c-0.653-0.326-1.259-0.625-1.784-0.897
			c-0.524-0.281-0.967-0.534-1.341-0.734c-0.746-0.417-1.166-0.643-1.166-0.643l-15.388,14.604c0,0,0.524,0.281,1.422,0.788
			c0.455,0.254,1.002,0.553,1.632,0.906c0.642,0.326,1.376,0.698,2.18,1.105c3.195,1.604,7.613,3.578,12.276,5.155
			c4.64,1.613,9.478,2.854,13.15,3.651c1.853,0.344,3.393,0.634,4.476,0.842C73.212,2301.969,73.841,2302.068,73.841,2302.068z"/>
		<path class="st1" d="M15.015,2271.175l19.398-11.306c0,0-1.154-1.341-2.669-3.461c-1.493-2.129-3.299-5.055-4.71-8.099
			c-1.446-3.026-2.402-6.188-2.996-8.561c-0.279-1.196-0.524-2.184-0.606-2.89c-0.116-0.707-0.186-1.105-0.186-1.105l-22.279,6.061
			c0,0,0.093,0.489,0.245,1.35c0.128,0.861,0.454,2.065,0.816,3.524c0.77,2.89,2.017,6.731,3.836,10.427
			c1.772,3.706,4.01,7.257,5.852,9.848C13.593,2269.545,15.015,2271.175,15.015,2271.175z"/>
		<polygon class="st1" points="0,2216.882 22.733,2215.405 22.733,2186.668 0,2186.668 		"/>
	</g>
</g>
</svg>