<!-- Generator: Adobe Illustrator 20.1.0, SVG Export Plug-In  -->
<svg version="1.1"
	 xmlns="http://www.w3.org/2000/svg" xmlns:xlink="http://www.w3.org/1999/xlink" xmlns:a="http://ns.adobe.com/AdobeSVGViewerExtensions/3.0/"
	 x="0px" y="0px" width="4485.18px" height="1191.065px" viewBox="0 0 4485.18 1191.065"
	 style="enable-background:new 0 0 4485.18 1191.065;" xml:space="preserve">
<style type="text/css">
	.st0{fill:#FFFFFF;}
	.st1{fill-rule:evenodd;clip-rule:evenodd;fill:#FFFFFF;}
</style>
<defs>
</defs>
<g>
	<g>
		<g>
			<path class="st0" d="M4485.18,102.251c0,9.065,0,18.139,0,18.139h-24.83V88.953l24.78-5.392c0,0,0.02,2.336,0.04,5.832
				C4485.17,92.897,4485.18,97.57,4485.18,102.251z"/>
			<rect x="4460.35" y="147.899" class="st0" width="24.83" height="34.924"/>
			<rect x="4460.35" y="210.536" class="st0" width="24.83" height="34.933"/>
		</g>
		<rect x="4460.35" y="210.536" class="st1" width="24.83" height="34.933"/>
		<rect x="4460.35" y="147.899" class="st1" width="24.83" height="34.924"/>
		<path class="st1" d="M4485.18,102.251c0,9.065,0,18.139,0,18.139h-24.83V88.953l24.78-5.392c0,0,0.02,2.336,0.04,5.832
			C4485.17,92.897,4485.18,97.57,4485.18,102.251z"/>
	</g>
	<g>
		<g>
			<rect x="4460.35" y="273.622" class="st0" width="24.83" height="34.933"/>
			<rect x="4460.35" y="336.064" class="st0" width="24.83" height="34.924"/>
			<rect x="4460.35" y="398.701" class="st0" width="24.83" height="34.924"/>
		</g>
		<rect x="4460.35" y="398.701" class="st1" width="24.83" height="34.924"/>
		<rect x="4460.35" y="336.064" class="st1" width="24.83" height="34.924"/>
		<rect x="4460.35" y="273.622" class="st1" width="24.83" height="34.933"/>
	</g>
	<g>
		<g>
			<rect x="4460.35" y="461.786" class="st0" width="24.83" height="34.924"/>
			<rect x="4460.35" y="524.22" class="st0" width="24.83" height="34.933"/>
			<rect x="4460.35" y="586.865" class="st0" width="24.83" height="34.924"/>
		</g>
		<rect x="4460.35" y="586.865" class="st1" width="24.83" height="34.924"/>
		<rect x="4460.35" y="524.22" class="st1" width="24.83" height="34.933"/>
		<rect x="4460.35" y="461.786" class="st1" width="24.83" height="34.924"/>
	</g>
	<g>
		<g>
			<rect x="4460.35" y="649.951" class="st0" width="24.83" height="34.924"/>
			<rect x="4460.35" y="712.384" class="st0" width="24.83" height="34.924"/>
			<rect x="4460.35" y="775.03" class="st0" width="24.83" height="34.924"/>
		</g>
		<rect x="4460.35" y="775.03" class="st1" width="24.83" height="34.924"/>
		<rect x="4460.35" y="712.384" class="st1" width="24.83" height="34.924"/>
		<rect x="4460.35" y="649.951" class="st1" width="24.83" height="34.924"/>
	</g>
	<g>
		<g>
			<rect x="4460.35" y="838.115" class="st0" width="24.83" height="34.924"/>
			<rect x="4460.35" y="900.549" class="st0" width="24.83" height="34.924"/>
			<rect x="4460.35" y="963.194" class="st0" width="24.83" height="34.924"/>
		</g>
		<rect x="4460.35" y="963.194" class="st1" width="24.83" height="34.924"/>
		<rect x="4460.35" y="900.549" class="st1" width="24.83" height="34.924"/>
		<rect x="4460.35" y="838.115" class="st1" width="24.83" height="34.924"/>
	</g>
	<g>
		<g>
			<path class="st0" d="M4449.62,1139.872l21.5,13.543c0,0-0.41,0.457-1.14,1.27c-0.77,0.779-1.86,1.896-3.22,3.199
				c-2.74,2.59-6.7,5.824-10.979,8.719c-4.271,2.92-8.84,5.502-12.38,7.263c-0.89,0.448-1.69,0.863-2.42,1.21
				c-0.73,0.339-1.37,0.635-1.9,0.88c-1.05,0.483-1.65,0.762-1.65,0.762l-15.57-17.936c0,0,0.5-0.229,1.37-0.618
				c0.87-0.381,2.11-0.939,3.55-1.676c2.92-1.413,6.689-3.504,10.21-5.865c3.53-2.353,6.79-4.977,9.05-7.094
				c1.12-1.066,2.02-1.98,2.65-2.615C4449.28,1140.253,4449.62,1139.872,4449.62,1139.872z"/>
			<rect x="4460.35" y="1026.279" class="st0" width="24.83" height="34.924"/>
			<path class="st0" d="M4460.35,1087.401l24.83,2.031c0,0,0,2.336,0,5.84s0,8.185-0.06,12.84c-0.07,4.656-0.2,9.294-0.32,12.748
				c-0.03,1.727-0.18,3.165-0.26,4.173c-0.04,0.499-0.06,0.897-0.1,1.168c-0.04,0.262-0.07,0.406-0.07,0.406l-24.2-8.803
				c0,0,0.07-0.474,0.09-1.304c0.03-0.829,0.11-2.014,0.09-3.445v-10.453C4460.35,1095.002,4460.35,1087.401,4460.35,1087.401z"/>
		</g>
		<path class="st1" d="M4471.12,1153.415c0,0-0.41,0.457-1.14,1.27c-0.77,0.779-1.86,1.896-3.22,3.199
			c-2.74,2.59-6.7,5.824-10.979,8.719c-4.271,2.92-8.84,5.502-12.38,7.263c-0.89,0.448-1.69,0.863-2.42,1.21
			c-0.73,0.339-1.37,0.635-1.9,0.88c-1.05,0.483-1.65,0.762-1.65,0.762l-15.57-17.936c0,0,0.5-0.229,1.37-0.618
			c0.87-0.381,2.11-0.939,3.55-1.676c2.92-1.413,6.689-3.504,10.21-5.865c3.53-2.353,6.79-4.977,9.05-7.094
			c1.12-1.066,2.02-1.98,2.65-2.615c0.59-0.66,0.93-1.041,0.93-1.041L4471.12,1153.415z"/>
		<path class="st1" d="M4485.18,1089.433c0,0,0,2.336,0,5.84s0,8.185-0.06,12.84c-0.07,4.656-0.2,9.294-0.32,12.748
			c-0.03,1.727-0.18,3.165-0.26,4.173c-0.04,0.499-0.06,0.897-0.1,1.168c-0.04,0.262-0.07,0.406-0.07,0.406l-24.2-8.803
			c0,0,0.07-0.474,0.09-1.304c0.03-0.829,0.11-2.014,0.09-3.445v-10.453c0-7.601,0-15.202,0-15.202L4485.18,1089.433z"/>
		<rect x="4460.35" y="1026.279" class="st1" width="24.83" height="34.924"/>
	</g>
	<g>
		<g>
			<rect x="4212.25" y="1170.048" class="st0" width="41.26" height="21.017"/>
			<rect x="4286.25" y="1170.048" class="st0" width="41.27" height="21.017"/>
			<path class="st0" d="M4404.3,1187.129c0,0-0.67,0.135-1.84,0.372c-1.17,0.254-2.86,0.525-4.88,0.872
				c-4.05,0.694-9.5,1.405-14.98,1.888c-1.37,0.11-2.74,0.22-4.09,0.322c-1.36,0.101-2.689,0.144-3.979,0.22
				c-2.58,0.152-5,0.169-7.061,0.212c-2.07,0.051-3.8,0.034-5.01,0.043c-1.2,0.008-1.89,0.008-1.89,0.008l-1.55-21.017
				c0,0,0.56,0,1.54,0s2.39,0.017,4.07-0.017c1.68-0.034,3.65-0.034,5.75-0.144c1.05-0.059,2.14-0.085,3.24-0.161
				c1.1-0.076,2.22-0.161,3.34-0.237c4.47-0.372,8.92-0.914,12.22-1.464c1.66-0.271,3.04-0.474,3.99-0.677
				c0.96-0.186,1.51-0.296,1.51-0.296L4404.3,1187.129z"/>
		</g>
		<rect x="4212.25" y="1170.048" class="st1" width="41.26" height="21.017"/>
		<rect x="4286.25" y="1170.048" class="st1" width="41.27" height="21.017"/>
		<path class="st1" d="M4404.3,1187.129c0,0-0.67,0.135-1.84,0.372c-1.17,0.254-2.86,0.525-4.88,0.872
			c-4.05,0.694-9.5,1.405-14.98,1.888c-1.37,0.11-2.74,0.22-4.09,0.322c-1.36,0.101-2.689,0.144-3.979,0.22
			c-2.58,0.152-5,0.169-7.061,0.212c-2.07,0.051-3.8,0.034-5.01,0.043c-1.2,0.008-1.89,0.008-1.89,0.008l-1.55-21.017
			c0,0,0.56,0,1.54,0s2.39,0.017,4.07-0.017c1.68-0.034,3.65-0.034,5.75-0.144c1.05-0.059,2.14-0.085,3.24-0.161
			c1.1-0.076,2.22-0.161,3.34-0.237c4.47-0.372,8.92-0.914,12.22-1.464c1.66-0.271,3.04-0.474,3.99-0.677
			c0.96-0.186,1.51-0.296,1.51-0.296L4404.3,1187.129z"/>
	</g>
	<g>
		<g>
			<rect x="3989.95" y="1170.048" class="st0" width="41.26" height="21.017"/>
			<rect x="4063.96" y="1170.048" class="st0" width="41.26" height="21.017"/>
			<rect x="4137.72" y="1170.048" class="st0" width="41.26" height="21.017"/>
		</g>
		<rect x="3989.95" y="1170.048" class="st1" width="41.26" height="21.017"/>
		<rect x="4063.96" y="1170.048" class="st1" width="41.26" height="21.017"/>
		<rect x="4137.72" y="1170.048" class="st1" width="41.26" height="21.017"/>
	</g>
	<g>
		<g>
			<rect x="3767.65" y="1170.048" class="st0" width="41.26" height="21.017"/>
			<rect x="3841.66" y="1170.048" class="st0" width="41.26" height="21.017"/>
			<rect x="3915.42" y="1170.048" class="st0" width="41.26" height="21.017"/>
		</g>
		<rect x="3767.65" y="1170.048" class="st1" width="41.26" height="21.017"/>
		<rect x="3841.66" y="1170.048" class="st1" width="41.26" height="21.017"/>
		<rect x="3915.42" y="1170.048" class="st1" width="41.26" height="21.017"/>
	</g>
	<g>
		<g>
			<rect x="3545.35" y="1170.048" class="st0" width="41.27" height="21.017"/>
			<rect x="3619.36" y="1170.048" class="st0" width="41.26" height="21.017"/>
			<rect x="3693.12" y="1170.048" class="st0" width="41.27" height="21.017"/>
		</g>
		<rect x="3545.35" y="1170.048" class="st1" width="41.27" height="21.017"/>
		<rect x="3619.36" y="1170.048" class="st1" width="41.26" height="21.017"/>
		<rect x="3693.12" y="1170.048" class="st1" width="41.27" height="21.017"/>
	</g>
	<g>
		<g>
			<rect x="3323.06" y="1170.048" class="st0" width="41.26" height="21.017"/>
			<rect x="3397.06" y="1170.048" class="st0" width="41.26" height="21.017"/>
			<rect x="3470.83" y="1170.048" class="st0" width="41.26" height="21.017"/>
		</g>
		<rect x="3323.06" y="1170.048" class="st1" width="41.26" height="21.017"/>
		<rect x="3397.06" y="1170.048" class="st1" width="41.26" height="21.017"/>
		<rect x="3470.83" y="1170.048" class="st1" width="41.26" height="21.017"/>
	</g>
	<g>
		<g>
			<rect x="3100.76" y="1170.048" class="st0" width="41.26" height="21.017"/>
			<rect x="3174.76" y="1170.048" class="st0" width="41.27" height="21.017"/>
			<rect x="3248.53" y="1170.048" class="st0" width="41.26" height="21.017"/>
		</g>
		<rect x="3100.76" y="1170.048" class="st1" width="41.26" height="21.017"/>
		<rect x="3174.76" y="1170.048" class="st1" width="41.27" height="21.017"/>
		<rect x="3248.53" y="1170.048" class="st1" width="41.26" height="21.017"/>
	</g>
	<g>
		<g>
			<rect x="2878.46" y="1170.048" class="st0" width="41.26" height="21.017"/>
			<rect x="2952.47" y="1170.048" class="st0" width="41.26" height="21.017"/>
			<rect x="3026.23" y="1170.048" class="st0" width="41.26" height="21.017"/>
		</g>
		<rect x="2878.46" y="1170.048" class="st1" width="41.26" height="21.017"/>
		<rect x="2952.47" y="1170.048" class="st1" width="41.26" height="21.017"/>
		<rect x="3026.23" y="1170.048" class="st1" width="41.26" height="21.017"/>
	</g>
	<g>
		<g>
			<rect x="2656.16" y="1170.048" class="st0" width="41.26" height="21.017"/>
			<rect x="2730.17" y="1170.048" class="st0" width="41.26" height="21.017"/>
			<rect x="2803.93" y="1170.048" class="st0" width="41.26" height="21.017"/>
		</g>
		<rect x="2656.16" y="1170.048" class="st1" width="41.26" height="21.017"/>
		<rect x="2730.17" y="1170.048" class="st1" width="41.26" height="21.017"/>
		<rect x="2803.93" y="1170.048" class="st1" width="41.26" height="21.017"/>
	</g>
	<g>
		<g>
			<rect x="2433.86" y="1170.048" class="st0" width="41.27" height="21.017"/>
			<rect x="2507.87" y="1170.048" class="st0" width="41.26" height="21.017"/>
			<rect x="2581.63" y="1170.048" class="st0" width="41.27" height="21.017"/>
		</g>
		<rect x="2433.86" y="1170.048" class="st1" width="41.27" height="21.017"/>
		<rect x="2507.87" y="1170.048" class="st1" width="41.26" height="21.017"/>
		<rect x="2581.63" y="1170.048" class="st1" width="41.27" height="21.017"/>
	</g>
	<g>
		<g>
			<rect x="2211.57" y="1170.048" class="st0" width="41.26" height="21.017"/>
			<rect x="2285.57" y="1170.048" class="st0" width="41.26" height="21.017"/>
			<rect x="2359.34" y="1170.048" class="st0" width="41.26" height="21.017"/>
		</g>
		<rect x="2211.57" y="1170.048" class="st1" width="41.26" height="21.017"/>
		<rect x="2285.57" y="1170.048" class="st1" width="41.26" height="21.017"/>
		<rect x="2359.34" y="1170.048" class="st1" width="41.26" height="21.017"/>
	</g>
	<g>
		<g>
			<rect x="1989.27" y="1170.048" class="st0" width="41.26" height="21.017"/>
			<rect x="2063.27" y="1170.048" class="st0" width="41.27" height="21.017"/>
			<rect x="2137.04" y="1170.048" class="st0" width="41.26" height="21.017"/>
		</g>
		<rect x="1989.27" y="1170.048" class="st1" width="41.26" height="21.017"/>
		<rect x="2063.27" y="1170.048" class="st1" width="41.27" height="21.017"/>
		<rect x="2137.04" y="1170.048" class="st1" width="41.26" height="21.017"/>
	</g>
	<g>
		<g>
			<rect x="1766.97" y="1170.048" class="st0" width="41.26" height="21.017"/>
			<rect x="1840.98" y="1170.048" class="st0" width="41.26" height="21.017"/>
			<rect x="1914.74" y="1170.048" class="st0" width="41.26" height="21.017"/>
		</g>
		<rect x="1766.97" y="1170.048" class="st1" width="41.26" height="21.017"/>
		<rect x="1840.98" y="1170.048" class="st1" width="41.26" height="21.017"/>
		<rect x="1914.74" y="1170.048" class="st1" width="41.26" height="21.017"/>
	</g>
	<g>
		<g>
			<rect x="1544.67" y="1170.048" class="st0" width="41.26" height="21.017"/>
			<rect x="1618.68" y="1170.048" class="st0" width="41.26" height="21.017"/>
			<rect x="1692.44" y="1170.048" class="st0" width="41.26" height="21.017"/>
		</g>
		<rect x="1544.67" y="1170.048" class="st1" width="41.26" height="21.017"/>
		<rect x="1618.68" y="1170.048" class="st1" width="41.26" height="21.017"/>
		<rect x="1692.44" y="1170.048" class="st1" width="41.26" height="21.017"/>
	</g>
	<g>
		<g>
			<rect x="1322.37" y="1170.048" class="st0" width="41.27" height="21.017"/>
			<rect x="1396.38" y="1170.048" class="st0" width="41.26" height="21.017"/>
			<rect x="1470.14" y="1170.048" class="st0" width="41.27" height="21.017"/>
		</g>
		<rect x="1322.37" y="1170.048" class="st1" width="41.27" height="21.017"/>
		<rect x="1396.38" y="1170.048" class="st1" width="41.26" height="21.017"/>
		<rect x="1470.14" y="1170.048" class="st1" width="41.27" height="21.017"/>
	</g>
	<g>
		<g>
			<rect x="1100.08" y="1170.048" class="st0" width="41.26" height="21.017"/>
			<rect x="1174.08" y="1170.048" class="st0" width="41.26" height="21.017"/>
			<rect x="1247.85" y="1170.048" class="st0" width="41.26" height="21.017"/>
		</g>
		<rect x="1100.08" y="1170.048" class="st1" width="41.26" height="21.017"/>
		<rect x="1174.08" y="1170.048" class="st1" width="41.26" height="21.017"/>
		<rect x="1247.85" y="1170.048" class="st1" width="41.26" height="21.017"/>
	</g>
	<g>
		<g>
			<rect x="877.78" y="1170.048" class="st0" width="41.26" height="21.017"/>
			<rect x="951.78" y="1170.048" class="st0" width="41.271" height="21.017"/>
			<rect x="1025.55" y="1170.048" class="st0" width="41.26" height="21.017"/>
		</g>
		<rect x="877.78" y="1170.048" class="st1" width="41.26" height="21.017"/>
		<rect x="951.78" y="1170.048" class="st1" width="41.271" height="21.017"/>
		<rect x="1025.55" y="1170.048" class="st1" width="41.26" height="21.017"/>
	</g>
	<g>
		<g>
			<rect x="655.48" y="1170.048" class="st0" width="41.26" height="21.017"/>
			<rect x="729.49" y="1170.048" class="st0" width="41.26" height="21.017"/>
			<rect x="803.25" y="1170.048" class="st0" width="41.26" height="21.017"/>
		</g>
		<rect x="655.48" y="1170.048" class="st1" width="41.26" height="21.017"/>
		<rect x="729.49" y="1170.048" class="st1" width="41.26" height="21.017"/>
		<rect x="803.25" y="1170.048" class="st1" width="41.26" height="21.017"/>
	</g>
	<g>
		<g>
			<rect x="433.18" y="1170.048" class="st0" width="41.26" height="21.017"/>
			<rect x="507.19" y="1170.048" class="st0" width="41.26" height="21.017"/>
			<rect x="580.95" y="1170.048" class="st0" width="41.26" height="21.017"/>
		</g>
		<rect x="433.18" y="1170.048" class="st1" width="41.26" height="21.017"/>
		<rect x="507.19" y="1170.048" class="st1" width="41.26" height="21.017"/>
		<rect x="580.95" y="1170.048" class="st1" width="41.26" height="21.017"/>
	</g>
	<g>
		<g>
			<rect x="210.88" y="1170.048" class="st0" width="41.27" height="21.017"/>
			<rect x="284.89" y="1170.048" class="st0" width="41.26" height="21.017"/>
			<rect x="358.65" y="1170.048" class="st0" width="41.27" height="21.017"/>
		</g>
		<rect x="210.88" y="1170.048" class="st1" width="41.27" height="21.017"/>
		<rect x="284.89" y="1170.048" class="st1" width="41.26" height="21.017"/>
		<rect x="358.65" y="1170.048" class="st1" width="41.27" height="21.017"/>
	</g>
	<g>
		<g>
			<path class="st0" d="M46.87,1149.742c0.78,0.516,1.22,0.812,1.22,0.812l-18.82,15.964c0,0-0.53-0.364-1.46-0.999
				c-0.9-0.677-2.22-1.608-3.73-2.784c-3.02-2.353-6.82-5.731-10.12-9.429c-3.33-3.69-6.08-7.737-7.82-10.885
				c-0.8-1.6-1.55-2.903-1.91-3.877c-0.4-0.957-0.63-1.498-0.63-1.498l23.49-10.623c0,0,0.18,0.449,0.5,1.236
				c0.28,0.796,0.88,1.871,1.52,3.191c1.4,2.599,3.64,5.917,6.37,8.93c2.71,3.039,5.83,5.79,8.32,7.702
				C45.05,1148.438,46.14,1149.192,46.87,1149.742z"/>
			<path class="st0" d="M106.1,1169.303c0.98,0.102,1.53,0.144,1.53,0.144l-5.77,20.755c0,0-0.69-0.042-1.88-0.186
				c-1.2-0.135-2.91-0.305-4.95-0.55c-4.08-0.55-9.52-1.32-14.85-2.48c-5.34-1.109-10.61-2.463-14.48-3.665
				c-1.94-0.576-3.55-1.075-4.66-1.473c-1.11-0.381-1.75-0.592-1.75-0.592l13.51-18.85c0,0,0.53,0.178,1.44,0.474
				c0.91,0.313,2.23,0.711,3.83,1.176c3.17,0.948,7.49,2.015,11.86,2.886c4.36,0.914,8.8,1.507,12.13,1.938
				C103.73,1169.049,105.13,1169.201,106.1,1169.303z"/>
			<rect x="136.36" y="1170.048" class="st0" width="41.26" height="21.017"/>
		</g>
		<path class="st1" d="M48.09,1150.554l-18.82,15.964c0,0-0.53-0.364-1.46-0.999c-0.9-0.677-2.22-1.608-3.73-2.784
			c-3.02-2.353-6.82-5.731-10.12-9.429c-3.33-3.69-6.08-7.737-7.82-10.885c-0.8-1.6-1.55-2.903-1.91-3.877
			c-0.4-0.957-0.63-1.498-0.63-1.498l23.49-10.623c0,0,0.18,0.449,0.5,1.236c0.28,0.796,0.88,1.871,1.52,3.191
			c1.4,2.599,3.64,5.917,6.37,8.93c2.71,3.039,5.83,5.79,8.32,7.702c1.25,0.957,2.34,1.71,3.07,2.26
			C47.65,1150.258,48.09,1150.554,48.09,1150.554z"/>
		<path class="st1" d="M107.63,1169.447l-5.77,20.755c0,0-0.69-0.042-1.88-0.186c-1.2-0.135-2.91-0.305-4.95-0.55
			c-4.08-0.55-9.52-1.32-14.85-2.48c-5.34-1.109-10.61-2.463-14.48-3.665c-1.94-0.576-3.55-1.075-4.66-1.473
			c-1.11-0.381-1.75-0.592-1.75-0.592l13.51-18.85c0,0,0.53,0.178,1.44,0.474c0.91,0.313,2.23,0.711,3.83,1.176
			c3.17,0.948,7.49,2.015,11.86,2.886c4.36,0.914,8.8,1.507,12.13,1.938c1.67,0.169,3.07,0.322,4.04,0.423
			C107.08,1169.405,107.63,1169.447,107.63,1169.447z"/>
		<rect x="136.36" y="1170.048" class="st1" width="41.26" height="21.017"/>
	</g>
	<g>
		<g>
			<rect y="945.596" class="st0" width="24.83" height="34.924"/>
			<rect y="1008.242" class="st0" width="24.83" height="34.924"/>
			<path class="st0" d="M0,1070.675h24.83v31.428l-24.78,5.401c0,0-0.01-2.336-0.04-5.832c0-3.513,0-8.185-0.01-12.857
				C0,1079.741,0,1070.675,0,1070.675z"/>
		</g>
		<rect y="945.596" class="st1" width="24.83" height="34.924"/>
		<rect y="1008.242" class="st1" width="24.83" height="34.924"/>
		<path class="st1" d="M24.83,1070.675v31.428l-24.78,5.401c0,0-0.01-2.336-0.04-5.832c0-3.513,0-8.185-0.01-12.857
			c0-9.074,0-18.14,0-18.14H24.83z"/>
	</g>
	<g>
		<g>
			<rect y="757.432" class="st0" width="24.83" height="34.924"/>
			<rect y="820.077" class="st0" width="24.83" height="34.924"/>
			<rect y="882.511" class="st0" width="24.83" height="34.924"/>
		</g>
		<rect y="757.432" class="st1" width="24.83" height="34.924"/>
		<rect y="820.077" class="st1" width="24.83" height="34.924"/>
		<rect y="882.511" class="st1" width="24.83" height="34.924"/>
	</g>
	<g>
		<g>
			<rect y="569.267" class="st0" width="24.83" height="34.933"/>
			<rect y="631.913" class="st0" width="24.83" height="34.924"/>
			<rect y="694.346" class="st0" width="24.83" height="34.933"/>
		</g>
		<rect y="569.267" class="st1" width="24.83" height="34.933"/>
		<rect y="631.913" class="st1" width="24.83" height="34.924"/>
		<rect y="694.346" class="st1" width="24.83" height="34.933"/>
	</g>
	<g>
		<g>
			<rect y="381.111" class="st0" width="24.83" height="34.924"/>
			<rect y="443.748" class="st0" width="24.83" height="34.924"/>
			<rect y="506.182" class="st0" width="24.83" height="34.933"/>
		</g>
		<rect y="381.111" class="st1" width="24.83" height="34.924"/>
		<rect y="443.748" class="st1" width="24.83" height="34.924"/>
		<rect y="506.182" class="st1" width="24.83" height="34.933"/>
	</g>
	<g>
		<g>
			<rect y="192.947" class="st0" width="24.83" height="34.924"/>
			<rect y="255.584" class="st0" width="24.83" height="34.933"/>
			<rect y="318.026" class="st0" width="24.83" height="34.924"/>
		</g>
		<rect y="192.947" class="st1" width="24.83" height="34.924"/>
		<rect y="255.584" class="st1" width="24.83" height="34.933"/>
		<rect y="318.026" class="st1" width="24.83" height="34.924"/>
	</g>
	<g>
		<g>
			<rect y="129.862" class="st0" width="24.83" height="34.924"/>
			<path class="st0" d="M0.81,64.448l24.21,8.812c0,0-0.08,0.465-0.1,1.304c-0.03,0.829-0.11,2.014-0.09,3.436v10.454
				c0,7.61,0,15.211,0,15.211L0,101.633c0,0,0-2.336,0-5.84c0-3.513,0-8.185,0.06-12.841c0.07-4.664,0.2-9.294,0.32-12.747
				c0.04-1.735,0.18-3.165,0.26-4.173c0.04-0.508,0.06-0.897,0.1-1.168C0.78,64.592,0.81,64.448,0.81,64.448z"/>
			<path class="st0" d="M63.32,32.283c0,0-0.5,0.22-1.37,0.61c-0.87,0.389-2.11,0.939-3.55,1.684
				c-2.92,1.413-6.69,3.496-10.21,5.866c-3.53,2.345-6.79,4.968-9.05,7.084c-1.12,1.067-2.01,1.981-2.65,2.616
				c-0.59,0.669-0.93,1.041-0.93,1.041L14.06,37.65c0,0,0.41-0.465,1.14-1.27c0.77-0.779,1.86-1.904,3.22-3.208
				c2.74-2.59,6.7-5.815,10.98-8.71c4.27-2.92,8.84-5.502,12.38-7.271c0.89-0.44,1.69-0.863,2.42-1.21
				c0.73-0.339,1.37-0.627,1.9-0.872c1.05-0.491,1.66-0.762,1.66-0.762L63.32,32.283z"/>
		</g>
		<path class="st1" d="M63.32,32.283c0,0-0.5,0.22-1.37,0.61c-0.87,0.389-2.11,0.939-3.55,1.684c-2.92,1.413-6.69,3.496-10.21,5.866
			c-3.53,2.345-6.79,4.968-9.05,7.084c-1.12,1.067-2.01,1.981-2.65,2.616c-0.59,0.669-0.93,1.041-0.93,1.041L14.06,37.65
			c0,0,0.41-0.465,1.14-1.27c0.77-0.779,1.86-1.904,3.22-3.208c2.74-2.59,6.7-5.815,10.98-8.71c4.27-2.92,8.84-5.502,12.38-7.271
			c0.89-0.44,1.69-0.863,2.42-1.21c0.73-0.339,1.37-0.627,1.9-0.872c1.05-0.491,1.66-0.762,1.66-0.762L63.32,32.283z"/>
		<path class="st1" d="M25.02,73.26c0,0-0.08,0.465-0.1,1.304c-0.03,0.829-0.11,2.014-0.09,3.436v10.454c0,7.61,0,15.211,0,15.211
			L0,101.633c0,0,0-2.336,0-5.84c0-3.513,0-8.185,0.06-12.841c0.07-4.664,0.2-9.294,0.32-12.747c0.04-1.735,0.18-3.165,0.26-4.173
			c0.04-0.508,0.06-0.897,0.1-1.168c0.04-0.271,0.07-0.415,0.07-0.415L25.02,73.26z"/>
		<rect y="129.862" class="st1" width="24.83" height="34.924"/>
	</g>
	<g>
		<g>
			<path class="st0" d="M124.62,0l1.55,21.017c0,0-0.57,0-1.55,0s-2.38-0.017-4.07,0.017c-1.68,0.026-3.65,0.026-5.75,0.144
				c-1.05,0.051-2.14,0.085-3.24,0.153c-1.1,0.085-2.22,0.161-3.34,0.246c-4.47,0.372-8.91,0.914-12.22,1.456
				c-1.65,0.271-3.04,0.483-3.99,0.686c-0.96,0.186-1.5,0.288-1.5,0.288l-9.62-20.07c0,0,0.66-0.135,1.84-0.372
				c1.16-0.254,2.85-0.524,4.87-0.872c4.05-0.703,9.5-1.405,14.98-1.896c1.37-0.101,2.75-0.212,4.1-0.322
				c1.35-0.093,2.68-0.144,3.97-0.212c2.58-0.152,5-0.169,7.07-0.22c2.06-0.051,3.79-0.034,5-0.043C123.93,0,124.62,0,124.62,0z"/>
			<rect x="157.67" class="st0" width="41.26" height="21.017"/>
			<rect x="231.67" class="st0" width="41.26" height="21.017"/>
		</g>
		<rect x="231.67" class="st1" width="41.26" height="21.017"/>
		<rect x="157.67" class="st1" width="41.26" height="21.017"/>
		<path class="st1" d="M126.17,21.017c0,0-0.57,0-1.55,0s-2.38-0.017-4.07,0.017c-1.68,0.026-3.65,0.026-5.75,0.144
			c-1.05,0.051-2.14,0.085-3.24,0.153c-1.1,0.085-2.22,0.161-3.34,0.246c-4.47,0.372-8.91,0.914-12.22,1.456
			c-1.65,0.271-3.04,0.483-3.99,0.686c-0.96,0.186-1.5,0.288-1.5,0.288l-9.62-20.07c0,0,0.66-0.135,1.84-0.372
			c1.16-0.254,2.85-0.524,4.87-0.872c4.05-0.703,9.5-1.405,14.98-1.896c1.37-0.101,2.75-0.212,4.1-0.322
			c1.35-0.093,2.68-0.144,3.97-0.212c2.58-0.152,5-0.169,7.07-0.22c2.06-0.051,3.79-0.034,5-0.043c1.21,0,1.9,0,1.9,0L126.17,21.017
			z"/>
	</g>
	<g>
		<g>
			<rect x="306.2" class="st0" width="41.26" height="21.017"/>
			<rect x="379.96" class="st0" width="41.27" height="21.017"/>
			<rect x="453.97" class="st0" width="41.26" height="21.017"/>
		</g>
		<rect x="453.97" class="st1" width="41.26" height="21.017"/>
		<rect x="379.96" class="st1" width="41.27" height="21.017"/>
		<rect x="306.2" class="st1" width="41.26" height="21.017"/>
	</g>
	<g>
		<g>
			<rect x="528.5" class="st0" width="41.26" height="21.017"/>
			<rect x="602.26" class="st0" width="41.26" height="21.017"/>
			<rect x="676.27" class="st0" width="41.26" height="21.017"/>
		</g>
		<rect x="676.27" class="st1" width="41.26" height="21.017"/>
		<rect x="602.26" class="st1" width="41.26" height="21.017"/>
		<rect x="528.5" class="st1" width="41.26" height="21.017"/>
	</g>
	<g>
		<g>
			<rect x="750.8" class="st0" width="41.26" height="21.017"/>
			<rect x="824.56" class="st0" width="41.26" height="21.017"/>
			<rect x="898.56" class="st0" width="41.27" height="21.017"/>
		</g>
		<rect x="898.56" class="st1" width="41.27" height="21.017"/>
		<rect x="824.56" class="st1" width="41.26" height="21.017"/>
		<rect x="750.8" class="st1" width="41.26" height="21.017"/>
	</g>
	<g>
		<g>
			<rect x="973.09" class="st0" width="41.27" height="21.017"/>
			<rect x="1046.86" class="st0" width="41.26" height="21.017"/>
			<rect x="1120.86" class="st0" width="41.26" height="21.017"/>
		</g>
		<rect x="1120.86" class="st1" width="41.26" height="21.017"/>
		<rect x="1046.86" class="st1" width="41.26" height="21.017"/>
		<rect x="973.09" class="st1" width="41.27" height="21.017"/>
	</g>
	<g>
		<g>
			<rect x="1195.39" class="st0" width="41.26" height="21.017"/>
			<rect x="1269.16" class="st0" width="41.26" height="21.017"/>
			<rect x="1343.16" class="st0" width="41.26" height="21.017"/>
		</g>
		<rect x="1343.16" class="st1" width="41.26" height="21.017"/>
		<rect x="1269.16" class="st1" width="41.26" height="21.017"/>
		<rect x="1195.39" class="st1" width="41.26" height="21.017"/>
	</g>
	<g>
		<g>
			<rect x="1417.69" class="st0" width="41.26" height="21.017"/>
			<rect x="1491.45" class="st0" width="41.27" height="21.017"/>
			<rect x="1565.46" class="st0" width="41.26" height="21.017"/>
		</g>
		<rect x="1565.46" class="st1" width="41.26" height="21.017"/>
		<rect x="1491.45" class="st1" width="41.27" height="21.017"/>
		<rect x="1417.69" class="st1" width="41.26" height="21.017"/>
	</g>
	<g>
		<g>
			<rect x="1639.99" class="st0" width="41.26" height="21.017"/>
			<rect x="1713.75" class="st0" width="41.26" height="21.017"/>
			<rect x="1787.76" class="st0" width="41.26" height="21.017"/>
		</g>
		<rect x="1787.76" class="st1" width="41.26" height="21.017"/>
		<rect x="1713.75" class="st1" width="41.26" height="21.017"/>
		<rect x="1639.99" class="st1" width="41.26" height="21.017"/>
	</g>
	<g>
		<g>
			<rect x="1862.29" class="st0" width="41.26" height="21.017"/>
			<rect x="1936.05" class="st0" width="41.26" height="21.017"/>
			<rect x="2010.06" class="st0" width="41.26" height="21.017"/>
		</g>
		<rect x="2010.06" class="st1" width="41.26" height="21.017"/>
		<rect x="1936.05" class="st1" width="41.26" height="21.017"/>
		<rect x="1862.29" class="st1" width="41.26" height="21.017"/>
	</g>
	<g>
		<g>
			<rect x="2084.58" class="st0" width="41.27" height="21.017"/>
			<rect x="2158.35" class="st0" width="41.26" height="21.017"/>
			<rect x="2232.35" class="st0" width="41.27" height="21.017"/>
		</g>
		<rect x="2232.35" class="st1" width="41.27" height="21.017"/>
		<rect x="2158.35" class="st1" width="41.26" height="21.017"/>
		<rect x="2084.58" class="st1" width="41.27" height="21.017"/>
	</g>
	<g>
		<g>
			<rect x="2306.88" class="st0" width="41.26" height="21.017"/>
			<rect x="2380.65" class="st0" width="41.26" height="21.017"/>
			<rect x="2454.65" class="st0" width="41.26" height="21.017"/>
		</g>
		<rect x="2454.65" class="st1" width="41.26" height="21.017"/>
		<rect x="2380.65" class="st1" width="41.26" height="21.017"/>
		<rect x="2306.88" class="st1" width="41.26" height="21.017"/>
	</g>
	<g>
		<g>
			<rect x="2529.18" class="st0" width="41.26" height="21.017"/>
			<rect x="2602.94" class="st0" width="41.27" height="21.017"/>
			<rect x="2676.95" class="st0" width="41.26" height="21.017"/>
		</g>
		<rect x="2676.95" class="st1" width="41.26" height="21.017"/>
		<rect x="2602.94" class="st1" width="41.27" height="21.017"/>
		<rect x="2529.18" class="st1" width="41.26" height="21.017"/>
	</g>
	<g>
		<g>
			<rect x="2751.48" class="st0" width="41.26" height="21.017"/>
			<rect x="2825.24" class="st0" width="41.26" height="21.017"/>
			<rect x="2899.25" class="st0" width="41.26" height="21.017"/>
		</g>
		<rect x="2899.25" class="st1" width="41.26" height="21.017"/>
		<rect x="2825.24" class="st1" width="41.26" height="21.017"/>
		<rect x="2751.48" class="st1" width="41.26" height="21.017"/>
	</g>
	<g>
		<g>
			<rect x="2973.78" class="st0" width="41.26" height="21.017"/>
			<rect x="3047.54" class="st0" width="41.26" height="21.017"/>
			<rect x="3121.54" class="st0" width="41.27" height="21.017"/>
		</g>
		<rect x="3121.54" class="st1" width="41.27" height="21.017"/>
		<rect x="3047.54" class="st1" width="41.26" height="21.017"/>
		<rect x="2973.78" class="st1" width="41.26" height="21.017"/>
	</g>
	<g>
		<g>
			<rect x="3196.07" class="st0" width="41.27" height="21.017"/>
			<rect x="3269.84" class="st0" width="41.26" height="21.017"/>
			<rect x="3343.84" class="st0" width="41.26" height="21.017"/>
		</g>
		<rect x="3343.84" class="st1" width="41.26" height="21.017"/>
		<rect x="3269.84" class="st1" width="41.26" height="21.017"/>
		<rect x="3196.07" class="st1" width="41.27" height="21.017"/>
	</g>
	<g>
		<g>
			<rect x="3418.37" class="st0" width="41.26" height="21.017"/>
			<rect x="3492.14" class="st0" width="41.26" height="21.017"/>
			<rect x="3566.14" class="st0" width="41.26" height="21.017"/>
		</g>
		<rect x="3566.14" class="st1" width="41.26" height="21.017"/>
		<rect x="3492.14" class="st1" width="41.26" height="21.017"/>
		<rect x="3418.37" class="st1" width="41.26" height="21.017"/>
	</g>
	<g>
		<g>
			<rect x="3640.67" class="st0" width="41.26" height="21.017"/>
			<rect x="3714.43" class="st0" width="41.27" height="21.017"/>
			<rect x="3788.44" class="st0" width="41.26" height="21.017"/>
		</g>
		<rect x="3788.44" class="st1" width="41.26" height="21.017"/>
		<rect x="3714.43" class="st1" width="41.27" height="21.017"/>
		<rect x="3640.67" class="st1" width="41.26" height="21.017"/>
	</g>
	<g>
		<g>
			<rect x="3862.97" class="st0" width="41.26" height="21.017"/>
			<rect x="3936.73" class="st0" width="41.26" height="21.017"/>
			<rect x="4010.74" class="st0" width="41.26" height="21.017"/>
		</g>
		<rect x="4010.74" class="st1" width="41.26" height="21.017"/>
		<rect x="3936.73" class="st1" width="41.26" height="21.017"/>
		<rect x="3862.97" class="st1" width="41.26" height="21.017"/>
	</g>
	<g>
		<g>
			<rect x="4085.27" class="st0" width="41.26" height="21.017"/>
			<rect x="4159.03" class="st0" width="41.26" height="21.017"/>
			<rect x="4233.04" class="st0" width="41.26" height="21.017"/>
		</g>
		<rect x="4233.04" class="st1" width="41.26" height="21.017"/>
		<rect x="4159.03" class="st1" width="41.26" height="21.017"/>
		<rect x="4085.27" class="st1" width="41.26" height="21.017"/>
	</g>
	<g>
		<g>
			<rect x="4307.56" class="st0" width="41.27" height="21.017"/>
			<path class="st0" d="M4424.14,9.218c1.12,0.372,1.75,0.593,1.75,0.593l-13.51,18.842c0,0-0.52-0.169-1.44-0.465
				c-0.91-0.322-2.23-0.72-3.83-1.177c-3.17-0.948-7.49-2.014-11.86-2.895c-4.36-0.914-8.8-1.498-12.13-1.93
				c-1.67-0.178-3.06-0.322-4.04-0.423c-0.97-0.11-1.53-0.144-1.53-0.144l5.771-20.763c0,0,0.689,0.051,1.88,0.186
				c1.2,0.136,2.91,0.305,4.95,0.551c4.08,0.558,9.52,1.329,14.85,2.488c5.34,1.109,10.61,2.463,14.48,3.656
				C4421.42,8.321,4423.03,8.82,4424.14,9.218z"/>
			<path class="st0" d="M4481.58,54.02l-23.49,10.623c0,0-0.18-0.448-0.5-1.236c-0.28-0.804-0.88-1.879-1.52-3.199
				c-1.4-2.59-3.64-5.909-6.37-8.93c-2.71-3.03-5.83-5.781-8.32-7.694c-1.25-0.965-2.33-1.719-3.07-2.26
				c-0.77-0.517-1.22-0.813-1.22-0.813l18.82-15.964c0,0,0.53,0.364,1.47,0.999c0.89,0.669,2.21,1.6,3.72,2.776
				c3.02,2.362,6.82,5.73,10.12,9.438c3.33,3.69,6.08,7.728,7.82,10.876c0.8,1.6,1.55,2.912,1.91,3.877
				C4481.35,53.47,4481.58,54.02,4481.58,54.02z"/>
		</g>
		<path class="st1" d="M4481.58,54.02l-23.49,10.623c0,0-0.18-0.448-0.5-1.236c-0.28-0.804-0.88-1.879-1.52-3.199
			c-1.4-2.59-3.64-5.909-6.37-8.93c-2.71-3.03-5.83-5.781-8.32-7.694c-1.25-0.965-2.33-1.719-3.07-2.26
			c-0.77-0.517-1.22-0.813-1.22-0.813l18.82-15.964c0,0,0.53,0.364,1.47,0.999c0.89,0.669,2.21,1.6,3.72,2.776
			c3.02,2.362,6.82,5.73,10.12,9.438c3.33,3.69,6.08,7.728,7.82,10.876c0.8,1.6,1.55,2.912,1.91,3.877
			C4481.35,53.47,4481.58,54.02,4481.58,54.02z"/>
		<path class="st1" d="M4425.89,9.811l-13.51,18.842c0,0-0.52-0.169-1.44-0.465c-0.91-0.322-2.23-0.72-3.83-1.177
			c-3.17-0.948-7.49-2.014-11.86-2.895c-4.36-0.914-8.8-1.498-12.13-1.93c-1.67-0.178-3.06-0.322-4.04-0.423
			c-0.97-0.11-1.53-0.144-1.53-0.144l5.771-20.763c0,0,0.689,0.051,1.88,0.186c1.2,0.136,2.91,0.305,4.95,0.551
			c4.08,0.558,9.52,1.329,14.85,2.488c5.34,1.109,10.61,2.463,14.48,3.656c1.94,0.584,3.55,1.084,4.66,1.481
			C4425.26,9.59,4425.89,9.811,4425.89,9.811z"/>
		<rect x="4307.56" class="st1" width="41.27" height="21.017"/>
	</g>
</g>
</svg>