<!-- Generator: Adobe Illustrator 20.1.0, SVG Export Plug-In  -->
<svg version="1.1"
	 xmlns="http://www.w3.org/2000/svg" xmlns:xlink="http://www.w3.org/1999/xlink" xmlns:a="http://ns.adobe.com/AdobeSVGViewerExtensions/3.0/"
	 x="0px" y="0px" width="2051.874px" height="445.589px" viewBox="0 0 2051.874 445.589"
	 style="enable-background:new 0 0 2051.874 445.589;" xml:space="preserve">
<style type="text/css">
	.st0{fill:#FFFFFF;}
	.st1{fill-rule:evenodd;clip-rule:evenodd;fill:#FFFFFF;}
</style>
<defs>
</defs>
<g>
	<g>
		<g>
			<path class="st0" d="M2051.874,38.253c0,3.391,0,6.786,0,6.786h-11.359V33.278l11.336-2.017c0,0,0.009,0.874,0.018,2.182
				C2051.869,34.754,2051.874,36.502,2051.874,38.253z"/>
			<rect x="2040.515" y="55.331" class="st0" width="11.359" height="13.066"/>
			<rect x="2040.515" y="78.764" class="st0" width="11.359" height="13.069"/>
		</g>
		<rect x="2040.515" y="78.764" class="st1" width="11.359" height="13.069"/>
		<rect x="2040.515" y="55.331" class="st1" width="11.359" height="13.066"/>
		<path class="st1" d="M2051.874,38.253c0,3.391,0,6.786,0,6.786h-11.359V33.278l11.336-2.017c0,0,0.009,0.874,0.018,2.182
			C2051.869,34.754,2051.874,36.502,2051.874,38.253z"/>
	</g>
	<g>
		<g>
			<rect x="2040.515" y="102.365" class="st0" width="11.359" height="13.069"/>
			<rect x="2040.515" y="125.725" class="st0" width="11.359" height="13.065"/>
			<rect x="2040.515" y="149.158" class="st0" width="11.359" height="13.065"/>
		</g>
		<rect x="2040.515" y="149.158" class="st1" width="11.359" height="13.065"/>
		<rect x="2040.515" y="125.725" class="st1" width="11.359" height="13.065"/>
		<rect x="2040.515" y="102.365" class="st1" width="11.359" height="13.069"/>
	</g>
	<g>
		<g>
			<rect x="2040.515" y="172.759" class="st0" width="11.359" height="13.066"/>
			<rect x="2040.515" y="196.116" class="st0" width="11.359" height="13.069"/>
			<rect x="2040.515" y="219.552" class="st0" width="11.359" height="13.066"/>
		</g>
		<rect x="2040.515" y="219.552" class="st1" width="11.359" height="13.066"/>
		<rect x="2040.515" y="196.116" class="st1" width="11.359" height="13.069"/>
		<rect x="2040.515" y="172.759" class="st1" width="11.359" height="13.066"/>
	</g>
	<g>
		<g>
			<rect x="2040.515" y="243.153" class="st0" width="11.359" height="13.065"/>
			<rect x="2040.515" y="266.51" class="st0" width="11.359" height="13.066"/>
			<rect x="2040.515" y="289.946" class="st0" width="11.359" height="13.065"/>
		</g>
		<rect x="2040.515" y="289.946" class="st1" width="11.359" height="13.065"/>
		<rect x="2040.515" y="266.51" class="st1" width="11.359" height="13.066"/>
		<rect x="2040.515" y="243.153" class="st1" width="11.359" height="13.065"/>
	</g>
	<g>
		<g>
			<rect x="2040.515" y="313.547" class="st0" width="11.359" height="13.066"/>
			<rect x="2040.515" y="336.904" class="st0" width="11.359" height="13.065"/>
			<rect x="2040.515" y="360.34" class="st0" width="11.359" height="13.065"/>
		</g>
		<rect x="2040.515" y="360.34" class="st1" width="11.359" height="13.065"/>
		<rect x="2040.515" y="336.904" class="st1" width="11.359" height="13.065"/>
		<rect x="2040.515" y="313.547" class="st1" width="11.359" height="13.066"/>
	</g>
	<g>
		<g>
			<path class="st0" d="M2035.606,426.437l9.836,5.067c0,0-0.188,0.171-0.522,0.475c-0.352,0.291-0.851,0.709-1.473,1.197
				c-1.254,0.969-3.065,2.179-5.023,3.262c-1.953,1.092-4.044,2.058-5.664,2.717c-0.407,0.168-0.773,0.323-1.107,0.453
				c-0.334,0.127-0.627,0.238-0.869,0.329c-0.48,0.181-0.755,0.285-0.755,0.285l-7.123-6.71c0,0,0.229-0.086,0.627-0.231
				c0.398-0.142,0.965-0.351,1.624-0.627c1.336-0.529,3.061-1.311,4.671-2.194c1.615-0.88,3.106-1.862,4.14-2.654
				c0.512-0.399,0.924-0.741,1.212-0.978C2035.451,426.58,2035.606,426.437,2035.606,426.437z"/>
			<rect x="2040.515" y="383.941" class="st0" width="11.359" height="13.066"/>
			<path class="st0" d="M2040.515,406.807l11.359,0.76c0,0,0,0.874,0,2.185c0,1.311,0,3.062-0.028,4.804
				c-0.032,1.742-0.092,3.477-0.146,4.769c-0.014,0.646-0.082,1.184-0.119,1.561c-0.018,0.187-0.027,0.336-0.046,0.437
				c-0.018,0.098-0.032,0.152-0.032,0.152l-11.071-3.293c0,0,0.032-0.177,0.041-0.488c0.014-0.31,0.05-0.754,0.041-1.289v-3.911
				C2040.515,409.651,2040.515,406.807,2040.515,406.807z"/>
		</g>
		<path class="st1" d="M2045.442,431.504c0,0-0.188,0.171-0.522,0.475c-0.352,0.291-0.851,0.709-1.473,1.197
			c-1.254,0.969-3.065,2.179-5.023,3.262c-1.953,1.092-4.044,2.058-5.664,2.717c-0.407,0.168-0.773,0.323-1.107,0.453
			c-0.334,0.127-0.627,0.238-0.869,0.329c-0.48,0.181-0.755,0.285-0.755,0.285l-7.123-6.71c0,0,0.229-0.086,0.627-0.231
			c0.398-0.142,0.965-0.351,1.624-0.627c1.336-0.529,3.061-1.311,4.671-2.194c1.615-0.88,3.106-1.862,4.14-2.654
			c0.512-0.399,0.924-0.741,1.212-0.978c0.27-0.247,0.426-0.389,0.426-0.389L2045.442,431.504z"/>
		<path class="st1" d="M2051.874,407.567c0,0,0,0.874,0,2.185c0,1.311,0,3.062-0.028,4.804c-0.032,1.742-0.092,3.477-0.146,4.769
			c-0.014,0.646-0.082,1.184-0.119,1.561c-0.018,0.187-0.027,0.336-0.046,0.437c-0.018,0.098-0.032,0.152-0.032,0.152l-11.071-3.293
			c0,0,0.032-0.177,0.041-0.488c0.014-0.31,0.05-0.754,0.041-1.289v-3.911c0-2.844,0-5.687,0-5.687L2051.874,407.567z"/>
		<rect x="2040.515" y="383.941" class="st1" width="11.359" height="13.066"/>
	</g>
	<g>
		<g>
			<rect x="1927.014" y="437.726" class="st0" width="18.876" height="7.863"/>
			<rect x="1960.868" y="437.726" class="st0" width="18.88" height="7.863"/>
			<path class="st0" d="M2014.873,444.117c0,0-0.307,0.051-0.842,0.139c-0.535,0.095-1.308,0.196-2.233,0.326
				c-1.853,0.26-4.346,0.526-6.853,0.706c-0.627,0.041-1.253,0.082-1.871,0.12c-0.622,0.038-1.231,0.054-1.821,0.082
				c-1.18,0.057-2.287,0.063-3.23,0.079c-0.947,0.019-1.739,0.013-2.292,0.016c-0.549,0.003-0.865,0.003-0.865,0.003l-0.709-7.863
				c0,0,0.256,0,0.705,0c0.448,0,1.093,0.006,1.862-0.006c0.769-0.013,1.67-0.013,2.63-0.054c0.48-0.022,0.979-0.032,1.482-0.06
				c0.503-0.028,1.016-0.06,1.528-0.089c2.045-0.139,4.081-0.342,5.59-0.548c0.759-0.101,1.391-0.177,1.825-0.253
				c0.439-0.07,0.691-0.111,0.691-0.111L2014.873,444.117z"/>
		</g>
		<rect x="1927.014" y="437.726" class="st1" width="18.876" height="7.863"/>
		<rect x="1960.868" y="437.726" class="st1" width="18.88" height="7.863"/>
		<path class="st1" d="M2014.873,444.117c0,0-0.307,0.051-0.842,0.139c-0.535,0.095-1.308,0.196-2.233,0.326
			c-1.853,0.26-4.346,0.526-6.853,0.706c-0.627,0.041-1.253,0.082-1.871,0.12c-0.622,0.038-1.231,0.054-1.821,0.082
			c-1.18,0.057-2.287,0.063-3.23,0.079c-0.947,0.019-1.739,0.013-2.292,0.016c-0.549,0.003-0.865,0.003-0.865,0.003l-0.709-7.863
			c0,0,0.256,0,0.705,0c0.448,0,1.093,0.006,1.862-0.006c0.769-0.013,1.67-0.013,2.63-0.054c0.48-0.022,0.979-0.032,1.482-0.06
			c0.503-0.028,1.016-0.06,1.528-0.089c2.045-0.139,4.081-0.342,5.59-0.548c0.759-0.101,1.391-0.177,1.825-0.253
			c0.439-0.07,0.691-0.111,0.691-0.111L2014.873,444.117z"/>
	</g>
	<g>
		<g>
			<rect x="1825.317" y="437.726" class="st0" width="18.876" height="7.863"/>
			<rect x="1859.175" y="437.726" class="st0" width="18.876" height="7.863"/>
			<rect x="1892.919" y="437.726" class="st0" width="18.876" height="7.863"/>
		</g>
		<rect x="1825.317" y="437.726" class="st1" width="18.876" height="7.863"/>
		<rect x="1859.175" y="437.726" class="st1" width="18.876" height="7.863"/>
		<rect x="1892.919" y="437.726" class="st1" width="18.876" height="7.863"/>
	</g>
	<g>
		<g>
			<rect x="1723.619" y="437.726" class="st0" width="18.876" height="7.863"/>
			<rect x="1757.478" y="437.726" class="st0" width="18.875" height="7.863"/>
			<rect x="1791.221" y="437.726" class="st0" width="18.876" height="7.863"/>
		</g>
		<rect x="1723.619" y="437.726" class="st1" width="18.876" height="7.863"/>
		<rect x="1757.478" y="437.726" class="st1" width="18.875" height="7.863"/>
		<rect x="1791.221" y="437.726" class="st1" width="18.876" height="7.863"/>
	</g>
	<g>
		<g>
			<rect x="1621.922" y="437.726" class="st0" width="18.88" height="7.863"/>
			<rect x="1655.78" y="437.726" class="st0" width="18.876" height="7.863"/>
			<rect x="1689.524" y="437.726" class="st0" width="18.88" height="7.863"/>
		</g>
		<rect x="1621.922" y="437.726" class="st1" width="18.88" height="7.863"/>
		<rect x="1655.78" y="437.726" class="st1" width="18.876" height="7.863"/>
		<rect x="1689.524" y="437.726" class="st1" width="18.88" height="7.863"/>
	</g>
	<g>
		<g>
			<rect x="1520.229" y="437.726" class="st0" width="18.875" height="7.863"/>
			<rect x="1554.082" y="437.726" class="st0" width="18.876" height="7.863"/>
			<rect x="1587.831" y="437.726" class="st0" width="18.876" height="7.863"/>
		</g>
		<rect x="1520.229" y="437.726" class="st1" width="18.875" height="7.863"/>
		<rect x="1554.082" y="437.726" class="st1" width="18.876" height="7.863"/>
		<rect x="1587.831" y="437.726" class="st1" width="18.876" height="7.863"/>
	</g>
	<g>
		<g>
			<rect x="1418.532" y="437.726" class="st0" width="18.875" height="7.863"/>
			<rect x="1452.385" y="437.726" class="st0" width="18.88" height="7.863"/>
			<rect x="1486.133" y="437.726" class="st0" width="18.876" height="7.863"/>
		</g>
		<rect x="1418.532" y="437.726" class="st1" width="18.875" height="7.863"/>
		<rect x="1452.385" y="437.726" class="st1" width="18.88" height="7.863"/>
		<rect x="1486.133" y="437.726" class="st1" width="18.876" height="7.863"/>
	</g>
	<g>
		<g>
			<rect x="1316.834" y="437.726" class="st0" width="18.876" height="7.863"/>
			<rect x="1350.692" y="437.726" class="st0" width="18.875" height="7.863"/>
			<rect x="1384.436" y="437.726" class="st0" width="18.876" height="7.863"/>
		</g>
		<rect x="1316.834" y="437.726" class="st1" width="18.876" height="7.863"/>
		<rect x="1350.692" y="437.726" class="st1" width="18.875" height="7.863"/>
		<rect x="1384.436" y="437.726" class="st1" width="18.876" height="7.863"/>
	</g>
	<g>
		<g>
			<rect x="1215.137" y="437.726" class="st0" width="18.875" height="7.863"/>
			<rect x="1248.995" y="437.726" class="st0" width="18.876" height="7.863"/>
			<rect x="1282.738" y="437.726" class="st0" width="18.875" height="7.863"/>
		</g>
		<rect x="1215.137" y="437.726" class="st1" width="18.875" height="7.863"/>
		<rect x="1248.995" y="437.726" class="st1" width="18.876" height="7.863"/>
		<rect x="1282.738" y="437.726" class="st1" width="18.875" height="7.863"/>
	</g>
	<g>
		<g>
			<rect x="1113.439" y="437.726" class="st0" width="18.88" height="7.863"/>
			<rect x="1147.297" y="437.726" class="st0" width="18.875" height="7.863"/>
			<rect x="1181.041" y="437.726" class="st0" width="18.88" height="7.863"/>
		</g>
		<rect x="1113.439" y="437.726" class="st1" width="18.88" height="7.863"/>
		<rect x="1147.297" y="437.726" class="st1" width="18.875" height="7.863"/>
		<rect x="1181.041" y="437.726" class="st1" width="18.88" height="7.863"/>
	</g>
	<g>
		<g>
			<rect x="1011.746" y="437.726" class="st0" width="18.876" height="7.863"/>
			<rect x="1045.599" y="437.726" class="st0" width="18.876" height="7.863"/>
			<rect x="1079.348" y="437.726" class="st0" width="18.876" height="7.863"/>
		</g>
		<rect x="1011.746" y="437.726" class="st1" width="18.876" height="7.863"/>
		<rect x="1045.599" y="437.726" class="st1" width="18.876" height="7.863"/>
		<rect x="1079.348" y="437.726" class="st1" width="18.876" height="7.863"/>
	</g>
	<g>
		<g>
			<rect x="910.049" y="437.726" class="st0" width="18.875" height="7.863"/>
			<rect x="943.902" y="437.726" class="st0" width="18.88" height="7.863"/>
			<rect x="977.65" y="437.726" class="st0" width="18.876" height="7.863"/>
		</g>
		<rect x="910.049" y="437.726" class="st1" width="18.875" height="7.863"/>
		<rect x="943.902" y="437.726" class="st1" width="18.88" height="7.863"/>
		<rect x="977.65" y="437.726" class="st1" width="18.876" height="7.863"/>
	</g>
	<g>
		<g>
			<rect x="808.351" y="437.726" class="st0" width="18.875" height="7.863"/>
			<rect x="842.209" y="437.726" class="st0" width="18.876" height="7.863"/>
			<rect x="875.953" y="437.726" class="st0" width="18.875" height="7.863"/>
		</g>
		<rect x="808.351" y="437.726" class="st1" width="18.875" height="7.863"/>
		<rect x="842.209" y="437.726" class="st1" width="18.876" height="7.863"/>
		<rect x="875.953" y="437.726" class="st1" width="18.875" height="7.863"/>
	</g>
	<g>
		<g>
			<rect x="706.654" y="437.726" class="st0" width="18.876" height="7.863"/>
			<rect x="740.512" y="437.726" class="st0" width="18.875" height="7.863"/>
			<rect x="774.255" y="437.726" class="st0" width="18.876" height="7.863"/>
		</g>
		<rect x="706.654" y="437.726" class="st1" width="18.876" height="7.863"/>
		<rect x="740.512" y="437.726" class="st1" width="18.875" height="7.863"/>
		<rect x="774.255" y="437.726" class="st1" width="18.876" height="7.863"/>
	</g>
	<g>
		<g>
			<rect x="604.956" y="437.726" class="st0" width="18.88" height="7.863"/>
			<rect x="638.814" y="437.726" class="st0" width="18.876" height="7.863"/>
			<rect x="672.558" y="437.726" class="st0" width="18.88" height="7.863"/>
		</g>
		<rect x="604.956" y="437.726" class="st1" width="18.88" height="7.863"/>
		<rect x="638.814" y="437.726" class="st1" width="18.876" height="7.863"/>
		<rect x="672.558" y="437.726" class="st1" width="18.88" height="7.863"/>
	</g>
	<g>
		<g>
			<rect x="503.263" y="437.726" class="st0" width="18.875" height="7.863"/>
			<rect x="537.117" y="437.726" class="st0" width="18.875" height="7.863"/>
			<rect x="570.865" y="437.726" class="st0" width="18.875" height="7.863"/>
		</g>
		<rect x="503.263" y="437.726" class="st1" width="18.875" height="7.863"/>
		<rect x="537.117" y="437.726" class="st1" width="18.875" height="7.863"/>
		<rect x="570.865" y="437.726" class="st1" width="18.875" height="7.863"/>
	</g>
	<g>
		<g>
			<rect x="401.566" y="437.726" class="st0" width="18.876" height="7.863"/>
			<rect x="435.419" y="437.726" class="st0" width="18.88" height="7.863"/>
			<rect x="469.167" y="437.726" class="st0" width="18.875" height="7.863"/>
		</g>
		<rect x="401.566" y="437.726" class="st1" width="18.876" height="7.863"/>
		<rect x="435.419" y="437.726" class="st1" width="18.88" height="7.863"/>
		<rect x="469.167" y="437.726" class="st1" width="18.875" height="7.863"/>
	</g>
	<g>
		<g>
			<rect x="299.868" y="437.726" class="st0" width="18.876" height="7.863"/>
			<rect x="333.726" y="437.726" class="st0" width="18.875" height="7.863"/>
			<rect x="367.47" y="437.726" class="st0" width="18.876" height="7.863"/>
		</g>
		<rect x="299.868" y="437.726" class="st1" width="18.876" height="7.863"/>
		<rect x="333.726" y="437.726" class="st1" width="18.875" height="7.863"/>
		<rect x="367.47" y="437.726" class="st1" width="18.876" height="7.863"/>
	</g>
	<g>
		<g>
			<rect x="198.171" y="437.726" class="st0" width="18.875" height="7.863"/>
			<rect x="232.029" y="437.726" class="st0" width="18.876" height="7.863"/>
			<rect x="265.772" y="437.726" class="st0" width="18.875" height="7.863"/>
		</g>
		<rect x="198.171" y="437.726" class="st1" width="18.875" height="7.863"/>
		<rect x="232.029" y="437.726" class="st1" width="18.876" height="7.863"/>
		<rect x="265.772" y="437.726" class="st1" width="18.875" height="7.863"/>
	</g>
	<g>
		<g>
			<rect x="96.473" y="437.726" class="st0" width="18.88" height="7.863"/>
			<rect x="130.331" y="437.726" class="st0" width="18.875" height="7.863"/>
			<rect x="164.075" y="437.726" class="st0" width="18.88" height="7.863"/>
		</g>
		<rect x="96.473" y="437.726" class="st1" width="18.88" height="7.863"/>
		<rect x="130.331" y="437.726" class="st1" width="18.875" height="7.863"/>
		<rect x="164.075" y="437.726" class="st1" width="18.88" height="7.863"/>
	</g>
	<g>
		<g>
			<path class="st0" d="M21.442,430.13c0.357,0.193,0.558,0.304,0.558,0.304l-8.61,5.972c0,0-0.242-0.136-0.668-0.374
				c-0.412-0.253-1.016-0.602-1.706-1.042c-1.382-0.88-3.12-2.144-4.63-3.528c-1.523-1.381-2.782-2.894-3.577-4.072
				c-0.366-0.599-0.709-1.086-0.874-1.45c-0.183-0.358-0.288-0.56-0.288-0.56l10.746-3.974c0,0,0.082,0.168,0.229,0.462
				c0.128,0.298,0.403,0.7,0.695,1.194c0.641,0.972,1.665,2.214,2.914,3.341c1.24,1.137,2.667,2.166,3.806,2.882
				C20.61,429.642,21.108,429.924,21.442,430.13z"/>
			<path class="st0" d="M48.539,437.448c0.448,0.038,0.7,0.054,0.7,0.054l-2.64,7.765c0,0-0.316-0.016-0.86-0.07
				c-0.549-0.051-1.331-0.114-2.265-0.206c-1.866-0.206-4.355-0.494-6.793-0.928c-2.443-0.415-4.854-0.922-6.624-1.371
				c-0.887-0.215-1.624-0.402-2.132-0.551c-0.508-0.142-0.801-0.222-0.801-0.222l6.181-7.052c0,0,0.242,0.066,0.659,0.177
				c0.416,0.117,1.02,0.266,1.752,0.44c1.45,0.355,3.427,0.754,5.426,1.08c1.995,0.342,4.026,0.564,5.549,0.725
				C47.454,437.353,48.095,437.41,48.539,437.448z"/>
			<rect x="62.382" y="437.726" class="st0" width="18.876" height="7.863"/>
		</g>
		<path class="st1" d="M22,430.434l-8.61,5.972c0,0-0.242-0.136-0.668-0.374c-0.412-0.253-1.016-0.602-1.706-1.042
			c-1.382-0.88-3.12-2.144-4.63-3.528c-1.523-1.381-2.782-2.894-3.577-4.072c-0.366-0.599-0.709-1.086-0.874-1.45
			c-0.183-0.358-0.288-0.56-0.288-0.56l10.746-3.974c0,0,0.082,0.168,0.229,0.462c0.128,0.298,0.403,0.7,0.695,1.194
			c0.641,0.972,1.665,2.214,2.914,3.341c1.24,1.137,2.667,2.166,3.806,2.882c0.572,0.358,1.07,0.64,1.404,0.846
			C21.799,430.323,22,430.434,22,430.434z"/>
		<path class="st1" d="M49.238,437.502l-2.64,7.765c0,0-0.316-0.016-0.86-0.07c-0.549-0.051-1.331-0.114-2.265-0.206
			c-1.866-0.206-4.355-0.494-6.793-0.928c-2.443-0.415-4.854-0.922-6.624-1.371c-0.887-0.215-1.624-0.402-2.132-0.551
			c-0.508-0.142-0.801-0.222-0.801-0.222l6.181-7.052c0,0,0.242,0.066,0.659,0.177c0.416,0.117,1.02,0.266,1.752,0.44
			c1.45,0.355,3.427,0.754,5.426,1.08c1.995,0.342,4.026,0.564,5.549,0.725c0.764,0.063,1.404,0.12,1.848,0.158
			C48.987,437.486,49.238,437.502,49.238,437.502z"/>
		<rect x="62.382" y="437.726" class="st1" width="18.876" height="7.863"/>
	</g>
	<g>
		<g>
			<rect y="353.757" class="st0" width="11.359" height="13.065"/>
			<rect y="377.193" class="st0" width="11.359" height="13.066"/>
			<path class="st0" d="M0,400.55h11.359v11.758l-11.336,2.02c0,0-0.005-0.874-0.018-2.182c0-1.314,0-3.062-0.005-4.81
				C0,403.942,0,400.55,0,400.55z"/>
		</g>
		<rect y="353.757" class="st1" width="11.359" height="13.065"/>
		<rect y="377.193" class="st1" width="11.359" height="13.066"/>
		<path class="st1" d="M11.359,400.55v11.758l-11.336,2.02c0,0-0.005-0.874-0.018-2.182c0-1.314,0-3.062-0.005-4.81
			c0-3.395,0-6.786,0-6.786H11.359z"/>
	</g>
	<g>
		<g>
			<rect y="283.363" class="st0" width="11.359" height="13.065"/>
			<rect y="306.799" class="st0" width="11.359" height="13.066"/>
			<rect y="330.156" class="st0" width="11.359" height="13.065"/>
		</g>
		<rect y="283.363" class="st1" width="11.359" height="13.065"/>
		<rect y="306.799" class="st1" width="11.359" height="13.066"/>
		<rect y="330.156" class="st1" width="11.359" height="13.065"/>
	</g>
	<g>
		<g>
			<rect y="212.969" class="st0" width="11.359" height="13.069"/>
			<rect y="236.405" class="st0" width="11.359" height="13.065"/>
			<rect y="259.762" class="st0" width="11.359" height="13.069"/>
		</g>
		<rect y="212.969" class="st1" width="11.359" height="13.069"/>
		<rect y="236.405" class="st1" width="11.359" height="13.065"/>
		<rect y="259.762" class="st1" width="11.359" height="13.069"/>
	</g>
	<g>
		<g>
			<rect y="142.577" class="st0" width="11.359" height="13.066"/>
			<rect y="166.011" class="st0" width="11.359" height="13.066"/>
			<rect y="189.368" class="st0" width="11.359" height="13.069"/>
		</g>
		<rect y="142.577" class="st1" width="11.359" height="13.066"/>
		<rect y="166.011" class="st1" width="11.359" height="13.066"/>
		<rect y="189.368" class="st1" width="11.359" height="13.069"/>
	</g>
	<g>
		<g>
			<rect y="72.183" class="st0" width="11.359" height="13.065"/>
			<rect y="95.616" class="st0" width="11.359" height="13.069"/>
			<rect y="118.977" class="st0" width="11.359" height="13.065"/>
		</g>
		<rect y="72.183" class="st1" width="11.359" height="13.065"/>
		<rect y="95.616" class="st1" width="11.359" height="13.069"/>
		<rect y="118.977" class="st1" width="11.359" height="13.065"/>
	</g>
	<g>
		<g>
			<rect y="48.583" class="st0" width="11.359" height="13.065"/>
			<path class="st0" d="M0.371,24.111l11.076,3.297c0,0-0.037,0.174-0.046,0.488c-0.014,0.31-0.05,0.754-0.041,1.286v3.911
				c0,2.847,0,5.69,0,5.69L0,38.022c0,0,0-0.874,0-2.185c0-1.314,0-3.062,0.027-4.804c0.032-1.745,0.092-3.477,0.146-4.769
				c0.018-0.649,0.082-1.184,0.119-1.561c0.018-0.19,0.027-0.336,0.046-0.437C0.357,24.165,0.371,24.111,0.371,24.111z"/>
			<path class="st0" d="M28.967,12.078c0,0-0.229,0.082-0.627,0.228c-0.398,0.146-0.965,0.351-1.624,0.63
				c-1.336,0.529-3.061,1.308-4.671,2.195c-1.615,0.877-3.106,1.859-4.14,2.65c-0.512,0.399-0.92,0.741-1.212,0.979
				c-0.27,0.25-0.426,0.389-0.426,0.389l-9.836-5.064c0,0,0.188-0.174,0.522-0.475c0.352-0.291,0.851-0.712,1.473-1.2
				c1.254-0.969,3.065-2.175,5.023-3.258c1.953-1.092,4.044-2.058,5.664-2.72c0.407-0.165,0.773-0.323,1.107-0.453
				c0.334-0.127,0.627-0.234,0.869-0.326c0.48-0.184,0.759-0.285,0.759-0.285L28.967,12.078z"/>
		</g>
		<path class="st1" d="M28.967,12.078c0,0-0.229,0.082-0.627,0.228c-0.398,0.146-0.965,0.351-1.624,0.63
			c-1.336,0.529-3.061,1.308-4.671,2.195c-1.615,0.877-3.106,1.859-4.14,2.65c-0.512,0.399-0.92,0.741-1.212,0.979
			c-0.27,0.25-0.426,0.389-0.426,0.389l-9.836-5.064c0,0,0.188-0.174,0.522-0.475c0.352-0.291,0.851-0.712,1.473-1.2
			c1.254-0.969,3.065-2.175,5.023-3.258c1.953-1.092,4.044-2.058,5.664-2.72c0.407-0.165,0.773-0.323,1.107-0.453
			c0.334-0.127,0.627-0.234,0.869-0.326c0.48-0.184,0.759-0.285,0.759-0.285L28.967,12.078z"/>
		<path class="st1" d="M11.446,27.407c0,0-0.037,0.174-0.046,0.488c-0.014,0.31-0.05,0.754-0.041,1.286v3.911c0,2.847,0,5.69,0,5.69
			L0,38.022c0,0,0-0.874,0-2.185c0-1.314,0-3.062,0.027-4.804c0.032-1.745,0.092-3.477,0.146-4.769
			c0.018-0.649,0.082-1.184,0.119-1.561c0.018-0.19,0.027-0.336,0.046-0.437c0.018-0.101,0.032-0.155,0.032-0.155L11.446,27.407z"/>
		<rect y="48.583" class="st1" width="11.359" height="13.065"/>
	</g>
	<g>
		<g>
			<path class="st0" d="M57.011,0l0.709,7.863c0,0-0.261,0-0.709,0c-0.448,0-1.089-0.006-1.862,0.006
				c-0.769,0.01-1.67,0.01-2.631,0.054c-0.48,0.019-0.979,0.032-1.482,0.057c-0.503,0.032-1.016,0.06-1.528,0.092
				c-2.045,0.139-4.076,0.342-5.59,0.545c-0.755,0.101-1.391,0.181-1.825,0.257c-0.439,0.07-0.686,0.108-0.686,0.108l-4.401-7.508
				c0,0,0.302-0.051,0.842-0.139c0.531-0.095,1.304-0.196,2.228-0.326c1.853-0.263,4.346-0.526,6.853-0.709
				c0.627-0.038,1.258-0.079,1.876-0.12c0.617-0.035,1.226-0.054,1.816-0.079c1.18-0.057,2.287-0.063,3.235-0.082
				C54.797-0.003,55.588,0.003,56.142,0C56.695,0,57.011,0,57.011,0z"/>
			<rect x="72.131" class="st0" width="18.876" height="7.863"/>
			<rect x="105.984" class="st0" width="18.876" height="7.863"/>
		</g>
		<rect x="105.984" class="st1" width="18.876" height="7.863"/>
		<rect x="72.131" class="st1" width="18.876" height="7.863"/>
		<path class="st1" d="M57.72,7.863c0,0-0.261,0-0.709,0c-0.448,0-1.089-0.006-1.862,0.006c-0.769,0.01-1.67,0.01-2.631,0.054
			c-0.48,0.019-0.979,0.032-1.482,0.057c-0.503,0.032-1.016,0.06-1.528,0.092c-2.045,0.139-4.076,0.342-5.59,0.545
			c-0.755,0.101-1.391,0.181-1.825,0.257c-0.439,0.07-0.686,0.108-0.686,0.108l-4.401-7.508c0,0,0.302-0.051,0.842-0.139
			c0.531-0.095,1.304-0.196,2.228-0.326c1.853-0.263,4.346-0.526,6.853-0.709c0.627-0.038,1.258-0.079,1.876-0.12
			c0.617-0.035,1.226-0.054,1.816-0.079c1.18-0.057,2.287-0.063,3.235-0.082C54.797-0.003,55.588,0.003,56.142,0
			c0.554,0,0.869,0,0.869,0L57.72,7.863z"/>
	</g>
	<g>
		<g>
			<rect x="140.08" class="st0" width="18.875" height="7.863"/>
			<rect x="173.824" class="st0" width="18.88" height="7.863"/>
			<rect x="207.682" class="st0" width="18.875" height="7.863"/>
		</g>
		<rect x="207.682" class="st1" width="18.875" height="7.863"/>
		<rect x="173.824" class="st1" width="18.88" height="7.863"/>
		<rect x="140.08" class="st1" width="18.875" height="7.863"/>
	</g>
	<g>
		<g>
			<rect x="241.777" class="st0" width="18.876" height="7.863"/>
			<rect x="275.521" class="st0" width="18.875" height="7.863"/>
			<rect x="309.379" class="st0" width="18.875" height="7.863"/>
		</g>
		<rect x="309.379" class="st1" width="18.875" height="7.863"/>
		<rect x="275.521" class="st1" width="18.875" height="7.863"/>
		<rect x="241.777" class="st1" width="18.876" height="7.863"/>
	</g>
	<g>
		<g>
			<rect x="343.475" class="st0" width="18.875" height="7.863"/>
			<rect x="377.219" class="st0" width="18.875" height="7.863"/>
			<rect x="411.072" class="st0" width="18.88" height="7.863"/>
		</g>
		<rect x="411.072" class="st1" width="18.88" height="7.863"/>
		<rect x="377.219" class="st1" width="18.875" height="7.863"/>
		<rect x="343.475" class="st1" width="18.875" height="7.863"/>
	</g>
	<g>
		<g>
			<rect x="445.168" class="st0" width="18.88" height="7.863"/>
			<rect x="478.916" class="st0" width="18.876" height="7.863"/>
			<rect x="512.769" class="st0" width="18.876" height="7.863"/>
		</g>
		<rect x="512.769" class="st1" width="18.876" height="7.863"/>
		<rect x="478.916" class="st1" width="18.876" height="7.863"/>
		<rect x="445.168" class="st1" width="18.88" height="7.863"/>
	</g>
	<g>
		<g>
			<rect x="546.865" class="st0" width="18.875" height="7.863"/>
			<rect x="580.614" class="st0" width="18.875" height="7.863"/>
			<rect x="614.467" class="st0" width="18.875" height="7.863"/>
		</g>
		<rect x="614.467" class="st1" width="18.875" height="7.863"/>
		<rect x="580.614" class="st1" width="18.875" height="7.863"/>
		<rect x="546.865" class="st1" width="18.875" height="7.863"/>
	</g>
	<g>
		<g>
			<rect x="648.563" class="st0" width="18.876" height="7.863"/>
			<rect x="682.307" class="st0" width="18.88" height="7.863"/>
			<rect x="716.164" class="st0" width="18.876" height="7.863"/>
		</g>
		<rect x="716.164" class="st1" width="18.876" height="7.863"/>
		<rect x="682.307" class="st1" width="18.88" height="7.863"/>
		<rect x="648.563" class="st1" width="18.876" height="7.863"/>
	</g>
	<g>
		<g>
			<rect x="750.26" class="st0" width="18.875" height="7.863"/>
			<rect x="784.004" class="st0" width="18.876" height="7.863"/>
			<rect x="817.862" class="st0" width="18.875" height="7.863"/>
		</g>
		<rect x="817.862" class="st1" width="18.875" height="7.863"/>
		<rect x="784.004" class="st1" width="18.876" height="7.863"/>
		<rect x="750.26" class="st1" width="18.875" height="7.863"/>
	</g>
	<g>
		<g>
			<rect x="851.958" class="st0" width="18.876" height="7.863"/>
			<rect x="885.702" class="st0" width="18.875" height="7.863"/>
			<rect x="919.56" class="st0" width="18.875" height="7.863"/>
		</g>
		<rect x="919.56" class="st1" width="18.875" height="7.863"/>
		<rect x="885.702" class="st1" width="18.875" height="7.863"/>
		<rect x="851.958" class="st1" width="18.876" height="7.863"/>
	</g>
	<g>
		<g>
			<rect x="953.651" class="st0" width="18.88" height="7.863"/>
			<rect x="987.399" class="st0" width="18.875" height="7.863"/>
			<rect x="1021.253" class="st0" width="18.88" height="7.863"/>
		</g>
		<rect x="1021.253" class="st1" width="18.88" height="7.863"/>
		<rect x="987.399" class="st1" width="18.875" height="7.863"/>
		<rect x="953.651" class="st1" width="18.88" height="7.863"/>
	</g>
	<g>
		<g>
			<rect x="1055.348" class="st0" width="18.876" height="7.863"/>
			<rect x="1089.097" class="st0" width="18.876" height="7.863"/>
			<rect x="1122.95" class="st0" width="18.876" height="7.863"/>
		</g>
		<rect x="1122.95" class="st1" width="18.876" height="7.863"/>
		<rect x="1089.097" class="st1" width="18.876" height="7.863"/>
		<rect x="1055.348" class="st1" width="18.876" height="7.863"/>
	</g>
	<g>
		<g>
			<rect x="1157.046" class="st0" width="18.875" height="7.863"/>
			<rect x="1190.789" class="st0" width="18.88" height="7.863"/>
			<rect x="1224.648" class="st0" width="18.875" height="7.863"/>
		</g>
		<rect x="1224.648" class="st1" width="18.875" height="7.863"/>
		<rect x="1190.789" class="st1" width="18.88" height="7.863"/>
		<rect x="1157.046" class="st1" width="18.875" height="7.863"/>
	</g>
	<g>
		<g>
			<rect x="1258.743" class="st0" width="18.876" height="7.863"/>
			<rect x="1292.487" class="st0" width="18.875" height="7.863"/>
			<rect x="1326.345" class="st0" width="18.876" height="7.863"/>
		</g>
		<rect x="1326.345" class="st1" width="18.876" height="7.863"/>
		<rect x="1292.487" class="st1" width="18.875" height="7.863"/>
		<rect x="1258.743" class="st1" width="18.876" height="7.863"/>
	</g>
	<g>
		<g>
			<rect x="1360.441" class="st0" width="18.876" height="7.863"/>
			<rect x="1394.184" class="st0" width="18.876" height="7.863"/>
			<rect x="1428.038" class="st0" width="18.88" height="7.863"/>
		</g>
		<rect x="1428.038" class="st1" width="18.88" height="7.863"/>
		<rect x="1394.184" class="st1" width="18.876" height="7.863"/>
		<rect x="1360.441" class="st1" width="18.876" height="7.863"/>
	</g>
	<g>
		<g>
			<rect x="1462.134" class="st0" width="18.88" height="7.863"/>
			<rect x="1495.882" class="st0" width="18.876" height="7.863"/>
			<rect x="1529.735" class="st0" width="18.876" height="7.863"/>
		</g>
		<rect x="1529.735" class="st1" width="18.876" height="7.863"/>
		<rect x="1495.882" class="st1" width="18.876" height="7.863"/>
		<rect x="1462.134" class="st1" width="18.88" height="7.863"/>
	</g>
	<g>
		<g>
			<rect x="1563.831" class="st0" width="18.875" height="7.863"/>
			<rect x="1597.58" class="st0" width="18.875" height="7.863"/>
			<rect x="1631.433" class="st0" width="18.875" height="7.863"/>
		</g>
		<rect x="1631.433" class="st1" width="18.875" height="7.863"/>
		<rect x="1597.58" class="st1" width="18.875" height="7.863"/>
		<rect x="1563.831" class="st1" width="18.875" height="7.863"/>
	</g>
	<g>
		<g>
			<rect x="1665.529" class="st0" width="18.876" height="7.863"/>
			<rect x="1699.272" class="st0" width="18.88" height="7.863"/>
			<rect x="1733.13" class="st0" width="18.876" height="7.863"/>
		</g>
		<rect x="1733.13" class="st1" width="18.876" height="7.863"/>
		<rect x="1699.272" class="st1" width="18.88" height="7.863"/>
		<rect x="1665.529" class="st1" width="18.876" height="7.863"/>
	</g>
	<g>
		<g>
			<rect x="1767.226" class="st0" width="18.876" height="7.863"/>
			<rect x="1800.97" class="st0" width="18.876" height="7.863"/>
			<rect x="1834.828" class="st0" width="18.876" height="7.863"/>
		</g>
		<rect x="1834.828" class="st1" width="18.876" height="7.863"/>
		<rect x="1800.97" class="st1" width="18.876" height="7.863"/>
		<rect x="1767.226" class="st1" width="18.876" height="7.863"/>
	</g>
	<g>
		<g>
			<rect x="1868.924" class="st0" width="18.876" height="7.863"/>
			<rect x="1902.667" class="st0" width="18.876" height="7.863"/>
			<rect x="1936.525" class="st0" width="18.876" height="7.863"/>
		</g>
		<rect x="1936.525" class="st1" width="18.876" height="7.863"/>
		<rect x="1902.667" class="st1" width="18.876" height="7.863"/>
		<rect x="1868.924" class="st1" width="18.876" height="7.863"/>
	</g>
	<g>
		<g>
			<rect x="1970.617" class="st0" width="18.88" height="7.863"/>
			<path class="st0" d="M2023.95,3.449c0.512,0.139,0.801,0.222,0.801,0.222l-6.181,7.049c0,0-0.238-0.063-0.659-0.174
				c-0.416-0.12-1.02-0.269-1.752-0.44c-1.45-0.355-3.427-0.754-5.426-1.083c-1.995-0.342-4.026-0.56-5.549-0.722
				c-0.764-0.066-1.4-0.12-1.848-0.158c-0.444-0.041-0.7-0.054-0.7-0.054l2.64-7.768c0,0,0.316,0.019,0.86,0.07
				c0.549,0.051,1.331,0.114,2.265,0.206c1.866,0.209,4.355,0.497,6.794,0.931c2.443,0.415,4.854,0.921,6.624,1.368
				C2022.705,3.113,2023.442,3.3,2023.95,3.449z"/>
			<path class="st0" d="M2050.227,20.21l-10.746,3.974c0,0-0.082-0.168-0.229-0.462c-0.128-0.301-0.403-0.703-0.695-1.197
				c-0.641-0.969-1.665-2.21-2.914-3.341c-1.24-1.134-2.667-2.163-3.806-2.878c-0.572-0.361-1.066-0.643-1.404-0.845
				c-0.352-0.193-0.558-0.304-0.558-0.304l8.61-5.972c0,0,0.242,0.136,0.672,0.374c0.407,0.25,1.011,0.599,1.702,1.039
				c1.382,0.884,3.12,2.144,4.63,3.531c1.523,1.381,2.782,2.891,3.578,4.069c0.366,0.599,0.709,1.089,0.874,1.45
				C2050.122,20.004,2050.227,20.21,2050.227,20.21z"/>
		</g>
		<path class="st1" d="M2050.227,20.21l-10.746,3.974c0,0-0.082-0.168-0.229-0.462c-0.128-0.301-0.403-0.703-0.695-1.197
			c-0.641-0.969-1.665-2.21-2.914-3.341c-1.24-1.134-2.667-2.163-3.806-2.878c-0.572-0.361-1.066-0.643-1.404-0.845
			c-0.352-0.193-0.558-0.304-0.558-0.304l8.61-5.972c0,0,0.242,0.136,0.672,0.374c0.407,0.25,1.011,0.599,1.702,1.039
			c1.382,0.884,3.12,2.144,4.63,3.531c1.523,1.381,2.782,2.891,3.578,4.069c0.366,0.599,0.709,1.089,0.874,1.45
			C2050.122,20.004,2050.227,20.21,2050.227,20.21z"/>
		<path class="st1" d="M2024.75,3.67l-6.181,7.049c0,0-0.238-0.063-0.659-0.174c-0.416-0.12-1.02-0.269-1.752-0.44
			c-1.45-0.355-3.427-0.754-5.426-1.083c-1.995-0.342-4.026-0.56-5.549-0.722c-0.764-0.066-1.4-0.12-1.848-0.158
			c-0.444-0.041-0.7-0.054-0.7-0.054l2.64-7.768c0,0,0.316,0.019,0.86,0.07c0.549,0.051,1.331,0.114,2.265,0.206
			c1.866,0.209,4.355,0.497,6.794,0.931c2.443,0.415,4.854,0.921,6.624,1.368c0.887,0.218,1.624,0.405,2.132,0.554
			C2024.462,3.588,2024.75,3.67,2024.75,3.67z"/>
		<rect x="1970.617" class="st1" width="18.88" height="7.863"/>
	</g>
</g>
</svg>