<!-- Generator: Adobe Illustrator 20.1.0, SVG Export Plug-In  -->
<svg version="1.1"
	 xmlns="http://www.w3.org/2000/svg" xmlns:xlink="http://www.w3.org/1999/xlink" xmlns:a="http://ns.adobe.com/AdobeSVGViewerExtensions/3.0/"
	 x="0px" y="0px" width="3813.52px" height="1564.151px" viewBox="0 0 3813.52 1564.151"
	 style="enable-background:new 0 0 3813.52 1564.151;" xml:space="preserve">
<style type="text/css">
	.st0{fill:#FFFFFF;}
	.st1{fill-rule:evenodd;clip-rule:evenodd;fill:#FFFFFF;}
</style>
<defs>
</defs>
<g>
	<g>
		<g>
			<polygon class="st0" points="3813.52,106.577 3813.52,145.783 3787.855,145.783 3787.855,109.398 			"/>
			<rect x="3787.855" y="175.884" class="st0" width="25.664" height="38.215"/>
			<rect x="3787.855" y="244.421" class="st0" width="25.664" height="38.215"/>
		</g>
		<rect x="3787.855" y="244.421" class="st1" width="25.664" height="38.215"/>
		<rect x="3787.855" y="175.884" class="st1" width="25.664" height="38.215"/>
		<polygon class="st1" points="3813.52,106.577 3813.52,145.783 3787.855,145.783 3787.855,109.398 		"/>
	</g>
	<g>
		<g>
			<rect x="3787.855" y="313.436" class="st0" width="25.664" height="38.215"/>
			<rect x="3787.855" y="381.752" class="st0" width="25.664" height="38.215"/>
			<rect x="3787.855" y="450.29" class="st0" width="25.664" height="38.215"/>
		</g>
		<rect x="3787.855" y="450.29" class="st1" width="25.664" height="38.215"/>
		<rect x="3787.855" y="381.752" class="st1" width="25.664" height="38.215"/>
		<rect x="3787.855" y="313.436" class="st1" width="25.664" height="38.215"/>
	</g>
	<g>
		<g>
			<rect x="3787.855" y="519.305" class="st0" width="25.664" height="38.215"/>
			<rect x="3787.855" y="587.621" class="st0" width="25.664" height="38.215"/>
			<rect x="3787.855" y="656.158" class="st0" width="25.664" height="38.215"/>
		</g>
		<rect x="3787.855" y="656.158" class="st1" width="25.664" height="38.215"/>
		<rect x="3787.855" y="587.621" class="st1" width="25.664" height="38.215"/>
		<rect x="3787.855" y="519.305" class="st1" width="25.664" height="38.215"/>
	</g>
	<g>
		<g>
			<rect x="3787.855" y="725.173" class="st0" width="25.664" height="38.215"/>
			<rect x="3787.855" y="793.489" class="st0" width="25.664" height="38.215"/>
			<rect x="3787.855" y="862.026" class="st0" width="25.664" height="38.215"/>
		</g>
		<rect x="3787.855" y="862.026" class="st1" width="25.664" height="38.215"/>
		<rect x="3787.855" y="793.489" class="st1" width="25.664" height="38.215"/>
		<rect x="3787.855" y="725.173" class="st1" width="25.664" height="38.215"/>
	</g>
	<g>
		<g>
			<rect x="3787.855" y="931.042" class="st0" width="25.664" height="38.215"/>
			<rect x="3787.855" y="999.357" class="st0" width="25.664" height="38.215"/>
			<rect x="3787.855" y="1067.894" class="st0" width="25.664" height="38.215"/>
		</g>
		<rect x="3787.855" y="1067.894" class="st1" width="25.664" height="38.215"/>
		<rect x="3787.855" y="999.357" class="st1" width="25.664" height="38.215"/>
		<rect x="3787.855" y="931.042" class="st1" width="25.664" height="38.215"/>
	</g>
	<g>
		<g>
			<rect x="3787.855" y="1136.91" class="st0" width="25.664" height="38.215"/>
			<rect x="3787.855" y="1205.226" class="st0" width="25.664" height="38.215"/>
			<rect x="3787.855" y="1273.763" class="st0" width="25.664" height="38.215"/>
		</g>
		<rect x="3787.855" y="1273.763" class="st1" width="25.664" height="38.215"/>
		<rect x="3787.855" y="1205.226" class="st1" width="25.664" height="38.215"/>
		<rect x="3787.855" y="1136.91" class="st1" width="25.664" height="38.215"/>
	</g>
	<g>
		<g>
			<path class="st0" d="M3787.513,1474.817l25.256,7.333c0,0-0.013,0.163-0.039,0.455c-0.039,0.303-0.066,0.734-0.171,1.282
				c-0.197,1.108-0.395,2.682-0.777,4.558c-0.724,3.754-2.066,8.709-3.908,13.523c-0.5,1.189-0.922,2.402-1.461,3.567
				c-0.527,1.154-1.053,2.296-1.566,3.392c-1.119,2.169-2.146,4.197-3.186,5.864c-0.961,1.713-1.882,3.078-2.527,4.034
				c-0.632,0.956-0.987,1.504-0.987,1.504l-22.19-14.164c0,0,0.289-0.455,0.803-1.236c0.513-0.793,1.263-1.912,2.04-3.311
				c0.829-1.375,1.658-3.043,2.566-4.815c0.816-1.807,1.685-3.742,2.395-5.724c1.461-3.952,2.501-8.021,3.04-11.11
				c0.277-1.539,0.422-2.833,0.566-3.73C3787.5,1475.341,3787.513,1474.817,3787.513,1474.817z"/>
			<rect x="3787.855" y="1342.778" class="st0" width="25.664" height="38.215"/>
			<polygon class="st0" points="3787.855,1411.094 3813.52,1411.094 3813.52,1449.787 3787.855,1448.423 			"/>
		</g>
		<path class="st1" d="M3812.769,1482.149c0,0-0.013,0.163-0.039,0.455c-0.039,0.303-0.066,0.734-0.171,1.282
			c-0.197,1.108-0.395,2.682-0.777,4.558c-0.724,3.754-2.066,8.709-3.908,13.523c-0.5,1.189-0.922,2.402-1.461,3.567
			c-0.527,1.154-1.053,2.296-1.566,3.392c-1.119,2.169-2.146,4.197-3.186,5.864c-0.961,1.713-1.882,3.078-2.527,4.034
			c-0.632,0.956-0.987,1.504-0.987,1.504l-22.19-14.164c0,0,0.289-0.455,0.803-1.236c0.513-0.793,1.263-1.912,2.04-3.311
			c0.829-1.375,1.658-3.043,2.566-4.815c0.816-1.807,1.685-3.742,2.395-5.724c1.461-3.952,2.501-8.021,3.04-11.11
			c0.277-1.539,0.422-2.833,0.566-3.73c0.132-0.898,0.145-1.422,0.145-1.422L3812.769,1482.149z"/>
		<polygon class="st1" points="3813.52,1411.094 3813.52,1449.787 3787.855,1448.423 3787.855,1411.094 		"/>
		<rect x="3787.855" y="1342.778" class="st1" width="25.664" height="38.215"/>
	</g>
	<g>
		<g>
			<rect x="3574.565" y="1541.418" class="st0" width="43.142" height="22.733"/>
			<polygon class="st0" points="3692.634,1541.418 3696.412,1564.14 3651.94,1564.151 3651.94,1541.418 			"/>
			<path class="st0" d="M3773.602,1544.624c0,0-0.566,0.397-1.553,1.084c-1.026,0.641-2.461,1.585-4.238,2.67
				c-3.554,2.134-8.502,4.721-13.701,6.89c-5.172,2.192-10.582,3.929-14.727,4.978c-2.053,0.572-3.79,0.921-5.015,1.189
				c-1.224,0.268-1.921,0.408-1.921,0.408l-10.344-21.94c0,0,0.565-0.117,1.566-0.315c1.013-0.21,2.448-0.478,4.133-0.933
				c3.395-0.816,7.844-2.192,12.095-3.952c4.264-1.749,8.33-3.847,11.252-5.584c1.461-0.874,2.632-1.655,3.475-2.168
				c0.816-0.56,1.276-0.886,1.276-0.886L3773.602,1544.624z"/>
		</g>
		<rect x="3574.565" y="1541.418" class="st1" width="43.142" height="22.733"/>
		<polygon class="st1" points="3696.412,1564.14 3651.94,1564.151 3651.94,1541.418 3692.634,1541.418 		"/>
		<path class="st1" d="M3773.602,1544.624c0,0-0.566,0.397-1.553,1.084c-1.026,0.641-2.461,1.585-4.238,2.67
			c-3.554,2.134-8.502,4.721-13.701,6.89c-5.172,2.192-10.582,3.929-14.727,4.978c-2.053,0.572-3.79,0.921-5.015,1.189
			c-1.224,0.268-1.921,0.408-1.921,0.408l-10.344-21.94c0,0,0.565-0.117,1.566-0.315c1.013-0.21,2.448-0.478,4.133-0.933
			c3.395-0.816,7.844-2.192,12.095-3.952c4.264-1.749,8.33-3.847,11.252-5.584c1.461-0.874,2.632-1.655,3.475-2.168
			c0.816-0.56,1.276-0.886,1.276-0.886L3773.602,1544.624z"/>
	</g>
	<g>
		<g>
			<rect x="3342.153" y="1541.418" class="st0" width="43.142" height="22.733"/>
			<rect x="3419.527" y="1541.418" class="st0" width="43.143" height="22.733"/>
			<rect x="3496.638" y="1541.418" class="st0" width="43.142" height="22.733"/>
		</g>
		<rect x="3342.153" y="1541.418" class="st1" width="43.142" height="22.733"/>
		<rect x="3419.527" y="1541.418" class="st1" width="43.143" height="22.733"/>
		<rect x="3496.638" y="1541.418" class="st1" width="43.142" height="22.733"/>
	</g>
	<g>
		<g>
			<rect x="3109.739" y="1541.418" class="st0" width="43.143" height="22.733"/>
			<rect x="3187.114" y="1541.418" class="st0" width="43.143" height="22.733"/>
			<rect x="3264.225" y="1541.418" class="st0" width="43.143" height="22.733"/>
		</g>
		<rect x="3109.739" y="1541.418" class="st1" width="43.143" height="22.733"/>
		<rect x="3187.114" y="1541.418" class="st1" width="43.143" height="22.733"/>
		<rect x="3264.225" y="1541.418" class="st1" width="43.143" height="22.733"/>
	</g>
	<g>
		<g>
			<rect x="2877.326" y="1541.418" class="st0" width="43.142" height="22.733"/>
			<rect x="2954.701" y="1541.418" class="st0" width="43.142" height="22.733"/>
			<rect x="3031.812" y="1541.418" class="st0" width="43.143" height="22.733"/>
		</g>
		<rect x="2877.326" y="1541.418" class="st1" width="43.142" height="22.733"/>
		<rect x="2954.701" y="1541.418" class="st1" width="43.142" height="22.733"/>
		<rect x="3031.812" y="1541.418" class="st1" width="43.143" height="22.733"/>
	</g>
	<g>
		<g>
			<rect x="2644.913" y="1541.418" class="st0" width="43.142" height="22.733"/>
			<rect x="2722.288" y="1541.418" class="st0" width="43.142" height="22.733"/>
			<rect x="2799.399" y="1541.418" class="st0" width="43.142" height="22.733"/>
		</g>
		<rect x="2644.913" y="1541.418" class="st1" width="43.142" height="22.733"/>
		<rect x="2722.288" y="1541.418" class="st1" width="43.142" height="22.733"/>
		<rect x="2799.399" y="1541.418" class="st1" width="43.142" height="22.733"/>
	</g>
	<g>
		<g>
			<rect x="2412.5" y="1541.418" class="st0" width="43.143" height="22.733"/>
			<rect x="2489.875" y="1541.418" class="st0" width="43.129" height="22.733"/>
			<rect x="2566.986" y="1541.418" class="st0" width="43.142" height="22.733"/>
		</g>
		<rect x="2412.5" y="1541.418" class="st1" width="43.143" height="22.733"/>
		<rect x="2489.875" y="1541.418" class="st1" width="43.129" height="22.733"/>
		<rect x="2566.986" y="1541.418" class="st1" width="43.142" height="22.733"/>
	</g>
	<g>
		<g>
			<rect x="2180.087" y="1541.418" class="st0" width="43.142" height="22.733"/>
			<rect x="2257.462" y="1541.418" class="st0" width="43.129" height="22.733"/>
			<rect x="2334.573" y="1541.418" class="st0" width="43.143" height="22.733"/>
		</g>
		<rect x="2180.087" y="1541.418" class="st1" width="43.142" height="22.733"/>
		<rect x="2257.462" y="1541.418" class="st1" width="43.129" height="22.733"/>
		<rect x="2334.573" y="1541.418" class="st1" width="43.143" height="22.733"/>
	</g>
	<g>
		<g>
			<rect x="1947.674" y="1541.418" class="st0" width="43.142" height="22.733"/>
			<rect x="2025.049" y="1541.418" class="st0" width="43.129" height="22.733"/>
			<rect x="2102.16" y="1541.418" class="st0" width="43.142" height="22.733"/>
		</g>
		<rect x="1947.674" y="1541.418" class="st1" width="43.142" height="22.733"/>
		<rect x="2025.049" y="1541.418" class="st1" width="43.129" height="22.733"/>
		<rect x="2102.16" y="1541.418" class="st1" width="43.142" height="22.733"/>
	</g>
	<g>
		<g>
			<rect x="1715.261" y="1541.418" class="st0" width="43.143" height="22.733"/>
			<rect x="1792.635" y="1541.418" class="st0" width="43.129" height="22.733"/>
			<rect x="1869.747" y="1541.418" class="st0" width="43.142" height="22.733"/>
		</g>
		<rect x="1715.261" y="1541.418" class="st1" width="43.143" height="22.733"/>
		<rect x="1792.635" y="1541.418" class="st1" width="43.129" height="22.733"/>
		<rect x="1869.747" y="1541.418" class="st1" width="43.142" height="22.733"/>
	</g>
	<g>
		<g>
			<rect x="1482.848" y="1541.418" class="st0" width="43.129" height="22.733"/>
			<rect x="1560.222" y="1541.418" class="st0" width="43.129" height="22.733"/>
			<rect x="1637.333" y="1541.418" class="st0" width="43.143" height="22.733"/>
		</g>
		<rect x="1482.848" y="1541.418" class="st1" width="43.129" height="22.733"/>
		<rect x="1560.222" y="1541.418" class="st1" width="43.129" height="22.733"/>
		<rect x="1637.333" y="1541.418" class="st1" width="43.143" height="22.733"/>
	</g>
	<g>
		<g>
			<rect x="1250.435" y="1541.418" class="st0" width="43.129" height="22.733"/>
			<rect x="1327.81" y="1541.418" class="st0" width="43.129" height="22.733"/>
			<rect x="1404.921" y="1541.418" class="st0" width="43.142" height="22.733"/>
		</g>
		<rect x="1250.435" y="1541.418" class="st1" width="43.129" height="22.733"/>
		<rect x="1327.81" y="1541.418" class="st1" width="43.129" height="22.733"/>
		<rect x="1404.921" y="1541.418" class="st1" width="43.142" height="22.733"/>
	</g>
	<g>
		<g>
			<rect x="1018.022" y="1541.418" class="st0" width="43.129" height="22.733"/>
			<rect x="1095.396" y="1541.418" class="st0" width="43.129" height="22.733"/>
			<rect x="1172.508" y="1541.418" class="st0" width="43.142" height="22.733"/>
		</g>
		<rect x="1018.022" y="1541.418" class="st1" width="43.129" height="22.733"/>
		<rect x="1095.396" y="1541.418" class="st1" width="43.129" height="22.733"/>
		<rect x="1172.508" y="1541.418" class="st1" width="43.142" height="22.733"/>
	</g>
	<g>
		<g>
			<rect x="785.609" y="1541.418" class="st0" width="43.129" height="22.733"/>
			<rect x="862.983" y="1541.418" class="st0" width="43.129" height="22.733"/>
			<rect x="940.094" y="1541.418" class="st0" width="43.143" height="22.733"/>
		</g>
		<rect x="785.609" y="1541.418" class="st1" width="43.129" height="22.733"/>
		<rect x="862.983" y="1541.418" class="st1" width="43.129" height="22.733"/>
		<rect x="940.094" y="1541.418" class="st1" width="43.143" height="22.733"/>
	</g>
	<g>
		<g>
			<rect x="553.196" y="1541.418" class="st0" width="43.129" height="22.733"/>
			<rect x="630.57" y="1541.418" class="st0" width="43.129" height="22.733"/>
			<rect x="707.681" y="1541.418" class="st0" width="43.142" height="22.733"/>
		</g>
		<rect x="553.196" y="1541.418" class="st1" width="43.129" height="22.733"/>
		<rect x="630.57" y="1541.418" class="st1" width="43.129" height="22.733"/>
		<rect x="707.681" y="1541.418" class="st1" width="43.142" height="22.733"/>
	</g>
	<g>
		<g>
			<rect x="320.782" y="1541.418" class="st0" width="43.129" height="22.733"/>
			<rect x="398.157" y="1541.418" class="st0" width="43.129" height="22.733"/>
			<rect x="475.269" y="1541.418" class="st0" width="43.142" height="22.733"/>
		</g>
		<rect x="320.782" y="1541.418" class="st1" width="43.129" height="22.733"/>
		<rect x="398.157" y="1541.418" class="st1" width="43.129" height="22.733"/>
		<rect x="475.269" y="1541.418" class="st1" width="43.142" height="22.733"/>
	</g>
	<g>
		<g>
			<path class="st0" d="M113.481,1541.418c9.397,0,18.781,0,18.781,0l-1.172,22.733c0,0-2.895,0-7.225,0s-10.108,0-15.86-0.07
				c-5.752-0.058-11.49-0.163-15.767-0.63c-2.145-0.175-3.909-0.466-5.159-0.606c-0.619-0.07-1.105-0.139-1.434-0.209
				c-0.329-0.047-0.501-0.082-0.501-0.082l9.621-22.115c0,0,0.145,0.023,0.408,0.07c0.276,0.047,0.672,0.093,1.185,0.151
				c1.013,0.093,2.474,0.315,4.225,0.432C104.084,1541.418,108.783,1541.418,113.481,1541.418z"/>
			<rect x="165.731" y="1541.418" class="st0" width="43.142" height="22.733"/>
			<rect x="242.855" y="1541.418" class="st0" width="43.143" height="22.733"/>
		</g>
		<path class="st1" d="M132.262,1541.418l-1.172,22.733c0,0-2.895,0-7.225,0s-10.108,0-15.86-0.07
			c-5.752-0.058-11.49-0.163-15.767-0.63c-2.145-0.175-3.909-0.466-5.159-0.606c-0.619-0.07-1.105-0.139-1.434-0.209
			c-0.329-0.047-0.501-0.082-0.501-0.082l9.621-22.115c0,0,0.145,0.023,0.408,0.07c0.276,0.047,0.672,0.093,1.185,0.151
			c1.013,0.093,2.474,0.315,4.225,0.432c3.5,0.326,8.199,0.326,12.898,0.326C122.878,1541.418,132.262,1541.418,132.262,1541.418z"
			/>
		<rect x="165.731" y="1541.418" class="st1" width="43.142" height="22.733"/>
		<rect x="242.855" y="1541.418" class="st1" width="43.143" height="22.733"/>
	</g>
	<g>
		<g>
			<rect x="0.005" y="1384.444" class="st0" width="25.664" height="38.215"/>
			<path class="st0" d="M27.789,1484.749l-24.664,9.513c0,0-0.158-0.618-0.461-1.691c-0.276-1.084-0.592-2.646-1.013-4.523
				c-0.697-3.754-1.355-8.813-1.474-13.908c-0.224-10.166-0.172-20.413-0.172-20.413l25.664-2.11c0,0,0,8.323,0,16.636
				c0,4.162,0.474,8.312,0.987,11.401c0.316,1.527,0.553,2.81,0.763,3.707C27.657,1484.248,27.789,1484.749,27.789,1484.749z"/>
			<path class="st0" d="M66.443,1531.369l-15.78,19.784c0,0-0.632-0.303-1.684-0.898c-1.04-0.618-2.58-1.445-4.344-2.542
				c-3.553-2.156-8.055-5.316-12.213-8.813c-4.172-3.497-8.002-7.298-10.582-10.341c-1.369-1.481-2.33-2.821-3.093-3.707
				c-0.737-0.898-1.119-1.434-1.119-1.434l21.769-14.724c0,0,0.303,0.443,0.908,1.177c0.632,0.734,1.395,1.842,2.514,3.043
				c2.106,2.506,5.251,5.619,8.66,8.475c3.409,2.856,7.093,5.445,10.015,7.193c1.448,0.898,2.711,1.562,3.567,2.064
				C65.93,1531.124,66.443,1531.369,66.443,1531.369z"/>
		</g>
		<rect x="0.005" y="1384.444" class="st1" width="25.664" height="38.215"/>
		<path class="st1" d="M27.789,1484.749l-24.664,9.513c0,0-0.158-0.618-0.461-1.691c-0.276-1.084-0.592-2.646-1.013-4.523
			c-0.697-3.754-1.355-8.813-1.474-13.908c-0.224-10.166-0.172-20.413-0.172-20.413l25.664-2.11c0,0,0,8.323,0,16.636
			c0,4.162,0.474,8.312,0.987,11.401c0.316,1.527,0.553,2.81,0.763,3.707C27.657,1484.248,27.789,1484.749,27.789,1484.749z"/>
		<path class="st1" d="M66.443,1531.369l-15.78,19.784c0,0-0.632-0.303-1.684-0.898c-1.04-0.618-2.58-1.445-4.344-2.542
			c-3.553-2.156-8.055-5.316-12.213-8.813c-4.172-3.497-8.002-7.298-10.582-10.341c-1.369-1.481-2.33-2.821-3.093-3.707
			c-0.737-0.898-1.119-1.434-1.119-1.434l21.769-14.724c0,0,0.303,0.443,0.908,1.177c0.632,0.734,1.395,1.842,2.514,3.043
			c2.106,2.506,5.251,5.619,8.66,8.475c3.409,2.856,7.093,5.445,10.015,7.193c1.448,0.898,2.711,1.562,3.567,2.064
			C65.93,1531.124,66.443,1531.369,66.443,1531.369z"/>
	</g>
	<g>
		<g>
			<rect x="0.005" y="1178.576" class="st0" width="25.664" height="38.215"/>
			<rect x="0.005" y="1247.113" class="st0" width="25.664" height="38.215"/>
			<rect x="0.005" y="1315.428" class="st0" width="25.664" height="38.215"/>
		</g>
		<rect x="0.005" y="1178.576" class="st1" width="25.664" height="38.215"/>
		<rect x="0.005" y="1247.113" class="st1" width="25.664" height="38.215"/>
		<rect x="0.005" y="1315.428" class="st1" width="25.664" height="38.215"/>
	</g>
	<g>
		<g>
			<rect x="0.005" y="972.707" class="st0" width="25.664" height="38.215"/>
			<rect x="0.005" y="1041.244" class="st0" width="25.664" height="38.215"/>
			<rect x="0.005" y="1109.56" class="st0" width="25.664" height="38.203"/>
		</g>
		<rect x="0.005" y="972.707" class="st1" width="25.664" height="38.215"/>
		<rect x="0.005" y="1041.244" class="st1" width="25.664" height="38.215"/>
		<rect x="0.005" y="1109.56" class="st1" width="25.664" height="38.203"/>
	</g>
	<g>
		<g>
			<rect x="0.005" y="766.839" class="st0" width="25.664" height="38.215"/>
			<rect x="0.005" y="835.376" class="st0" width="25.664" height="38.215"/>
			<rect x="0.005" y="903.692" class="st0" width="25.664" height="38.203"/>
		</g>
		<rect x="0.005" y="766.839" class="st1" width="25.664" height="38.215"/>
		<rect x="0.005" y="835.376" class="st1" width="25.664" height="38.215"/>
		<rect x="0.005" y="903.692" class="st1" width="25.664" height="38.203"/>
	</g>
	<g>
		<g>
			<rect x="0.005" y="560.971" class="st0" width="25.664" height="38.215"/>
			<rect x="0.005" y="629.508" class="st0" width="25.664" height="38.215"/>
			<rect x="0.005" y="697.823" class="st0" width="25.664" height="38.203"/>
		</g>
		<rect x="0.005" y="560.971" class="st1" width="25.664" height="38.215"/>
		<rect x="0.005" y="629.508" class="st1" width="25.664" height="38.215"/>
		<rect x="0.005" y="697.823" class="st1" width="25.664" height="38.203"/>
	</g>
	<g>
		<g>
			<rect x="0.005" y="355.102" class="st0" width="25.664" height="38.215"/>
			<rect x="0.005" y="423.639" class="st0" width="25.664" height="38.215"/>
			<rect x="0.005" y="491.955" class="st0" width="25.664" height="38.203"/>
		</g>
		<rect x="0.005" y="355.102" class="st1" width="25.664" height="38.215"/>
		<rect x="0.005" y="423.639" class="st1" width="25.664" height="38.215"/>
		<rect x="0.005" y="491.955" class="st1" width="25.664" height="38.203"/>
	</g>
	<g>
		<g>
			<rect x="0.005" y="149.234" class="st0" width="25.664" height="38.215"/>
			<rect x="0.005" y="217.771" class="st0" width="25.664" height="38.215"/>
			<rect x="0.005" y="286.087" class="st0" width="25.664" height="38.203"/>
		</g>
		<rect x="0.005" y="149.234" class="st1" width="25.664" height="38.215"/>
		<rect x="0.005" y="217.771" class="st1" width="25.664" height="38.215"/>
		<rect x="0.005" y="286.087" class="st1" width="25.664" height="38.203"/>
	</g>
	<g>
		<g>
			<path class="st0" d="M1.414,77.456l25.072,8.149c0,0-0.079,0.525-0.197,1.423c-0.158,0.898-0.276,2.192-0.408,3.754
				c-0.276,3.113-0.211,7.275-0.211,11.437c0,8.312,0,16.636,0,16.636L0.005,118.2c0,0,0-2.564,0-6.4
				c0.013-3.836,0.026-8.942,0.04-14.06c0.039-2.542,0.092-5.095,0.118-7.473c0.132-2.39,0.145-4.617,0.408-6.505
				c0.184-1.9,0.355-3.485,0.566-4.581C1.321,78.085,1.414,77.456,1.414,77.456z"/>
			<path class="st0" d="M43.372,17.23l17.083,18.979c0,0-0.474,0.303-1.316,0.828c-0.829,0.537-1.961,1.364-3.356,2.32
				c-2.698,1.993-6.16,4.815-9.279,7.927c-3.146,3.09-5.909,6.482-7.791,9.105c-0.974,1.306-1.698,2.437-2.198,3.229
				c-0.513,0.793-0.816,1.236-0.816,1.236L13.075,47.32c0,0,0.355-0.548,0.987-1.515c0.632-0.956,1.527-2.332,2.724-3.917
				c2.317-3.206,5.712-7.333,9.555-11.098c3.804-3.812,8.041-7.251,11.332-9.699c1.698-1.178,3.093-2.18,4.093-2.844
				C42.793,17.603,43.372,17.23,43.372,17.23z"/>
			<path class="st0" d="M124.642,22.733c0,0-2.342,0-5.87,0c-3.514,0.023-8.213-0.059-12.911,0.047
				c-4.685,0.116-9.371,0.583-12.819,1.201c-1.737,0.245-3.159,0.583-4.158,0.781c-1.001,0.198-1.58,0.326-1.58,0.326L76.064,3.392
				c0,0,0.684-0.163,1.909-0.431c1.224-0.245,2.948-0.688,5.067-1.014c4.211-0.804,9.924-1.457,15.648-1.691
				c5.725-0.221,11.49-0.209,15.82-0.245C118.837,0,121.72,0,121.72,0L124.642,22.733z"/>
		</g>
		<path class="st1" d="M124.642,22.733c0,0-2.342,0-5.87,0c-3.514,0.023-8.213-0.059-12.911,0.047
			c-4.685,0.116-9.371,0.583-12.819,1.201c-1.737,0.245-3.159,0.583-4.158,0.781c-1.001,0.198-1.58,0.326-1.58,0.326L76.064,3.392
			c0,0,0.684-0.163,1.909-0.431c1.224-0.245,2.948-0.688,5.067-1.014c4.211-0.804,9.924-1.457,15.648-1.691
			c5.725-0.221,11.49-0.209,15.82-0.245C118.837,0,121.72,0,121.72,0L124.642,22.733z"/>
		<path class="st1" d="M60.455,36.209c0,0-0.474,0.303-1.316,0.828c-0.829,0.537-1.961,1.364-3.356,2.32
			c-2.698,1.993-6.16,4.815-9.279,7.927c-3.146,3.09-5.909,6.482-7.791,9.105c-0.974,1.306-1.698,2.437-2.198,3.229
			c-0.513,0.793-0.816,1.236-0.816,1.236L13.075,47.32c0,0,0.355-0.548,0.987-1.515c0.632-0.956,1.527-2.332,2.724-3.917
			c2.317-3.206,5.712-7.333,9.555-11.098c3.804-3.812,8.041-7.251,11.332-9.699c1.698-1.178,3.093-2.18,4.093-2.844
			c1.027-0.642,1.606-1.014,1.606-1.014L60.455,36.209z"/>
		<path class="st1" d="M26.486,85.604c0,0-0.079,0.525-0.197,1.423c-0.158,0.898-0.276,2.192-0.408,3.754
			c-0.276,3.113-0.211,7.275-0.211,11.437c0,8.312,0,16.636,0,16.636L0.005,118.2c0,0,0-2.564,0-6.4
			c0.013-3.836,0.026-8.942,0.04-14.06c0.039-2.542,0.092-5.095,0.118-7.473c0.132-2.39,0.145-4.617,0.408-6.505
			c0.184-1.9,0.355-3.485,0.566-4.581c0.184-1.096,0.276-1.725,0.276-1.725L26.486,85.604z"/>
	</g>
	<g>
		<g>
			<rect x="157.531" class="st0" width="43.143" height="22.733"/>
			<rect x="234.656" class="st0" width="43.143" height="22.733"/>
			<rect x="312.03" class="st0" width="43.143" height="22.733"/>
		</g>
		<rect x="312.03" class="st1" width="43.143" height="22.733"/>
		<rect x="234.656" class="st1" width="43.143" height="22.733"/>
		<rect x="157.531" class="st1" width="43.143" height="22.733"/>
	</g>
	<g>
		<g>
			<rect x="389.945" class="st0" width="43.142" height="22.733"/>
			<rect x="467.069" class="st0" width="43.142" height="22.733"/>
			<rect x="544.444" class="st0" width="43.142" height="22.733"/>
		</g>
		<rect x="544.444" class="st1" width="43.142" height="22.733"/>
		<rect x="467.069" class="st1" width="43.142" height="22.733"/>
		<rect x="389.945" class="st1" width="43.142" height="22.733"/>
	</g>
	<g>
		<g>
			<rect x="622.358" class="st0" width="43.143" height="22.733"/>
			<rect x="699.482" class="st0" width="43.142" height="22.733"/>
			<rect x="776.857" class="st0" width="43.142" height="22.733"/>
		</g>
		<rect x="776.857" class="st1" width="43.142" height="22.733"/>
		<rect x="699.482" class="st1" width="43.142" height="22.733"/>
		<rect x="622.358" class="st1" width="43.143" height="22.733"/>
	</g>
	<g>
		<g>
			<rect x="854.771" class="st0" width="43.142" height="22.733"/>
			<rect x="931.895" class="st0" width="43.143" height="22.733"/>
			<rect x="1009.269" class="st0" width="43.143" height="22.733"/>
		</g>
		<rect x="1009.269" class="st1" width="43.143" height="22.733"/>
		<rect x="931.895" class="st1" width="43.143" height="22.733"/>
		<rect x="854.771" class="st1" width="43.142" height="22.733"/>
	</g>
	<g>
		<g>
			<rect x="1087.184" class="st0" width="43.142" height="22.733"/>
			<rect x="1164.308" class="st0" width="43.142" height="22.733"/>
			<rect x="1241.682" class="st0" width="43.143" height="22.733"/>
		</g>
		<rect x="1241.682" class="st1" width="43.143" height="22.733"/>
		<rect x="1164.308" class="st1" width="43.142" height="22.733"/>
		<rect x="1087.184" class="st1" width="43.142" height="22.733"/>
	</g>
	<g>
		<g>
			<rect x="1319.597" class="st0" width="43.143" height="22.733"/>
			<rect x="1396.721" class="st0" width="43.142" height="22.733"/>
			<rect x="1474.096" class="st0" width="43.142" height="22.733"/>
		</g>
		<rect x="1474.096" class="st1" width="43.142" height="22.733"/>
		<rect x="1396.721" class="st1" width="43.142" height="22.733"/>
		<rect x="1319.597" class="st1" width="43.143" height="22.733"/>
	</g>
	<g>
		<g>
			<rect x="1552.01" class="st0" width="43.143" height="22.733"/>
			<rect x="1629.134" class="st0" width="43.143" height="22.733"/>
			<rect x="1706.509" class="st0" width="43.143" height="22.733"/>
		</g>
		<rect x="1706.509" class="st1" width="43.143" height="22.733"/>
		<rect x="1629.134" class="st1" width="43.143" height="22.733"/>
		<rect x="1552.01" class="st1" width="43.143" height="22.733"/>
	</g>
	<g>
		<g>
			<rect x="1784.423" class="st0" width="43.142" height="22.733"/>
			<rect x="1861.548" class="st0" width="43.142" height="22.733"/>
			<rect x="1938.922" class="st0" width="43.142" height="22.733"/>
		</g>
		<rect x="1938.922" class="st1" width="43.142" height="22.733"/>
		<rect x="1861.548" class="st1" width="43.142" height="22.733"/>
		<rect x="1784.423" class="st1" width="43.142" height="22.733"/>
	</g>
	<g>
		<g>
			<rect x="2016.836" class="st0" width="43.142" height="22.733"/>
			<rect x="2093.96" class="st0" width="43.142" height="22.733"/>
			<rect x="2171.335" class="st0" width="43.142" height="22.733"/>
		</g>
		<rect x="2171.335" class="st1" width="43.142" height="22.733"/>
		<rect x="2093.96" class="st1" width="43.142" height="22.733"/>
		<rect x="2016.836" class="st1" width="43.142" height="22.733"/>
	</g>
	<g>
		<g>
			<rect x="2249.262" class="st0" width="43.129" height="22.733"/>
			<rect x="2326.373" class="st0" width="43.143" height="22.733"/>
			<rect x="2403.748" class="st0" width="43.143" height="22.733"/>
		</g>
		<rect x="2403.748" class="st1" width="43.143" height="22.733"/>
		<rect x="2326.373" class="st1" width="43.143" height="22.733"/>
		<rect x="2249.262" class="st1" width="43.129" height="22.733"/>
	</g>
	<g>
		<g>
			<rect x="2481.675" class="st0" width="43.129" height="22.733"/>
			<rect x="2558.786" class="st0" width="43.143" height="22.733"/>
			<rect x="2636.161" class="st0" width="43.143" height="22.733"/>
		</g>
		<rect x="2636.161" class="st1" width="43.143" height="22.733"/>
		<rect x="2558.786" class="st1" width="43.143" height="22.733"/>
		<rect x="2481.675" class="st1" width="43.129" height="22.733"/>
	</g>
	<g>
		<g>
			<rect x="2714.088" class="st0" width="43.13" height="22.733"/>
			<rect x="2791.2" class="st0" width="43.142" height="22.733"/>
			<rect x="2868.574" class="st0" width="43.142" height="22.733"/>
		</g>
		<rect x="2868.574" class="st1" width="43.142" height="22.733"/>
		<rect x="2791.2" class="st1" width="43.142" height="22.733"/>
		<rect x="2714.088" class="st1" width="43.13" height="22.733"/>
	</g>
	<g>
		<g>
			<rect x="2946.501" class="st0" width="43.129" height="22.733"/>
			<rect x="3023.613" class="st0" width="43.143" height="22.733"/>
			<rect x="3100.987" class="st0" width="43.142" height="22.733"/>
		</g>
		<rect x="3100.987" class="st1" width="43.142" height="22.733"/>
		<rect x="3023.613" class="st1" width="43.143" height="22.733"/>
		<rect x="2946.501" class="st1" width="43.129" height="22.733"/>
	</g>
	<g>
		<g>
			<rect x="3178.914" class="st0" width="43.129" height="22.733"/>
			<rect x="3256.026" class="st0" width="43.142" height="22.733"/>
			<rect x="3333.4" class="st0" width="43.143" height="22.733"/>
		</g>
		<rect x="3333.4" class="st1" width="43.143" height="22.733"/>
		<rect x="3256.026" class="st1" width="43.142" height="22.733"/>
		<rect x="3178.914" class="st1" width="43.129" height="22.733"/>
	</g>
	<g>
		<g>
			<rect x="3411.328" class="st0" width="43.129" height="22.733"/>
			<rect x="3488.439" class="st0" width="43.142" height="22.733"/>
			<rect x="3565.813" class="st0" width="43.142" height="22.733"/>
		</g>
		<rect x="3565.813" class="st1" width="43.142" height="22.733"/>
		<rect x="3488.439" class="st1" width="43.142" height="22.733"/>
		<rect x="3411.328" class="st1" width="43.129" height="22.733"/>
	</g>
	<g>
		<g>
			<polygon class="st0" points="3643.741,0 3687.633,0 3685.488,22.733 3643.741,22.733 			"/>
			<path class="st0" d="M3760.388,11.716c3.751,1.877,6.12,3.299,6.12,3.299l-16.425,19.398c0,0-1.948-1.154-5.027-2.669
				c-3.093-1.493-7.344-3.299-11.766-4.71c-4.396-1.446-8.989-2.402-12.438-2.996c-1.737-0.279-3.172-0.524-4.198-0.606
				c-1.026-0.116-1.606-0.186-1.606-0.186l8.805-22.279c0,0,0.711,0.093,1.961,0.245c1.25,0.128,3,0.454,5.12,0.816
				c4.198,0.77,9.778,2.017,15.148,3.836C3751.465,7.636,3756.624,9.874,3760.388,11.716z"/>
			<path class="st0" d="M3811.387,73.841l-24.888,8.802c0,0-0.105-0.513-0.289-1.411c-0.224-0.886-0.553-2.145-0.948-3.672
				c-0.908-3.008-2.316-6.983-4.198-10.796c-1.83-3.835-4.159-7.472-6.054-10.095c-0.474-0.653-0.908-1.259-1.303-1.784
				c-0.408-0.524-0.776-0.967-1.066-1.341c-0.605-0.746-0.935-1.166-0.935-1.166l21.216-15.388c0,0,0.408,0.524,1.145,1.422
				c0.369,0.455,0.803,1.002,1.316,1.632c0.474,0.642,1.013,1.376,1.606,2.18c2.329,3.195,5.198,7.613,7.489,12.276
				c2.343,4.64,4.146,9.478,5.304,13.15c0.5,1.853,0.921,3.393,1.224,4.476C3811.243,73.212,3811.387,73.841,3811.387,73.841z"/>
		</g>
		<path class="st1" d="M3811.387,73.841l-24.888,8.802c0,0-0.105-0.513-0.289-1.411c-0.224-0.886-0.553-2.145-0.948-3.672
			c-0.908-3.008-2.316-6.983-4.198-10.796c-1.83-3.835-4.159-7.472-6.054-10.095c-0.474-0.653-0.908-1.259-1.303-1.784
			c-0.408-0.524-0.776-0.967-1.066-1.341c-0.605-0.746-0.935-1.166-0.935-1.166l21.216-15.388c0,0,0.408,0.524,1.145,1.422
			c0.369,0.455,0.803,1.002,1.316,1.632c0.474,0.642,1.013,1.376,1.606,2.18c2.329,3.195,5.198,7.613,7.489,12.276
			c2.343,4.64,4.146,9.478,5.304,13.15c0.5,1.853,0.921,3.393,1.224,4.476C3811.243,73.212,3811.387,73.841,3811.387,73.841z"/>
		<path class="st1" d="M3766.508,15.015l-16.425,19.398c0,0-1.948-1.154-5.027-2.669c-3.093-1.493-7.344-3.299-11.766-4.71
			c-4.396-1.446-8.989-2.402-12.438-2.996c-1.737-0.279-3.172-0.524-4.198-0.606c-1.026-0.116-1.606-0.186-1.606-0.186l8.805-22.279
			c0,0,0.711,0.093,1.961,0.245c1.25,0.128,3,0.454,5.12,0.816c4.198,0.77,9.778,2.017,15.148,3.836
			c5.383,1.772,10.542,4.01,14.306,5.852C3764.139,13.593,3766.508,15.015,3766.508,15.015z"/>
		<polygon class="st1" points="3687.633,0 3685.488,22.733 3643.741,22.733 3643.741,0 		"/>
	</g>
</g>
</svg>