<!-- Generator: Adobe Illustrator 20.1.0, SVG Export Plug-In  -->
<svg version="1.1"
	 xmlns="http://www.w3.org/2000/svg" xmlns:xlink="http://www.w3.org/1999/xlink" xmlns:a="http://ns.adobe.com/AdobeSVGViewerExtensions/3.0/"
	 x="0px" y="0px" width="520.555px" height="280.32px" viewBox="0 0 520.555 280.32"
	 style="enable-background:new 0 0 520.555 280.32;" xml:space="preserve">
<style type="text/css">
	.st0{fill:#353535;}
</style>
<defs>
</defs>
<g>
	<path class="st0" d="M0,140.179c1.971-3.009,3.741-5.86,5.655-8.611c19.042-27.367,42.179-50.769,68.836-70.711
		c32.615-24.399,68.668-41.631,108.208-51.498c14.213-3.547,28.612-6.035,43.189-7.533c14.103-1.45,28.237-2.105,42.403-1.714
		c80.201,2.212,149.545,30.749,207.795,85.984c15.723,14.909,29.804,31.259,41.675,49.427c3.746,5.733,3.695,3.608,0.023,9.268
		c-9.83,15.154-21.384,28.937-33.988,41.844c-24.636,25.228-52.614,45.922-84.189,61.679
		c-26.285,13.117-53.924,22.109-82.862,27.186c-22.941,4.025-46.053,5.454-69.292,4.568c-44.799-1.708-87.473-12.043-127.516-32.42
		C73.802,224.171,35.713,191.3,5.816,149C3.835,146.197,2.031,143.268,0,140.179z M23.969,140.109c1,1.461,1.829,2.729,2.715,3.955
		C37.079,158.45,48.98,171.5,62.1,183.415c56.279,51.112,122.528,76.645,198.492,77.006c11.835,0.056,23.65-0.673,35.423-2.068
		c14.234-1.688,28.29-4.272,42.108-8.066c55.245-15.167,101.781-44.448,140.242-86.751c6.247-6.871,12.057-14.101,17.364-21.733
		c0.803-1.155,0.947-2.03,0.052-3.193c-1.903-2.47-3.631-5.074-5.54-7.539c-15.477-19.984-33.48-37.414-53.652-52.592
		c-48.686-36.634-103.579-55.89-164.399-58.325c-11.992-0.48-23.984-0.221-35.964,0.731c-12.211,0.97-24.321,2.607-36.311,5.07
		c-32.413,6.658-62.794,18.542-91.045,35.781c-30.697,18.732-57.313,42.078-79.286,70.617
		C27.685,134.819,25.928,137.395,23.969,140.109z"/>
	<path class="st0" d="M260.335,60.1c44.299-0.008,80.219,35.922,80.103,80.126c-0.117,44.411-35.829,80.005-80.21,79.991
		c-42.912-0.013-79.882-34.438-79.863-80.099C180.384,95.002,216.745,60.215,260.335,60.1z M320.542,140.139
		c-0.083-33.322-26.941-60.156-60.175-60.122c-33.341,0.034-60.296,27.059-60.107,60.429c0.194,34.35,28.414,60.178,60.655,59.865
		C293.836,199.99,320.624,173.161,320.542,140.139z"/>
	<path class="st0" d="M240.498,140.286c0.046,11.045,9.059,19.964,20.078,19.87c10.995-0.094,19.851-9.141,19.783-20.21
		c-0.067-10.87-9.085-19.769-20.003-19.738C249.295,120.24,240.452,129.182,240.498,140.286z"/>
	<path class="st0" d="M240.498,140.286c-0.047-11.104,8.797-20.045,19.858-20.077c10.918-0.032,19.936,8.867,20.003,19.738
		c0.068,11.068-8.788,20.115-19.783,20.21C249.558,160.25,240.545,151.33,240.498,140.286z"/>
</g>
</svg>