<!-- Generator: Adobe Illustrator 20.1.0, SVG Export Plug-In  -->
<svg version="1.1"
	 xmlns="http://www.w3.org/2000/svg" xmlns:xlink="http://www.w3.org/1999/xlink" xmlns:a="http://ns.adobe.com/AdobeSVGViewerExtensions/3.0/"
	 x="0px" y="0px" width="2897.554px" height="1341.7px" viewBox="0 0 2897.554 1341.7"
	 style="enable-background:new 0 0 2897.554 1341.7;" xml:space="preserve">
<style type="text/css">
	.st0{fill:#F8C363;}
	.st1{fill-rule:evenodd;clip-rule:evenodd;fill:#F8C363;}
</style>
<defs>
</defs>
<g>
	<g>
		<g>
			<polygon class="st0" points="2897.554,91.42 2897.554,125.05 2878.054,125.05 2878.054,93.84 			"/>
			<rect x="2878.054" y="150.87" class="st0" width="19.5" height="32.78"/>
			<rect x="2878.054" y="209.66" class="st0" width="19.5" height="32.78"/>
		</g>
		<rect x="2878.054" y="209.66" class="st1" width="19.5" height="32.78"/>
		<rect x="2878.054" y="150.87" class="st1" width="19.5" height="32.78"/>
		<polygon class="st1" points="2897.554,91.42 2897.554,125.05 2878.054,125.05 2878.054,93.84 		"/>
	</g>
	<g>
		<g>
			<rect x="2878.054" y="268.86" class="st0" width="19.5" height="32.78"/>
			<rect x="2878.054" y="327.46" class="st0" width="19.5" height="32.78"/>
			<rect x="2878.054" y="386.25" class="st0" width="19.5" height="32.78"/>
		</g>
		<rect x="2878.054" y="386.25" class="st1" width="19.5" height="32.78"/>
		<rect x="2878.054" y="327.46" class="st1" width="19.5" height="32.78"/>
		<rect x="2878.054" y="268.86" class="st1" width="19.5" height="32.78"/>
	</g>
	<g>
		<g>
			<rect x="2878.054" y="445.45" class="st0" width="19.5" height="32.78"/>
			<rect x="2878.054" y="504.05" class="st0" width="19.5" height="32.78"/>
			<rect x="2878.054" y="562.84" class="st0" width="19.5" height="32.78"/>
		</g>
		<rect x="2878.054" y="562.84" class="st1" width="19.5" height="32.78"/>
		<rect x="2878.054" y="504.05" class="st1" width="19.5" height="32.78"/>
		<rect x="2878.054" y="445.45" class="st1" width="19.5" height="32.78"/>
	</g>
	<g>
		<g>
			<rect x="2878.054" y="622.04" class="st0" width="19.5" height="32.78"/>
			<rect x="2878.054" y="680.64" class="st0" width="19.5" height="32.78"/>
			<rect x="2878.054" y="739.43" class="st0" width="19.5" height="32.78"/>
		</g>
		<rect x="2878.054" y="739.43" class="st1" width="19.5" height="32.78"/>
		<rect x="2878.054" y="680.64" class="st1" width="19.5" height="32.78"/>
		<rect x="2878.054" y="622.04" class="st1" width="19.5" height="32.78"/>
	</g>
	<g>
		<g>
			<rect x="2878.054" y="798.63" class="st0" width="19.5" height="32.78"/>
			<rect x="2878.054" y="857.23" class="st0" width="19.5" height="32.78"/>
			<rect x="2878.054" y="916.02" class="st0" width="19.5" height="32.78"/>
		</g>
		<rect x="2878.054" y="916.02" class="st1" width="19.5" height="32.78"/>
		<rect x="2878.054" y="857.23" class="st1" width="19.5" height="32.78"/>
		<rect x="2878.054" y="798.63" class="st1" width="19.5" height="32.78"/>
	</g>
	<g>
		<g>
			<rect x="2878.054" y="975.22" class="st0" width="19.5" height="32.78"/>
			<rect x="2878.054" y="1033.82" class="st0" width="19.5" height="32.78"/>
			<rect x="2878.054" y="1092.61" class="st0" width="19.5" height="32.78"/>
		</g>
		<rect x="2878.054" y="1092.61" class="st1" width="19.5" height="32.78"/>
		<rect x="2878.054" y="1033.82" class="st1" width="19.5" height="32.78"/>
		<rect x="2878.054" y="975.22" class="st1" width="19.5" height="32.78"/>
	</g>
	<g>
		<g>
			<path class="st0" d="M2877.794,1265.07l19.19,6.29c0,0-0.01,0.14-0.03,0.39c-0.03,0.26-0.05,0.63-0.13,1.1
				c-0.15,0.95-0.3,2.3-0.59,3.91c-0.55,3.22-1.57,7.47-2.97,11.6c-0.38,1.02-0.7,2.06-1.11,3.06c-0.4,0.99-0.8,1.97-1.19,2.91
				c-0.85,1.86-1.63,3.6-2.42,5.03c-0.73,1.47-1.43,2.64-1.92,3.46c-0.48,0.82-0.75,1.29-0.75,1.29l-16.86-12.15
				c0,0,0.22-0.39,0.61-1.06c0.39-0.68,0.96-1.64,1.55-2.84c0.63-1.18,1.26-2.61,1.95-4.13c0.62-1.55,1.28-3.21,1.82-4.91
				c1.11-3.39,1.9-6.88,2.31-9.53c0.21-1.32,0.32-2.43,0.43-3.2C2877.784,1265.52,2877.794,1265.07,2877.794,1265.07z"/>
			<rect x="2878.054" y="1151.81" class="st0" width="19.5" height="32.78"/>
			<polygon class="st0" points="2878.054,1210.41 2897.554,1210.41 2897.554,1243.6 2878.054,1242.43 			"/>
		</g>
		<path class="st1" d="M2896.984,1271.36c0,0-0.01,0.14-0.03,0.39c-0.03,0.26-0.05,0.63-0.13,1.1c-0.15,0.95-0.3,2.3-0.59,3.91
			c-0.55,3.22-1.57,7.47-2.97,11.6c-0.38,1.02-0.7,2.06-1.11,3.06c-0.4,0.99-0.8,1.97-1.19,2.91c-0.85,1.86-1.63,3.6-2.42,5.03
			c-0.73,1.47-1.43,2.64-1.92,3.46c-0.48,0.82-0.75,1.29-0.75,1.29l-16.86-12.15c0,0,0.22-0.39,0.61-1.06
			c0.39-0.68,0.96-1.64,1.55-2.84c0.63-1.18,1.26-2.61,1.95-4.13c0.62-1.55,1.28-3.21,1.82-4.91c1.11-3.39,1.9-6.88,2.31-9.53
			c0.21-1.32,0.32-2.43,0.43-3.2c0.1-0.771,0.11-1.22,0.11-1.22L2896.984,1271.36z"/>
		<polygon class="st1" points="2897.554,1210.41 2897.554,1243.6 2878.054,1242.43 2878.054,1210.41 		"/>
		<rect x="2878.054" y="1151.81" class="st1" width="19.5" height="32.78"/>
	</g>
	<g>
		<g>
			<rect x="2715.994" y="1322.2" class="st0" width="32.78" height="19.5"/>
			<polygon class="st0" points="2805.704,1322.2 2808.574,1341.69 2774.784,1341.7 2774.784,1322.2 			"/>
			<path class="st0" d="M2867.224,1324.95c0,0-0.43,0.34-1.18,0.93c-0.78,0.55-1.87,1.36-3.22,2.29c-2.7,1.83-6.46,4.05-10.41,5.91
				c-3.93,1.88-8.04,3.37-11.19,4.27c-1.56,0.49-2.88,0.79-3.81,1.02s-1.46,0.35-1.46,0.35l-7.86-18.82c0,0,0.43-0.1,1.19-0.27
				c0.77-0.18,1.86-0.41,3.14-0.8c2.58-0.7,5.96-1.88,9.19-3.39c3.24-1.5,6.33-3.3,8.55-4.79c1.11-0.75,2-1.42,2.64-1.86
				c0.62-0.48,0.97-0.76,0.97-0.76L2867.224,1324.95z"/>
		</g>
		<rect x="2715.994" y="1322.2" class="st1" width="32.78" height="19.5"/>
		<polygon class="st1" points="2808.574,1341.69 2774.784,1341.7 2774.784,1322.2 2805.704,1322.2 		"/>
		<path class="st1" d="M2867.224,1324.95c0,0-0.43,0.34-1.18,0.93c-0.78,0.55-1.87,1.36-3.22,2.29c-2.7,1.83-6.46,4.05-10.41,5.91
			c-3.93,1.88-8.04,3.37-11.19,4.27c-1.56,0.49-2.88,0.79-3.81,1.02s-1.46,0.35-1.46,0.35l-7.86-18.82c0,0,0.43-0.1,1.19-0.27
			c0.77-0.18,1.86-0.41,3.14-0.8c2.58-0.7,5.96-1.88,9.19-3.39c3.24-1.5,6.33-3.3,8.55-4.79c1.11-0.75,2-1.42,2.64-1.86
			c0.62-0.48,0.97-0.76,0.97-0.76L2867.224,1324.95z"/>
	</g>
	<g>
		<g>
			<rect x="2539.404" y="1322.2" class="st0" width="32.78" height="19.5"/>
			<rect x="2598.194" y="1322.2" class="st0" width="32.78" height="19.5"/>
			<rect x="2656.784" y="1322.2" class="st0" width="32.78" height="19.5"/>
		</g>
		<rect x="2539.404" y="1322.2" class="st1" width="32.78" height="19.5"/>
		<rect x="2598.194" y="1322.2" class="st1" width="32.78" height="19.5"/>
		<rect x="2656.784" y="1322.2" class="st1" width="32.78" height="19.5"/>
	</g>
	<g>
		<g>
			<rect x="2362.814" y="1322.2" class="st0" width="32.78" height="19.5"/>
			<rect x="2421.604" y="1322.2" class="st0" width="32.78" height="19.5"/>
			<rect x="2480.194" y="1322.2" class="st0" width="32.78" height="19.5"/>
		</g>
		<rect x="2362.814" y="1322.2" class="st1" width="32.78" height="19.5"/>
		<rect x="2421.604" y="1322.2" class="st1" width="32.78" height="19.5"/>
		<rect x="2480.194" y="1322.2" class="st1" width="32.78" height="19.5"/>
	</g>
	<g>
		<g>
			<rect x="2186.224" y="1322.2" class="st0" width="32.78" height="19.5"/>
			<rect x="2245.014" y="1322.2" class="st0" width="32.78" height="19.5"/>
			<rect x="2303.604" y="1322.2" class="st0" width="32.78" height="19.5"/>
		</g>
		<rect x="2186.224" y="1322.2" class="st1" width="32.78" height="19.5"/>
		<rect x="2245.014" y="1322.2" class="st1" width="32.78" height="19.5"/>
		<rect x="2303.604" y="1322.2" class="st1" width="32.78" height="19.5"/>
	</g>
	<g>
		<g>
			<rect x="2009.634" y="1322.2" class="st0" width="32.78" height="19.5"/>
			<rect x="2068.424" y="1322.2" class="st0" width="32.78" height="19.5"/>
			<rect x="2127.014" y="1322.2" class="st0" width="32.78" height="19.5"/>
		</g>
		<rect x="2009.634" y="1322.2" class="st1" width="32.78" height="19.5"/>
		<rect x="2068.424" y="1322.2" class="st1" width="32.78" height="19.5"/>
		<rect x="2127.014" y="1322.2" class="st1" width="32.78" height="19.5"/>
	</g>
	<g>
		<g>
			<rect x="1833.044" y="1322.2" class="st0" width="32.78" height="19.5"/>
			<rect x="1891.834" y="1322.2" class="st0" width="32.77" height="19.5"/>
			<rect x="1950.424" y="1322.2" class="st0" width="32.78" height="19.5"/>
		</g>
		<rect x="1833.044" y="1322.2" class="st1" width="32.78" height="19.5"/>
		<rect x="1891.834" y="1322.2" class="st1" width="32.77" height="19.5"/>
		<rect x="1950.424" y="1322.2" class="st1" width="32.78" height="19.5"/>
	</g>
	<g>
		<g>
			<rect x="1656.454" y="1322.2" class="st0" width="32.78" height="19.5"/>
			<rect x="1715.244" y="1322.2" class="st0" width="32.77" height="19.5"/>
			<rect x="1773.834" y="1322.2" class="st0" width="32.78" height="19.5"/>
		</g>
		<rect x="1656.454" y="1322.2" class="st1" width="32.78" height="19.5"/>
		<rect x="1715.244" y="1322.2" class="st1" width="32.77" height="19.5"/>
		<rect x="1773.834" y="1322.2" class="st1" width="32.78" height="19.5"/>
	</g>
	<g>
		<g>
			<rect x="1479.864" y="1322.2" class="st0" width="32.78" height="19.5"/>
			<rect x="1538.654" y="1322.2" class="st0" width="32.77" height="19.5"/>
			<rect x="1597.244" y="1322.2" class="st0" width="32.78" height="19.5"/>
		</g>
		<rect x="1479.864" y="1322.2" class="st1" width="32.78" height="19.5"/>
		<rect x="1538.654" y="1322.2" class="st1" width="32.77" height="19.5"/>
		<rect x="1597.244" y="1322.2" class="st1" width="32.78" height="19.5"/>
	</g>
	<g>
		<g>
			<rect x="1303.274" y="1322.2" class="st0" width="32.78" height="19.5"/>
			<rect x="1362.064" y="1322.2" class="st0" width="32.77" height="19.5"/>
			<rect x="1420.654" y="1322.2" class="st0" width="32.78" height="19.5"/>
		</g>
		<rect x="1303.274" y="1322.2" class="st1" width="32.78" height="19.5"/>
		<rect x="1362.064" y="1322.2" class="st1" width="32.77" height="19.5"/>
		<rect x="1420.654" y="1322.2" class="st1" width="32.78" height="19.5"/>
	</g>
	<g>
		<g>
			<rect x="1126.684" y="1322.2" class="st0" width="32.77" height="19.5"/>
			<rect x="1185.474" y="1322.2" class="st0" width="32.77" height="19.5"/>
			<rect x="1244.064" y="1322.2" class="st0" width="32.78" height="19.5"/>
		</g>
		<rect x="1126.684" y="1322.2" class="st1" width="32.77" height="19.5"/>
		<rect x="1185.474" y="1322.2" class="st1" width="32.77" height="19.5"/>
		<rect x="1244.064" y="1322.2" class="st1" width="32.78" height="19.5"/>
	</g>
	<g>
		<g>
			<rect x="950.094" y="1322.2" class="st0" width="32.77" height="19.5"/>
			<rect x="1008.884" y="1322.2" class="st0" width="32.77" height="19.5"/>
			<rect x="1067.474" y="1322.2" class="st0" width="32.78" height="19.5"/>
		</g>
		<rect x="950.094" y="1322.2" class="st1" width="32.77" height="19.5"/>
		<rect x="1008.884" y="1322.2" class="st1" width="32.77" height="19.5"/>
		<rect x="1067.474" y="1322.2" class="st1" width="32.78" height="19.5"/>
	</g>
	<g>
		<g>
			<rect x="773.504" y="1322.2" class="st0" width="32.77" height="19.5"/>
			<rect x="832.294" y="1322.2" class="st0" width="32.77" height="19.5"/>
			<rect x="890.884" y="1322.2" class="st0" width="32.78" height="19.5"/>
		</g>
		<rect x="773.504" y="1322.2" class="st1" width="32.77" height="19.5"/>
		<rect x="832.294" y="1322.2" class="st1" width="32.77" height="19.5"/>
		<rect x="890.884" y="1322.2" class="st1" width="32.78" height="19.5"/>
	</g>
	<g>
		<g>
			<rect x="596.914" y="1322.2" class="st0" width="32.77" height="19.5"/>
			<rect x="655.704" y="1322.2" class="st0" width="32.77" height="19.5"/>
			<rect x="714.294" y="1322.2" class="st0" width="32.78" height="19.5"/>
		</g>
		<rect x="596.914" y="1322.2" class="st1" width="32.77" height="19.5"/>
		<rect x="655.704" y="1322.2" class="st1" width="32.77" height="19.5"/>
		<rect x="714.294" y="1322.2" class="st1" width="32.78" height="19.5"/>
	</g>
	<g>
		<g>
			<rect x="420.324" y="1322.2" class="st0" width="32.77" height="19.5"/>
			<rect x="479.114" y="1322.2" class="st0" width="32.77" height="19.5"/>
			<rect x="537.704" y="1322.2" class="st0" width="32.78" height="19.5"/>
		</g>
		<rect x="420.324" y="1322.2" class="st1" width="32.77" height="19.5"/>
		<rect x="479.114" y="1322.2" class="st1" width="32.77" height="19.5"/>
		<rect x="537.704" y="1322.2" class="st1" width="32.78" height="19.5"/>
	</g>
	<g>
		<g>
			<rect x="243.734" y="1322.2" class="st0" width="32.77" height="19.5"/>
			<rect x="302.524" y="1322.2" class="st0" width="32.77" height="19.5"/>
			<rect x="361.114" y="1322.2" class="st0" width="32.78" height="19.5"/>
		</g>
		<rect x="243.734" y="1322.2" class="st1" width="32.77" height="19.5"/>
		<rect x="302.524" y="1322.2" class="st1" width="32.77" height="19.5"/>
		<rect x="361.114" y="1322.2" class="st1" width="32.78" height="19.5"/>
	</g>
	<g>
		<g>
			<path class="st0" d="M86.224,1322.2c7.14,0,14.27,0,14.27,0l-0.89,19.5c0,0-2.2,0-5.49,0s-7.68,0-12.05-0.06
				c-4.37-0.05-8.73-0.14-11.98-0.54c-1.63-0.15-2.97-0.4-3.92-0.52c-0.47-0.06-0.84-0.12-1.09-0.18c-0.25-0.04-0.38-0.07-0.38-0.07
				l7.31-18.97c0,0,0.11,0.02,0.31,0.06c0.21,0.04,0.51,0.08,0.9,0.13c0.77,0.08,1.88,0.27,3.21,0.37
				C79.084,1322.2,82.654,1322.2,86.224,1322.2z"/>
			<rect x="125.924" y="1322.2" class="st0" width="32.78" height="19.5"/>
			<rect x="184.524" y="1322.2" class="st0" width="32.78" height="19.5"/>
		</g>
		<path class="st1" d="M100.494,1322.2l-0.89,19.5c0,0-2.2,0-5.49,0s-7.68,0-12.05-0.06c-4.37-0.05-8.73-0.14-11.98-0.54
			c-1.63-0.15-2.97-0.4-3.92-0.52c-0.47-0.06-0.84-0.12-1.09-0.18c-0.25-0.04-0.38-0.07-0.38-0.07l7.31-18.97
			c0,0,0.11,0.02,0.31,0.06c0.21,0.04,0.51,0.08,0.9,0.13c0.77,0.08,1.88,0.27,3.21,0.37c2.66,0.28,6.23,0.28,9.8,0.28
			C93.364,1322.2,100.494,1322.2,100.494,1322.2z"/>
		<rect x="125.924" y="1322.2" class="st1" width="32.78" height="19.5"/>
		<rect x="184.524" y="1322.2" class="st1" width="32.78" height="19.5"/>
	</g>
	<g>
		<g>
			<rect x="0.004" y="1187.55" class="st0" width="19.5" height="32.78"/>
			<path class="st0" d="M21.114,1273.59l-18.74,8.16c0,0-0.12-0.53-0.35-1.45c-0.21-0.93-0.45-2.27-0.77-3.88
				c-0.53-3.22-1.03-7.56-1.12-11.93c-0.17-8.72-0.13-17.51-0.13-17.51l19.5-1.81c0,0,0,7.14,0,14.27c0,3.57,0.36,7.13,0.75,9.78
				c0.24,1.31,0.42,2.41,0.58,3.18C21.014,1273.16,21.114,1273.59,21.114,1273.59z"/>
			<path class="st0" d="M50.484,1313.58l-11.99,16.97c0,0-0.48-0.26-1.28-0.77c-0.79-0.53-1.96-1.24-3.3-2.18
				c-2.7-1.85-6.12-4.56-9.28-7.56c-3.17-3-6.08-6.26-8.04-8.87c-1.04-1.27-1.77-2.42-2.35-3.18c-0.56-0.77-0.85-1.23-0.85-1.23
				l16.54-12.63c0,0,0.23,0.38,0.69,1.01c0.48,0.63,1.06,1.58,1.91,2.61c1.6,2.15,3.99,4.82,6.58,7.27
				c2.59,2.45,5.39,4.67,7.61,6.17c1.1,0.77,2.06,1.34,2.71,1.77C50.094,1313.37,50.484,1313.58,50.484,1313.58z"/>
		</g>
		<rect x="0.004" y="1187.55" class="st1" width="19.5" height="32.78"/>
		<path class="st1" d="M21.114,1273.59l-18.74,8.16c0,0-0.12-0.53-0.35-1.45c-0.21-0.93-0.45-2.27-0.77-3.88
			c-0.53-3.22-1.03-7.56-1.12-11.93c-0.17-8.72-0.13-17.51-0.13-17.51l19.5-1.81c0,0,0,7.14,0,14.27c0,3.57,0.36,7.13,0.75,9.78
			c0.24,1.31,0.42,2.41,0.58,3.18C21.014,1273.16,21.114,1273.59,21.114,1273.59z"/>
		<path class="st1" d="M50.484,1313.58l-11.99,16.97c0,0-0.48-0.26-1.28-0.77c-0.79-0.53-1.96-1.24-3.3-2.18
			c-2.7-1.85-6.12-4.56-9.28-7.56c-3.17-3-6.08-6.26-8.04-8.87c-1.04-1.27-1.77-2.42-2.35-3.18c-0.56-0.77-0.85-1.23-0.85-1.23
			l16.54-12.63c0,0,0.23,0.38,0.69,1.01c0.48,0.63,1.06,1.58,1.91,2.61c1.6,2.15,3.99,4.82,6.58,7.27c2.59,2.45,5.39,4.67,7.61,6.17
			c1.1,0.77,2.06,1.34,2.71,1.77C50.094,1313.37,50.484,1313.58,50.484,1313.58z"/>
	</g>
	<g>
		<g>
			<rect x="0.004" y="1010.96" class="st0" width="19.5" height="32.78"/>
			<rect x="0.004" y="1069.75" class="st0" width="19.5" height="32.78"/>
			<rect x="0.004" y="1128.35" class="st0" width="19.5" height="32.78"/>
		</g>
		<rect x="0.004" y="1010.96" class="st1" width="19.5" height="32.78"/>
		<rect x="0.004" y="1069.75" class="st1" width="19.5" height="32.78"/>
		<rect x="0.004" y="1128.35" class="st1" width="19.5" height="32.78"/>
	</g>
	<g>
		<g>
			<rect x="0.004" y="834.37" class="st0" width="19.5" height="32.78"/>
			<rect x="0.004" y="893.16" class="st0" width="19.5" height="32.78"/>
			<rect x="0.004" y="951.76" class="st0" width="19.5" height="32.77"/>
		</g>
		<rect x="0.004" y="834.37" class="st1" width="19.5" height="32.78"/>
		<rect x="0.004" y="893.16" class="st1" width="19.5" height="32.78"/>
		<rect x="0.004" y="951.76" class="st1" width="19.5" height="32.77"/>
	</g>
	<g>
		<g>
			<rect x="0.004" y="657.78" class="st0" width="19.5" height="32.78"/>
			<rect x="0.004" y="716.57" class="st0" width="19.5" height="32.78"/>
			<rect x="0.004" y="775.17" class="st0" width="19.5" height="32.77"/>
		</g>
		<rect x="0.004" y="657.78" class="st1" width="19.5" height="32.78"/>
		<rect x="0.004" y="716.57" class="st1" width="19.5" height="32.78"/>
		<rect x="0.004" y="775.17" class="st1" width="19.5" height="32.77"/>
	</g>
	<g>
		<g>
			<rect x="0.004" y="481.19" class="st0" width="19.5" height="32.78"/>
			<rect x="0.004" y="539.98" class="st0" width="19.5" height="32.78"/>
			<rect x="0.004" y="598.58" class="st0" width="19.5" height="32.77"/>
		</g>
		<rect x="0.004" y="481.19" class="st1" width="19.5" height="32.78"/>
		<rect x="0.004" y="539.98" class="st1" width="19.5" height="32.78"/>
		<rect x="0.004" y="598.58" class="st1" width="19.5" height="32.77"/>
	</g>
	<g>
		<g>
			<rect x="0.004" y="304.6" class="st0" width="19.5" height="32.78"/>
			<rect x="0.004" y="363.39" class="st0" width="19.5" height="32.78"/>
			<rect x="0.004" y="421.99" class="st0" width="19.5" height="32.77"/>
		</g>
		<rect x="0.004" y="304.6" class="st1" width="19.5" height="32.78"/>
		<rect x="0.004" y="363.39" class="st1" width="19.5" height="32.78"/>
		<rect x="0.004" y="421.99" class="st1" width="19.5" height="32.77"/>
	</g>
	<g>
		<g>
			<rect x="0.004" y="128.01" class="st0" width="19.5" height="32.78"/>
			<rect x="0.004" y="186.8" class="st0" width="19.5" height="32.78"/>
			<rect x="0.004" y="245.4" class="st0" width="19.5" height="32.77"/>
		</g>
		<rect x="0.004" y="128.01" class="st1" width="19.5" height="32.78"/>
		<rect x="0.004" y="186.8" class="st1" width="19.5" height="32.78"/>
		<rect x="0.004" y="245.4" class="st1" width="19.5" height="32.77"/>
	</g>
	<g>
		<g>
			<path class="st0" d="M1.074,66.44l19.05,6.99c0,0-0.06,0.45-0.15,1.22c-0.12,0.77-0.21,1.88-0.31,3.22
				c-0.21,2.67-0.16,6.24-0.16,9.81c0,7.13,0,14.27,0,14.27l-19.5-0.56c0,0,0-2.2,0-5.49c0.01-3.29,0.02-7.67,0.03-12.06
				c0.03-2.18,0.07-4.37,0.09-6.41c0.1-2.05,0.11-3.96,0.31-5.58c0.14-1.63,0.27-2.99,0.43-3.93
				C1.004,66.98,1.074,66.44,1.074,66.44z"/>
			<path class="st0" d="M32.954,14.78l12.98,16.28c0,0-0.36,0.26-1,0.71c-0.63,0.46-1.49,1.17-2.55,1.99
				c-2.05,1.71-4.68,4.13-7.05,6.8c-2.39,2.65-4.49,5.56-5.92,7.81c-0.74,1.12-1.29,2.09-1.67,2.77c-0.39,0.68-0.62,1.06-0.62,1.06
				L9.934,40.59c0,0,0.27-0.47,0.75-1.3c0.48-0.82,1.16-2,2.07-3.36c1.76-2.75,4.34-6.29,7.26-9.52c2.89-3.27,6.11-6.22,8.61-8.32
				c1.29-1.01,2.35-1.87,3.11-2.44C32.514,15.1,32.954,14.78,32.954,14.78z"/>
			<path class="st0" d="M94.704,19.5c0,0-1.78,0-4.46,0c-2.67,0.02-6.24-0.05-9.81,0.04c-3.56,0.1-7.12,0.5-9.74,1.03
				c-1.32,0.21-2.4,0.5-3.16,0.67c-0.76,0.17-1.2,0.28-1.2,0.28l-8.54-18.61c0,0,0.52-0.14,1.45-0.37c0.93-0.21,2.24-0.59,3.85-0.87
				c3.2-0.69,7.54-1.25,11.89-1.45c4.35-0.19,8.73-0.18,12.02-0.21C90.294,0,92.484,0,92.484,0L94.704,19.5z"/>
		</g>
		<path class="st1" d="M94.704,19.5c0,0-1.78,0-4.46,0c-2.67,0.02-6.24-0.05-9.81,0.04c-3.56,0.1-7.12,0.5-9.74,1.03
			c-1.32,0.21-2.4,0.5-3.16,0.67c-0.76,0.17-1.2,0.28-1.2,0.28l-8.54-18.61c0,0,0.52-0.14,1.45-0.37c0.93-0.21,2.24-0.59,3.85-0.87
			c3.2-0.69,7.54-1.25,11.89-1.45c4.35-0.19,8.73-0.18,12.02-0.21C90.294,0,92.484,0,92.484,0L94.704,19.5z"/>
		<path class="st1" d="M45.934,31.06c0,0-0.36,0.26-1,0.71c-0.63,0.46-1.49,1.17-2.55,1.99c-2.05,1.71-4.68,4.13-7.05,6.8
			c-2.39,2.65-4.49,5.56-5.92,7.81c-0.74,1.12-1.29,2.09-1.67,2.77c-0.39,0.68-0.62,1.06-0.62,1.06L9.934,40.59
			c0,0,0.27-0.47,0.75-1.3c0.48-0.82,1.16-2,2.07-3.36c1.76-2.75,4.34-6.29,7.26-9.52c2.89-3.27,6.11-6.22,8.61-8.32
			c1.29-1.01,2.35-1.87,3.11-2.44c0.78-0.55,1.22-0.87,1.22-0.87L45.934,31.06z"/>
		<path class="st1" d="M20.124,73.43c0,0-0.06,0.45-0.15,1.22c-0.12,0.77-0.21,1.88-0.31,3.22c-0.21,2.67-0.16,6.24-0.16,9.81
			c0,7.13,0,14.27,0,14.27l-19.5-0.56c0,0,0-2.2,0-5.49c0.01-3.29,0.02-7.67,0.03-12.06c0.03-2.18,0.07-4.37,0.09-6.41
			c0.1-2.05,0.11-3.96,0.31-5.58c0.14-1.63,0.27-2.99,0.43-3.93c0.14-0.94,0.21-1.48,0.21-1.48L20.124,73.43z"/>
	</g>
	<g>
		<g>
			<rect x="119.694" class="st0" width="32.78" height="19.5"/>
			<rect x="178.294" class="st0" width="32.78" height="19.5"/>
			<rect x="237.084" class="st0" width="32.78" height="19.5"/>
		</g>
		<rect x="237.084" class="st1" width="32.78" height="19.5"/>
		<rect x="178.294" class="st1" width="32.78" height="19.5"/>
		<rect x="119.694" class="st1" width="32.78" height="19.5"/>
	</g>
	<g>
		<g>
			<rect x="296.284" class="st0" width="32.78" height="19.5"/>
			<rect x="354.884" class="st0" width="32.78" height="19.5"/>
			<rect x="413.674" class="st0" width="32.78" height="19.5"/>
		</g>
		<rect x="413.674" class="st1" width="32.78" height="19.5"/>
		<rect x="354.884" class="st1" width="32.78" height="19.5"/>
		<rect x="296.284" class="st1" width="32.78" height="19.5"/>
	</g>
	<g>
		<g>
			<rect x="472.874" class="st0" width="32.78" height="19.5"/>
			<rect x="531.474" class="st0" width="32.78" height="19.5"/>
			<rect x="590.264" class="st0" width="32.78" height="19.5"/>
		</g>
		<rect x="590.264" class="st1" width="32.78" height="19.5"/>
		<rect x="531.474" class="st1" width="32.78" height="19.5"/>
		<rect x="472.874" class="st1" width="32.78" height="19.5"/>
	</g>
	<g>
		<g>
			<rect x="649.464" class="st0" width="32.78" height="19.5"/>
			<rect x="708.064" class="st0" width="32.78" height="19.5"/>
			<rect x="766.854" class="st0" width="32.78" height="19.5"/>
		</g>
		<rect x="766.854" class="st1" width="32.78" height="19.5"/>
		<rect x="708.064" class="st1" width="32.78" height="19.5"/>
		<rect x="649.464" class="st1" width="32.78" height="19.5"/>
	</g>
	<g>
		<g>
			<rect x="826.054" class="st0" width="32.78" height="19.5"/>
			<rect x="884.654" class="st0" width="32.78" height="19.5"/>
			<rect x="943.444" class="st0" width="32.78" height="19.5"/>
		</g>
		<rect x="943.444" class="st1" width="32.78" height="19.5"/>
		<rect x="884.654" class="st1" width="32.78" height="19.5"/>
		<rect x="826.054" class="st1" width="32.78" height="19.5"/>
	</g>
	<g>
		<g>
			<rect x="1002.644" class="st0" width="32.78" height="19.5"/>
			<rect x="1061.244" class="st0" width="32.78" height="19.5"/>
			<rect x="1120.034" class="st0" width="32.78" height="19.5"/>
		</g>
		<rect x="1120.034" class="st1" width="32.78" height="19.5"/>
		<rect x="1061.244" class="st1" width="32.78" height="19.5"/>
		<rect x="1002.644" class="st1" width="32.78" height="19.5"/>
	</g>
	<g>
		<g>
			<rect x="1179.234" class="st0" width="32.78" height="19.5"/>
			<rect x="1237.834" class="st0" width="32.78" height="19.5"/>
			<rect x="1296.624" class="st0" width="32.78" height="19.5"/>
		</g>
		<rect x="1296.624" class="st1" width="32.78" height="19.5"/>
		<rect x="1237.834" class="st1" width="32.78" height="19.5"/>
		<rect x="1179.234" class="st1" width="32.78" height="19.5"/>
	</g>
	<g>
		<g>
			<rect x="1355.824" class="st0" width="32.78" height="19.5"/>
			<rect x="1414.424" class="st0" width="32.78" height="19.5"/>
			<rect x="1473.214" class="st0" width="32.78" height="19.5"/>
		</g>
		<rect x="1473.214" class="st1" width="32.78" height="19.5"/>
		<rect x="1414.424" class="st1" width="32.78" height="19.5"/>
		<rect x="1355.824" class="st1" width="32.78" height="19.5"/>
	</g>
	<g>
		<g>
			<rect x="1532.414" class="st0" width="32.78" height="19.5"/>
			<rect x="1591.014" class="st0" width="32.78" height="19.5"/>
			<rect x="1649.804" class="st0" width="32.78" height="19.5"/>
		</g>
		<rect x="1649.804" class="st1" width="32.78" height="19.5"/>
		<rect x="1591.014" class="st1" width="32.78" height="19.5"/>
		<rect x="1532.414" class="st1" width="32.78" height="19.5"/>
	</g>
	<g>
		<g>
			<rect x="1709.014" class="st0" width="32.77" height="19.5"/>
			<rect x="1767.604" class="st0" width="32.78" height="19.5"/>
			<rect x="1826.394" class="st0" width="32.78" height="19.5"/>
		</g>
		<rect x="1826.394" class="st1" width="32.78" height="19.5"/>
		<rect x="1767.604" class="st1" width="32.78" height="19.5"/>
		<rect x="1709.014" class="st1" width="32.77" height="19.5"/>
	</g>
	<g>
		<g>
			<rect x="1885.604" class="st0" width="32.77" height="19.5"/>
			<rect x="1944.194" class="st0" width="32.78" height="19.5"/>
			<rect x="2002.984" class="st0" width="32.78" height="19.5"/>
		</g>
		<rect x="2002.984" class="st1" width="32.78" height="19.5"/>
		<rect x="1944.194" class="st1" width="32.78" height="19.5"/>
		<rect x="1885.604" class="st1" width="32.77" height="19.5"/>
	</g>
	<g>
		<g>
			<rect x="2062.194" class="st0" width="32.771" height="19.5"/>
			<rect x="2120.784" class="st0" width="32.78" height="19.5"/>
			<rect x="2179.574" class="st0" width="32.78" height="19.5"/>
		</g>
		<rect x="2179.574" class="st1" width="32.78" height="19.5"/>
		<rect x="2120.784" class="st1" width="32.78" height="19.5"/>
		<rect x="2062.194" class="st1" width="32.771" height="19.5"/>
	</g>
	<g>
		<g>
			<rect x="2238.784" class="st0" width="32.77" height="19.5"/>
			<rect x="2297.374" class="st0" width="32.78" height="19.5"/>
			<rect x="2356.164" class="st0" width="32.78" height="19.5"/>
		</g>
		<rect x="2356.164" class="st1" width="32.78" height="19.5"/>
		<rect x="2297.374" class="st1" width="32.78" height="19.5"/>
		<rect x="2238.784" class="st1" width="32.77" height="19.5"/>
	</g>
	<g>
		<g>
			<rect x="2415.374" class="st0" width="32.77" height="19.5"/>
			<rect x="2473.964" class="st0" width="32.78" height="19.5"/>
			<rect x="2532.754" class="st0" width="32.78" height="19.5"/>
		</g>
		<rect x="2532.754" class="st1" width="32.78" height="19.5"/>
		<rect x="2473.964" class="st1" width="32.78" height="19.5"/>
		<rect x="2415.374" class="st1" width="32.77" height="19.5"/>
	</g>
	<g>
		<g>
			<rect x="2591.964" class="st0" width="32.77" height="19.5"/>
			<rect x="2650.554" class="st0" width="32.78" height="19.5"/>
			<rect x="2709.344" class="st0" width="32.78" height="19.5"/>
		</g>
		<rect x="2709.344" class="st1" width="32.78" height="19.5"/>
		<rect x="2650.554" class="st1" width="32.78" height="19.5"/>
		<rect x="2591.964" class="st1" width="32.77" height="19.5"/>
	</g>
	<g>
		<g>
			<polygon class="st0" points="2768.554,0 2801.904,0 2800.274,19.5 2768.554,19.5 			"/>
			<path class="st0" d="M2857.184,10.05c2.85,1.61,4.65,2.83,4.65,2.83l-12.48,16.64c0,0-1.48-0.99-3.82-2.29
				c-2.35-1.28-5.58-2.83-8.94-4.04c-3.34-1.24-6.83-2.06-9.45-2.57c-1.32-0.24-2.41-0.45-3.19-0.52c-0.78-0.1-1.22-0.16-1.22-0.16
				l6.69-19.11c0,0,0.54,0.08,1.49,0.21c0.95,0.11,2.28,0.39,3.89,0.7c3.19,0.66,7.43,1.73,11.51,3.29
				C2850.404,6.55,2854.324,8.47,2857.184,10.05z"/>
			<path class="st0" d="M2895.934,63.34l-18.91,7.55c0,0-0.08-0.44-0.22-1.21c-0.17-0.76-0.42-1.84-0.72-3.15
				c-0.69-2.58-1.76-5.99-3.19-9.26c-1.39-3.29-3.16-6.41-4.6-8.66c-0.36-0.56-0.69-1.08-0.99-1.53c-0.31-0.45-0.59-0.83-0.81-1.15
				c-0.46-0.64-0.71-1-0.71-1l16.12-13.2c0,0,0.31,0.45,0.87,1.22c0.28,0.39,0.61,0.86,1,1.4c0.36,0.55,0.77,1.18,1.22,1.87
				c1.77,2.74,3.95,6.53,5.69,10.53c1.78,3.98,3.15,8.13,4.03,11.28c0.38,1.59,0.7,2.91,0.93,3.84
				C2895.824,62.8,2895.934,63.34,2895.934,63.34z"/>
		</g>
		<path class="st1" d="M2895.934,63.34l-18.91,7.55c0,0-0.08-0.44-0.22-1.21c-0.17-0.76-0.42-1.84-0.72-3.15
			c-0.69-2.58-1.76-5.99-3.19-9.26c-1.39-3.29-3.16-6.41-4.6-8.66c-0.36-0.56-0.69-1.08-0.99-1.53c-0.31-0.45-0.59-0.83-0.81-1.15
			c-0.46-0.64-0.71-1-0.71-1l16.12-13.2c0,0,0.31,0.45,0.87,1.22c0.28,0.39,0.61,0.86,1,1.4c0.36,0.55,0.77,1.18,1.22,1.87
			c1.77,2.74,3.95,6.53,5.69,10.53c1.78,3.98,3.15,8.13,4.03,11.28c0.38,1.59,0.7,2.91,0.93,3.84
			C2895.824,62.8,2895.934,63.34,2895.934,63.34z"/>
		<path class="st1" d="M2861.834,12.88l-12.48,16.64c0,0-1.48-0.99-3.82-2.29c-2.35-1.28-5.58-2.83-8.94-4.04
			c-3.34-1.24-6.83-2.06-9.45-2.57c-1.32-0.24-2.41-0.45-3.19-0.52c-0.78-0.1-1.22-0.16-1.22-0.16l6.69-19.11
			c0,0,0.54,0.08,1.49,0.21c0.95,0.11,2.28,0.39,3.89,0.7c3.19,0.66,7.43,1.73,11.51,3.29c4.09,1.52,8.01,3.44,10.87,5.02
			C2860.034,11.66,2861.834,12.88,2861.834,12.88z"/>
		<polygon class="st1" points="2801.904,0 2800.274,19.5 2768.554,19.5 2768.554,0 		"/>
	</g>
</g>
</svg>