<!-- Generator: Adobe Illustrator 20.1.0, SVG Export Plug-In  -->
<svg version="1.1"
	 xmlns="http://www.w3.org/2000/svg" xmlns:xlink="http://www.w3.org/1999/xlink" xmlns:a="http://ns.adobe.com/AdobeSVGViewerExtensions/3.0/"
	 x="0px" y="0px" width="320.111px" height="250.019px" viewBox="0 0 320.111 250.019"
	 style="enable-background:new 0 0 320.111 250.019;" xml:space="preserve">
<style type="text/css">
	.st0{fill:#353535;}
</style>
<defs>
</defs>
<g>
	<path class="st0" d="M80.071,200.185c0,6.752,0.061,13.326-0.013,19.898c-0.158,14.052-9.314,25.738-22.653,29.021
		c-19.076,4.695-37.052-9.235-37.299-28.953c-0.082-6.579-0.013-13.159-0.013-19.982c-0.77-0.057-1.481-0.153-2.192-0.155
		c-4-0.015-8,0.029-12-0.019c-3.889-0.046-5.78-1.814-5.787-5.621c-0.037-20.083-0.269-40.171,0.061-60.248
		c0.314-19.116,15.353-33.673,34.487-34.062c1.495-0.03,2.991-0.004,4.776-0.004c1.223-4.845,2.438-9.65,3.649-14.455
		c4.412-17.512,8.508-35.112,13.318-52.514C61.75,13.753,79.823,0.157,99.825,0.095c40.166-0.124,80.333-0.13,120.499,0
		c21.021,0.068,39.059,14.785,44.253,35.606c5.177,20.753,10.378,41.5,15.574,62.248c0.16,0.64,0.382,1.265,0.538,1.774
		c4.061,0.382,8.109,0.358,11.97,1.197c16.169,3.512,27.262,17.251,27.378,33.945c0.137,19.666,0.044,39.333,0.025,58.999
		c-0.004,4.404-1.798,6.119-6.301,6.138c-4.48,0.019-8.959,0.004-13.691,0.004c0,6.7,0.01,13.173-0.003,19.646
		c-0.012,5.691-1.301,11.033-4.293,15.936c-6.98,11.442-20.222,16.761-33.511,13.419c-12.332-3.101-21.561-14.395-22.063-27.43
		c-0.272-7.062-0.048-14.143-0.048-21.392C186.768,200.185,133.572,200.185,80.071,200.185z M80.725,99.92
		c52.985,0,105.738,0,158.645,0c-0.208-0.969-0.358-1.78-0.556-2.579c-4.237-17.019-8.483-34.036-12.718-51.056
		c-1.093-4.395-3.443-6.275-7.947-6.276c-38.727-0.002-77.454-0.002-116.181,0c-4.374,0-6.826,1.91-7.862,6.074
		c-2.79,11.212-5.59,22.421-8.378,33.633C84.065,86.4,82.416,93.089,80.725,99.92z M245.071,149.887
		c-0.031,13.946,11.117,25.167,25.005,25.169c13.781,0.002,24.934-11.103,25.017-24.909c0.083-13.891-11.103-25.137-25.007-25.139
		C256.286,125.006,245.101,136.13,245.071,149.887z M50.253,125.008c-13.819-0.074-25.087,10.983-25.181,24.711
		c-0.096,13.971,10.965,25.254,24.837,25.338c13.887,0.083,25.147-11.091,25.185-24.993
		C75.132,136.272,64.038,125.082,50.253,125.008z"/>
</g>
</svg>